<?xml version="1.0" encoding="utf-8" standalone="no"?>
<!DOCTYPE svg PUBLIC "-//W3C//DTD SVG 1.1//EN"
  "http://www.w3.org/Graphics/SVG/1.1/DTD/svg11.dtd">
<!-- Created with matplotlib (https://matplotlib.org/) -->
<svg height="137.664pt" version="1.1" viewBox="0 0 569.664 137.664" width="569.664pt" xmlns="http://www.w3.org/2000/svg" xmlns:xlink="http://www.w3.org/1999/xlink">
 <defs>
  <style type="text/css">
*{stroke-linecap:butt;stroke-linejoin:round;}
  </style>
 </defs>
 <g id="figure_1">
  <g id="patch_1">
   <path d="M 0 137.664 
L 569.664 137.664 
L 569.664 0 
L 0 0 
z
" style="fill:#ffffff;"/>
  </g>
  <g id="axes_1">
   <g id="patch_2">
    <path d="M 39.904212 100.806879 
L 135.640159 100.806879 
L 135.640159 19.841765 
L 39.904212 19.841765 
z
" style="fill:#ffffff;"/>
   </g>
   <g id="matplotlib.axis_1">
    <g id="xtick_1">
     <g id="line2d_1">
      <path clip-path="url(#p4f5cbd5660)" d="M 44.255846 100.806879 
L 44.255846 19.841765 
" style="fill:none;stroke:#cccccc;stroke-linecap:round;stroke-width:0.8;"/>
     </g>
     <g id="line2d_2">
      <defs>
       <path d="M 0 0 
L 0 4.8 
" id="m377cfefca3" style="stroke:#262626;"/>
      </defs>
      <g>
       <use style="fill:#262626;stroke:#262626;" x="44.255846" xlink:href="#m377cfefca3" y="100.806879"/>
      </g>
     </g>
     <g id="text_1">
      <!-- $0$ -->
      <defs>
       <path d="M 42 31.640625 
C 42 37.75 41.90625 48.125 37.703125 56.109375 
C 34 63.109375 28.09375 65.59375 22.90625 65.59375 
C 18.09375 65.59375 12 63.40625 8.203125 56.203125 
C 4.203125 48.71875 3.796875 39.4375 3.796875 31.640625 
C 3.796875 25.953125 3.90625 17.28125 7 9.671875 
C 11.296875 -0.609375 19 -2 22.90625 -2 
C 27.5 -2 34.5 -0.109375 38.59375 9.375 
C 41.59375 16.28125 42 24.359375 42 31.640625 
z
M 22.90625 -0.40625 
C 16.5 -0.40625 12.703125 5.078125 11.296875 12.6875 
C 10.203125 18.5625 10.203125 27.15625 10.203125 32.75 
C 10.203125 40.4375 10.203125 46.828125 11.5 52.921875 
C 13.40625 61.390625 19 64 22.90625 64 
C 27 64 32.296875 61.296875 34.203125 53.125 
C 35.5 47.4375 35.59375 40.734375 35.59375 32.75 
C 35.59375 26.25 35.59375 18.265625 34.40625 12.375 
C 32.296875 1.484375 26.40625 -0.40625 22.90625 -0.40625 
z
" id="CMR17-48"/>
      </defs>
      <g style="fill:#262626;" transform="translate(41.927047 115.195162)scale(0.088 -0.088)">
       <use transform="scale(0.996264)" xlink:href="#CMR17-48"/>
      </g>
     </g>
    </g>
    <g id="xtick_2">
     <g id="line2d_3">
      <path clip-path="url(#p4f5cbd5660)" d="M 88.211745 100.806879 
L 88.211745 19.841765 
" style="fill:none;stroke:#cccccc;stroke-linecap:round;stroke-width:0.8;"/>
     </g>
     <g id="line2d_4">
      <g>
       <use style="fill:#262626;stroke:#262626;" x="88.211745" xlink:href="#m377cfefca3" y="100.806879"/>
      </g>
     </g>
     <g id="text_2">
      <!-- $50$ -->
      <defs>
       <path d="M 11.40625 57.6875 
C 12.40625 57.28125 16.5 56 20.703125 56 
C 30 56 35.09375 61.109375 38 64.0625 
C 38 64.953125 38 65.5 37.40625 65.5 
C 37.296875 65.5 37.09375 65.5 36.296875 65.046875 
C 32.796875 63.40625 28.703125 62.078125 23.703125 62.078125 
C 20.703125 62.078125 16.203125 62.484375 11.296875 64.671875 
C 10.203125 65.171875 10 65.171875 9.90625 65.171875 
C 9.40625 65.171875 9.296875 65.0625 9.296875 63.078125 
L 9.296875 34.421875 
C 9.296875 32.640625 9.296875 32.140625 10.296875 32.140625 
C 10.796875 32.140625 11 32.34375 11.5 33.03125 
C 14.703125 37.515625 19.09375 39.40625 24.09375 39.40625 
C 27.59375 39.40625 35.09375 37.21875 35.09375 20.140625 
C 35.09375 16.953125 35.09375 11.171875 32.09375 6.578125 
C 29.59375 2.484375 25.703125 0.390625 21.40625 0.390625 
C 14.796875 0.390625 8.09375 5 6.296875 12.71875 
C 6.703125 12.609375 7.5 12.421875 7.90625 12.421875 
C 9.203125 12.421875 11.703125 13.125 11.703125 16.21875 
C 11.703125 18.90625 9.796875 20 7.90625 20 
C 5.59375 20 4.09375 18.59375 4.09375 15.796875 
C 4.09375 7.09375 11 -2 21.59375 -2 
C 31.90625 -2 41.703125 6.875 41.703125 19.75 
C 41.703125 31.71875 33.90625 41 24.203125 41 
C 19.09375 41 14.796875 39.109375 11.40625 35.53125 
z
" id="CMR17-53"/>
      </defs>
      <g style="fill:#262626;" transform="translate(83.554147 115.195162)scale(0.088 -0.088)">
       <use transform="scale(0.996264)" xlink:href="#CMR17-53"/>
       <use transform="translate(45.690477 0)scale(0.996264)" xlink:href="#CMR17-48"/>
      </g>
     </g>
    </g>
    <g id="xtick_3">
     <g id="line2d_5">
      <path clip-path="url(#p4f5cbd5660)" d="M 132.167643 100.806879 
L 132.167643 19.841765 
" style="fill:none;stroke:#cccccc;stroke-linecap:round;stroke-width:0.8;"/>
     </g>
     <g id="line2d_6">
      <g>
       <use style="fill:#262626;stroke:#262626;" x="132.167643" xlink:href="#m377cfefca3" y="100.806879"/>
      </g>
     </g>
     <g id="text_3">
      <!-- $100$ -->
      <defs>
       <path d="M 26.59375 63.40625 
C 26.59375 65.5 26.5 65.5 25.09375 65.5 
C 21.203125 61.1875 15.296875 59.796875 9.703125 59.796875 
C 9.40625 59.796875 8.90625 59.796875 8.796875 59.5 
C 8.703125 59.296875 8.703125 59.09375 8.703125 57 
C 11.796875 57 17 57.59375 21 59.984375 
L 21 7.203125 
C 21 3.6875 20.796875 2.5 12.203125 2.5 
L 9.203125 2.5 
L 9.203125 0 
C 14 0 19 0 23.796875 0 
C 28.59375 0 33.59375 0 38.40625 0 
L 38.40625 2.5 
L 35.40625 2.5 
C 26.796875 2.5 26.59375 3.59375 26.59375 7.15625 
z
" id="CMR17-49"/>
      </defs>
      <g style="fill:#262626;" transform="translate(125.181246 115.195162)scale(0.088 -0.088)">
       <use transform="scale(0.996264)" xlink:href="#CMR17-49"/>
       <use transform="translate(45.690477 0)scale(0.996264)" xlink:href="#CMR17-48"/>
       <use transform="translate(91.380954 0)scale(0.996264)" xlink:href="#CMR17-48"/>
      </g>
     </g>
    </g>
    <g id="text_4">
     <!-- Time (ms) -->
     <defs>
      <path d="M 36.203125 62 
L 44.5 62 
C 45.703125 62 46.90625 62 48.09375 62 
L 60.59375 62 
L 60.59375 68.375 
L 3.40625 68.375 
L 3.40625 62 
L 15.90625 62 
C 17.09375 62 18.296875 62 19.5 62 
L 27.796875 62 
L 27.796875 -0.5 
L 36.203125 -0.5 
z
" id="CMSS17-84"/>
      <path d="M 15.296875 65.359375 
L 6.90625 65.359375 
L 6.90625 57 
L 15.296875 57 
z
M 14.796875 42.796875 
L 7.40625 42.796875 
L 7.40625 0 
L 14.796875 0 
z
" id="CMSS17-105"/>
      <path d="M 67 29.328125 
C 67 36.0625 65.296875 44 54.09375 44 
C 46.59375 44 42.09375 39.3125 40.09375 36.421875 
C 38.296875 41.71875 34.09375 44 28.09375 44 
C 21.296875 44 17 40.125 14.703125 37.328125 
L 14.703125 43.09375 
L 7.40625 43.09375 
L 7.40625 0 
L 15 0 
L 15 24.359375 
C 15 30.296875 17.203125 37.9375 24.296875 37.9375 
C 33.40625 37.9375 33.40625 31.5 33.40625 28.578125 
L 33.40625 0 
L 41 0 
L 41 24.359375 
C 41 30.296875 43.203125 37.9375 50.296875 37.9375 
C 59.40625 37.9375 59.40625 31.5 59.40625 28.578125 
L 59.40625 0 
L 67 0 
z
" id="CMSS17-109"/>
      <path d="M 39.09375 21.515625 
C 39.09375 24.84375 38.90625 31.296875 35.703125 36.640625 
C 32.203125 42.390625 26.5 44 22.203125 44 
C 11.796875 44 3 34.1875 3 21.484375 
C 3 9.09375 12.09375 -1 23.59375 -1 
C 28.09375 -1 33.59375 0.296875 38.59375 3.875 
C 38.59375 4.28125 38.40625 6.46875 38.296875 6.5625 
C 38.296875 6.765625 38 9.84375 38 10.25 
C 33.203125 6.359375 27.703125 5.078125 23.703125 5.078125 
C 17.296875 5.078125 10.40625 10.421875 10.09375 21.515625 
z
M 10.90625 27 
C 12.203125 32.5625 16.59375 37.828125 22.203125 37.828125 
C 23.703125 37.828125 30.703125 37.828125 32.5 27 
z
" id="CMSS17-101"/>
      <path d="M 25.203125 74.5 
C 19.796875 69.015625 7.40625 56.265625 7.40625 24.8125 
C 7.40625 -6.765625 19.796875 -19.421875 25.203125 -25 
L 31.296875 -25 
C 19 -12.25 15 5.578125 15 24.703125 
C 15 43.71875 18.796875 61.65625 31.296875 74.5 
z
" id="CMSS17-40"/>
      <path d="M 32.203125 41.046875 
C 26.296875 43.859375 21.703125 43.859375 18.703125 43.859375 
C 11.59375 43.859375 3.09375 41.375 3.09375 31.296875 
C 3.09375 21.234375 14.09375 19.03125 17.09375 18.421875 
C 21.703125 17.53125 26.796875 16.53125 26.796875 11.5625 
C 26.796875 5.265625 19.59375 5.265625 18.296875 5.265625 
C 14.296875 5.265625 8.796875 6.359375 3.796875 9.96875 
L 2.59375 3.28125 
C 8.296875 0 13.796875 -1 18.40625 -1 
C 30.703125 -1 33.796875 6.5 33.796875 12.203125 
C 33.796875 17.09375 31 20.390625 29.09375 21.890625 
C 25.796875 24.5 24.59375 24.796875 16.40625 26.5 
C 15 26.703125 10.09375 27.796875 10.09375 32.28125 
C 10.09375 38 16.40625 38 17.796875 38 
C 24.296875 38 28.296875 35.984375 31 34.5 
z
" id="CMSS17-115"/>
      <path d="M 11.296875 -25 
C 16.703125 -19.515625 29.09375 -6.765625 29.09375 24.703125 
C 29.09375 56.265625 16.703125 68.921875 11.296875 74.5 
L 5.203125 74.5 
C 17.5 61.75 21.5 43.921875 21.5 24.8125 
C 21.5 5.78125 17.703125 -12.15625 5.203125 -25 
z
" id="CMSS17-41"/>
     </defs>
     <g style="fill:#262626;" transform="translate(65.903988 128.072972)scale(0.096 -0.096)">
      <use transform="scale(0.996264)" xlink:href="#CMSS17-84"/>
      <use transform="translate(63.819454 0)scale(0.996264)" xlink:href="#CMSS17-105"/>
      <use transform="translate(86.000177 0)scale(0.996264)" xlink:href="#CMSS17-109"/>
      <use transform="translate(160.229431 0)scale(0.996264)" xlink:href="#CMSS17-101"/>
      <use transform="translate(233.097366 0)scale(0.996264)" xlink:href="#CMSS17-40"/>
      <use transform="translate(269.53128 0)scale(0.996264)" xlink:href="#CMSS17-109"/>
      <use transform="translate(343.760535 0)scale(0.996264)" xlink:href="#CMSS17-115"/>
      <use transform="translate(379.674077 0)scale(0.996264)" xlink:href="#CMSS17-41"/>
     </g>
    </g>
   </g>
   <g id="matplotlib.axis_2">
    <g id="ytick_1">
     <g id="line2d_7">
      <path clip-path="url(#p4f5cbd5660)" d="M 39.904212 100.806879 
L 135.640159 100.806879 
" style="fill:none;stroke:#cccccc;stroke-linecap:round;stroke-width:0.8;"/>
     </g>
     <g id="line2d_8">
      <defs>
       <path d="M 0 0 
L -4.8 0 
" id="m95fdf5ace0" style="stroke:#262626;"/>
      </defs>
      <g>
       <use style="fill:#262626;stroke:#262626;" x="39.904212" xlink:href="#m95fdf5ace0" y="100.806879"/>
      </g>
     </g>
     <g id="text_5">
      <!-- $0.0$ -->
      <defs>
       <path d="M 18.40625 4.796875 
C 18.40625 7.6875 16 9.671875 13.59375 9.671875 
C 10.703125 9.671875 8.703125 7.28125 8.703125 4.890625 
C 8.703125 2 11.09375 0 13.5 0 
C 16.40625 0 18.40625 2.390625 18.40625 4.796875 
z
" id="CMMI12-58"/>
      </defs>
      <g style="fill:#262626;" transform="translate(19.70146 103.85102)scale(0.088 -0.088)">
       <use transform="scale(0.996264)" xlink:href="#CMR17-48"/>
       <use transform="translate(45.690477 0)scale(0.996264)" xlink:href="#CMMI12-58"/>
       <use transform="translate(72.787654 0)scale(0.996264)" xlink:href="#CMR17-48"/>
      </g>
     </g>
    </g>
    <g id="ytick_2">
     <g id="line2d_9">
      <path clip-path="url(#p4f5cbd5660)" d="M 39.904212 64.004554 
L 135.640159 64.004554 
" style="fill:none;stroke:#cccccc;stroke-linecap:round;stroke-width:0.8;"/>
     </g>
     <g id="line2d_10">
      <g>
       <use style="fill:#262626;stroke:#262626;" x="39.904212" xlink:href="#m95fdf5ace0" y="64.004554"/>
      </g>
     </g>
     <g id="text_6">
      <!-- $0.5$ -->
      <g style="fill:#262626;" transform="translate(19.70146 67.048696)scale(0.088 -0.088)">
       <use transform="scale(0.996264)" xlink:href="#CMR17-48"/>
       <use transform="translate(45.690477 0)scale(0.996264)" xlink:href="#CMMI12-58"/>
       <use transform="translate(72.787654 0)scale(0.996264)" xlink:href="#CMR17-53"/>
      </g>
     </g>
    </g>
    <g id="ytick_3">
     <g id="line2d_11">
      <path clip-path="url(#p4f5cbd5660)" d="M 39.904212 27.20223 
L 135.640159 27.20223 
" style="fill:none;stroke:#cccccc;stroke-linecap:round;stroke-width:0.8;"/>
     </g>
     <g id="line2d_12">
      <g>
       <use style="fill:#262626;stroke:#262626;" x="39.904212" xlink:href="#m95fdf5ace0" y="27.20223"/>
      </g>
     </g>
     <g id="text_7">
      <!-- $1.0$ -->
      <g style="fill:#262626;" transform="translate(19.70146 30.246372)scale(0.088 -0.088)">
       <use transform="scale(0.996264)" xlink:href="#CMR17-49"/>
       <use transform="translate(45.690477 0)scale(0.996264)" xlink:href="#CMMI12-58"/>
       <use transform="translate(72.787654 0)scale(0.996264)" xlink:href="#CMR17-48"/>
      </g>
     </g>
    </g>
    <g id="text_8">
     <!-- CDF -->
     <defs>
      <path d="M 54.703125 11.15625 
C 48 6.671875 44.90625 5.375 36.796875 5.375 
C 22.796875 5.375 14.59375 20.359375 14.59375 34.046875 
C 14.59375 48.625 23 63 37.203125 63 
C 43.59375 63 47.796875 61.21875 52.90625 58.046875 
L 54.296875 65.890625 
C 49.5 68.28125 43.40625 69.375 37.296875 69.375 
C 18.09375 69.375 6.203125 51.8125 6.203125 34.046875 
C 6.203125 14.484375 20.296875 -1 36.296875 -1 
C 44.90625 -1 47.90625 -0.296875 55.296875 4.375 
z
" id="CMSS17-67"/>
      <path d="M 8.90625 69 
L 8.90625 0 
L 33.5 0 
C 49.90625 0 62.5 15.3125 62.5 33.90625 
C 62.5 53.09375 49.90625 69 33.5 69 
z
M 17.09375 5.578125 
L 17.09375 63.421875 
L 31.296875 63.421875 
C 44.703125 63.421875 54.296875 51.203125 54.296875 33.90625 
C 54.296875 17.296875 44.796875 5.578125 31.296875 5.578125 
z
" id="CMSS17-68"/>
      <path d="M 45.59375 31 
L 45.59375 37.078125 
L 17.203125 37.078125 
L 17.203125 62 
L 29.40625 62 
C 30.59375 62 31.796875 62 33 62 
L 49.5 62 
L 49.5 68.359375 
L 8.796875 68.359375 
L 8.796875 -0.5 
L 17.203125 -0.5 
L 17.203125 31 
z
" id="CMSS17-70"/>
     </defs>
     <g style="fill:#262626;" transform="translate(13.841765 69.833044)rotate(-90)scale(0.096 -0.096)">
      <use transform="scale(0.996264)" xlink:href="#CMSS17-67"/>
      <use transform="translate(59.855772 0)scale(0.996264)" xlink:href="#CMSS17-68"/>
      <use transform="translate(127.398613 0)scale(0.996264)" xlink:href="#CMSS17-70"/>
     </g>
    </g>
   </g>
   <g id="line2d_13">
    <path clip-path="url(#p4f5cbd5660)" d="M 44.255846 100.806879 
L 47.256973 100.806879 
L 50.2581 94.820367 
L 53.259227 38.782695 
L 56.260354 34.44002 
L 59.261481 33.5813 
L 62.262607 32.084672 
L 65.263734 30.882462 
L 68.264861 29.950137 
L 71.265988 28.919672 
L 74.267115 28.330835 
L 77.268242 27.913742 
L 80.269369 27.791067 
L 83.270495 27.643858 
L 86.271622 27.447579 
L 89.272749 27.423044 
L 92.273876 27.349439 
L 95.275003 27.349439 
L 98.27613 27.275835 
L 101.277257 27.275835 
L 104.278383 27.275835 
L 107.27951 27.275835 
L 110.280637 27.275835 
L 113.281764 27.275835 
L 116.282891 27.275835 
L 119.284018 27.2513 
L 122.285145 27.2513 
L 125.286271 27.226765 
L 128.287398 27.226765 
L 131.288525 27.226765 
" style="fill:none;stroke:#1f78b4;stroke-linecap:round;stroke-width:1.2;"/>
   </g>
   <g id="line2d_14">
    <path clip-path="url(#p4f5cbd5660)" d="M 44.255846 100.806879 
L 46.590056 100.806879 
L 48.924266 100.806879 
L 51.258476 45.750601 
L 53.592685 35.053393 
L 55.926895 32.37909 
L 58.261105 31.716648 
L 60.595315 31.225951 
L 62.929525 30.538974 
L 65.263734 29.876532 
L 67.597944 29.336765 
L 69.932154 28.772462 
L 72.266364 28.428974 
L 74.600573 28.3063 
L 76.934783 27.962811 
L 79.268993 27.741997 
L 81.603203 27.619323 
L 83.937412 27.521183 
L 86.271622 27.373974 
L 88.605832 27.373974 
L 90.940042 27.349439 
L 93.274252 27.300369 
L 95.608461 27.275835 
L 97.942671 27.275835 
L 100.276881 27.2513 
L 102.611091 27.2513 
L 104.9453 27.2513 
L 107.27951 27.226765 
L 109.61372 27.226765 
L 111.94793 27.226765 
" style="fill:none;stroke:#33a02c;stroke-dasharray:4.8,1.8;stroke-dashoffset:0;stroke-width:1.2;"/>
   </g>
   <g id="line2d_15">
    <path clip-path="url(#p4f5cbd5660)" d="M 44.255846 100.806879 
L 45.892825 100.806879 
L 47.529803 100.806879 
L 49.166781 99.751879 
L 50.803759 49.406299 
L 52.440738 43.027229 
L 54.077716 40.328392 
L 55.714694 38.512811 
L 57.351673 37.286067 
L 58.988651 36.69723 
L 60.625629 36.181997 
L 62.262607 35.568625 
L 63.899586 34.243741 
L 65.536564 33.311416 
L 67.173542 32.231881 
L 68.810521 31.37316 
L 70.447499 30.906997 
L 72.084477 30.048276 
L 73.721455 29.287695 
L 75.358434 28.796997 
L 76.995412 28.35537 
L 78.63239 27.987346 
L 80.269369 27.791067 
L 81.906347 27.692928 
L 83.543325 27.496649 
L 85.180303 27.373974 
L 86.817282 27.300369 
L 88.45426 27.226765 
L 90.091238 27.226765 
L 91.728217 27.226765 
" style="fill:none;stroke:#e31a1c;stroke-dasharray:1.2,1.2;stroke-dashoffset:0;stroke-width:1.2;"/>
   </g>
   <g id="line2d_16">
    <path clip-path="url(#p4f5cbd5660)" d="M 44.255846 100.806879 
L 46.165654 100.806879 
L 48.075462 100.806879 
L 49.98527 75.658624 
L 51.895078 41.481532 
L 53.804886 32.501765 
L 55.714694 30.489904 
L 57.624502 30.097346 
L 59.53431 29.802928 
L 61.444118 29.31223 
L 63.353926 28.772462 
L 65.263734 28.576183 
L 67.173542 28.281765 
L 69.08335 27.889207 
L 70.993158 27.766532 
L 72.902966 27.668393 
L 74.812774 27.545718 
L 76.722582 27.496649 
L 78.63239 27.472114 
L 80.542198 27.423044 
L 82.452006 27.373974 
L 84.361814 27.349439 
L 86.271622 27.275835 
L 88.18143 27.275835 
L 90.091238 27.2513 
L 92.001046 27.2513 
L 93.910854 27.2513 
L 95.820662 27.2513 
L 97.73047 27.226765 
L 99.640278 27.226765 
" style="fill:none;stroke:#ff7f00;stroke-dasharray:3.6,1.2,1.8,1.2;stroke-dashoffset:0;stroke-width:1.2;"/>
   </g>
   <g id="line2d_17">
    <path clip-path="url(#p4f5cbd5660)" d="M 44.255846 100.806879 
L 46.438484 100.806879 
L 48.621122 100.806879 
L 50.803759 99.653739 
L 52.986397 40.426532 
L 55.169035 34.415486 
L 57.351673 33.016997 
L 59.53431 32.37909 
L 61.716948 31.716648 
L 63.899586 31.201416 
L 66.082223 30.31816 
L 68.264861 29.925602 
L 70.447499 29.606649 
L 72.630137 29.410369 
L 74.812774 29.140486 
L 76.995412 29.066881 
L 79.17805 28.944207 
L 81.360687 28.870602 
L 83.543325 28.796997 
L 85.725963 28.747928 
L 87.908601 28.723393 
L 90.091238 28.674323 
L 92.273876 28.674323 
L 94.456514 28.649788 
L 96.639151 28.649788 
L 98.821789 28.649788 
L 101.004427 28.649788 
L 103.187065 28.649788 
L 105.369702 28.649788 
L 107.55234 28.649788 
" style="fill:none;stroke:#6a3d9a;stroke-dasharray:6,1.2,1.2,1.2;stroke-dashoffset:0;stroke-width:1.2;"/>
   </g>
   <g id="patch_3">
    <path d="M 39.904212 100.806879 
L 39.904212 19.841765 
" style="fill:none;stroke:#262626;stroke-linecap:square;stroke-linejoin:miter;"/>
   </g>
   <g id="patch_4">
    <path d="M 135.640159 100.806879 
L 135.640159 19.841765 
" style="fill:none;stroke:#262626;stroke-linecap:square;stroke-linejoin:miter;"/>
   </g>
   <g id="patch_5">
    <path d="M 39.904212 100.806879 
L 135.640159 100.806879 
" style="fill:none;stroke:#262626;stroke-linecap:square;stroke-linejoin:miter;"/>
   </g>
   <g id="patch_6">
    <path d="M 39.904212 19.841765 
L 135.640159 19.841765 
" style="fill:none;stroke:#262626;stroke-linecap:square;stroke-linejoin:miter;"/>
   </g>
   <g id="text_9">
    <!-- $\lambda =1$ -->
    <defs>
     <path d="M 30.90625 61.953125 
C 28.40625 69 20.5 69 19.203125 69 
C 18.59375 69 17.5 69 17.5 68 
C 17.5 67.21875 18.09375 67.109375 18.59375 67.015625 
C 20.09375 66.8125 21.296875 66.609375 22.90625 63.75 
C 23.90625 61.859375 34.203125 32.171875 34.203125 31.96875 
C 34.203125 31.875 34.09375 31.765625 33.296875 30.96875 
L 7.296875 4.859375 
C 6.09375 3.65625 5.296875 2.859375 5.296875 1.59375 
C 5.296875 0.1875 6.5 -1 8.09375 -1 
C 8.5 -1 9.59375 -0.796875 10.203125 -0.203125 
C 11.796875 1.28125 26.09375 18.65625 35.203125 29.390625 
C 37.796875 21.609375 41 12.453125 44.09375 4.078125 
C 44.59375 2.59375 45.09375 1.1875 46.5 -0.09375 
C 47.5 -1 47.703125 -1 50.5 -1 
L 52.40625 -1 
C 52.796875 -1 53.5 -1 53.5 -0.203125 
C 53.5 0.203125 53.40625 0.296875 53 0.703125 
C 52.09375 1.796875 51.40625 3.578125 51 4.78125 
z
" id="CMMI12-21"/>
     <path d="M 64.296875 31.515625 
C 65.796875 31.515625 67.296875 31.515625 67.296875 33.203125 
C 67.296875 35 65.59375 35 63.90625 35 
L 8 35 
C 6.296875 35 4.59375 35 4.59375 33.203125 
C 4.59375 31.515625 6.09375 31.515625 7.59375 31.515625 
z
M 63.90625 14 
C 65.59375 14 67.296875 14 67.296875 15.796875 
C 67.296875 17.484375 65.796875 17.484375 64.296875 17.484375 
L 7.59375 17.484375 
C 6.09375 17.484375 4.59375 17.484375 4.59375 15.796875 
C 4.59375 14 6.296875 14 8 14 
z
" id="CMR17-61"/>
    </defs>
    <g style="fill:#262626;" transform="translate(75.8946 13.841765)scale(0.096 -0.096)">
     <use transform="scale(0.996264)" xlink:href="#CMMI12-21"/>
     <use transform="translate(84.578081 0)scale(0.996264)" xlink:href="#CMR17-61"/>
     <use transform="translate(183.966878 0)scale(0.996264)" xlink:href="#CMR17-49"/>
    </g>
   </g>
   <g id="legend_1">
    <g id="patch_7">
     <path d="M 76.83638 97.306879 
L 130.740159 97.306879 
Q 132.140159 97.306879 132.140159 95.906879 
L 132.140159 47.826808 
Q 132.140159 46.426808 130.740159 46.426808 
L 76.83638 46.426808 
Q 75.43638 46.426808 75.43638 47.826808 
L 75.43638 95.906879 
Q 75.43638 97.306879 76.83638 97.306879 
z
" style="fill:#ffffff;opacity:0.8;stroke:#cccccc;stroke-linejoin:miter;stroke-width:0.8;"/>
    </g>
    <g id="line2d_18">
     <path d="M 78.23638 51.676808 
L 92.23638 51.676808 
" style="fill:none;stroke:#1f78b4;stroke-linecap:round;stroke-width:1.2;"/>
    </g>
    <g id="line2d_19"/>
    <g id="text_10">
     <!-- Classifier -->
     <defs>
      <path d="M 14.796875 69 
L 7.40625 69 
L 7.40625 0 
L 14.796875 0 
z
" id="CMSS17-108"/>
      <path d="M 37.59375 27.984375 
C 37.59375 37.375 30.90625 43.875 21.90625 43.875 
C 17.5 43.875 12.703125 43.078125 7.203125 39.890625 
L 7.796875 33.359375 
C 10.296875 35.125 14.59375 38 21.796875 38 
C 26.90625 38 30 34.0625 30 27.84375 
L 30 24 
C 14 24 4 19.34375 4 11.34375 
C 4 7.203125 6.5 -1 14.796875 -1 
C 16.296875 -1 24.40625 -1 30.203125 3.390625 
L 30.203125 -0.296875 
L 37.59375 -0.296875 
z
M 30 12.75 
C 30 10.953125 30 8.5625 27 6.78125 
C 24.40625 5.078125 21.09375 5.078125 19.703125 5.078125 
C 14.703125 5.078125 11.296875 7.984375 11.296875 11.625 
C 11.296875 18.921875 26.90625 18.921875 30 18.921875 
z
" id="CMSS17-97"/>
      <path d="M 43 69 
L 35 69 
L 35 61.03125 
L 43 61.03125 
z
M 42.703125 42.765625 
L 35.296875 42.765625 
L 35.296875 0 
L 42.703125 0 
z
M 16.796875 37 
L 27.703125 37 
L 27.703125 42.765625 
L 16.59375 42.765625 
L 16.59375 55.90625 
C 16.59375 61.234375 19 63.9375 22.203125 63.9375 
C 24.09375 63.9375 26 63.375 27.703125 62.375 
L 27.703125 68.90625 
C 26.90625 69.1875 24.59375 70 22.203125 70 
C 14.703125 70 9.40625 62.390625 9.40625 52.6875 
L 9.40625 42.765625 
L 2.5 42.765625 
L 2.5 37 
L 9.40625 37 
L 9.40625 0 
L 16.796875 0 
z
" id="CMSS17-12"/>
      <path d="M 14.90625 21.296875 
C 14.90625 30.703125 21.796875 37 30.59375 37 
L 30.59375 43.578125 
C 24.203125 43.578125 18.203125 40.390625 14.59375 35.203125 
L 14.59375 43.09375 
L 7.5 43.09375 
L 7.5 0 
L 14.90625 0 
z
" id="CMSS17-114"/>
     </defs>
     <g style="fill:#262626;" transform="translate(97.83638 54.126808)scale(0.07 -0.07)">
      <use transform="scale(0.996264)" xlink:href="#CMSS17-67"/>
      <use transform="translate(59.855772 0)scale(0.996264)" xlink:href="#CMSS17-108"/>
      <use transform="translate(82.036495 0)scale(0.996264)" xlink:href="#CMSS17-97"/>
      <use transform="translate(126.958415 0)scale(0.996264)" xlink:href="#CMSS17-115"/>
      <use transform="translate(162.871957 0)scale(0.996264)" xlink:href="#CMSS17-115"/>
      <use transform="translate(198.785499 0)scale(0.996264)" xlink:href="#CMSS17-105"/>
      <use transform="translate(220.966222 0)scale(0.996264)" xlink:href="#CMSS17-12"/>
      <use transform="translate(271.09296 0)scale(0.996264)" xlink:href="#CMSS17-101"/>
      <use transform="translate(312.731782 0)scale(0.996264)" xlink:href="#CMSS17-114"/>
     </g>
    </g>
    <g id="line2d_20">
     <path d="M 78.23638 61.432822 
L 92.23638 61.432822 
" style="fill:none;stroke:#33a02c;stroke-dasharray:4.8,1.8;stroke-dashoffset:0;stroke-width:1.2;"/>
    </g>
    <g id="line2d_21"/>
    <g id="text_11">
     <!-- Dropper -->
     <defs>
      <path d="M 44.203125 21.1875 
C 44.203125 34 34.703125 44 23.5 44 
C 12 44 2.703125 33.703125 2.703125 21.1875 
C 2.703125 8.5 12.296875 -1 23.40625 -1 
C 34.796875 -1 44.203125 8.796875 44.203125 21.1875 
z
M 23.5 5.265625 
C 16.40625 5.265625 10.296875 11.078125 10.296875 22 
C 10.296875 33.609375 17.40625 37.921875 23.40625 37.921875 
C 29.90625 37.921875 36.59375 33.21875 36.59375 22 
C 36.59375 10.671875 30.09375 5.265625 23.5 5.265625 
z
" id="CMSS17-111"/>
      <path d="M 15.09375 5.203125 
C 18.40625 2.015625 22.90625 -0.078125 27.703125 -0.078125 
C 37 -0.078125 45 9.421875 45 22.0625 
C 45 33.734375 39 44 30.40625 44 
C 25.40625 44 19.40625 42.21875 14.90625 38.625 
L 14.90625 43.203125 
L 7.5 43.203125 
L 7.5 -19 
L 15.09375 -19 
z
M 15.09375 32.8125 
C 15.90625 34 19.296875 37.734375 24.796875 37.734375 
C 31.796875 37.734375 37.40625 30.625 37.40625 22.0625 
C 37.40625 12.296875 30.59375 6 23.90625 6 
C 21.90625 6 19.796875 6.484375 17.796875 8.171875 
C 15.09375 10.53125 15.09375 12 15.09375 13.390625 
z
" id="CMSS17-112"/>
     </defs>
     <g style="fill:#262626;" transform="translate(97.83638 63.882822)scale(0.07 -0.07)">
      <use transform="scale(0.996264)" xlink:href="#CMSS17-68"/>
      <use transform="translate(67.542842 0)scale(0.996264)" xlink:href="#CMSS17-114"/>
      <use transform="translate(99.452614 0)scale(0.996264)" xlink:href="#CMSS17-111"/>
      <use transform="translate(146.296238 0)scale(0.996264)" xlink:href="#CMSS17-112"/>
      <use transform="translate(194.501181 0)scale(0.996264)" xlink:href="#CMSS17-112"/>
      <use transform="translate(245.308563 0)scale(0.996264)" xlink:href="#CMSS17-101"/>
      <use transform="translate(286.947385 0)scale(0.996264)" xlink:href="#CMSS17-114"/>
     </g>
    </g>
    <g id="line2d_22">
     <path d="M 78.23638 71.188836 
L 92.23638 71.188836 
" style="fill:none;stroke:#e31a1c;stroke-dasharray:1.2,1.2;stroke-dashoffset:0;stroke-width:1.2;"/>
    </g>
    <g id="line2d_23"/>
    <g id="text_12">
     <!-- Redirector -->
     <defs>
      <path d="M 39.40625 32.953125 
L 39.59375 33.046875 
C 55.203125 38.421875 55.296875 49.171875 55.296875 51.0625 
C 55.296875 60.515625 45.703125 69.578125 31.296875 69.578125 
L 8.90625 69.578125 
L 8.90625 0.5 
L 17.09375 0.5 
L 17.09375 32 
L 31.796875 32 
L 49.5 0.5 
L 57.90625 0.5 
z
M 17.09375 38.078125 
L 17.09375 64 
L 30.203125 64 
C 42.90625 64 47.40625 56.828125 47.40625 51.046875 
C 47.40625 45.65625 43.40625 38.078125 30.203125 38.078125 
z
" id="CMSS17-82"/>
      <path d="M 40.796875 69 
L 33.40625 69 
L 33.40625 38.09375 
C 30.296875 40.671875 25.203125 43.0625 19.59375 43.0625 
C 10.5 43.0625 3.296875 33.296875 3.296875 21.046875 
C 3.296875 8.78125 10.40625 -1 19.296875 -1 
C 26.203125 -1 30.796875 2.6875 33.203125 4.78125 
L 33.203125 -0.203125 
L 40.796875 -0.203125 
z
M 33.203125 13.0625 
C 33.203125 11.671875 33.203125 10.203125 30.09375 7.53125 
C 28.09375 5.859375 25.703125 5.078125 23.40625 5.078125 
C 18 5.078125 10.90625 9 10.90625 20.9375 
C 10.90625 33.34375 18.90625 37 24.40625 37 
C 28.09375 37 31.09375 35.21875 33.203125 32.265625 
z
" id="CMSS17-100"/>
      <path d="M 38.5 39.703125 
C 38.5 40.390625 33.90625 42.40625 32.703125 42.796875 
C 29.40625 44 25.203125 44 24.09375 44 
C 11.09375 44 3.296875 32.703125 3.296875 21.296875 
C 3.296875 9.296875 12 -1 23.703125 -1 
C 30.40625 -1 35.203125 1.1875 39.09375 3.78125 
L 38.5 10.375 
C 34.203125 7.078125 29.203125 5.265625 23.796875 5.265625 
C 16 5.265625 10.90625 12.09375 10.90625 21.390625 
C 10.90625 28.609375 14.203125 37.71875 24.203125 37.71875 
C 29.703125 37.71875 32.796875 36.609375 37.40625 33.515625 
z
" id="CMSS17-99"/>
      <path d="M 16.703125 37 
L 29.703125 37 
L 29.703125 42.765625 
L 16.703125 42.765625 
L 16.703125 55 
L 9.59375 55 
L 9.59375 42.765625 
L 1.703125 42.765625 
L 1.703125 37 
L 9.40625 37 
L 9.40625 11.703125 
C 9.40625 6 10.703125 -1 17.296875 -1 
C 22.296875 -1 26.90625 0.390625 31.296875 2.6875 
L 29.703125 8.5625 
C 27.296875 6.46875 24.40625 5.265625 21.296875 5.265625 
C 16.90625 5.265625 16.703125 10.875 16.703125 13.375 
z
" id="CMSS17-116"/>
     </defs>
     <g style="fill:#262626;" transform="translate(97.83638 73.638836)scale(0.07 -0.07)">
      <use transform="scale(0.996264)" xlink:href="#CMSS17-82"/>
      <use transform="translate(60.416155 0)scale(0.996264)" xlink:href="#CMSS17-101"/>
      <use transform="translate(102.054977 0)scale(0.996264)" xlink:href="#CMSS17-100"/>
      <use transform="translate(150.25992 0)scale(0.996264)" xlink:href="#CMSS17-105"/>
      <use transform="translate(172.440643 0)scale(0.996264)" xlink:href="#CMSS17-114"/>
      <use transform="translate(204.350416 0)scale(0.996264)" xlink:href="#CMSS17-101"/>
      <use transform="translate(245.989238 0)scale(0.996264)" xlink:href="#CMSS17-99"/>
      <use transform="translate(287.62806 0)scale(0.996264)" xlink:href="#CMSS17-116"/>
      <use transform="translate(321.459626 0)scale(0.996264)" xlink:href="#CMSS17-111"/>
      <use transform="translate(365.700796 0)scale(0.996264)" xlink:href="#CMSS17-114"/>
     </g>
    </g>
    <g id="line2d_24">
     <path d="M 78.23638 80.94485 
L 92.23638 80.94485 
" style="fill:none;stroke:#ff7f00;stroke-dasharray:3.6,1.2,1.8,1.2;stroke-dashoffset:0;stroke-width:1.2;"/>
    </g>
    <g id="line2d_25"/>
    <g id="text_13">
     <!-- Scheduler -->
     <defs>
      <path d="M 43.703125 65.140625 
C 39.296875 67.71875 34.5 70 26.40625 70 
C 13.5 70 5.203125 60.609375 5.203125 51.03125 
C 5.203125 47.265625 6.296875 43.015625 10.203125 38.671875 
C 14.09375 34.3125 18.5 33.140625 24.09375 31.765625 
C 26.40625 31.15625 30.296875 30.0625 31 29.78125 
C 36.59375 27.609375 39.296875 22.5625 39.296875 17.8125 
C 39.296875 11.59375 34.40625 4.96875 25.703125 4.96875 
C 22.703125 4.96875 13.90625 4.96875 5.59375 12.796875 
L 4.203125 4.96875 
C 12.40625 -1 21.296875 -2 25.796875 -2 
C 38.09375 -2 46.90625 7.625 46.90625 18.53125 
C 46.90625 22.5 45.703125 27.546875 41.5 32.203125 
C 37.40625 36.671875 33.796875 37.65625 25.59375 39.828125 
C 20.90625 41.03125 17.90625 41.828125 15.40625 44.890625 
C 13.703125 47.078125 12.796875 49.15625 12.796875 51.828125 
C 12.796875 57.390625 17.59375 63.4375 26.40625 63.4375 
C 30.796875 63.4375 36.5 62.53125 42.296875 57.1875 
z
" id="CMSS17-83"/>
      <path d="M 40.90625 29.546875 
C 40.90625 35.8125 39.40625 44.0625 28.09375 44.0625 
C 21.796875 44.0625 17.703125 40.984375 14.796875 37.609375 
L 14.796875 69.5 
L 7.40625 69.5 
L 7.40625 0.5 
L 15 0.5 
L 15 24.578125 
C 15 30.828125 17.40625 38 24.203125 38 
C 33 38 33.296875 32.125 33.296875 28.734375 
L 33.296875 0.5 
L 40.90625 0.5 
z
" id="CMSS17-104"/>
      <path d="M 40.90625 42.796875 
L 33.296875 42.796875 
L 33.296875 15.1875 
C 33.296875 7.78125 27.90625 4.78125 22.203125 4.78125 
C 15.59375 4.78125 15 6.984375 15 11.078125 
L 15 42.796875 
L 7.40625 42.796875 
L 7.40625 10.59375 
C 7.40625 2.796875 10.09375 -1 17 -1 
C 20.40625 -1 28.09375 -0.203125 33.5 4.78125 
L 33.5 0 
L 40.90625 0 
z
" id="CMSS17-117"/>
     </defs>
     <g style="fill:#262626;" transform="translate(97.83638 83.39485)scale(0.07 -0.07)">
      <use transform="scale(0.996264)" xlink:href="#CMSS17-83"/>
      <use transform="translate(52.048516 0)scale(0.996264)" xlink:href="#CMSS17-99"/>
      <use transform="translate(93.687338 0)scale(0.996264)" xlink:href="#CMSS17-104"/>
      <use transform="translate(141.892281 0)scale(0.996264)" xlink:href="#CMSS17-101"/>
      <use transform="translate(183.531103 0)scale(0.996264)" xlink:href="#CMSS17-100"/>
      <use transform="translate(231.736047 0)scale(0.996264)" xlink:href="#CMSS17-117"/>
      <use transform="translate(279.94099 0)scale(0.996264)" xlink:href="#CMSS17-108"/>
      <use transform="translate(302.121713 0)scale(0.996264)" xlink:href="#CMSS17-101"/>
      <use transform="translate(343.760535 0)scale(0.996264)" xlink:href="#CMSS17-114"/>
     </g>
    </g>
    <g id="line2d_26">
     <path d="M 78.23638 90.700864 
L 92.23638 90.700864 
" style="fill:none;stroke:#6a3d9a;stroke-dasharray:6,1.2,1.2,1.2;stroke-dashoffset:0;stroke-width:1.2;"/>
    </g>
    <g id="line2d_27"/>
    <g id="text_14">
     <!-- Shaper -->
     <g style="fill:#262626;" transform="translate(97.83638 93.150864)scale(0.07 -0.07)">
      <use transform="scale(0.996264)" xlink:href="#CMSS17-83"/>
      <use transform="translate(52.048516 0)scale(0.996264)" xlink:href="#CMSS17-104"/>
      <use transform="translate(100.253459 0)scale(0.996264)" xlink:href="#CMSS17-97"/>
      <use transform="translate(145.17538 0)scale(0.996264)" xlink:href="#CMSS17-112"/>
      <use transform="translate(195.982762 0)scale(0.996264)" xlink:href="#CMSS17-101"/>
      <use transform="translate(237.621584 0)scale(0.996264)" xlink:href="#CMSS17-114"/>
     </g>
    </g>
   </g>
  </g>
  <g id="axes_2">
   <g id="patch_8">
    <path d="M 182.178826 100.806879 
L 277.914773 100.806879 
L 277.914773 19.841765 
L 182.178826 19.841765 
z
" style="fill:#ffffff;"/>
   </g>
   <g id="matplotlib.axis_3">
    <g id="xtick_4">
     <g id="line2d_28">
      <path clip-path="url(#pf8ee1f841e)" d="M 186.53046 100.806879 
L 186.53046 19.841765 
" style="fill:none;stroke:#cccccc;stroke-linecap:round;stroke-width:0.8;"/>
     </g>
     <g id="line2d_29">
      <g>
       <use style="fill:#262626;stroke:#262626;" x="186.53046" xlink:href="#m377cfefca3" y="100.806879"/>
      </g>
     </g>
     <g id="text_15">
      <!-- $0$ -->
      <g style="fill:#262626;" transform="translate(184.201661 115.195162)scale(0.088 -0.088)">
       <use transform="scale(0.996264)" xlink:href="#CMR17-48"/>
      </g>
     </g>
    </g>
    <g id="xtick_5">
     <g id="line2d_30">
      <path clip-path="url(#pf8ee1f841e)" d="M 236.690496 100.806879 
L 236.690496 19.841765 
" style="fill:none;stroke:#cccccc;stroke-linecap:round;stroke-width:0.8;"/>
     </g>
     <g id="line2d_31">
      <g>
       <use style="fill:#262626;stroke:#262626;" x="236.690496" xlink:href="#m377cfefca3" y="100.806879"/>
      </g>
     </g>
     <g id="text_16">
      <!-- $10000$ -->
      <g style="fill:#262626;" transform="translate(225.046501 115.195162)scale(0.088 -0.088)">
       <use transform="scale(0.996264)" xlink:href="#CMR17-49"/>
       <use transform="translate(45.690477 0)scale(0.996264)" xlink:href="#CMR17-48"/>
       <use transform="translate(91.380954 0)scale(0.996264)" xlink:href="#CMR17-48"/>
       <use transform="translate(137.071431 0)scale(0.996264)" xlink:href="#CMR17-48"/>
       <use transform="translate(182.761908 0)scale(0.996264)" xlink:href="#CMR17-48"/>
      </g>
     </g>
    </g>
    <g id="text_17">
     <!-- Time (ms) -->
     <g style="fill:#262626;" transform="translate(208.178602 128.072972)scale(0.096 -0.096)">
      <use transform="scale(0.996264)" xlink:href="#CMSS17-84"/>
      <use transform="translate(63.819454 0)scale(0.996264)" xlink:href="#CMSS17-105"/>
      <use transform="translate(86.000177 0)scale(0.996264)" xlink:href="#CMSS17-109"/>
      <use transform="translate(160.229431 0)scale(0.996264)" xlink:href="#CMSS17-101"/>
      <use transform="translate(233.097366 0)scale(0.996264)" xlink:href="#CMSS17-40"/>
      <use transform="translate(269.53128 0)scale(0.996264)" xlink:href="#CMSS17-109"/>
      <use transform="translate(343.760535 0)scale(0.996264)" xlink:href="#CMSS17-115"/>
      <use transform="translate(379.674077 0)scale(0.996264)" xlink:href="#CMSS17-41"/>
     </g>
    </g>
   </g>
   <g id="matplotlib.axis_4">
    <g id="ytick_4">
     <g id="line2d_32">
      <path clip-path="url(#pf8ee1f841e)" d="M 182.178826 100.806879 
L 277.914773 100.806879 
" style="fill:none;stroke:#cccccc;stroke-linecap:round;stroke-width:0.8;"/>
     </g>
     <g id="line2d_33">
      <g>
       <use style="fill:#262626;stroke:#262626;" x="182.178826" xlink:href="#m95fdf5ace0" y="100.806879"/>
      </g>
     </g>
     <g id="text_18">
      <!-- $0.0$ -->
      <g style="fill:#262626;" transform="translate(161.976074 103.85102)scale(0.088 -0.088)">
       <use transform="scale(0.996264)" xlink:href="#CMR17-48"/>
       <use transform="translate(45.690477 0)scale(0.996264)" xlink:href="#CMMI12-58"/>
       <use transform="translate(72.787654 0)scale(0.996264)" xlink:href="#CMR17-48"/>
      </g>
     </g>
    </g>
    <g id="ytick_5">
     <g id="line2d_34">
      <path clip-path="url(#pf8ee1f841e)" d="M 182.178826 64.004554 
L 277.914773 64.004554 
" style="fill:none;stroke:#cccccc;stroke-linecap:round;stroke-width:0.8;"/>
     </g>
     <g id="line2d_35">
      <g>
       <use style="fill:#262626;stroke:#262626;" x="182.178826" xlink:href="#m95fdf5ace0" y="64.004554"/>
      </g>
     </g>
     <g id="text_19">
      <!-- $0.5$ -->
      <g style="fill:#262626;" transform="translate(161.976074 67.048696)scale(0.088 -0.088)">
       <use transform="scale(0.996264)" xlink:href="#CMR17-48"/>
       <use transform="translate(45.690477 0)scale(0.996264)" xlink:href="#CMMI12-58"/>
       <use transform="translate(72.787654 0)scale(0.996264)" xlink:href="#CMR17-53"/>
      </g>
     </g>
    </g>
    <g id="ytick_6">
     <g id="line2d_36">
      <path clip-path="url(#pf8ee1f841e)" d="M 182.178826 27.20223 
L 277.914773 27.20223 
" style="fill:none;stroke:#cccccc;stroke-linecap:round;stroke-width:0.8;"/>
     </g>
     <g id="line2d_37">
      <g>
       <use style="fill:#262626;stroke:#262626;" x="182.178826" xlink:href="#m95fdf5ace0" y="27.20223"/>
      </g>
     </g>
     <g id="text_20">
      <!-- $1.0$ -->
      <g style="fill:#262626;" transform="translate(161.976074 30.246372)scale(0.088 -0.088)">
       <use transform="scale(0.996264)" xlink:href="#CMR17-49"/>
       <use transform="translate(45.690477 0)scale(0.996264)" xlink:href="#CMMI12-58"/>
       <use transform="translate(72.787654 0)scale(0.996264)" xlink:href="#CMR17-48"/>
      </g>
     </g>
    </g>
    <g id="text_21">
     <!-- CDF -->
     <g style="fill:#262626;" transform="translate(156.116379 69.833044)rotate(-90)scale(0.096 -0.096)">
      <use transform="scale(0.996264)" xlink:href="#CMSS17-67"/>
      <use transform="translate(59.855772 0)scale(0.996264)" xlink:href="#CMSS17-68"/>
      <use transform="translate(127.398613 0)scale(0.996264)" xlink:href="#CMSS17-70"/>
     </g>
    </g>
   </g>
   <g id="line2d_38">
    <path clip-path="url(#pf8ee1f841e)" d="M 186.53046 100.806879 
L 188.305779 100.806879 
L 190.081099 52.32595 
L 191.856418 50.117811 
L 193.631737 48.547578 
L 195.407057 47.247229 
L 197.182376 45.529787 
L 198.957695 43.125369 
L 200.733015 41.211648 
L 202.508334 39.003509 
L 204.283653 37.678625 
L 206.058973 35.764904 
L 207.834292 33.458625 
L 209.609611 32.256416 
L 211.384931 31.201416 
L 213.16025 30.097346 
L 214.93557 29.165021 
L 216.710889 28.502579 
L 218.486208 28.134556 
L 220.261528 27.864672 
L 222.036847 27.643858 
L 223.812166 27.521183 
L 225.587486 27.349439 
L 227.362805 27.324904 
L 229.138124 27.300369 
L 230.913444 27.275835 
L 232.688763 27.226765 
L 234.464082 27.226765 
L 236.239402 27.226765 
L 238.014721 27.226765 
" style="fill:none;stroke:#1f78b4;stroke-linecap:round;stroke-width:1.2;"/>
   </g>
   <g id="line2d_39">
    <path clip-path="url(#pf8ee1f841e)" d="M 186.53046 100.806879 
L 189.367615 100.806879 
L 192.204771 98.206181 
L 195.041926 96.856762 
L 197.879082 94.2806 
L 200.716237 90.453158 
L 203.553393 86.306763 
L 206.390548 78.210251 
L 209.227703 70.359089 
L 212.064859 64.789671 
L 214.902014 59.686415 
L 217.73917 55.245601 
L 220.576325 51.123741 
L 223.41348 45.971415 
L 226.250636 40.72095 
L 229.087791 36.378276 
L 231.924947 34.685369 
L 234.762102 32.869788 
L 237.599258 31.225951 
L 240.436413 30.048276 
L 243.273568 29.31223 
L 246.110724 28.527114 
L 248.947879 28.25723 
L 251.785035 27.889207 
L 254.62219 27.619323 
L 257.459346 27.496649 
L 260.296501 27.472114 
L 263.133656 27.447579 
L 265.970812 27.373974 
L 268.807967 27.300369 
" style="fill:none;stroke:#33a02c;stroke-dasharray:4.8,1.8;stroke-dashoffset:0;stroke-width:1.2;"/>
   </g>
   <g id="line2d_40">
    <path clip-path="url(#pf8ee1f841e)" d="M 186.53046 100.806879 
L 189.410511 100.806879 
L 192.290562 87.705251 
L 195.170613 71.193275 
L 198.050664 63.121298 
L 200.930714 57.331066 
L 203.810765 52.154206 
L 206.690816 48.15502 
L 209.570867 43.98409 
L 212.450918 41.113509 
L 215.330969 38.954439 
L 218.21102 36.942578 
L 221.091071 34.979788 
L 223.971122 32.771648 
L 226.851173 31.4713 
L 229.731224 29.459439 
L 232.611274 28.895137 
L 235.491325 28.674323 
L 238.371376 28.453509 
L 241.251427 28.110021 
L 244.131478 27.864672 
L 247.011529 27.545718 
L 249.89158 27.447579 
L 252.771631 27.398509 
L 255.651682 27.324904 
L 258.531733 27.275835 
L 261.411784 27.226765 
L 264.291834 27.226765 
L 267.171885 27.226765 
L 270.051936 27.226765 
" style="fill:none;stroke:#e31a1c;stroke-dasharray:1.2,1.2;stroke-dashoffset:0;stroke-width:1.2;"/>
   </g>
   <g id="line2d_41">
    <path clip-path="url(#pf8ee1f841e)" d="M 186.53046 100.806879 
L 188.63649 100.806879 
L 190.742519 71.512228 
L 192.848549 68.298159 
L 194.954579 65.574787 
L 197.060608 62.311647 
L 199.166638 60.275252 
L 201.272668 57.404671 
L 203.378697 55.122927 
L 205.484727 52.620369 
L 207.590757 48.670252 
L 209.696786 45.186299 
L 211.802816 43.027229 
L 213.908845 40.81909 
L 216.014875 38.169323 
L 218.120905 36.378276 
L 220.226934 35.126997 
L 222.332964 33.48316 
L 224.438994 32.158276 
L 226.545023 30.956067 
L 228.651053 29.851997 
L 230.757083 28.698858 
L 232.863112 28.110021 
L 234.969142 27.913742 
L 237.075172 27.766532 
L 239.181201 27.643858 
L 241.287231 27.447579 
L 243.393261 27.373974 
L 245.49929 27.349439 
L 247.60532 27.324904 
" style="fill:none;stroke:#ff7f00;stroke-dasharray:3.6,1.2,1.8,1.2;stroke-dashoffset:0;stroke-width:1.2;"/>
   </g>
   <g id="line2d_42">
    <path clip-path="url(#pf8ee1f841e)" d="M 186.53046 100.806879 
L 189.531587 100.806879 
L 192.532714 99.850018 
L 195.533841 98.770483 
L 198.534967 96.169786 
L 201.536094 92.12153 
L 204.537221 85.93874 
L 207.538348 76.419205 
L 210.539475 65.967345 
L 213.540602 61.256647 
L 216.541728 56.717694 
L 219.542855 51.540834 
L 222.543982 47.394439 
L 225.545109 40.892695 
L 228.546236 35.200602 
L 231.547363 33.43409 
L 234.54849 32.060137 
L 237.549616 30.906997 
L 240.550743 30.244555 
L 243.55187 29.238625 
L 246.552997 27.815602 
L 249.554124 27.692928 
L 252.555251 27.594788 
L 255.556378 27.496649 
L 258.557504 27.423044 
L 261.558631 27.373974 
L 264.559758 27.275835 
L 267.560885 27.226765 
L 270.562012 27.226765 
L 273.563139 27.226765 
" style="fill:none;stroke:#6a3d9a;stroke-dasharray:6,1.2,1.2,1.2;stroke-dashoffset:0;stroke-width:1.2;"/>
   </g>
   <g id="patch_9">
    <path d="M 182.178826 100.806879 
L 182.178826 19.841765 
" style="fill:none;stroke:#262626;stroke-linecap:square;stroke-linejoin:miter;"/>
   </g>
   <g id="patch_10">
    <path d="M 277.914773 100.806879 
L 277.914773 19.841765 
" style="fill:none;stroke:#262626;stroke-linecap:square;stroke-linejoin:miter;"/>
   </g>
   <g id="patch_11">
    <path d="M 182.178826 100.806879 
L 277.914773 100.806879 
" style="fill:none;stroke:#262626;stroke-linecap:square;stroke-linejoin:miter;"/>
   </g>
   <g id="patch_12">
    <path d="M 182.178826 19.841765 
L 277.914773 19.841765 
" style="fill:none;stroke:#262626;stroke-linecap:square;stroke-linejoin:miter;"/>
   </g>
   <g id="text_22">
    <!-- $\lambda =50$ -->
    <g style="fill:#262626;" transform="translate(215.711777 13.841765)scale(0.096 -0.096)">
     <use transform="scale(0.996264)" xlink:href="#CMMI12-21"/>
     <use transform="translate(84.578081 0)scale(0.996264)" xlink:href="#CMR17-61"/>
     <use transform="translate(183.966878 0)scale(0.996264)" xlink:href="#CMR17-53"/>
     <use transform="translate(229.657355 0)scale(0.996264)" xlink:href="#CMR17-48"/>
    </g>
   </g>
   <g id="legend_2">
    <g id="patch_13">
     <path d="M 219.110994 97.306879 
L 273.014773 97.306879 
Q 274.414773 97.306879 274.414773 95.906879 
L 274.414773 47.826808 
Q 274.414773 46.426808 273.014773 46.426808 
L 219.110994 46.426808 
Q 217.710994 46.426808 217.710994 47.826808 
L 217.710994 95.906879 
Q 217.710994 97.306879 219.110994 97.306879 
z
" style="fill:#ffffff;opacity:0.8;stroke:#cccccc;stroke-linejoin:miter;stroke-width:0.8;"/>
    </g>
    <g id="line2d_43">
     <path d="M 220.510994 51.676808 
L 234.510994 51.676808 
" style="fill:none;stroke:#1f78b4;stroke-linecap:round;stroke-width:1.2;"/>
    </g>
    <g id="line2d_44"/>
    <g id="text_23">
     <!-- Classifier -->
     <g style="fill:#262626;" transform="translate(240.110994 54.126808)scale(0.07 -0.07)">
      <use transform="scale(0.996264)" xlink:href="#CMSS17-67"/>
      <use transform="translate(59.855772 0)scale(0.996264)" xlink:href="#CMSS17-108"/>
      <use transform="translate(82.036495 0)scale(0.996264)" xlink:href="#CMSS17-97"/>
      <use transform="translate(126.958415 0)scale(0.996264)" xlink:href="#CMSS17-115"/>
      <use transform="translate(162.871957 0)scale(0.996264)" xlink:href="#CMSS17-115"/>
      <use transform="translate(198.785499 0)scale(0.996264)" xlink:href="#CMSS17-105"/>
      <use transform="translate(220.966222 0)scale(0.996264)" xlink:href="#CMSS17-12"/>
      <use transform="translate(271.09296 0)scale(0.996264)" xlink:href="#CMSS17-101"/>
      <use transform="translate(312.731782 0)scale(0.996264)" xlink:href="#CMSS17-114"/>
     </g>
    </g>
    <g id="line2d_45">
     <path d="M 220.510994 61.432822 
L 234.510994 61.432822 
" style="fill:none;stroke:#33a02c;stroke-dasharray:4.8,1.8;stroke-dashoffset:0;stroke-width:1.2;"/>
    </g>
    <g id="line2d_46"/>
    <g id="text_24">
     <!-- Dropper -->
     <g style="fill:#262626;" transform="translate(240.110994 63.882822)scale(0.07 -0.07)">
      <use transform="scale(0.996264)" xlink:href="#CMSS17-68"/>
      <use transform="translate(67.542842 0)scale(0.996264)" xlink:href="#CMSS17-114"/>
      <use transform="translate(99.452614 0)scale(0.996264)" xlink:href="#CMSS17-111"/>
      <use transform="translate(146.296238 0)scale(0.996264)" xlink:href="#CMSS17-112"/>
      <use transform="translate(194.501181 0)scale(0.996264)" xlink:href="#CMSS17-112"/>
      <use transform="translate(245.308563 0)scale(0.996264)" xlink:href="#CMSS17-101"/>
      <use transform="translate(286.947385 0)scale(0.996264)" xlink:href="#CMSS17-114"/>
     </g>
    </g>
    <g id="line2d_47">
     <path d="M 220.510994 71.188836 
L 234.510994 71.188836 
" style="fill:none;stroke:#e31a1c;stroke-dasharray:1.2,1.2;stroke-dashoffset:0;stroke-width:1.2;"/>
    </g>
    <g id="line2d_48"/>
    <g id="text_25">
     <!-- Redirector -->
     <g style="fill:#262626;" transform="translate(240.110994 73.638836)scale(0.07 -0.07)">
      <use transform="scale(0.996264)" xlink:href="#CMSS17-82"/>
      <use transform="translate(60.416155 0)scale(0.996264)" xlink:href="#CMSS17-101"/>
      <use transform="translate(102.054977 0)scale(0.996264)" xlink:href="#CMSS17-100"/>
      <use transform="translate(150.25992 0)scale(0.996264)" xlink:href="#CMSS17-105"/>
      <use transform="translate(172.440643 0)scale(0.996264)" xlink:href="#CMSS17-114"/>
      <use transform="translate(204.350416 0)scale(0.996264)" xlink:href="#CMSS17-101"/>
      <use transform="translate(245.989238 0)scale(0.996264)" xlink:href="#CMSS17-99"/>
      <use transform="translate(287.62806 0)scale(0.996264)" xlink:href="#CMSS17-116"/>
      <use transform="translate(321.459626 0)scale(0.996264)" xlink:href="#CMSS17-111"/>
      <use transform="translate(365.700796 0)scale(0.996264)" xlink:href="#CMSS17-114"/>
     </g>
    </g>
    <g id="line2d_49">
     <path d="M 220.510994 80.94485 
L 234.510994 80.94485 
" style="fill:none;stroke:#ff7f00;stroke-dasharray:3.6,1.2,1.8,1.2;stroke-dashoffset:0;stroke-width:1.2;"/>
    </g>
    <g id="line2d_50"/>
    <g id="text_26">
     <!-- Scheduler -->
     <g style="fill:#262626;" transform="translate(240.110994 83.39485)scale(0.07 -0.07)">
      <use transform="scale(0.996264)" xlink:href="#CMSS17-83"/>
      <use transform="translate(52.048516 0)scale(0.996264)" xlink:href="#CMSS17-99"/>
      <use transform="translate(93.687338 0)scale(0.996264)" xlink:href="#CMSS17-104"/>
      <use transform="translate(141.892281 0)scale(0.996264)" xlink:href="#CMSS17-101"/>
      <use transform="translate(183.531103 0)scale(0.996264)" xlink:href="#CMSS17-100"/>
      <use transform="translate(231.736047 0)scale(0.996264)" xlink:href="#CMSS17-117"/>
      <use transform="translate(279.94099 0)scale(0.996264)" xlink:href="#CMSS17-108"/>
      <use transform="translate(302.121713 0)scale(0.996264)" xlink:href="#CMSS17-101"/>
      <use transform="translate(343.760535 0)scale(0.996264)" xlink:href="#CMSS17-114"/>
     </g>
    </g>
    <g id="line2d_51">
     <path d="M 220.510994 90.700864 
L 234.510994 90.700864 
" style="fill:none;stroke:#6a3d9a;stroke-dasharray:6,1.2,1.2,1.2;stroke-dashoffset:0;stroke-width:1.2;"/>
    </g>
    <g id="line2d_52"/>
    <g id="text_27">
     <!-- Shaper -->
     <g style="fill:#262626;" transform="translate(240.110994 93.150864)scale(0.07 -0.07)">
      <use transform="scale(0.996264)" xlink:href="#CMSS17-83"/>
      <use transform="translate(52.048516 0)scale(0.996264)" xlink:href="#CMSS17-104"/>
      <use transform="translate(100.253459 0)scale(0.996264)" xlink:href="#CMSS17-97"/>
      <use transform="translate(145.17538 0)scale(0.996264)" xlink:href="#CMSS17-112"/>
      <use transform="translate(195.982762 0)scale(0.996264)" xlink:href="#CMSS17-101"/>
      <use transform="translate(237.621584 0)scale(0.996264)" xlink:href="#CMSS17-114"/>
     </g>
    </g>
   </g>
  </g>
  <g id="axes_3">
   <g id="patch_14">
    <path d="M 324.45344 100.806879 
L 420.189386 100.806879 
L 420.189386 19.841765 
L 324.45344 19.841765 
z
" style="fill:#ffffff;"/>
   </g>
   <g id="matplotlib.axis_5">
    <g id="xtick_6">
     <g id="line2d_53">
      <path clip-path="url(#p5455e71738)" d="M 328.805074 100.806879 
L 328.805074 19.841765 
" style="fill:none;stroke:#cccccc;stroke-linecap:round;stroke-width:0.8;"/>
     </g>
     <g id="line2d_54">
      <g>
       <use style="fill:#262626;stroke:#262626;" x="328.805074" xlink:href="#m377cfefca3" y="100.806879"/>
      </g>
     </g>
     <g id="text_28">
      <!-- $0$ -->
      <g style="fill:#262626;" transform="translate(326.476275 115.195162)scale(0.088 -0.088)">
       <use transform="scale(0.996264)" xlink:href="#CMR17-48"/>
      </g>
     </g>
    </g>
    <g id="xtick_7">
     <g id="line2d_55">
      <path clip-path="url(#p5455e71738)" d="M 364.535708 100.806879 
L 364.535708 19.841765 
" style="fill:none;stroke:#cccccc;stroke-linecap:round;stroke-width:0.8;"/>
     </g>
     <g id="line2d_56">
      <g>
       <use style="fill:#262626;stroke:#262626;" x="364.535708" xlink:href="#m377cfefca3" y="100.806879"/>
      </g>
     </g>
     <g id="text_29">
      <!-- $10000$ -->
      <g style="fill:#262626;" transform="translate(352.891713 115.195162)scale(0.088 -0.088)">
       <use transform="scale(0.996264)" xlink:href="#CMR17-49"/>
       <use transform="translate(45.690477 0)scale(0.996264)" xlink:href="#CMR17-48"/>
       <use transform="translate(91.380954 0)scale(0.996264)" xlink:href="#CMR17-48"/>
       <use transform="translate(137.071431 0)scale(0.996264)" xlink:href="#CMR17-48"/>
       <use transform="translate(182.761908 0)scale(0.996264)" xlink:href="#CMR17-48"/>
      </g>
     </g>
    </g>
    <g id="xtick_8">
     <g id="line2d_57">
      <path clip-path="url(#p5455e71738)" d="M 400.266342 100.806879 
L 400.266342 19.841765 
" style="fill:none;stroke:#cccccc;stroke-linecap:round;stroke-width:0.8;"/>
     </g>
     <g id="line2d_58">
      <g>
       <use style="fill:#262626;stroke:#262626;" x="400.266342" xlink:href="#m377cfefca3" y="100.806879"/>
      </g>
     </g>
     <g id="text_30">
      <!-- $20000$ -->
      <defs>
       <path d="M 41.703125 15.453125 
L 39.90625 15.453125 
C 38.90625 8.375 38.09375 7.171875 37.703125 6.5625 
C 37.203125 5.765625 30 5.765625 28.59375 5.765625 
L 9.40625 5.765625 
C 13 9.671875 20 16.75 28.5 24.953125 
C 34.59375 30.734375 41.703125 37.53125 41.703125 47.421875 
C 41.703125 59.21875 32.296875 66 21.796875 66 
C 10.796875 66 4.09375 56.3125 4.09375 47.34375 
C 4.09375 43.4375 7 42.9375 8.203125 42.9375 
C 9.203125 42.9375 12.203125 43.546875 12.203125 47.03125 
C 12.203125 50.109375 9.59375 51 8.203125 51 
C 7.59375 51 7 50.90625 6.59375 50.703125 
C 8.5 59.21875 14.296875 63.40625 20.40625 63.40625 
C 29.09375 63.40625 34.796875 56.515625 34.796875 47.421875 
C 34.796875 38.734375 29.703125 31.25 24 24.75 
L 4.09375 2.28125 
L 4.09375 0 
L 39.296875 0 
z
" id="CMR17-50"/>
      </defs>
      <g style="fill:#262626;" transform="translate(388.622347 115.195162)scale(0.088 -0.088)">
       <use transform="scale(0.996264)" xlink:href="#CMR17-50"/>
       <use transform="translate(45.690477 0)scale(0.996264)" xlink:href="#CMR17-48"/>
       <use transform="translate(91.380954 0)scale(0.996264)" xlink:href="#CMR17-48"/>
       <use transform="translate(137.071431 0)scale(0.996264)" xlink:href="#CMR17-48"/>
       <use transform="translate(182.761908 0)scale(0.996264)" xlink:href="#CMR17-48"/>
      </g>
     </g>
    </g>
    <g id="text_31">
     <!-- Time (ms) -->
     <g style="fill:#262626;" transform="translate(350.453216 128.072972)scale(0.096 -0.096)">
      <use transform="scale(0.996264)" xlink:href="#CMSS17-84"/>
      <use transform="translate(63.819454 0)scale(0.996264)" xlink:href="#CMSS17-105"/>
      <use transform="translate(86.000177 0)scale(0.996264)" xlink:href="#CMSS17-109"/>
      <use transform="translate(160.229431 0)scale(0.996264)" xlink:href="#CMSS17-101"/>
      <use transform="translate(233.097366 0)scale(0.996264)" xlink:href="#CMSS17-40"/>
      <use transform="translate(269.53128 0)scale(0.996264)" xlink:href="#CMSS17-109"/>
      <use transform="translate(343.760535 0)scale(0.996264)" xlink:href="#CMSS17-115"/>
      <use transform="translate(379.674077 0)scale(0.996264)" xlink:href="#CMSS17-41"/>
     </g>
    </g>
   </g>
   <g id="matplotlib.axis_6">
    <g id="ytick_7">
     <g id="line2d_59">
      <path clip-path="url(#p5455e71738)" d="M 324.45344 100.806879 
L 420.189386 100.806879 
" style="fill:none;stroke:#cccccc;stroke-linecap:round;stroke-width:0.8;"/>
     </g>
     <g id="line2d_60">
      <g>
       <use style="fill:#262626;stroke:#262626;" x="324.45344" xlink:href="#m95fdf5ace0" y="100.806879"/>
      </g>
     </g>
     <g id="text_32">
      <!-- $0.0$ -->
      <g style="fill:#262626;" transform="translate(304.250687 103.85102)scale(0.088 -0.088)">
       <use transform="scale(0.996264)" xlink:href="#CMR17-48"/>
       <use transform="translate(45.690477 0)scale(0.996264)" xlink:href="#CMMI12-58"/>
       <use transform="translate(72.787654 0)scale(0.996264)" xlink:href="#CMR17-48"/>
      </g>
     </g>
    </g>
    <g id="ytick_8">
     <g id="line2d_61">
      <path clip-path="url(#p5455e71738)" d="M 324.45344 64.004554 
L 420.189386 64.004554 
" style="fill:none;stroke:#cccccc;stroke-linecap:round;stroke-width:0.8;"/>
     </g>
     <g id="line2d_62">
      <g>
       <use style="fill:#262626;stroke:#262626;" x="324.45344" xlink:href="#m95fdf5ace0" y="64.004554"/>
      </g>
     </g>
     <g id="text_33">
      <!-- $0.5$ -->
      <g style="fill:#262626;" transform="translate(304.250687 67.048696)scale(0.088 -0.088)">
       <use transform="scale(0.996264)" xlink:href="#CMR17-48"/>
       <use transform="translate(45.690477 0)scale(0.996264)" xlink:href="#CMMI12-58"/>
       <use transform="translate(72.787654 0)scale(0.996264)" xlink:href="#CMR17-53"/>
      </g>
     </g>
    </g>
    <g id="ytick_9">
     <g id="line2d_63">
      <path clip-path="url(#p5455e71738)" d="M 324.45344 27.20223 
L 420.189386 27.20223 
" style="fill:none;stroke:#cccccc;stroke-linecap:round;stroke-width:0.8;"/>
     </g>
     <g id="line2d_64">
      <g>
       <use style="fill:#262626;stroke:#262626;" x="324.45344" xlink:href="#m95fdf5ace0" y="27.20223"/>
      </g>
     </g>
     <g id="text_34">
      <!-- $1.0$ -->
      <g style="fill:#262626;" transform="translate(304.250687 30.246372)scale(0.088 -0.088)">
       <use transform="scale(0.996264)" xlink:href="#CMR17-49"/>
       <use transform="translate(45.690477 0)scale(0.996264)" xlink:href="#CMMI12-58"/>
       <use transform="translate(72.787654 0)scale(0.996264)" xlink:href="#CMR17-48"/>
      </g>
     </g>
    </g>
    <g id="text_35">
     <!-- CDF -->
     <g style="fill:#262626;" transform="translate(298.390992 69.833044)rotate(-90)scale(0.096 -0.096)">
      <use transform="scale(0.996264)" xlink:href="#CMSS17-67"/>
      <use transform="translate(59.855772 0)scale(0.996264)" xlink:href="#CMSS17-68"/>
      <use transform="translate(127.398613 0)scale(0.996264)" xlink:href="#CMSS17-70"/>
     </g>
    </g>
   </g>
   <g id="line2d_65">
    <path clip-path="url(#p5455e71738)" d="M 328.805074 100.806879 
L 331.154917 100.806879 
L 333.504761 99.285716 
L 335.854605 98.942227 
L 338.204448 98.328855 
L 340.554292 97.151181 
L 342.904135 94.329669 
L 345.253979 86.527577 
L 347.603823 77.425135 
L 349.953666 71.512228 
L 352.30351 66.04095 
L 354.653354 61.894554 
L 357.003197 54.48502 
L 359.353041 47.909671 
L 361.702885 39.101648 
L 364.052728 35.838509 
L 366.402572 34.513625 
L 368.752415 33.066067 
L 371.102259 30.980602 
L 373.452103 29.802928 
L 375.801946 28.968742 
L 378.15179 28.25723 
L 380.501634 28.036416 
L 382.851477 27.791067 
L 385.201321 27.398509 
L 387.551165 27.275835 
L 389.901008 27.275835 
L 392.250852 27.275835 
L 394.600696 27.2513 
L 396.950539 27.226765 
" style="fill:none;stroke:#1f78b4;stroke-linecap:round;stroke-width:1.2;"/>
   </g>
   <g id="line2d_66">
    <path clip-path="url(#p5455e71738)" d="M 328.805074 100.806879 
L 331.8062 100.806879 
L 334.807327 97.887227 
L 337.808454 96.29246 
L 340.809581 94.035251 
L 343.810708 90.600367 
L 346.811835 73.990252 
L 349.812962 66.090019 
L 352.814088 60.594206 
L 355.815215 55.196531 
L 358.816342 42.708276 
L 361.817469 37.212462 
L 364.818596 33.949323 
L 367.819723 32.280951 
L 370.82085 29.851997 
L 373.821976 28.698858 
L 376.823103 28.20816 
L 379.82423 27.619323 
L 382.825357 27.521183 
L 385.826484 27.447579 
L 388.827611 27.398509 
L 391.828738 27.324904 
L 394.829864 27.275835 
L 397.830991 27.275835 
L 400.832118 27.2513 
L 403.833245 27.226765 
L 406.834372 27.226765 
L 409.835499 27.226765 
L 412.836626 27.226765 
L 415.837752 27.226765 
" style="fill:none;stroke:#33a02c;stroke-dasharray:4.8,1.8;stroke-dashoffset:0;stroke-width:1.2;"/>
   </g>
   <g id="line2d_67">
    <path clip-path="url(#p5455e71738)" d="M 328.805074 100.806879 
L 331.198903 100.806879 
L 333.592732 98.206181 
L 335.986561 96.881297 
L 338.380391 95.3356 
L 340.77422 94.084321 
L 343.168049 90.919321 
L 345.561879 83.411647 
L 347.955708 72.027461 
L 350.349537 66.703391 
L 352.743366 63.047694 
L 355.137196 57.968973 
L 357.531025 52.939322 
L 359.924854 48.473973 
L 362.318684 42.487462 
L 364.712513 38.978974 
L 367.106342 36.329206 
L 369.500171 33.041532 
L 371.894001 32.035602 
L 374.28783 31.054207 
L 376.681659 29.778393 
L 379.075489 28.968742 
L 381.469318 28.281765 
L 383.863147 27.962811 
L 386.256976 27.643858 
L 388.650806 27.496649 
L 391.044635 27.423044 
L 393.438464 27.300369 
L 395.832294 27.275835 
L 398.226123 27.226765 
" style="fill:none;stroke:#e31a1c;stroke-dasharray:1.2,1.2;stroke-dashoffset:0;stroke-width:1.2;"/>
   </g>
   <g id="line2d_68">
    <path clip-path="url(#p5455e71738)" d="M 328.805074 100.806879 
L 330.681302 100.806879 
L 332.557529 100.782344 
L 334.433757 100.733274 
L 336.309985 100.119902 
L 338.186213 99.040367 
L 340.062441 98.108041 
L 341.938669 95.016646 
L 343.814897 91.508158 
L 345.691125 88.931995 
L 347.567353 85.93874 
L 349.443581 81.105368 
L 351.319809 75.315135 
L 353.196037 69.500368 
L 355.072265 63.759205 
L 356.948492 56.693159 
L 358.82472 51.908857 
L 360.700948 46.584787 
L 362.577176 42.217578 
L 364.453404 39.346997 
L 366.329632 37.138858 
L 368.20586 35.200602 
L 370.082088 34.145602 
L 371.958316 33.5813 
L 373.834544 31.937462 
L 375.710772 31.37316 
L 377.587 30.072811 
L 379.463228 29.385835 
L 381.339455 28.674323 
L 383.215683 28.036416 
" style="fill:none;stroke:#ff7f00;stroke-dasharray:3.6,1.2,1.8,1.2;stroke-dashoffset:0;stroke-width:1.2;"/>
   </g>
   <g id="line2d_69">
    <path clip-path="url(#p5455e71738)" d="M 328.805074 100.806879 
L 331.184734 100.806879 
L 333.564394 100.193506 
L 335.944054 99.555599 
L 338.323715 99.163041 
L 340.703375 97.641879 
L 343.083035 91.1156 
L 345.462695 79.191647 
L 347.842356 73.057926 
L 350.222016 68.371763 
L 352.601676 63.317578 
L 354.981336 55.44188 
L 357.360996 48.841997 
L 359.740657 41.039904 
L 362.120317 37.408741 
L 364.499977 35.64223 
L 366.879637 33.630369 
L 369.259298 32.133741 
L 371.638958 30.710718 
L 374.018618 29.287695 
L 376.398278 28.281765 
L 378.777939 27.987346 
L 381.157599 27.692928 
L 383.537259 27.570253 
L 385.916919 27.521183 
L 388.29658 27.349439 
L 390.67624 27.349439 
L 393.0559 27.275835 
L 395.43556 27.226765 
L 397.815221 27.226765 
" style="fill:none;stroke:#6a3d9a;stroke-dasharray:6,1.2,1.2,1.2;stroke-dashoffset:0;stroke-width:1.2;"/>
   </g>
   <g id="patch_15">
    <path d="M 324.45344 100.806879 
L 324.45344 19.841765 
" style="fill:none;stroke:#262626;stroke-linecap:square;stroke-linejoin:miter;"/>
   </g>
   <g id="patch_16">
    <path d="M 420.189386 100.806879 
L 420.189386 19.841765 
" style="fill:none;stroke:#262626;stroke-linecap:square;stroke-linejoin:miter;"/>
   </g>
   <g id="patch_17">
    <path d="M 324.45344 100.806879 
L 420.189386 100.806879 
" style="fill:none;stroke:#262626;stroke-linecap:square;stroke-linejoin:miter;"/>
   </g>
   <g id="patch_18">
    <path d="M 324.45344 19.841765 
L 420.189386 19.841765 
" style="fill:none;stroke:#262626;stroke-linecap:square;stroke-linejoin:miter;"/>
   </g>
   <g id="text_36">
    <!-- $\lambda =100$ -->
    <g style="fill:#262626;" transform="translate(355.528954 13.841765)scale(0.096 -0.096)">
     <use transform="scale(0.996264)" xlink:href="#CMMI12-21"/>
     <use transform="translate(84.578081 0)scale(0.996264)" xlink:href="#CMR17-61"/>
     <use transform="translate(183.966878 0)scale(0.996264)" xlink:href="#CMR17-49"/>
     <use transform="translate(229.657355 0)scale(0.996264)" xlink:href="#CMR17-48"/>
     <use transform="translate(275.347832 0)scale(0.996264)" xlink:href="#CMR17-48"/>
    </g>
   </g>
   <g id="legend_3">
    <g id="patch_19">
     <path d="M 361.385608 97.306879 
L 415.289386 97.306879 
Q 416.689386 97.306879 416.689386 95.906879 
L 416.689386 47.826808 
Q 416.689386 46.426808 415.289386 46.426808 
L 361.385608 46.426808 
Q 359.985608 46.426808 359.985608 47.826808 
L 359.985608 95.906879 
Q 359.985608 97.306879 361.385608 97.306879 
z
" style="fill:#ffffff;opacity:0.8;stroke:#cccccc;stroke-linejoin:miter;stroke-width:0.8;"/>
    </g>
    <g id="line2d_70">
     <path d="M 362.785608 51.676808 
L 376.785608 51.676808 
" style="fill:none;stroke:#1f78b4;stroke-linecap:round;stroke-width:1.2;"/>
    </g>
    <g id="line2d_71"/>
    <g id="text_37">
     <!-- Classifier -->
     <g style="fill:#262626;" transform="translate(382.385608 54.126808)scale(0.07 -0.07)">
      <use transform="scale(0.996264)" xlink:href="#CMSS17-67"/>
      <use transform="translate(59.855772 0)scale(0.996264)" xlink:href="#CMSS17-108"/>
      <use transform="translate(82.036495 0)scale(0.996264)" xlink:href="#CMSS17-97"/>
      <use transform="translate(126.958415 0)scale(0.996264)" xlink:href="#CMSS17-115"/>
      <use transform="translate(162.871957 0)scale(0.996264)" xlink:href="#CMSS17-115"/>
      <use transform="translate(198.785499 0)scale(0.996264)" xlink:href="#CMSS17-105"/>
      <use transform="translate(220.966222 0)scale(0.996264)" xlink:href="#CMSS17-12"/>
      <use transform="translate(271.09296 0)scale(0.996264)" xlink:href="#CMSS17-101"/>
      <use transform="translate(312.731782 0)scale(0.996264)" xlink:href="#CMSS17-114"/>
     </g>
    </g>
    <g id="line2d_72">
     <path d="M 362.785608 61.432822 
L 376.785608 61.432822 
" style="fill:none;stroke:#33a02c;stroke-dasharray:4.8,1.8;stroke-dashoffset:0;stroke-width:1.2;"/>
    </g>
    <g id="line2d_73"/>
    <g id="text_38">
     <!-- Dropper -->
     <g style="fill:#262626;" transform="translate(382.385608 63.882822)scale(0.07 -0.07)">
      <use transform="scale(0.996264)" xlink:href="#CMSS17-68"/>
      <use transform="translate(67.542842 0)scale(0.996264)" xlink:href="#CMSS17-114"/>
      <use transform="translate(99.452614 0)scale(0.996264)" xlink:href="#CMSS17-111"/>
      <use transform="translate(146.296238 0)scale(0.996264)" xlink:href="#CMSS17-112"/>
      <use transform="translate(194.501181 0)scale(0.996264)" xlink:href="#CMSS17-112"/>
      <use transform="translate(245.308563 0)scale(0.996264)" xlink:href="#CMSS17-101"/>
      <use transform="translate(286.947385 0)scale(0.996264)" xlink:href="#CMSS17-114"/>
     </g>
    </g>
    <g id="line2d_74">
     <path d="M 362.785608 71.188836 
L 376.785608 71.188836 
" style="fill:none;stroke:#e31a1c;stroke-dasharray:1.2,1.2;stroke-dashoffset:0;stroke-width:1.2;"/>
    </g>
    <g id="line2d_75"/>
    <g id="text_39">
     <!-- Redirector -->
     <g style="fill:#262626;" transform="translate(382.385608 73.638836)scale(0.07 -0.07)">
      <use transform="scale(0.996264)" xlink:href="#CMSS17-82"/>
      <use transform="translate(60.416155 0)scale(0.996264)" xlink:href="#CMSS17-101"/>
      <use transform="translate(102.054977 0)scale(0.996264)" xlink:href="#CMSS17-100"/>
      <use transform="translate(150.25992 0)scale(0.996264)" xlink:href="#CMSS17-105"/>
      <use transform="translate(172.440643 0)scale(0.996264)" xlink:href="#CMSS17-114"/>
      <use transform="translate(204.350416 0)scale(0.996264)" xlink:href="#CMSS17-101"/>
      <use transform="translate(245.989238 0)scale(0.996264)" xlink:href="#CMSS17-99"/>
      <use transform="translate(287.62806 0)scale(0.996264)" xlink:href="#CMSS17-116"/>
      <use transform="translate(321.459626 0)scale(0.996264)" xlink:href="#CMSS17-111"/>
      <use transform="translate(365.700796 0)scale(0.996264)" xlink:href="#CMSS17-114"/>
     </g>
    </g>
    <g id="line2d_76">
     <path d="M 362.785608 80.94485 
L 376.785608 80.94485 
" style="fill:none;stroke:#ff7f00;stroke-dasharray:3.6,1.2,1.8,1.2;stroke-dashoffset:0;stroke-width:1.2;"/>
    </g>
    <g id="line2d_77"/>
    <g id="text_40">
     <!-- Scheduler -->
     <g style="fill:#262626;" transform="translate(382.385608 83.39485)scale(0.07 -0.07)">
      <use transform="scale(0.996264)" xlink:href="#CMSS17-83"/>
      <use transform="translate(52.048516 0)scale(0.996264)" xlink:href="#CMSS17-99"/>
      <use transform="translate(93.687338 0)scale(0.996264)" xlink:href="#CMSS17-104"/>
      <use transform="translate(141.892281 0)scale(0.996264)" xlink:href="#CMSS17-101"/>
      <use transform="translate(183.531103 0)scale(0.996264)" xlink:href="#CMSS17-100"/>
      <use transform="translate(231.736047 0)scale(0.996264)" xlink:href="#CMSS17-117"/>
      <use transform="translate(279.94099 0)scale(0.996264)" xlink:href="#CMSS17-108"/>
      <use transform="translate(302.121713 0)scale(0.996264)" xlink:href="#CMSS17-101"/>
      <use transform="translate(343.760535 0)scale(0.996264)" xlink:href="#CMSS17-114"/>
     </g>
    </g>
    <g id="line2d_78">
     <path d="M 362.785608 90.700864 
L 376.785608 90.700864 
" style="fill:none;stroke:#6a3d9a;stroke-dasharray:6,1.2,1.2,1.2;stroke-dashoffset:0;stroke-width:1.2;"/>
    </g>
    <g id="line2d_79"/>
    <g id="text_41">
     <!-- Shaper -->
     <g style="fill:#262626;" transform="translate(382.385608 93.150864)scale(0.07 -0.07)">
      <use transform="scale(0.996264)" xlink:href="#CMSS17-83"/>
      <use transform="translate(52.048516 0)scale(0.996264)" xlink:href="#CMSS17-104"/>
      <use transform="translate(100.253459 0)scale(0.996264)" xlink:href="#CMSS17-97"/>
      <use transform="translate(145.17538 0)scale(0.996264)" xlink:href="#CMSS17-112"/>
      <use transform="translate(195.982762 0)scale(0.996264)" xlink:href="#CMSS17-101"/>
      <use transform="translate(237.621584 0)scale(0.996264)" xlink:href="#CMSS17-114"/>
     </g>
    </g>
   </g>
  </g>
  <g id="axes_4">
   <g id="patch_20">
    <path d="M 466.728053 100.806879 
L 562.464 100.806879 
L 562.464 19.841765 
L 466.728053 19.841765 
z
" style="fill:#ffffff;"/>
   </g>
   <g id="matplotlib.axis_7">
    <g id="xtick_9">
     <g id="line2d_80">
      <path clip-path="url(#p15ddfae4b7)" d="M 471.079687 100.806879 
L 471.079687 19.841765 
" style="fill:none;stroke:#cccccc;stroke-linecap:round;stroke-width:0.8;"/>
     </g>
     <g id="line2d_81">
      <g>
       <use style="fill:#262626;stroke:#262626;" x="471.079687" xlink:href="#m377cfefca3" y="100.806879"/>
      </g>
     </g>
     <g id="text_42">
      <!-- $0$ -->
      <g style="fill:#262626;" transform="translate(468.750888 115.195162)scale(0.088 -0.088)">
       <use transform="scale(0.996264)" xlink:href="#CMR17-48"/>
      </g>
     </g>
    </g>
    <g id="xtick_10">
     <g id="line2d_82">
      <path clip-path="url(#p15ddfae4b7)" d="M 505.522158 100.806879 
L 505.522158 19.841765 
" style="fill:none;stroke:#cccccc;stroke-linecap:round;stroke-width:0.8;"/>
     </g>
     <g id="line2d_83">
      <g>
       <use style="fill:#262626;stroke:#262626;" x="505.522158" xlink:href="#m377cfefca3" y="100.806879"/>
      </g>
     </g>
     <g id="text_43">
      <!-- $10000$ -->
      <g style="fill:#262626;" transform="translate(493.878163 115.195162)scale(0.088 -0.088)">
       <use transform="scale(0.996264)" xlink:href="#CMR17-49"/>
       <use transform="translate(45.690477 0)scale(0.996264)" xlink:href="#CMR17-48"/>
       <use transform="translate(91.380954 0)scale(0.996264)" xlink:href="#CMR17-48"/>
       <use transform="translate(137.071431 0)scale(0.996264)" xlink:href="#CMR17-48"/>
       <use transform="translate(182.761908 0)scale(0.996264)" xlink:href="#CMR17-48"/>
      </g>
     </g>
    </g>
    <g id="xtick_11">
     <g id="line2d_84">
      <path clip-path="url(#p15ddfae4b7)" d="M 539.964628 100.806879 
L 539.964628 19.841765 
" style="fill:none;stroke:#cccccc;stroke-linecap:round;stroke-width:0.8;"/>
     </g>
     <g id="line2d_85">
      <g>
       <use style="fill:#262626;stroke:#262626;" x="539.964628" xlink:href="#m377cfefca3" y="100.806879"/>
      </g>
     </g>
     <g id="text_44">
      <!-- $20000$ -->
      <g style="fill:#262626;" transform="translate(528.320633 115.195162)scale(0.088 -0.088)">
       <use transform="scale(0.996264)" xlink:href="#CMR17-50"/>
       <use transform="translate(45.690477 0)scale(0.996264)" xlink:href="#CMR17-48"/>
       <use transform="translate(91.380954 0)scale(0.996264)" xlink:href="#CMR17-48"/>
       <use transform="translate(137.071431 0)scale(0.996264)" xlink:href="#CMR17-48"/>
       <use transform="translate(182.761908 0)scale(0.996264)" xlink:href="#CMR17-48"/>
      </g>
     </g>
    </g>
    <g id="text_45">
     <!-- Time (ms) -->
     <g style="fill:#262626;" transform="translate(492.727829 128.072972)scale(0.096 -0.096)">
      <use transform="scale(0.996264)" xlink:href="#CMSS17-84"/>
      <use transform="translate(63.819454 0)scale(0.996264)" xlink:href="#CMSS17-105"/>
      <use transform="translate(86.000177 0)scale(0.996264)" xlink:href="#CMSS17-109"/>
      <use transform="translate(160.229431 0)scale(0.996264)" xlink:href="#CMSS17-101"/>
      <use transform="translate(233.097366 0)scale(0.996264)" xlink:href="#CMSS17-40"/>
      <use transform="translate(269.53128 0)scale(0.996264)" xlink:href="#CMSS17-109"/>
      <use transform="translate(343.760535 0)scale(0.996264)" xlink:href="#CMSS17-115"/>
      <use transform="translate(379.674077 0)scale(0.996264)" xlink:href="#CMSS17-41"/>
     </g>
    </g>
   </g>
   <g id="matplotlib.axis_8">
    <g id="ytick_10">
     <g id="line2d_86">
      <path clip-path="url(#p15ddfae4b7)" d="M 466.728053 100.806879 
L 562.464 100.806879 
" style="fill:none;stroke:#cccccc;stroke-linecap:round;stroke-width:0.8;"/>
     </g>
     <g id="line2d_87">
      <g>
       <use style="fill:#262626;stroke:#262626;" x="466.728053" xlink:href="#m95fdf5ace0" y="100.806879"/>
      </g>
     </g>
     <g id="text_46">
      <!-- $0.0$ -->
      <g style="fill:#262626;" transform="translate(446.525301 103.85102)scale(0.088 -0.088)">
       <use transform="scale(0.996264)" xlink:href="#CMR17-48"/>
       <use transform="translate(45.690477 0)scale(0.996264)" xlink:href="#CMMI12-58"/>
       <use transform="translate(72.787654 0)scale(0.996264)" xlink:href="#CMR17-48"/>
      </g>
     </g>
    </g>
    <g id="ytick_11">
     <g id="line2d_88">
      <path clip-path="url(#p15ddfae4b7)" d="M 466.728053 64.004554 
L 562.464 64.004554 
" style="fill:none;stroke:#cccccc;stroke-linecap:round;stroke-width:0.8;"/>
     </g>
     <g id="line2d_89">
      <g>
       <use style="fill:#262626;stroke:#262626;" x="466.728053" xlink:href="#m95fdf5ace0" y="64.004554"/>
      </g>
     </g>
     <g id="text_47">
      <!-- $0.5$ -->
      <g style="fill:#262626;" transform="translate(446.525301 67.048696)scale(0.088 -0.088)">
       <use transform="scale(0.996264)" xlink:href="#CMR17-48"/>
       <use transform="translate(45.690477 0)scale(0.996264)" xlink:href="#CMMI12-58"/>
       <use transform="translate(72.787654 0)scale(0.996264)" xlink:href="#CMR17-53"/>
      </g>
     </g>
    </g>
    <g id="ytick_12">
     <g id="line2d_90">
      <path clip-path="url(#p15ddfae4b7)" d="M 466.728053 27.20223 
L 562.464 27.20223 
" style="fill:none;stroke:#cccccc;stroke-linecap:round;stroke-width:0.8;"/>
     </g>
     <g id="line2d_91">
      <g>
       <use style="fill:#262626;stroke:#262626;" x="466.728053" xlink:href="#m95fdf5ace0" y="27.20223"/>
      </g>
     </g>
     <g id="text_48">
      <!-- $1.0$ -->
      <g style="fill:#262626;" transform="translate(446.525301 30.246372)scale(0.088 -0.088)">
       <use transform="scale(0.996264)" xlink:href="#CMR17-49"/>
       <use transform="translate(45.690477 0)scale(0.996264)" xlink:href="#CMMI12-58"/>
       <use transform="translate(72.787654 0)scale(0.996264)" xlink:href="#CMR17-48"/>
      </g>
     </g>
    </g>
    <g id="text_49">
     <!-- CDF -->
     <g style="fill:#262626;" transform="translate(440.665606 69.833044)rotate(-90)scale(0.096 -0.096)">
      <use transform="scale(0.996264)" xlink:href="#CMSS17-67"/>
      <use transform="translate(59.855772 0)scale(0.996264)" xlink:href="#CMSS17-68"/>
      <use transform="translate(127.398613 0)scale(0.996264)" xlink:href="#CMSS17-70"/>
     </g>
    </g>
   </g>
   <g id="line2d_92">
    <path clip-path="url(#p15ddfae4b7)" d="M 471.079687 100.806879 
L 473.341964 100.806879 
L 475.60424 99.40839 
L 477.866517 98.328855 
L 480.128793 97.543739 
L 482.39107 93.618158 
L 484.653346 88.465832 
L 486.915623 83.092693 
L 489.177899 78.651879 
L 491.440176 69.721182 
L 493.702452 61.82095 
L 495.964729 56.398741 
L 498.227005 52.497694 
L 500.489281 47.762462 
L 502.751558 43.100834 
L 505.013834 39.66595 
L 507.276111 36.181997 
L 509.538387 32.747113 
L 511.800664 30.440835 
L 514.06294 29.336765 
L 516.325217 28.723393 
L 518.587493 28.379904 
L 520.84977 28.085486 
L 523.112046 27.791067 
L 525.374323 27.423044 
L 527.636599 27.324904 
L 529.898876 27.226765 
L 532.161152 27.226765 
L 534.423429 27.226765 
L 536.685705 27.226765 
" style="fill:none;stroke:#1f78b4;stroke-linecap:round;stroke-width:1.2;"/>
   </g>
   <g id="line2d_93">
    <path clip-path="url(#p15ddfae4b7)" d="M 471.079687 100.806879 
L 473.673562 100.806879 
L 476.267436 98.893158 
L 478.86131 98.058972 
L 481.455185 97.322925 
L 484.049059 96.660484 
L 486.642933 95.679088 
L 489.236808 90.943856 
L 491.830682 83.975949 
L 494.424556 78.185717 
L 497.018431 74.18653 
L 499.612305 69.647578 
L 502.206179 64.470717 
L 504.800054 57.012113 
L 507.393928 49.21002 
L 509.987802 43.689671 
L 512.581677 41.604206 
L 515.175551 39.224322 
L 517.769425 35.445951 
L 520.3633 33.360486 
L 522.957174 31.299556 
L 525.551048 29.778393 
L 528.144923 29.042346 
L 530.738797 28.625253 
L 533.332671 28.25723 
L 535.926546 27.717463 
L 538.52042 27.496649 
L 541.114294 27.472114 
L 543.708169 27.398509 
L 546.302043 27.300369 
" style="fill:none;stroke:#33a02c;stroke-dasharray:4.8,1.8;stroke-dashoffset:0;stroke-width:1.2;"/>
   </g>
   <g id="line2d_94">
    <path clip-path="url(#p15ddfae4b7)" d="M 471.079687 100.806879 
L 474.080814 100.806879 
L 477.081941 98.844088 
L 480.083068 97.519204 
L 483.084195 96.071646 
L 486.085322 94.035251 
L 489.086448 78.529205 
L 492.087575 71.095135 
L 495.088702 66.286298 
L 498.089829 60.545136 
L 501.090956 51.001066 
L 504.092083 41.088974 
L 507.09321 37.899439 
L 510.094336 35.568625 
L 513.095463 33.262346 
L 516.09659 31.446765 
L 519.097717 29.606649 
L 522.098844 28.870602 
L 525.099971 28.232695 
L 528.101097 27.791067 
L 531.102224 27.643858 
L 534.103351 27.570253 
L 537.104478 27.373974 
L 540.105605 27.2513 
L 543.106732 27.2513 
L 546.107859 27.2513 
L 549.108986 27.2513 
L 552.110112 27.2513 
L 555.111239 27.2513 
L 558.112366 27.2513 
" style="fill:none;stroke:#e31a1c;stroke-dasharray:1.2,1.2;stroke-dashoffset:0;stroke-width:1.2;"/>
   </g>
   <g id="line2d_95">
    <path clip-path="url(#p15ddfae4b7)" d="M 471.079687 100.806879 
L 472.986019 100.806879 
L 474.89235 100.757809 
L 476.798681 100.733274 
L 478.705013 100.684204 
L 480.611344 99.285716 
L 482.517675 98.034437 
L 484.424007 95.924437 
L 486.330338 93.372809 
L 488.23667 89.373623 
L 490.143001 84.711995 
L 492.049332 79.65781 
L 493.955664 74.38281 
L 495.861995 68.126415 
L 497.768326 60.888624 
L 499.674658 54.33781 
L 501.580989 48.302229 
L 503.48732 43.223509 
L 505.393652 40.107578 
L 507.299983 37.506881 
L 509.206314 34.292811 
L 511.112646 32.035602 
L 513.018977 29.557579 
L 514.925309 28.870602 
L 516.83164 28.20816 
L 518.737971 27.913742 
L 520.644303 27.570253 
L 522.550634 27.472114 
L 524.456965 27.398509 
L 526.363297 27.226765 
" style="fill:none;stroke:#ff7f00;stroke-dasharray:3.6,1.2,1.8,1.2;stroke-dashoffset:0;stroke-width:1.2;"/>
   </g>
   <g id="line2d_96">
    <path clip-path="url(#p15ddfae4b7)" d="M 471.079687 100.806879 
L 473.167614 100.806879 
L 475.25554 100.316181 
L 477.343466 99.825483 
L 479.431393 99.50653 
L 481.519319 99.163041 
L 483.607245 98.083507 
L 485.695171 89.030135 
L 487.783098 81.007228 
L 489.871024 75.585019 
L 491.95895 71.242345 
L 494.046877 66.727926 
L 496.134803 59.56374 
L 498.222729 48.277694 
L 500.310656 43.223509 
L 502.398582 38.512811 
L 504.486508 36.231067 
L 506.574435 34.341881 
L 508.662361 32.060137 
L 510.750287 30.661648 
L 512.838214 29.508509 
L 514.92614 28.502579 
L 517.014066 28.330835 
L 519.101993 28.183625 
L 521.189919 27.791067 
L 523.277845 27.692928 
L 525.365772 27.521183 
L 527.453698 27.324904 
L 529.541624 27.300369 
L 531.62955 27.300369 
" style="fill:none;stroke:#6a3d9a;stroke-dasharray:6,1.2,1.2,1.2;stroke-dashoffset:0;stroke-width:1.2;"/>
   </g>
   <g id="patch_21">
    <path d="M 466.728053 100.806879 
L 466.728053 19.841765 
" style="fill:none;stroke:#262626;stroke-linecap:square;stroke-linejoin:miter;"/>
   </g>
   <g id="patch_22">
    <path d="M 562.464 100.806879 
L 562.464 19.841765 
" style="fill:none;stroke:#262626;stroke-linecap:square;stroke-linejoin:miter;"/>
   </g>
   <g id="patch_23">
    <path d="M 466.728053 100.806879 
L 562.464 100.806879 
" style="fill:none;stroke:#262626;stroke-linecap:square;stroke-linejoin:miter;"/>
   </g>
   <g id="patch_24">
    <path d="M 466.728053 19.841765 
L 562.464 19.841765 
" style="fill:none;stroke:#262626;stroke-linecap:square;stroke-linejoin:miter;"/>
   </g>
   <g id="text_50">
    <!-- $\lambda =150$ -->
    <g style="fill:#262626;" transform="translate(497.803568 13.841765)scale(0.096 -0.096)">
     <use transform="scale(0.996264)" xlink:href="#CMMI12-21"/>
     <use transform="translate(84.578081 0)scale(0.996264)" xlink:href="#CMR17-61"/>
     <use transform="translate(183.966878 0)scale(0.996264)" xlink:href="#CMR17-49"/>
     <use transform="translate(229.657355 0)scale(0.996264)" xlink:href="#CMR17-53"/>
     <use transform="translate(275.347832 0)scale(0.996264)" xlink:href="#CMR17-48"/>
    </g>
   </g>
   <g id="legend_4">
    <g id="patch_25">
     <path d="M 503.660221 97.306879 
L 557.564 97.306879 
Q 558.964 97.306879 558.964 95.906879 
L 558.964 47.826808 
Q 558.964 46.426808 557.564 46.426808 
L 503.660221 46.426808 
Q 502.260221 46.426808 502.260221 47.826808 
L 502.260221 95.906879 
Q 502.260221 97.306879 503.660221 97.306879 
z
" style="fill:#ffffff;opacity:0.8;stroke:#cccccc;stroke-linejoin:miter;stroke-width:0.8;"/>
    </g>
    <g id="line2d_97">
     <path d="M 505.060221 51.676808 
L 519.060221 51.676808 
" style="fill:none;stroke:#1f78b4;stroke-linecap:round;stroke-width:1.2;"/>
    </g>
    <g id="line2d_98"/>
    <g id="text_51">
     <!-- Classifier -->
     <g style="fill:#262626;" transform="translate(524.660221 54.126808)scale(0.07 -0.07)">
      <use transform="scale(0.996264)" xlink:href="#CMSS17-67"/>
      <use transform="translate(59.855772 0)scale(0.996264)" xlink:href="#CMSS17-108"/>
      <use transform="translate(82.036495 0)scale(0.996264)" xlink:href="#CMSS17-97"/>
      <use transform="translate(126.958415 0)scale(0.996264)" xlink:href="#CMSS17-115"/>
      <use transform="translate(162.871957 0)scale(0.996264)" xlink:href="#CMSS17-115"/>
      <use transform="translate(198.785499 0)scale(0.996264)" xlink:href="#CMSS17-105"/>
      <use transform="translate(220.966222 0)scale(0.996264)" xlink:href="#CMSS17-12"/>
      <use transform="translate(271.09296 0)scale(0.996264)" xlink:href="#CMSS17-101"/>
      <use transform="translate(312.731782 0)scale(0.996264)" xlink:href="#CMSS17-114"/>
     </g>
    </g>
    <g id="line2d_99">
     <path d="M 505.060221 61.432822 
L 519.060221 61.432822 
" style="fill:none;stroke:#33a02c;stroke-dasharray:4.8,1.8;stroke-dashoffset:0;stroke-width:1.2;"/>
    </g>
    <g id="line2d_100"/>
    <g id="text_52">
     <!-- Dropper -->
     <g style="fill:#262626;" transform="translate(524.660221 63.882822)scale(0.07 -0.07)">
      <use transform="scale(0.996264)" xlink:href="#CMSS17-68"/>
      <use transform="translate(67.542842 0)scale(0.996264)" xlink:href="#CMSS17-114"/>
      <use transform="translate(99.452614 0)scale(0.996264)" xlink:href="#CMSS17-111"/>
      <use transform="translate(146.296238 0)scale(0.996264)" xlink:href="#CMSS17-112"/>
      <use transform="translate(194.501181 0)scale(0.996264)" xlink:href="#CMSS17-112"/>
      <use transform="translate(245.308563 0)scale(0.996264)" xlink:href="#CMSS17-101"/>
      <use transform="translate(286.947385 0)scale(0.996264)" xlink:href="#CMSS17-114"/>
     </g>
    </g>
    <g id="line2d_101">
     <path d="M 505.060221 71.188836 
L 519.060221 71.188836 
" style="fill:none;stroke:#e31a1c;stroke-dasharray:1.2,1.2;stroke-dashoffset:0;stroke-width:1.2;"/>
    </g>
    <g id="line2d_102"/>
    <g id="text_53">
     <!-- Redirector -->
     <g style="fill:#262626;" transform="translate(524.660221 73.638836)scale(0.07 -0.07)">
      <use transform="scale(0.996264)" xlink:href="#CMSS17-82"/>
      <use transform="translate(60.416155 0)scale(0.996264)" xlink:href="#CMSS17-101"/>
      <use transform="translate(102.054977 0)scale(0.996264)" xlink:href="#CMSS17-100"/>
      <use transform="translate(150.25992 0)scale(0.996264)" xlink:href="#CMSS17-105"/>
      <use transform="translate(172.440643 0)scale(0.996264)" xlink:href="#CMSS17-114"/>
      <use transform="translate(204.350416 0)scale(0.996264)" xlink:href="#CMSS17-101"/>
      <use transform="translate(245.989238 0)scale(0.996264)" xlink:href="#CMSS17-99"/>
      <use transform="translate(287.62806 0)scale(0.996264)" xlink:href="#CMSS17-116"/>
      <use transform="translate(321.459626 0)scale(0.996264)" xlink:href="#CMSS17-111"/>
      <use transform="translate(365.700796 0)scale(0.996264)" xlink:href="#CMSS17-114"/>
     </g>
    </g>
    <g id="line2d_103">
     <path d="M 505.060221 80.94485 
L 519.060221 80.94485 
" style="fill:none;stroke:#ff7f00;stroke-dasharray:3.6,1.2,1.8,1.2;stroke-dashoffset:0;stroke-width:1.2;"/>
    </g>
    <g id="line2d_104"/>
    <g id="text_54">
     <!-- Scheduler -->
     <g style="fill:#262626;" transform="translate(524.660221 83.39485)scale(0.07 -0.07)">
      <use transform="scale(0.996264)" xlink:href="#CMSS17-83"/>
      <use transform="translate(52.048516 0)scale(0.996264)" xlink:href="#CMSS17-99"/>
      <use transform="translate(93.687338 0)scale(0.996264)" xlink:href="#CMSS17-104"/>
      <use transform="translate(141.892281 0)scale(0.996264)" xlink:href="#CMSS17-101"/>
      <use transform="translate(183.531103 0)scale(0.996264)" xlink:href="#CMSS17-100"/>
      <use transform="translate(231.736047 0)scale(0.996264)" xlink:href="#CMSS17-117"/>
      <use transform="translate(279.94099 0)scale(0.996264)" xlink:href="#CMSS17-108"/>
      <use transform="translate(302.121713 0)scale(0.996264)" xlink:href="#CMSS17-101"/>
      <use transform="translate(343.760535 0)scale(0.996264)" xlink:href="#CMSS17-114"/>
     </g>
    </g>
    <g id="line2d_105">
     <path d="M 505.060221 90.700864 
L 519.060221 90.700864 
" style="fill:none;stroke:#6a3d9a;stroke-dasharray:6,1.2,1.2,1.2;stroke-dashoffset:0;stroke-width:1.2;"/>
    </g>
    <g id="line2d_106"/>
    <g id="text_55">
     <!-- Shaper -->
     <g style="fill:#262626;" transform="translate(524.660221 93.150864)scale(0.07 -0.07)">
      <use transform="scale(0.996264)" xlink:href="#CMSS17-83"/>
      <use transform="translate(52.048516 0)scale(0.996264)" xlink:href="#CMSS17-104"/>
      <use transform="translate(100.253459 0)scale(0.996264)" xlink:href="#CMSS17-97"/>
      <use transform="translate(145.17538 0)scale(0.996264)" xlink:href="#CMSS17-112"/>
      <use transform="translate(195.982762 0)scale(0.996264)" xlink:href="#CMSS17-101"/>
      <use transform="translate(237.621584 0)scale(0.996264)" xlink:href="#CMSS17-114"/>
     </g>
    </g>
   </g>
  </g>
 </g>
 <defs>
  <clipPath id="p4f5cbd5660">
   <rect height="80.965113" width="95.735947" x="39.904212" y="19.841765"/>
  </clipPath>
  <clipPath id="pf8ee1f841e">
   <rect height="80.965113" width="95.735947" x="182.178826" y="19.841765"/>
  </clipPath>
  <clipPath id="p5455e71738">
   <rect height="80.965113" width="95.735947" x="324.45344" y="19.841765"/>
  </clipPath>
  <clipPath id="p15ddfae4b7">
   <rect height="80.965113" width="95.735947" x="466.728053" y="19.841765"/>
  </clipPath>
 </defs>
</svg>
