<?xml version="1.0" encoding="utf-8" standalone="no"?>
<!DOCTYPE svg PUBLIC "-//W3C//DTD SVG 1.1//EN"
  "http://www.w3.org/Graphics/SVG/1.1/DTD/svg11.dtd">
<!-- Created with matplotlib (https://matplotlib.org/) -->
<svg height="137.664pt" version="1.1" viewBox="0 0 569.605145 137.664" width="569.605145pt" xmlns="http://www.w3.org/2000/svg" xmlns:xlink="http://www.w3.org/1999/xlink">
 <defs>
  <style type="text/css">
*{stroke-linecap:butt;stroke-linejoin:round;}
  </style>
 </defs>
 <g id="figure_1">
  <g id="patch_1">
   <path d="M 0 137.664 
L 569.605145 137.664 
L 569.605145 0 
L 0 0 
z
" style="fill:#ffffff;"/>
  </g>
  <g id="axes_1">
   <g id="patch_2">
    <path d="M 39.904212 100.806879 
L 137.581572 100.806879 
L 137.581572 19.841765 
L 39.904212 19.841765 
z
" style="fill:#ffffff;"/>
   </g>
   <g id="matplotlib.axis_1">
    <g id="xtick_1">
     <g id="line2d_1">
      <path clip-path="url(#p7e492eb594)" d="M 44.344092 100.806879 
L 44.344092 19.841765 
" style="fill:none;stroke:#cccccc;stroke-linecap:round;stroke-width:0.8;"/>
     </g>
     <g id="line2d_2">
      <defs>
       <path d="M 0 0 
L 0 4.8 
" id="me0952e61da" style="stroke:#262626;"/>
      </defs>
      <g>
       <use style="fill:#262626;stroke:#262626;" x="44.344092" xlink:href="#me0952e61da" y="100.806879"/>
      </g>
     </g>
     <g id="text_1">
      <!-- $0$ -->
      <defs>
       <path d="M 42 31.640625 
C 42 37.75 41.90625 48.125 37.703125 56.109375 
C 34 63.109375 28.09375 65.59375 22.90625 65.59375 
C 18.09375 65.59375 12 63.40625 8.203125 56.203125 
C 4.203125 48.71875 3.796875 39.4375 3.796875 31.640625 
C 3.796875 25.953125 3.90625 17.28125 7 9.671875 
C 11.296875 -0.609375 19 -2 22.90625 -2 
C 27.5 -2 34.5 -0.109375 38.59375 9.375 
C 41.59375 16.28125 42 24.359375 42 31.640625 
z
M 22.90625 -0.40625 
C 16.5 -0.40625 12.703125 5.078125 11.296875 12.6875 
C 10.203125 18.5625 10.203125 27.15625 10.203125 32.75 
C 10.203125 40.4375 10.203125 46.828125 11.5 52.921875 
C 13.40625 61.390625 19 64 22.90625 64 
C 27 64 32.296875 61.296875 34.203125 53.125 
C 35.5 47.4375 35.59375 40.734375 35.59375 32.75 
C 35.59375 26.25 35.59375 18.265625 34.40625 12.375 
C 32.296875 1.484375 26.40625 -0.40625 22.90625 -0.40625 
z
" id="CMR17-48"/>
      </defs>
      <g style="fill:#262626;" transform="translate(42.015293 115.195162)scale(0.088 -0.088)">
       <use transform="scale(0.996264)" xlink:href="#CMR17-48"/>
      </g>
     </g>
    </g>
    <g id="xtick_2">
     <g id="line2d_3">
      <path clip-path="url(#p7e492eb594)" d="M 96.577975 100.806879 
L 96.577975 19.841765 
" style="fill:none;stroke:#cccccc;stroke-linecap:round;stroke-width:0.8;"/>
     </g>
     <g id="line2d_4">
      <g>
       <use style="fill:#262626;stroke:#262626;" x="96.577975" xlink:href="#me0952e61da" y="100.806879"/>
      </g>
     </g>
     <g id="text_2">
      <!-- $50$ -->
      <defs>
       <path d="M 11.40625 57.6875 
C 12.40625 57.28125 16.5 56 20.703125 56 
C 30 56 35.09375 61.109375 38 64.0625 
C 38 64.953125 38 65.5 37.40625 65.5 
C 37.296875 65.5 37.09375 65.5 36.296875 65.046875 
C 32.796875 63.40625 28.703125 62.078125 23.703125 62.078125 
C 20.703125 62.078125 16.203125 62.484375 11.296875 64.671875 
C 10.203125 65.171875 10 65.171875 9.90625 65.171875 
C 9.40625 65.171875 9.296875 65.0625 9.296875 63.078125 
L 9.296875 34.421875 
C 9.296875 32.640625 9.296875 32.140625 10.296875 32.140625 
C 10.796875 32.140625 11 32.34375 11.5 33.03125 
C 14.703125 37.515625 19.09375 39.40625 24.09375 39.40625 
C 27.59375 39.40625 35.09375 37.21875 35.09375 20.140625 
C 35.09375 16.953125 35.09375 11.171875 32.09375 6.578125 
C 29.59375 2.484375 25.703125 0.390625 21.40625 0.390625 
C 14.796875 0.390625 8.09375 5 6.296875 12.71875 
C 6.703125 12.609375 7.5 12.421875 7.90625 12.421875 
C 9.203125 12.421875 11.703125 13.125 11.703125 16.21875 
C 11.703125 18.90625 9.796875 20 7.90625 20 
C 5.59375 20 4.09375 18.59375 4.09375 15.796875 
C 4.09375 7.09375 11 -2 21.59375 -2 
C 31.90625 -2 41.703125 6.875 41.703125 19.75 
C 41.703125 31.71875 33.90625 41 24.203125 41 
C 19.09375 41 14.796875 39.109375 11.40625 35.53125 
z
" id="CMR17-53"/>
      </defs>
      <g style="fill:#262626;" transform="translate(91.920377 115.195162)scale(0.088 -0.088)">
       <use transform="scale(0.996264)" xlink:href="#CMR17-53"/>
       <use transform="translate(45.690477 0)scale(0.996264)" xlink:href="#CMR17-48"/>
      </g>
     </g>
    </g>
    <g id="text_3">
     <!-- Time (ms) -->
     <defs>
      <path d="M 36.203125 62 
L 44.5 62 
C 45.703125 62 46.90625 62 48.09375 62 
L 60.59375 62 
L 60.59375 68.375 
L 3.40625 68.375 
L 3.40625 62 
L 15.90625 62 
C 17.09375 62 18.296875 62 19.5 62 
L 27.796875 62 
L 27.796875 -0.5 
L 36.203125 -0.5 
z
" id="CMSS17-84"/>
      <path d="M 15.296875 65.359375 
L 6.90625 65.359375 
L 6.90625 57 
L 15.296875 57 
z
M 14.796875 42.796875 
L 7.40625 42.796875 
L 7.40625 0 
L 14.796875 0 
z
" id="CMSS17-105"/>
      <path d="M 67 29.328125 
C 67 36.0625 65.296875 44 54.09375 44 
C 46.59375 44 42.09375 39.3125 40.09375 36.421875 
C 38.296875 41.71875 34.09375 44 28.09375 44 
C 21.296875 44 17 40.125 14.703125 37.328125 
L 14.703125 43.09375 
L 7.40625 43.09375 
L 7.40625 0 
L 15 0 
L 15 24.359375 
C 15 30.296875 17.203125 37.9375 24.296875 37.9375 
C 33.40625 37.9375 33.40625 31.5 33.40625 28.578125 
L 33.40625 0 
L 41 0 
L 41 24.359375 
C 41 30.296875 43.203125 37.9375 50.296875 37.9375 
C 59.40625 37.9375 59.40625 31.5 59.40625 28.578125 
L 59.40625 0 
L 67 0 
z
" id="CMSS17-109"/>
      <path d="M 39.09375 21.515625 
C 39.09375 24.84375 38.90625 31.296875 35.703125 36.640625 
C 32.203125 42.390625 26.5 44 22.203125 44 
C 11.796875 44 3 34.1875 3 21.484375 
C 3 9.09375 12.09375 -1 23.59375 -1 
C 28.09375 -1 33.59375 0.296875 38.59375 3.875 
C 38.59375 4.28125 38.40625 6.46875 38.296875 6.5625 
C 38.296875 6.765625 38 9.84375 38 10.25 
C 33.203125 6.359375 27.703125 5.078125 23.703125 5.078125 
C 17.296875 5.078125 10.40625 10.421875 10.09375 21.515625 
z
M 10.90625 27 
C 12.203125 32.5625 16.59375 37.828125 22.203125 37.828125 
C 23.703125 37.828125 30.703125 37.828125 32.5 27 
z
" id="CMSS17-101"/>
      <path d="M 25.203125 74.5 
C 19.796875 69.015625 7.40625 56.265625 7.40625 24.8125 
C 7.40625 -6.765625 19.796875 -19.421875 25.203125 -25 
L 31.296875 -25 
C 19 -12.25 15 5.578125 15 24.703125 
C 15 43.71875 18.796875 61.65625 31.296875 74.5 
z
" id="CMSS17-40"/>
      <path d="M 32.203125 41.046875 
C 26.296875 43.859375 21.703125 43.859375 18.703125 43.859375 
C 11.59375 43.859375 3.09375 41.375 3.09375 31.296875 
C 3.09375 21.234375 14.09375 19.03125 17.09375 18.421875 
C 21.703125 17.53125 26.796875 16.53125 26.796875 11.5625 
C 26.796875 5.265625 19.59375 5.265625 18.296875 5.265625 
C 14.296875 5.265625 8.796875 6.359375 3.796875 9.96875 
L 2.59375 3.28125 
C 8.296875 0 13.796875 -1 18.40625 -1 
C 30.703125 -1 33.796875 6.5 33.796875 12.203125 
C 33.796875 17.09375 31 20.390625 29.09375 21.890625 
C 25.796875 24.5 24.59375 24.796875 16.40625 26.5 
C 15 26.703125 10.09375 27.796875 10.09375 32.28125 
C 10.09375 38 16.40625 38 17.796875 38 
C 24.296875 38 28.296875 35.984375 31 34.5 
z
" id="CMSS17-115"/>
      <path d="M 11.296875 -25 
C 16.703125 -19.515625 29.09375 -6.765625 29.09375 24.703125 
C 29.09375 56.265625 16.703125 68.921875 11.296875 74.5 
L 5.203125 74.5 
C 17.5 61.75 21.5 43.921875 21.5 24.8125 
C 21.5 5.78125 17.703125 -12.15625 5.203125 -25 
z
" id="CMSS17-41"/>
     </defs>
     <g style="fill:#262626;" transform="translate(66.874695 128.072972)scale(0.096 -0.096)">
      <use transform="scale(0.996264)" xlink:href="#CMSS17-84"/>
      <use transform="translate(63.819454 0)scale(0.996264)" xlink:href="#CMSS17-105"/>
      <use transform="translate(86.000177 0)scale(0.996264)" xlink:href="#CMSS17-109"/>
      <use transform="translate(160.229431 0)scale(0.996264)" xlink:href="#CMSS17-101"/>
      <use transform="translate(233.097366 0)scale(0.996264)" xlink:href="#CMSS17-40"/>
      <use transform="translate(269.53128 0)scale(0.996264)" xlink:href="#CMSS17-109"/>
      <use transform="translate(343.760535 0)scale(0.996264)" xlink:href="#CMSS17-115"/>
      <use transform="translate(379.674077 0)scale(0.996264)" xlink:href="#CMSS17-41"/>
     </g>
    </g>
   </g>
   <g id="matplotlib.axis_2">
    <g id="ytick_1">
     <g id="line2d_5">
      <path clip-path="url(#p7e492eb594)" d="M 39.904212 100.806879 
L 137.581572 100.806879 
" style="fill:none;stroke:#cccccc;stroke-linecap:round;stroke-width:0.8;"/>
     </g>
     <g id="line2d_6">
      <defs>
       <path d="M 0 0 
L -4.8 0 
" id="mb1c2958d7e" style="stroke:#262626;"/>
      </defs>
      <g>
       <use style="fill:#262626;stroke:#262626;" x="39.904212" xlink:href="#mb1c2958d7e" y="100.806879"/>
      </g>
     </g>
     <g id="text_4">
      <!-- $0.0$ -->
      <defs>
       <path d="M 18.40625 4.796875 
C 18.40625 7.6875 16 9.671875 13.59375 9.671875 
C 10.703125 9.671875 8.703125 7.28125 8.703125 4.890625 
C 8.703125 2 11.09375 0 13.5 0 
C 16.40625 0 18.40625 2.390625 18.40625 4.796875 
z
" id="CMMI12-58"/>
      </defs>
      <g style="fill:#262626;" transform="translate(19.70146 103.85102)scale(0.088 -0.088)">
       <use transform="scale(0.996264)" xlink:href="#CMR17-48"/>
       <use transform="translate(45.690477 0)scale(0.996264)" xlink:href="#CMMI12-58"/>
       <use transform="translate(72.787654 0)scale(0.996264)" xlink:href="#CMR17-48"/>
      </g>
     </g>
    </g>
    <g id="ytick_2">
     <g id="line2d_7">
      <path clip-path="url(#p7e492eb594)" d="M 39.904212 64.004554 
L 137.581572 64.004554 
" style="fill:none;stroke:#cccccc;stroke-linecap:round;stroke-width:0.8;"/>
     </g>
     <g id="line2d_8">
      <g>
       <use style="fill:#262626;stroke:#262626;" x="39.904212" xlink:href="#mb1c2958d7e" y="64.004554"/>
      </g>
     </g>
     <g id="text_5">
      <!-- $0.5$ -->
      <g style="fill:#262626;" transform="translate(19.70146 67.048696)scale(0.088 -0.088)">
       <use transform="scale(0.996264)" xlink:href="#CMR17-48"/>
       <use transform="translate(45.690477 0)scale(0.996264)" xlink:href="#CMMI12-58"/>
       <use transform="translate(72.787654 0)scale(0.996264)" xlink:href="#CMR17-53"/>
      </g>
     </g>
    </g>
    <g id="ytick_3">
     <g id="line2d_9">
      <path clip-path="url(#p7e492eb594)" d="M 39.904212 27.20223 
L 137.581572 27.20223 
" style="fill:none;stroke:#cccccc;stroke-linecap:round;stroke-width:0.8;"/>
     </g>
     <g id="line2d_10">
      <g>
       <use style="fill:#262626;stroke:#262626;" x="39.904212" xlink:href="#mb1c2958d7e" y="27.20223"/>
      </g>
     </g>
     <g id="text_6">
      <!-- $1.0$ -->
      <defs>
       <path d="M 26.59375 63.40625 
C 26.59375 65.5 26.5 65.5 25.09375 65.5 
C 21.203125 61.1875 15.296875 59.796875 9.703125 59.796875 
C 9.40625 59.796875 8.90625 59.796875 8.796875 59.5 
C 8.703125 59.296875 8.703125 59.09375 8.703125 57 
C 11.796875 57 17 57.59375 21 59.984375 
L 21 7.203125 
C 21 3.6875 20.796875 2.5 12.203125 2.5 
L 9.203125 2.5 
L 9.203125 0 
C 14 0 19 0 23.796875 0 
C 28.59375 0 33.59375 0 38.40625 0 
L 38.40625 2.5 
L 35.40625 2.5 
C 26.796875 2.5 26.59375 3.59375 26.59375 7.15625 
z
" id="CMR17-49"/>
      </defs>
      <g style="fill:#262626;" transform="translate(19.70146 30.246372)scale(0.088 -0.088)">
       <use transform="scale(0.996264)" xlink:href="#CMR17-49"/>
       <use transform="translate(45.690477 0)scale(0.996264)" xlink:href="#CMMI12-58"/>
       <use transform="translate(72.787654 0)scale(0.996264)" xlink:href="#CMR17-48"/>
      </g>
     </g>
    </g>
    <g id="text_7">
     <!-- CDF -->
     <defs>
      <path d="M 54.703125 11.15625 
C 48 6.671875 44.90625 5.375 36.796875 5.375 
C 22.796875 5.375 14.59375 20.359375 14.59375 34.046875 
C 14.59375 48.625 23 63 37.203125 63 
C 43.59375 63 47.796875 61.21875 52.90625 58.046875 
L 54.296875 65.890625 
C 49.5 68.28125 43.40625 69.375 37.296875 69.375 
C 18.09375 69.375 6.203125 51.8125 6.203125 34.046875 
C 6.203125 14.484375 20.296875 -1 36.296875 -1 
C 44.90625 -1 47.90625 -0.296875 55.296875 4.375 
z
" id="CMSS17-67"/>
      <path d="M 8.90625 69 
L 8.90625 0 
L 33.5 0 
C 49.90625 0 62.5 15.3125 62.5 33.90625 
C 62.5 53.09375 49.90625 69 33.5 69 
z
M 17.09375 5.578125 
L 17.09375 63.421875 
L 31.296875 63.421875 
C 44.703125 63.421875 54.296875 51.203125 54.296875 33.90625 
C 54.296875 17.296875 44.796875 5.578125 31.296875 5.578125 
z
" id="CMSS17-68"/>
      <path d="M 45.59375 31 
L 45.59375 37.078125 
L 17.203125 37.078125 
L 17.203125 62 
L 29.40625 62 
C 30.59375 62 31.796875 62 33 62 
L 49.5 62 
L 49.5 68.359375 
L 8.796875 68.359375 
L 8.796875 -0.5 
L 17.203125 -0.5 
L 17.203125 31 
z
" id="CMSS17-70"/>
     </defs>
     <g style="fill:#262626;" transform="translate(13.841765 69.833044)rotate(-90)scale(0.096 -0.096)">
      <use transform="scale(0.996264)" xlink:href="#CMSS17-67"/>
      <use transform="translate(59.855772 0)scale(0.996264)" xlink:href="#CMSS17-68"/>
      <use transform="translate(127.398613 0)scale(0.996264)" xlink:href="#CMSS17-70"/>
     </g>
    </g>
   </g>
   <g id="line2d_11">
    <path clip-path="url(#p7e492eb594)" d="M 44.344092 100.806879 
L 47.406079 98.009902 
L 50.468065 34.145602 
L 53.530051 30.538974 
L 56.592037 28.821532 
L 59.654023 28.232695 
L 62.71601 27.938276 
L 65.777996 27.545718 
L 68.839982 27.447579 
L 71.901968 27.373974 
L 74.963954 27.324904 
L 78.025941 27.324904 
L 81.087927 27.275835 
L 84.149913 27.2513 
L 87.211899 27.226765 
L 90.273885 27.226765 
L 93.335872 27.226765 
L 96.397858 27.226765 
L 99.459844 27.226765 
L 102.52183 27.226765 
L 105.583816 27.226765 
L 108.645803 27.226765 
L 111.707789 27.226765 
L 114.769775 27.226765 
L 117.831761 27.226765 
L 120.893747 27.226765 
L 123.955734 27.226765 
L 127.01772 27.226765 
L 130.079706 27.226765 
L 133.141692 27.226765 
" style="fill:none;stroke:#1f78b4;stroke-linecap:round;stroke-width:1.2;"/>
   </g>
   <g id="line2d_12">
    <path clip-path="url(#p7e492eb594)" d="M 44.344092 100.806879 
L 46.037191 85.619786 
L 47.730289 34.219206 
L 49.423387 30.710718 
L 51.116485 29.3613 
L 52.809584 28.576183 
L 54.502682 28.085486 
L 56.19578 27.864672 
L 57.888878 27.692928 
L 59.581977 27.619323 
L 61.275075 27.570253 
L 62.968173 27.472114 
L 64.661271 27.373974 
L 66.35437 27.324904 
L 68.047468 27.300369 
L 69.740566 27.300369 
L 71.433664 27.275835 
L 73.126763 27.2513 
L 74.819861 27.2513 
L 76.512959 27.226765 
L 78.206057 27.226765 
L 79.899156 27.226765 
L 81.592254 27.226765 
L 83.285352 27.226765 
L 84.97845 27.226765 
L 86.671549 27.226765 
L 88.364647 27.226765 
L 90.057745 27.226765 
L 91.750843 27.226765 
L 93.443942 27.226765 
" style="fill:none;stroke:#33a02c;stroke-dasharray:4.8,1.8;stroke-dashoffset:0;stroke-width:1.2;"/>
   </g>
   <g id="line2d_13">
    <path clip-path="url(#p7e492eb594)" d="M 44.344092 100.806879 
L 45.60491 55.000252 
L 46.865728 32.231881 
L 48.126546 29.385835 
L 49.387364 28.747928 
L 50.648182 28.453509 
L 51.908999 27.913742 
L 53.169817 27.668393 
L 54.430635 27.398509 
L 55.691453 27.349439 
L 56.952271 27.324904 
L 58.213089 27.2513 
L 59.473907 27.2513 
L 60.734724 27.226765 
L 61.995542 27.226765 
L 63.25636 27.226765 
L 64.517178 27.226765 
L 65.777996 27.226765 
L 67.038814 27.226765 
L 68.299631 27.226765 
L 69.560449 27.226765 
L 70.821267 27.226765 
L 72.082085 27.226765 
L 73.342903 27.226765 
L 74.603721 27.226765 
L 75.864539 27.226765 
L 77.125356 27.226765 
L 78.386174 27.226765 
L 79.646992 27.226765 
L 80.90781 27.226765 
" style="fill:none;stroke:#e31a1c;stroke-dasharray:1.2,1.2;stroke-dashoffset:0;stroke-width:1.2;"/>
   </g>
   <g id="line2d_14">
    <path clip-path="url(#p7e492eb594)" d="M 44.344092 100.806879 
L 45.06456 80.173042 
L 45.785027 80.173042 
L 46.505494 37.359671 
L 47.225962 29.091416 
L 47.946429 29.091416 
L 48.666896 28.085486 
L 49.387364 27.864672 
L 50.107831 27.864672 
L 50.828298 27.766532 
L 51.548766 27.594788 
L 52.269233 27.594788 
L 52.9897 27.545718 
L 53.710168 27.496649 
L 54.430635 27.496649 
L 55.151102 27.423044 
L 55.87157 27.373974 
L 56.592037 27.349439 
L 57.312504 27.349439 
L 58.032972 27.275835 
L 58.753439 27.2513 
L 59.473907 27.2513 
L 60.194374 27.2513 
L 60.914841 27.226765 
L 61.635309 27.226765 
L 62.355776 27.226765 
L 63.076243 27.226765 
L 63.796711 27.226765 
L 64.517178 27.226765 
L 65.237645 27.226765 
" style="fill:none;stroke:#ff7f00;stroke-dasharray:3.6,1.2,1.8,1.2;stroke-dashoffset:0;stroke-width:1.2;"/>
   </g>
   <g id="line2d_15">
    <path clip-path="url(#p7e492eb594)" d="M 44.344092 100.806879 
L 46.037191 100.806879 
L 47.730289 92.759437 
L 49.423387 33.115137 
L 51.116485 31.569439 
L 52.809584 29.950137 
L 54.502682 29.483974 
L 56.19578 29.336765 
L 57.888878 29.066881 
L 59.581977 28.993276 
L 61.275075 28.919672 
L 62.968173 28.796997 
L 64.661271 28.796997 
L 66.35437 28.747928 
L 68.047468 28.698858 
L 69.740566 28.674323 
L 71.433664 28.674323 
L 73.126763 28.674323 
L 74.819861 28.649788 
L 76.512959 28.649788 
L 78.206057 28.649788 
L 79.899156 28.649788 
L 81.592254 28.649788 
L 83.285352 28.649788 
L 84.97845 28.649788 
L 86.671549 28.649788 
L 88.364647 28.649788 
L 90.057745 28.649788 
L 91.750843 28.649788 
L 93.443942 28.649788 
" style="fill:none;stroke:#6a3d9a;stroke-dasharray:6,1.2,1.2,1.2;stroke-dashoffset:0;stroke-width:1.2;"/>
   </g>
   <g id="patch_3">
    <path d="M 39.904212 100.806879 
L 39.904212 19.841765 
" style="fill:none;stroke:#262626;stroke-linecap:square;stroke-linejoin:miter;"/>
   </g>
   <g id="patch_4">
    <path d="M 137.581572 100.806879 
L 137.581572 19.841765 
" style="fill:none;stroke:#262626;stroke-linecap:square;stroke-linejoin:miter;"/>
   </g>
   <g id="patch_5">
    <path d="M 39.904212 100.806879 
L 137.581572 100.806879 
" style="fill:none;stroke:#262626;stroke-linecap:square;stroke-linejoin:miter;"/>
   </g>
   <g id="patch_6">
    <path d="M 39.904212 19.841765 
L 137.581572 19.841765 
" style="fill:none;stroke:#262626;stroke-linecap:square;stroke-linejoin:miter;"/>
   </g>
   <g id="text_8">
    <!-- $\lambda =1$ -->
    <defs>
     <path d="M 30.90625 61.953125 
C 28.40625 69 20.5 69 19.203125 69 
C 18.59375 69 17.5 69 17.5 68 
C 17.5 67.21875 18.09375 67.109375 18.59375 67.015625 
C 20.09375 66.8125 21.296875 66.609375 22.90625 63.75 
C 23.90625 61.859375 34.203125 32.171875 34.203125 31.96875 
C 34.203125 31.875 34.09375 31.765625 33.296875 30.96875 
L 7.296875 4.859375 
C 6.09375 3.65625 5.296875 2.859375 5.296875 1.59375 
C 5.296875 0.1875 6.5 -1 8.09375 -1 
C 8.5 -1 9.59375 -0.796875 10.203125 -0.203125 
C 11.796875 1.28125 26.09375 18.65625 35.203125 29.390625 
C 37.796875 21.609375 41 12.453125 44.09375 4.078125 
C 44.59375 2.59375 45.09375 1.1875 46.5 -0.09375 
C 47.5 -1 47.703125 -1 50.5 -1 
L 52.40625 -1 
C 52.796875 -1 53.5 -1 53.5 -0.203125 
C 53.5 0.203125 53.40625 0.296875 53 0.703125 
C 52.09375 1.796875 51.40625 3.578125 51 4.78125 
z
" id="CMMI12-21"/>
     <path d="M 64.296875 31.515625 
C 65.796875 31.515625 67.296875 31.515625 67.296875 33.203125 
C 67.296875 35 65.59375 35 63.90625 35 
L 8 35 
C 6.296875 35 4.59375 35 4.59375 33.203125 
C 4.59375 31.515625 6.09375 31.515625 7.59375 31.515625 
z
M 63.90625 14 
C 65.59375 14 67.296875 14 67.296875 15.796875 
C 67.296875 17.484375 65.796875 17.484375 64.296875 17.484375 
L 7.59375 17.484375 
C 6.09375 17.484375 4.59375 17.484375 4.59375 15.796875 
C 4.59375 14 6.296875 14 8 14 
z
" id="CMR17-61"/>
    </defs>
    <g style="fill:#262626;" transform="translate(76.865306 13.841765)scale(0.096 -0.096)">
     <use transform="scale(0.996264)" xlink:href="#CMMI12-21"/>
     <use transform="translate(84.578081 0)scale(0.996264)" xlink:href="#CMR17-61"/>
     <use transform="translate(183.966878 0)scale(0.996264)" xlink:href="#CMR17-49"/>
    </g>
   </g>
   <g id="legend_1">
    <g id="patch_7">
     <path d="M 78.777794 97.306879 
L 132.681572 97.306879 
Q 134.081572 97.306879 134.081572 95.906879 
L 134.081572 47.826808 
Q 134.081572 46.426808 132.681572 46.426808 
L 78.777794 46.426808 
Q 77.377794 46.426808 77.377794 47.826808 
L 77.377794 95.906879 
Q 77.377794 97.306879 78.777794 97.306879 
z
" style="fill:#ffffff;opacity:0.8;stroke:#cccccc;stroke-linejoin:miter;stroke-width:0.8;"/>
    </g>
    <g id="line2d_16">
     <path d="M 80.177794 51.676808 
L 94.177794 51.676808 
" style="fill:none;stroke:#1f78b4;stroke-linecap:round;stroke-width:1.2;"/>
    </g>
    <g id="line2d_17"/>
    <g id="text_9">
     <!-- Classifier -->
     <defs>
      <path d="M 14.796875 69 
L 7.40625 69 
L 7.40625 0 
L 14.796875 0 
z
" id="CMSS17-108"/>
      <path d="M 37.59375 27.984375 
C 37.59375 37.375 30.90625 43.875 21.90625 43.875 
C 17.5 43.875 12.703125 43.078125 7.203125 39.890625 
L 7.796875 33.359375 
C 10.296875 35.125 14.59375 38 21.796875 38 
C 26.90625 38 30 34.0625 30 27.84375 
L 30 24 
C 14 24 4 19.34375 4 11.34375 
C 4 7.203125 6.5 -1 14.796875 -1 
C 16.296875 -1 24.40625 -1 30.203125 3.390625 
L 30.203125 -0.296875 
L 37.59375 -0.296875 
z
M 30 12.75 
C 30 10.953125 30 8.5625 27 6.78125 
C 24.40625 5.078125 21.09375 5.078125 19.703125 5.078125 
C 14.703125 5.078125 11.296875 7.984375 11.296875 11.625 
C 11.296875 18.921875 26.90625 18.921875 30 18.921875 
z
" id="CMSS17-97"/>
      <path d="M 43 69 
L 35 69 
L 35 61.03125 
L 43 61.03125 
z
M 42.703125 42.765625 
L 35.296875 42.765625 
L 35.296875 0 
L 42.703125 0 
z
M 16.796875 37 
L 27.703125 37 
L 27.703125 42.765625 
L 16.59375 42.765625 
L 16.59375 55.90625 
C 16.59375 61.234375 19 63.9375 22.203125 63.9375 
C 24.09375 63.9375 26 63.375 27.703125 62.375 
L 27.703125 68.90625 
C 26.90625 69.1875 24.59375 70 22.203125 70 
C 14.703125 70 9.40625 62.390625 9.40625 52.6875 
L 9.40625 42.765625 
L 2.5 42.765625 
L 2.5 37 
L 9.40625 37 
L 9.40625 0 
L 16.796875 0 
z
" id="CMSS17-12"/>
      <path d="M 14.90625 21.296875 
C 14.90625 30.703125 21.796875 37 30.59375 37 
L 30.59375 43.578125 
C 24.203125 43.578125 18.203125 40.390625 14.59375 35.203125 
L 14.59375 43.09375 
L 7.5 43.09375 
L 7.5 0 
L 14.90625 0 
z
" id="CMSS17-114"/>
     </defs>
     <g style="fill:#262626;" transform="translate(99.777794 54.126808)scale(0.07 -0.07)">
      <use transform="scale(0.996264)" xlink:href="#CMSS17-67"/>
      <use transform="translate(59.855772 0)scale(0.996264)" xlink:href="#CMSS17-108"/>
      <use transform="translate(82.036495 0)scale(0.996264)" xlink:href="#CMSS17-97"/>
      <use transform="translate(126.958415 0)scale(0.996264)" xlink:href="#CMSS17-115"/>
      <use transform="translate(162.871957 0)scale(0.996264)" xlink:href="#CMSS17-115"/>
      <use transform="translate(198.785499 0)scale(0.996264)" xlink:href="#CMSS17-105"/>
      <use transform="translate(220.966222 0)scale(0.996264)" xlink:href="#CMSS17-12"/>
      <use transform="translate(271.09296 0)scale(0.996264)" xlink:href="#CMSS17-101"/>
      <use transform="translate(312.731782 0)scale(0.996264)" xlink:href="#CMSS17-114"/>
     </g>
    </g>
    <g id="line2d_18">
     <path d="M 80.177794 61.432822 
L 94.177794 61.432822 
" style="fill:none;stroke:#33a02c;stroke-dasharray:4.8,1.8;stroke-dashoffset:0;stroke-width:1.2;"/>
    </g>
    <g id="line2d_19"/>
    <g id="text_10">
     <!-- Dropper -->
     <defs>
      <path d="M 44.203125 21.1875 
C 44.203125 34 34.703125 44 23.5 44 
C 12 44 2.703125 33.703125 2.703125 21.1875 
C 2.703125 8.5 12.296875 -1 23.40625 -1 
C 34.796875 -1 44.203125 8.796875 44.203125 21.1875 
z
M 23.5 5.265625 
C 16.40625 5.265625 10.296875 11.078125 10.296875 22 
C 10.296875 33.609375 17.40625 37.921875 23.40625 37.921875 
C 29.90625 37.921875 36.59375 33.21875 36.59375 22 
C 36.59375 10.671875 30.09375 5.265625 23.5 5.265625 
z
" id="CMSS17-111"/>
      <path d="M 15.09375 5.203125 
C 18.40625 2.015625 22.90625 -0.078125 27.703125 -0.078125 
C 37 -0.078125 45 9.421875 45 22.0625 
C 45 33.734375 39 44 30.40625 44 
C 25.40625 44 19.40625 42.21875 14.90625 38.625 
L 14.90625 43.203125 
L 7.5 43.203125 
L 7.5 -19 
L 15.09375 -19 
z
M 15.09375 32.8125 
C 15.90625 34 19.296875 37.734375 24.796875 37.734375 
C 31.796875 37.734375 37.40625 30.625 37.40625 22.0625 
C 37.40625 12.296875 30.59375 6 23.90625 6 
C 21.90625 6 19.796875 6.484375 17.796875 8.171875 
C 15.09375 10.53125 15.09375 12 15.09375 13.390625 
z
" id="CMSS17-112"/>
     </defs>
     <g style="fill:#262626;" transform="translate(99.777794 63.882822)scale(0.07 -0.07)">
      <use transform="scale(0.996264)" xlink:href="#CMSS17-68"/>
      <use transform="translate(67.542842 0)scale(0.996264)" xlink:href="#CMSS17-114"/>
      <use transform="translate(99.452614 0)scale(0.996264)" xlink:href="#CMSS17-111"/>
      <use transform="translate(146.296238 0)scale(0.996264)" xlink:href="#CMSS17-112"/>
      <use transform="translate(194.501181 0)scale(0.996264)" xlink:href="#CMSS17-112"/>
      <use transform="translate(245.308563 0)scale(0.996264)" xlink:href="#CMSS17-101"/>
      <use transform="translate(286.947385 0)scale(0.996264)" xlink:href="#CMSS17-114"/>
     </g>
    </g>
    <g id="line2d_20">
     <path d="M 80.177794 71.188836 
L 94.177794 71.188836 
" style="fill:none;stroke:#e31a1c;stroke-dasharray:1.2,1.2;stroke-dashoffset:0;stroke-width:1.2;"/>
    </g>
    <g id="line2d_21"/>
    <g id="text_11">
     <!-- Redirector -->
     <defs>
      <path d="M 39.40625 32.953125 
L 39.59375 33.046875 
C 55.203125 38.421875 55.296875 49.171875 55.296875 51.0625 
C 55.296875 60.515625 45.703125 69.578125 31.296875 69.578125 
L 8.90625 69.578125 
L 8.90625 0.5 
L 17.09375 0.5 
L 17.09375 32 
L 31.796875 32 
L 49.5 0.5 
L 57.90625 0.5 
z
M 17.09375 38.078125 
L 17.09375 64 
L 30.203125 64 
C 42.90625 64 47.40625 56.828125 47.40625 51.046875 
C 47.40625 45.65625 43.40625 38.078125 30.203125 38.078125 
z
" id="CMSS17-82"/>
      <path d="M 40.796875 69 
L 33.40625 69 
L 33.40625 38.09375 
C 30.296875 40.671875 25.203125 43.0625 19.59375 43.0625 
C 10.5 43.0625 3.296875 33.296875 3.296875 21.046875 
C 3.296875 8.78125 10.40625 -1 19.296875 -1 
C 26.203125 -1 30.796875 2.6875 33.203125 4.78125 
L 33.203125 -0.203125 
L 40.796875 -0.203125 
z
M 33.203125 13.0625 
C 33.203125 11.671875 33.203125 10.203125 30.09375 7.53125 
C 28.09375 5.859375 25.703125 5.078125 23.40625 5.078125 
C 18 5.078125 10.90625 9 10.90625 20.9375 
C 10.90625 33.34375 18.90625 37 24.40625 37 
C 28.09375 37 31.09375 35.21875 33.203125 32.265625 
z
" id="CMSS17-100"/>
      <path d="M 38.5 39.703125 
C 38.5 40.390625 33.90625 42.40625 32.703125 42.796875 
C 29.40625 44 25.203125 44 24.09375 44 
C 11.09375 44 3.296875 32.703125 3.296875 21.296875 
C 3.296875 9.296875 12 -1 23.703125 -1 
C 30.40625 -1 35.203125 1.1875 39.09375 3.78125 
L 38.5 10.375 
C 34.203125 7.078125 29.203125 5.265625 23.796875 5.265625 
C 16 5.265625 10.90625 12.09375 10.90625 21.390625 
C 10.90625 28.609375 14.203125 37.71875 24.203125 37.71875 
C 29.703125 37.71875 32.796875 36.609375 37.40625 33.515625 
z
" id="CMSS17-99"/>
      <path d="M 16.703125 37 
L 29.703125 37 
L 29.703125 42.765625 
L 16.703125 42.765625 
L 16.703125 55 
L 9.59375 55 
L 9.59375 42.765625 
L 1.703125 42.765625 
L 1.703125 37 
L 9.40625 37 
L 9.40625 11.703125 
C 9.40625 6 10.703125 -1 17.296875 -1 
C 22.296875 -1 26.90625 0.390625 31.296875 2.6875 
L 29.703125 8.5625 
C 27.296875 6.46875 24.40625 5.265625 21.296875 5.265625 
C 16.90625 5.265625 16.703125 10.875 16.703125 13.375 
z
" id="CMSS17-116"/>
     </defs>
     <g style="fill:#262626;" transform="translate(99.777794 73.638836)scale(0.07 -0.07)">
      <use transform="scale(0.996264)" xlink:href="#CMSS17-82"/>
      <use transform="translate(60.416155 0)scale(0.996264)" xlink:href="#CMSS17-101"/>
      <use transform="translate(102.054977 0)scale(0.996264)" xlink:href="#CMSS17-100"/>
      <use transform="translate(150.25992 0)scale(0.996264)" xlink:href="#CMSS17-105"/>
      <use transform="translate(172.440643 0)scale(0.996264)" xlink:href="#CMSS17-114"/>
      <use transform="translate(204.350416 0)scale(0.996264)" xlink:href="#CMSS17-101"/>
      <use transform="translate(245.989238 0)scale(0.996264)" xlink:href="#CMSS17-99"/>
      <use transform="translate(287.62806 0)scale(0.996264)" xlink:href="#CMSS17-116"/>
      <use transform="translate(321.459626 0)scale(0.996264)" xlink:href="#CMSS17-111"/>
      <use transform="translate(365.700796 0)scale(0.996264)" xlink:href="#CMSS17-114"/>
     </g>
    </g>
    <g id="line2d_22">
     <path d="M 80.177794 80.94485 
L 94.177794 80.94485 
" style="fill:none;stroke:#ff7f00;stroke-dasharray:3.6,1.2,1.8,1.2;stroke-dashoffset:0;stroke-width:1.2;"/>
    </g>
    <g id="line2d_23"/>
    <g id="text_12">
     <!-- Scheduler -->
     <defs>
      <path d="M 43.703125 65.140625 
C 39.296875 67.71875 34.5 70 26.40625 70 
C 13.5 70 5.203125 60.609375 5.203125 51.03125 
C 5.203125 47.265625 6.296875 43.015625 10.203125 38.671875 
C 14.09375 34.3125 18.5 33.140625 24.09375 31.765625 
C 26.40625 31.15625 30.296875 30.0625 31 29.78125 
C 36.59375 27.609375 39.296875 22.5625 39.296875 17.8125 
C 39.296875 11.59375 34.40625 4.96875 25.703125 4.96875 
C 22.703125 4.96875 13.90625 4.96875 5.59375 12.796875 
L 4.203125 4.96875 
C 12.40625 -1 21.296875 -2 25.796875 -2 
C 38.09375 -2 46.90625 7.625 46.90625 18.53125 
C 46.90625 22.5 45.703125 27.546875 41.5 32.203125 
C 37.40625 36.671875 33.796875 37.65625 25.59375 39.828125 
C 20.90625 41.03125 17.90625 41.828125 15.40625 44.890625 
C 13.703125 47.078125 12.796875 49.15625 12.796875 51.828125 
C 12.796875 57.390625 17.59375 63.4375 26.40625 63.4375 
C 30.796875 63.4375 36.5 62.53125 42.296875 57.1875 
z
" id="CMSS17-83"/>
      <path d="M 40.90625 29.546875 
C 40.90625 35.8125 39.40625 44.0625 28.09375 44.0625 
C 21.796875 44.0625 17.703125 40.984375 14.796875 37.609375 
L 14.796875 69.5 
L 7.40625 69.5 
L 7.40625 0.5 
L 15 0.5 
L 15 24.578125 
C 15 30.828125 17.40625 38 24.203125 38 
C 33 38 33.296875 32.125 33.296875 28.734375 
L 33.296875 0.5 
L 40.90625 0.5 
z
" id="CMSS17-104"/>
      <path d="M 40.90625 42.796875 
L 33.296875 42.796875 
L 33.296875 15.1875 
C 33.296875 7.78125 27.90625 4.78125 22.203125 4.78125 
C 15.59375 4.78125 15 6.984375 15 11.078125 
L 15 42.796875 
L 7.40625 42.796875 
L 7.40625 10.59375 
C 7.40625 2.796875 10.09375 -1 17 -1 
C 20.40625 -1 28.09375 -0.203125 33.5 4.78125 
L 33.5 0 
L 40.90625 0 
z
" id="CMSS17-117"/>
     </defs>
     <g style="fill:#262626;" transform="translate(99.777794 83.39485)scale(0.07 -0.07)">
      <use transform="scale(0.996264)" xlink:href="#CMSS17-83"/>
      <use transform="translate(52.048516 0)scale(0.996264)" xlink:href="#CMSS17-99"/>
      <use transform="translate(93.687338 0)scale(0.996264)" xlink:href="#CMSS17-104"/>
      <use transform="translate(141.892281 0)scale(0.996264)" xlink:href="#CMSS17-101"/>
      <use transform="translate(183.531103 0)scale(0.996264)" xlink:href="#CMSS17-100"/>
      <use transform="translate(231.736047 0)scale(0.996264)" xlink:href="#CMSS17-117"/>
      <use transform="translate(279.94099 0)scale(0.996264)" xlink:href="#CMSS17-108"/>
      <use transform="translate(302.121713 0)scale(0.996264)" xlink:href="#CMSS17-101"/>
      <use transform="translate(343.760535 0)scale(0.996264)" xlink:href="#CMSS17-114"/>
     </g>
    </g>
    <g id="line2d_24">
     <path d="M 80.177794 90.700864 
L 94.177794 90.700864 
" style="fill:none;stroke:#6a3d9a;stroke-dasharray:6,1.2,1.2,1.2;stroke-dashoffset:0;stroke-width:1.2;"/>
    </g>
    <g id="line2d_25"/>
    <g id="text_13">
     <!-- Shaper -->
     <g style="fill:#262626;" transform="translate(99.777794 93.150864)scale(0.07 -0.07)">
      <use transform="scale(0.996264)" xlink:href="#CMSS17-83"/>
      <use transform="translate(52.048516 0)scale(0.996264)" xlink:href="#CMSS17-104"/>
      <use transform="translate(100.253459 0)scale(0.996264)" xlink:href="#CMSS17-97"/>
      <use transform="translate(145.17538 0)scale(0.996264)" xlink:href="#CMSS17-112"/>
      <use transform="translate(195.982762 0)scale(0.996264)" xlink:href="#CMSS17-101"/>
      <use transform="translate(237.621584 0)scale(0.996264)" xlink:href="#CMSS17-114"/>
     </g>
    </g>
   </g>
  </g>
  <g id="axes_2">
   <g id="patch_8">
    <path d="M 180.653785 100.806879 
L 278.331144 100.806879 
L 278.331144 19.841765 
L 180.653785 19.841765 
z
" style="fill:#ffffff;"/>
   </g>
   <g id="matplotlib.axis_3">
    <g id="xtick_3">
     <g id="line2d_26">
      <path clip-path="url(#pdc43dc9743)" d="M 185.093665 100.806879 
L 185.093665 19.841765 
" style="fill:none;stroke:#cccccc;stroke-linecap:round;stroke-width:0.8;"/>
     </g>
     <g id="line2d_27">
      <g>
       <use style="fill:#262626;stroke:#262626;" x="185.093665" xlink:href="#me0952e61da" y="100.806879"/>
      </g>
     </g>
     <g id="text_14">
      <!-- $0$ -->
      <g style="fill:#262626;" transform="translate(182.764866 115.195162)scale(0.088 -0.088)">
       <use transform="scale(0.996264)" xlink:href="#CMR17-48"/>
      </g>
     </g>
    </g>
    <g id="xtick_4">
     <g id="line2d_28">
      <path clip-path="url(#pdc43dc9743)" d="M 241.818847 100.806879 
L 241.818847 19.841765 
" style="fill:none;stroke:#cccccc;stroke-linecap:round;stroke-width:0.8;"/>
     </g>
     <g id="line2d_29">
      <g>
       <use style="fill:#262626;stroke:#262626;" x="241.818847" xlink:href="#me0952e61da" y="100.806879"/>
      </g>
     </g>
     <g id="text_15">
      <!-- $5000$ -->
      <g style="fill:#262626;" transform="translate(232.50365 115.195162)scale(0.088 -0.088)">
       <use transform="scale(0.996264)" xlink:href="#CMR17-53"/>
       <use transform="translate(45.690477 0)scale(0.996264)" xlink:href="#CMR17-48"/>
       <use transform="translate(91.380954 0)scale(0.996264)" xlink:href="#CMR17-48"/>
       <use transform="translate(137.071431 0)scale(0.996264)" xlink:href="#CMR17-48"/>
      </g>
     </g>
    </g>
    <g id="text_16">
     <!-- Time (ms) -->
     <g style="fill:#262626;" transform="translate(207.624267 128.072972)scale(0.096 -0.096)">
      <use transform="scale(0.996264)" xlink:href="#CMSS17-84"/>
      <use transform="translate(63.819454 0)scale(0.996264)" xlink:href="#CMSS17-105"/>
      <use transform="translate(86.000177 0)scale(0.996264)" xlink:href="#CMSS17-109"/>
      <use transform="translate(160.229431 0)scale(0.996264)" xlink:href="#CMSS17-101"/>
      <use transform="translate(233.097366 0)scale(0.996264)" xlink:href="#CMSS17-40"/>
      <use transform="translate(269.53128 0)scale(0.996264)" xlink:href="#CMSS17-109"/>
      <use transform="translate(343.760535 0)scale(0.996264)" xlink:href="#CMSS17-115"/>
      <use transform="translate(379.674077 0)scale(0.996264)" xlink:href="#CMSS17-41"/>
     </g>
    </g>
   </g>
   <g id="matplotlib.axis_4">
    <g id="ytick_4">
     <g id="line2d_30">
      <path clip-path="url(#pdc43dc9743)" d="M 180.653785 100.806879 
L 278.331144 100.806879 
" style="fill:none;stroke:#cccccc;stroke-linecap:round;stroke-width:0.8;"/>
     </g>
     <g id="line2d_31">
      <g>
       <use style="fill:#262626;stroke:#262626;" x="180.653785" xlink:href="#mb1c2958d7e" y="100.806879"/>
      </g>
     </g>
     <g id="text_17">
      <!-- $0.0$ -->
      <g style="fill:#262626;" transform="translate(160.451032 103.85102)scale(0.088 -0.088)">
       <use transform="scale(0.996264)" xlink:href="#CMR17-48"/>
       <use transform="translate(45.690477 0)scale(0.996264)" xlink:href="#CMMI12-58"/>
       <use transform="translate(72.787654 0)scale(0.996264)" xlink:href="#CMR17-48"/>
      </g>
     </g>
    </g>
    <g id="ytick_5">
     <g id="line2d_32">
      <path clip-path="url(#pdc43dc9743)" d="M 180.653785 64.004554 
L 278.331144 64.004554 
" style="fill:none;stroke:#cccccc;stroke-linecap:round;stroke-width:0.8;"/>
     </g>
     <g id="line2d_33">
      <g>
       <use style="fill:#262626;stroke:#262626;" x="180.653785" xlink:href="#mb1c2958d7e" y="64.004554"/>
      </g>
     </g>
     <g id="text_18">
      <!-- $0.5$ -->
      <g style="fill:#262626;" transform="translate(160.451032 67.048696)scale(0.088 -0.088)">
       <use transform="scale(0.996264)" xlink:href="#CMR17-48"/>
       <use transform="translate(45.690477 0)scale(0.996264)" xlink:href="#CMMI12-58"/>
       <use transform="translate(72.787654 0)scale(0.996264)" xlink:href="#CMR17-53"/>
      </g>
     </g>
    </g>
    <g id="ytick_6">
     <g id="line2d_34">
      <path clip-path="url(#pdc43dc9743)" d="M 180.653785 27.20223 
L 278.331144 27.20223 
" style="fill:none;stroke:#cccccc;stroke-linecap:round;stroke-width:0.8;"/>
     </g>
     <g id="line2d_35">
      <g>
       <use style="fill:#262626;stroke:#262626;" x="180.653785" xlink:href="#mb1c2958d7e" y="27.20223"/>
      </g>
     </g>
     <g id="text_19">
      <!-- $1.0$ -->
      <g style="fill:#262626;" transform="translate(160.451032 30.246372)scale(0.088 -0.088)">
       <use transform="scale(0.996264)" xlink:href="#CMR17-49"/>
       <use transform="translate(45.690477 0)scale(0.996264)" xlink:href="#CMMI12-58"/>
       <use transform="translate(72.787654 0)scale(0.996264)" xlink:href="#CMR17-48"/>
      </g>
     </g>
    </g>
    <g id="text_20">
     <!-- CDF -->
     <g style="fill:#262626;" transform="translate(154.591337 69.833044)rotate(-90)scale(0.096 -0.096)">
      <use transform="scale(0.996264)" xlink:href="#CMSS17-67"/>
      <use transform="translate(59.855772 0)scale(0.996264)" xlink:href="#CMSS17-68"/>
      <use transform="translate(127.398613 0)scale(0.996264)" xlink:href="#CMSS17-70"/>
     </g>
    </g>
   </g>
   <g id="line2d_36">
    <path clip-path="url(#pdc43dc9743)" d="M 185.093665 100.806879 
L 187.13538 98.40246 
L 189.177095 42.291183 
L 191.218811 39.935834 
L 193.260526 37.899439 
L 195.302241 36.69723 
L 197.343957 35.298741 
L 199.385672 34.121067 
L 201.427387 33.213276 
L 203.469103 31.937462 
L 205.510818 31.225951 
L 207.552533 30.440835 
L 209.594249 29.704788 
L 211.635964 28.944207 
L 213.677679 28.649788 
L 215.719395 28.20816 
L 217.76111 27.741997 
L 219.802825 27.594788 
L 221.844541 27.545718 
L 223.886256 27.521183 
L 225.927971 27.472114 
L 227.969687 27.398509 
L 230.011402 27.300369 
L 232.053117 27.275835 
L 234.094833 27.275835 
L 236.136548 27.2513 
L 238.178264 27.226765 
L 240.219979 27.226765 
L 242.261694 27.226765 
L 244.30341 27.226765 
" style="fill:none;stroke:#1f78b4;stroke-linecap:round;stroke-width:1.2;"/>
   </g>
   <g id="line2d_37">
    <path clip-path="url(#pdc43dc9743)" d="M 185.093665 100.806879 
L 188.010121 98.5006 
L 190.926578 58.361531 
L 193.843035 55.589089 
L 196.759492 53.454555 
L 199.675948 50.976531 
L 202.592405 47.811532 
L 205.508862 44.744671 
L 208.425319 42.045834 
L 211.341776 40.156648 
L 214.258232 38.586416 
L 217.174689 36.893509 
L 220.091146 35.225137 
L 223.007603 33.335951 
L 225.924059 31.667579 
L 228.840516 29.999207 
L 231.756973 29.434904 
L 234.67343 28.919672 
L 237.589886 28.330835 
L 240.506343 27.668393 
L 243.4228 27.349439 
L 246.339257 27.324904 
L 249.255714 27.324904 
L 252.17217 27.300369 
L 255.088627 27.275835 
L 258.005084 27.275835 
L 260.921541 27.275835 
L 263.837997 27.2513 
L 266.754454 27.226765 
L 269.670911 27.226765 
" style="fill:none;stroke:#33a02c;stroke-dasharray:4.8,1.8;stroke-dashoffset:0;stroke-width:1.2;"/>
   </g>
   <g id="line2d_38">
    <path clip-path="url(#pdc43dc9743)" d="M 185.093665 100.806879 
L 186.733218 86.527577 
L 188.372771 39.052578 
L 190.012325 36.918044 
L 191.651878 34.562695 
L 193.291431 33.262346 
L 194.930985 32.330021 
L 196.570538 31.888393 
L 198.210091 31.37316 
L 199.849645 30.906997 
L 201.489198 30.588044 
L 203.128752 30.220021 
L 204.768305 29.901067 
L 206.407858 29.606649 
L 208.047412 29.115951 
L 209.686965 28.919672 
L 211.326518 28.772462 
L 212.966072 28.527114 
L 214.605625 28.379904 
L 216.245178 28.15909 
L 217.884732 27.962811 
L 219.524285 27.840137 
L 221.163839 27.717463 
L 222.803392 27.692928 
L 224.442945 27.570253 
L 226.082499 27.521183 
L 227.722052 27.423044 
L 229.361605 27.275835 
L 231.001159 27.275835 
L 232.640712 27.2513 
" style="fill:none;stroke:#e31a1c;stroke-dasharray:1.2,1.2;stroke-dashoffset:0;stroke-width:1.2;"/>
   </g>
   <g id="line2d_39">
    <path clip-path="url(#pdc43dc9743)" d="M 185.093665 100.806879 
L 187.411573 80.173042 
L 189.729481 80.173042 
L 192.047389 37.359671 
L 194.365298 29.091416 
L 196.683206 29.091416 
L 199.001114 28.085486 
L 201.319023 27.864672 
L 203.636931 27.864672 
L 205.954839 27.766532 
L 208.272748 27.594788 
L 210.590656 27.594788 
L 212.908564 27.545718 
L 215.226472 27.496649 
L 217.544381 27.496649 
L 219.862289 27.423044 
L 222.180197 27.373974 
L 224.498106 27.349439 
L 226.816014 27.349439 
L 229.133922 27.275835 
L 231.451831 27.2513 
L 233.769739 27.2513 
L 236.087647 27.2513 
L 238.405555 27.226765 
L 240.723464 27.226765 
L 243.041372 27.226765 
L 245.35928 27.226765 
L 247.677189 27.226765 
L 249.995097 27.226765 
L 252.313005 27.226765 
" style="fill:none;stroke:#ff7f00;stroke-dasharray:3.6,1.2,1.8,1.2;stroke-dashoffset:0;stroke-width:1.2;"/>
   </g>
   <g id="line2d_40">
    <path clip-path="url(#pdc43dc9743)" d="M 185.093665 100.806879 
L 188.155651 100.806879 
L 191.217637 92.759437 
L 194.279623 33.115137 
L 197.341609 31.569439 
L 200.403596 29.950137 
L 203.465582 29.483974 
L 206.527568 29.336765 
L 209.589554 29.066881 
L 212.65154 28.993276 
L 215.713527 28.919672 
L 218.775513 28.796997 
L 221.837499 28.796997 
L 224.899485 28.747928 
L 227.961471 28.698858 
L 231.023458 28.674323 
L 234.085444 28.674323 
L 237.14743 28.674323 
L 240.209416 28.649788 
L 243.271402 28.649788 
L 246.333389 28.649788 
L 249.395375 28.649788 
L 252.457361 28.649788 
L 255.519347 28.649788 
L 258.581333 28.649788 
L 261.64332 28.649788 
L 264.705306 28.649788 
L 267.767292 28.649788 
L 270.829278 28.649788 
L 273.891264 28.649788 
" style="fill:none;stroke:#6a3d9a;stroke-dasharray:6,1.2,1.2,1.2;stroke-dashoffset:0;stroke-width:1.2;"/>
   </g>
   <g id="patch_9">
    <path d="M 180.653785 100.806879 
L 180.653785 19.841765 
" style="fill:none;stroke:#262626;stroke-linecap:square;stroke-linejoin:miter;"/>
   </g>
   <g id="patch_10">
    <path d="M 278.331144 100.806879 
L 278.331144 19.841765 
" style="fill:none;stroke:#262626;stroke-linecap:square;stroke-linejoin:miter;"/>
   </g>
   <g id="patch_11">
    <path d="M 180.653785 100.806879 
L 278.331144 100.806879 
" style="fill:none;stroke:#262626;stroke-linecap:square;stroke-linejoin:miter;"/>
   </g>
   <g id="patch_12">
    <path d="M 180.653785 19.841765 
L 278.331144 19.841765 
" style="fill:none;stroke:#262626;stroke-linecap:square;stroke-linejoin:miter;"/>
   </g>
   <g id="text_21">
    <!-- $\lambda =50$ -->
    <g style="fill:#262626;" transform="translate(215.157442 13.841765)scale(0.096 -0.096)">
     <use transform="scale(0.996264)" xlink:href="#CMMI12-21"/>
     <use transform="translate(84.578081 0)scale(0.996264)" xlink:href="#CMR17-61"/>
     <use transform="translate(183.966878 0)scale(0.996264)" xlink:href="#CMR17-53"/>
     <use transform="translate(229.657355 0)scale(0.996264)" xlink:href="#CMR17-48"/>
    </g>
   </g>
   <g id="legend_2">
    <g id="patch_13">
     <path d="M 219.527366 97.306879 
L 273.431144 97.306879 
Q 274.831144 97.306879 274.831144 95.906879 
L 274.831144 47.826808 
Q 274.831144 46.426808 273.431144 46.426808 
L 219.527366 46.426808 
Q 218.127366 46.426808 218.127366 47.826808 
L 218.127366 95.906879 
Q 218.127366 97.306879 219.527366 97.306879 
z
" style="fill:#ffffff;opacity:0.8;stroke:#cccccc;stroke-linejoin:miter;stroke-width:0.8;"/>
    </g>
    <g id="line2d_41">
     <path d="M 220.927366 51.676808 
L 234.927366 51.676808 
" style="fill:none;stroke:#1f78b4;stroke-linecap:round;stroke-width:1.2;"/>
    </g>
    <g id="line2d_42"/>
    <g id="text_22">
     <!-- Classifier -->
     <g style="fill:#262626;" transform="translate(240.527366 54.126808)scale(0.07 -0.07)">
      <use transform="scale(0.996264)" xlink:href="#CMSS17-67"/>
      <use transform="translate(59.855772 0)scale(0.996264)" xlink:href="#CMSS17-108"/>
      <use transform="translate(82.036495 0)scale(0.996264)" xlink:href="#CMSS17-97"/>
      <use transform="translate(126.958415 0)scale(0.996264)" xlink:href="#CMSS17-115"/>
      <use transform="translate(162.871957 0)scale(0.996264)" xlink:href="#CMSS17-115"/>
      <use transform="translate(198.785499 0)scale(0.996264)" xlink:href="#CMSS17-105"/>
      <use transform="translate(220.966222 0)scale(0.996264)" xlink:href="#CMSS17-12"/>
      <use transform="translate(271.09296 0)scale(0.996264)" xlink:href="#CMSS17-101"/>
      <use transform="translate(312.731782 0)scale(0.996264)" xlink:href="#CMSS17-114"/>
     </g>
    </g>
    <g id="line2d_43">
     <path d="M 220.927366 61.432822 
L 234.927366 61.432822 
" style="fill:none;stroke:#33a02c;stroke-dasharray:4.8,1.8;stroke-dashoffset:0;stroke-width:1.2;"/>
    </g>
    <g id="line2d_44"/>
    <g id="text_23">
     <!-- Dropper -->
     <g style="fill:#262626;" transform="translate(240.527366 63.882822)scale(0.07 -0.07)">
      <use transform="scale(0.996264)" xlink:href="#CMSS17-68"/>
      <use transform="translate(67.542842 0)scale(0.996264)" xlink:href="#CMSS17-114"/>
      <use transform="translate(99.452614 0)scale(0.996264)" xlink:href="#CMSS17-111"/>
      <use transform="translate(146.296238 0)scale(0.996264)" xlink:href="#CMSS17-112"/>
      <use transform="translate(194.501181 0)scale(0.996264)" xlink:href="#CMSS17-112"/>
      <use transform="translate(245.308563 0)scale(0.996264)" xlink:href="#CMSS17-101"/>
      <use transform="translate(286.947385 0)scale(0.996264)" xlink:href="#CMSS17-114"/>
     </g>
    </g>
    <g id="line2d_45">
     <path d="M 220.927366 71.188836 
L 234.927366 71.188836 
" style="fill:none;stroke:#e31a1c;stroke-dasharray:1.2,1.2;stroke-dashoffset:0;stroke-width:1.2;"/>
    </g>
    <g id="line2d_46"/>
    <g id="text_24">
     <!-- Redirector -->
     <g style="fill:#262626;" transform="translate(240.527366 73.638836)scale(0.07 -0.07)">
      <use transform="scale(0.996264)" xlink:href="#CMSS17-82"/>
      <use transform="translate(60.416155 0)scale(0.996264)" xlink:href="#CMSS17-101"/>
      <use transform="translate(102.054977 0)scale(0.996264)" xlink:href="#CMSS17-100"/>
      <use transform="translate(150.25992 0)scale(0.996264)" xlink:href="#CMSS17-105"/>
      <use transform="translate(172.440643 0)scale(0.996264)" xlink:href="#CMSS17-114"/>
      <use transform="translate(204.350416 0)scale(0.996264)" xlink:href="#CMSS17-101"/>
      <use transform="translate(245.989238 0)scale(0.996264)" xlink:href="#CMSS17-99"/>
      <use transform="translate(287.62806 0)scale(0.996264)" xlink:href="#CMSS17-116"/>
      <use transform="translate(321.459626 0)scale(0.996264)" xlink:href="#CMSS17-111"/>
      <use transform="translate(365.700796 0)scale(0.996264)" xlink:href="#CMSS17-114"/>
     </g>
    </g>
    <g id="line2d_47">
     <path d="M 220.927366 80.94485 
L 234.927366 80.94485 
" style="fill:none;stroke:#ff7f00;stroke-dasharray:3.6,1.2,1.8,1.2;stroke-dashoffset:0;stroke-width:1.2;"/>
    </g>
    <g id="line2d_48"/>
    <g id="text_25">
     <!-- Scheduler -->
     <g style="fill:#262626;" transform="translate(240.527366 83.39485)scale(0.07 -0.07)">
      <use transform="scale(0.996264)" xlink:href="#CMSS17-83"/>
      <use transform="translate(52.048516 0)scale(0.996264)" xlink:href="#CMSS17-99"/>
      <use transform="translate(93.687338 0)scale(0.996264)" xlink:href="#CMSS17-104"/>
      <use transform="translate(141.892281 0)scale(0.996264)" xlink:href="#CMSS17-101"/>
      <use transform="translate(183.531103 0)scale(0.996264)" xlink:href="#CMSS17-100"/>
      <use transform="translate(231.736047 0)scale(0.996264)" xlink:href="#CMSS17-117"/>
      <use transform="translate(279.94099 0)scale(0.996264)" xlink:href="#CMSS17-108"/>
      <use transform="translate(302.121713 0)scale(0.996264)" xlink:href="#CMSS17-101"/>
      <use transform="translate(343.760535 0)scale(0.996264)" xlink:href="#CMSS17-114"/>
     </g>
    </g>
    <g id="line2d_49">
     <path d="M 220.927366 90.700864 
L 234.927366 90.700864 
" style="fill:none;stroke:#6a3d9a;stroke-dasharray:6,1.2,1.2,1.2;stroke-dashoffset:0;stroke-width:1.2;"/>
    </g>
    <g id="line2d_50"/>
    <g id="text_26">
     <!-- Shaper -->
     <g style="fill:#262626;" transform="translate(240.527366 93.150864)scale(0.07 -0.07)">
      <use transform="scale(0.996264)" xlink:href="#CMSS17-83"/>
      <use transform="translate(52.048516 0)scale(0.996264)" xlink:href="#CMSS17-104"/>
      <use transform="translate(100.253459 0)scale(0.996264)" xlink:href="#CMSS17-97"/>
      <use transform="translate(145.17538 0)scale(0.996264)" xlink:href="#CMSS17-112"/>
      <use transform="translate(195.982762 0)scale(0.996264)" xlink:href="#CMSS17-101"/>
      <use transform="translate(237.621584 0)scale(0.996264)" xlink:href="#CMSS17-114"/>
     </g>
    </g>
   </g>
  </g>
  <g id="axes_3">
   <g id="patch_14">
    <path d="M 321.403357 100.806879 
L 419.080717 100.806879 
L 419.080717 19.841765 
L 321.403357 19.841765 
z
" style="fill:#ffffff;"/>
   </g>
   <g id="matplotlib.axis_5">
    <g id="xtick_5">
     <g id="line2d_51">
      <path clip-path="url(#p984d46042a)" d="M 325.843237 100.806879 
L 325.843237 19.841765 
" style="fill:none;stroke:#cccccc;stroke-linecap:round;stroke-width:0.8;"/>
     </g>
     <g id="line2d_52">
      <g>
       <use style="fill:#262626;stroke:#262626;" x="325.843237" xlink:href="#me0952e61da" y="100.806879"/>
      </g>
     </g>
     <g id="text_27">
      <!-- $0$ -->
      <g style="fill:#262626;" transform="translate(323.514438 115.195162)scale(0.088 -0.088)">
       <use transform="scale(0.996264)" xlink:href="#CMR17-48"/>
      </g>
     </g>
    </g>
    <g id="xtick_6">
     <g id="line2d_53">
      <path clip-path="url(#p984d46042a)" d="M 362.922575 100.806879 
L 362.922575 19.841765 
" style="fill:none;stroke:#cccccc;stroke-linecap:round;stroke-width:0.8;"/>
     </g>
     <g id="line2d_54">
      <g>
       <use style="fill:#262626;stroke:#262626;" x="362.922575" xlink:href="#me0952e61da" y="100.806879"/>
      </g>
     </g>
     <g id="text_28">
      <!-- $5000$ -->
      <g style="fill:#262626;" transform="translate(353.607379 115.195162)scale(0.088 -0.088)">
       <use transform="scale(0.996264)" xlink:href="#CMR17-53"/>
       <use transform="translate(45.690477 0)scale(0.996264)" xlink:href="#CMR17-48"/>
       <use transform="translate(91.380954 0)scale(0.996264)" xlink:href="#CMR17-48"/>
       <use transform="translate(137.071431 0)scale(0.996264)" xlink:href="#CMR17-48"/>
      </g>
     </g>
    </g>
    <g id="xtick_7">
     <g id="line2d_55">
      <path clip-path="url(#p984d46042a)" d="M 400.001914 100.806879 
L 400.001914 19.841765 
" style="fill:none;stroke:#cccccc;stroke-linecap:round;stroke-width:0.8;"/>
     </g>
     <g id="line2d_56">
      <g>
       <use style="fill:#262626;stroke:#262626;" x="400.001914" xlink:href="#me0952e61da" y="100.806879"/>
      </g>
     </g>
     <g id="text_29">
      <!-- $10000$ -->
      <g style="fill:#262626;" transform="translate(388.357919 115.195162)scale(0.088 -0.088)">
       <use transform="scale(0.996264)" xlink:href="#CMR17-49"/>
       <use transform="translate(45.690477 0)scale(0.996264)" xlink:href="#CMR17-48"/>
       <use transform="translate(91.380954 0)scale(0.996264)" xlink:href="#CMR17-48"/>
       <use transform="translate(137.071431 0)scale(0.996264)" xlink:href="#CMR17-48"/>
       <use transform="translate(182.761908 0)scale(0.996264)" xlink:href="#CMR17-48"/>
      </g>
     </g>
    </g>
    <g id="text_30">
     <!-- Time (ms) -->
     <g style="fill:#262626;" transform="translate(348.37384 128.072972)scale(0.096 -0.096)">
      <use transform="scale(0.996264)" xlink:href="#CMSS17-84"/>
      <use transform="translate(63.819454 0)scale(0.996264)" xlink:href="#CMSS17-105"/>
      <use transform="translate(86.000177 0)scale(0.996264)" xlink:href="#CMSS17-109"/>
      <use transform="translate(160.229431 0)scale(0.996264)" xlink:href="#CMSS17-101"/>
      <use transform="translate(233.097366 0)scale(0.996264)" xlink:href="#CMSS17-40"/>
      <use transform="translate(269.53128 0)scale(0.996264)" xlink:href="#CMSS17-109"/>
      <use transform="translate(343.760535 0)scale(0.996264)" xlink:href="#CMSS17-115"/>
      <use transform="translate(379.674077 0)scale(0.996264)" xlink:href="#CMSS17-41"/>
     </g>
    </g>
   </g>
   <g id="matplotlib.axis_6">
    <g id="ytick_7">
     <g id="line2d_57">
      <path clip-path="url(#p984d46042a)" d="M 321.403357 100.806879 
L 419.080717 100.806879 
" style="fill:none;stroke:#cccccc;stroke-linecap:round;stroke-width:0.8;"/>
     </g>
     <g id="line2d_58">
      <g>
       <use style="fill:#262626;stroke:#262626;" x="321.403357" xlink:href="#mb1c2958d7e" y="100.806879"/>
      </g>
     </g>
     <g id="text_31">
      <!-- $0.0$ -->
      <g style="fill:#262626;" transform="translate(301.200604 103.85102)scale(0.088 -0.088)">
       <use transform="scale(0.996264)" xlink:href="#CMR17-48"/>
       <use transform="translate(45.690477 0)scale(0.996264)" xlink:href="#CMMI12-58"/>
       <use transform="translate(72.787654 0)scale(0.996264)" xlink:href="#CMR17-48"/>
      </g>
     </g>
    </g>
    <g id="ytick_8">
     <g id="line2d_59">
      <path clip-path="url(#p984d46042a)" d="M 321.403357 64.004554 
L 419.080717 64.004554 
" style="fill:none;stroke:#cccccc;stroke-linecap:round;stroke-width:0.8;"/>
     </g>
     <g id="line2d_60">
      <g>
       <use style="fill:#262626;stroke:#262626;" x="321.403357" xlink:href="#mb1c2958d7e" y="64.004554"/>
      </g>
     </g>
     <g id="text_32">
      <!-- $0.5$ -->
      <g style="fill:#262626;" transform="translate(301.200604 67.048696)scale(0.088 -0.088)">
       <use transform="scale(0.996264)" xlink:href="#CMR17-48"/>
       <use transform="translate(45.690477 0)scale(0.996264)" xlink:href="#CMMI12-58"/>
       <use transform="translate(72.787654 0)scale(0.996264)" xlink:href="#CMR17-53"/>
      </g>
     </g>
    </g>
    <g id="ytick_9">
     <g id="line2d_61">
      <path clip-path="url(#p984d46042a)" d="M 321.403357 27.20223 
L 419.080717 27.20223 
" style="fill:none;stroke:#cccccc;stroke-linecap:round;stroke-width:0.8;"/>
     </g>
     <g id="line2d_62">
      <g>
       <use style="fill:#262626;stroke:#262626;" x="321.403357" xlink:href="#mb1c2958d7e" y="27.20223"/>
      </g>
     </g>
     <g id="text_33">
      <!-- $1.0$ -->
      <g style="fill:#262626;" transform="translate(301.200604 30.246372)scale(0.088 -0.088)">
       <use transform="scale(0.996264)" xlink:href="#CMR17-49"/>
       <use transform="translate(45.690477 0)scale(0.996264)" xlink:href="#CMMI12-58"/>
       <use transform="translate(72.787654 0)scale(0.996264)" xlink:href="#CMR17-48"/>
      </g>
     </g>
    </g>
    <g id="text_34">
     <!-- CDF -->
     <g style="fill:#262626;" transform="translate(295.34091 69.833044)rotate(-90)scale(0.096 -0.096)">
      <use transform="scale(0.996264)" xlink:href="#CMSS17-67"/>
      <use transform="translate(59.855772 0)scale(0.996264)" xlink:href="#CMSS17-68"/>
      <use transform="translate(127.398613 0)scale(0.996264)" xlink:href="#CMSS17-70"/>
     </g>
    </g>
   </g>
   <g id="line2d_63">
    <path clip-path="url(#p984d46042a)" d="M 325.843237 100.806879 
L 327.99614 98.40246 
L 330.149043 71.855717 
L 332.301946 68.396298 
L 334.454849 65.574787 
L 336.607752 62.262578 
L 338.760655 59.342927 
L 340.913559 56.128857 
L 343.066462 53.012927 
L 345.219365 50.240485 
L 347.372268 47.713392 
L 349.525171 44.916415 
L 351.678074 42.462927 
L 353.830977 39.371532 
L 355.98388 36.231067 
L 358.136783 33.311416 
L 360.289687 31.814788 
L 362.44259 30.146416 
L 364.595493 29.483974 
L 366.748396 28.772462 
L 368.901299 28.404439 
L 371.054202 28.134556 
L 373.207105 27.913742 
L 375.360008 27.791067 
L 377.512911 27.741997 
L 379.665815 27.643858 
L 381.818718 27.545718 
L 383.971621 27.521183 
L 386.124524 27.423044 
L 388.277427 27.275835 
" style="fill:none;stroke:#1f78b4;stroke-linecap:round;stroke-width:1.2;"/>
   </g>
   <g id="line2d_64">
    <path clip-path="url(#p984d46042a)" d="M 325.843237 100.806879 
L 328.035776 96.856762 
L 330.228316 57.748159 
L 332.420856 54.828508 
L 334.613395 52.693973 
L 336.805935 50.706648 
L 338.998475 48.032346 
L 341.191014 46.462113 
L 343.383554 44.180369 
L 345.576094 42.045834 
L 347.768633 39.71502 
L 349.961173 37.286067 
L 352.153713 35.347811 
L 354.346252 32.5263 
L 356.538792 29.876532 
L 358.731331 28.870602 
L 360.923871 27.864672 
L 363.116411 27.594788 
L 365.30895 27.521183 
L 367.50149 27.521183 
L 369.69403 27.496649 
L 371.886569 27.496649 
L 374.079109 27.423044 
L 376.271649 27.398509 
L 378.464188 27.300369 
L 380.656728 27.226765 
L 382.849268 27.226765 
L 385.041807 27.226765 
L 387.234347 27.226765 
L 389.426887 27.226765 
" style="fill:none;stroke:#33a02c;stroke-dasharray:4.8,1.8;stroke-dashoffset:0;stroke-width:1.2;"/>
   </g>
   <g id="line2d_65">
    <path clip-path="url(#p984d46042a)" d="M 325.843237 100.806879 
L 327.433045 84.221298 
L 329.022854 40.598276 
L 330.612663 39.518741 
L 332.202471 38.586416 
L 333.79228 37.874904 
L 335.382088 37.040718 
L 336.971897 36.231067 
L 338.561706 35.421416 
L 340.151514 34.734439 
L 341.741323 34.317346 
L 343.331131 33.851183 
L 344.92094 33.262346 
L 346.510749 32.722579 
L 348.100557 31.961997 
L 349.690366 31.201416 
L 351.280174 30.612579 
L 352.869983 29.950137 
L 354.459792 29.410369 
L 356.0496 29.140486 
L 357.639409 28.576183 
L 359.229218 28.060951 
L 360.819026 27.791067 
L 362.408835 27.521183 
L 363.998643 27.447579 
L 365.588452 27.423044 
L 367.178261 27.324904 
L 368.768069 27.275835 
L 370.357878 27.275835 
L 371.947686 27.2513 
" style="fill:none;stroke:#e31a1c;stroke-dasharray:1.2,1.2;stroke-dashoffset:0;stroke-width:1.2;"/>
   </g>
   <g id="line2d_66">
    <path clip-path="url(#p984d46042a)" d="M 325.843237 100.806879 
L 328.238818 100.684204 
L 330.634399 95.3356 
L 333.02998 94.820367 
L 335.425561 91.802577 
L 337.821142 83.411647 
L 340.216723 75.413275 
L 342.612304 65.648391 
L 345.007885 60.790485 
L 347.403466 56.472345 
L 349.799047 51.982462 
L 352.194628 48.277694 
L 354.590209 45.333508 
L 356.98579 42.168508 
L 359.381371 38.635485 
L 361.776952 35.053393 
L 364.172533 33.016997 
L 366.568114 31.152346 
L 368.963695 30.735253 
L 371.359276 30.4163 
L 373.754857 29.950137 
L 376.150438 29.165021 
L 378.546019 28.772462 
L 380.9416 27.717463 
L 383.337181 27.545718 
L 385.732762 27.398509 
L 388.128343 27.373974 
L 390.523923 27.300369 
L 392.919504 27.300369 
L 395.315085 27.275835 
" style="fill:none;stroke:#ff7f00;stroke-dasharray:3.6,1.2,1.8,1.2;stroke-dashoffset:0;stroke-width:1.2;"/>
   </g>
   <g id="line2d_67">
    <path clip-path="url(#p984d46042a)" d="M 325.843237 100.806879 
L 328.905223 100.806879 
L 331.967209 89.201879 
L 335.029195 82.258507 
L 338.091182 75.805833 
L 341.153168 68.739787 
L 344.215154 62.851415 
L 347.27714 57.134787 
L 350.339126 50.682113 
L 353.401113 43.542462 
L 356.463099 36.844439 
L 359.525085 30.956067 
L 362.587071 28.968742 
L 365.649057 28.551649 
L 368.711044 28.15909 
L 371.77303 27.741997 
L 374.835016 27.545718 
L 377.897002 27.521183 
L 380.958988 27.447579 
L 384.020975 27.349439 
L 387.082961 27.275835 
L 390.144947 27.275835 
L 393.206933 27.226765 
L 396.268919 27.226765 
L 399.330906 27.226765 
L 402.392892 27.226765 
L 405.454878 27.226765 
L 408.516864 27.226765 
L 411.578851 27.226765 
L 414.640837 27.226765 
" style="fill:none;stroke:#6a3d9a;stroke-dasharray:6,1.2,1.2,1.2;stroke-dashoffset:0;stroke-width:1.2;"/>
   </g>
   <g id="patch_15">
    <path d="M 321.403357 100.806879 
L 321.403357 19.841765 
" style="fill:none;stroke:#262626;stroke-linecap:square;stroke-linejoin:miter;"/>
   </g>
   <g id="patch_16">
    <path d="M 419.080717 100.806879 
L 419.080717 19.841765 
" style="fill:none;stroke:#262626;stroke-linecap:square;stroke-linejoin:miter;"/>
   </g>
   <g id="patch_17">
    <path d="M 321.403357 100.806879 
L 419.080717 100.806879 
" style="fill:none;stroke:#262626;stroke-linecap:square;stroke-linejoin:miter;"/>
   </g>
   <g id="patch_18">
    <path d="M 321.403357 19.841765 
L 419.080717 19.841765 
" style="fill:none;stroke:#262626;stroke-linecap:square;stroke-linejoin:miter;"/>
   </g>
   <g id="text_35">
    <!-- $\lambda =100$ -->
    <g style="fill:#262626;" transform="translate(353.449578 13.841765)scale(0.096 -0.096)">
     <use transform="scale(0.996264)" xlink:href="#CMMI12-21"/>
     <use transform="translate(84.578081 0)scale(0.996264)" xlink:href="#CMR17-61"/>
     <use transform="translate(183.966878 0)scale(0.996264)" xlink:href="#CMR17-49"/>
     <use transform="translate(229.657355 0)scale(0.996264)" xlink:href="#CMR17-48"/>
     <use transform="translate(275.347832 0)scale(0.996264)" xlink:href="#CMR17-48"/>
    </g>
   </g>
   <g id="legend_3">
    <g id="patch_19">
     <path d="M 360.276938 97.306879 
L 414.180717 97.306879 
Q 415.580717 97.306879 415.580717 95.906879 
L 415.580717 47.826808 
Q 415.580717 46.426808 414.180717 46.426808 
L 360.276938 46.426808 
Q 358.876938 46.426808 358.876938 47.826808 
L 358.876938 95.906879 
Q 358.876938 97.306879 360.276938 97.306879 
z
" style="fill:#ffffff;opacity:0.8;stroke:#cccccc;stroke-linejoin:miter;stroke-width:0.8;"/>
    </g>
    <g id="line2d_68">
     <path d="M 361.676938 51.676808 
L 375.676938 51.676808 
" style="fill:none;stroke:#1f78b4;stroke-linecap:round;stroke-width:1.2;"/>
    </g>
    <g id="line2d_69"/>
    <g id="text_36">
     <!-- Classifier -->
     <g style="fill:#262626;" transform="translate(381.276938 54.126808)scale(0.07 -0.07)">
      <use transform="scale(0.996264)" xlink:href="#CMSS17-67"/>
      <use transform="translate(59.855772 0)scale(0.996264)" xlink:href="#CMSS17-108"/>
      <use transform="translate(82.036495 0)scale(0.996264)" xlink:href="#CMSS17-97"/>
      <use transform="translate(126.958415 0)scale(0.996264)" xlink:href="#CMSS17-115"/>
      <use transform="translate(162.871957 0)scale(0.996264)" xlink:href="#CMSS17-115"/>
      <use transform="translate(198.785499 0)scale(0.996264)" xlink:href="#CMSS17-105"/>
      <use transform="translate(220.966222 0)scale(0.996264)" xlink:href="#CMSS17-12"/>
      <use transform="translate(271.09296 0)scale(0.996264)" xlink:href="#CMSS17-101"/>
      <use transform="translate(312.731782 0)scale(0.996264)" xlink:href="#CMSS17-114"/>
     </g>
    </g>
    <g id="line2d_70">
     <path d="M 361.676938 61.432822 
L 375.676938 61.432822 
" style="fill:none;stroke:#33a02c;stroke-dasharray:4.8,1.8;stroke-dashoffset:0;stroke-width:1.2;"/>
    </g>
    <g id="line2d_71"/>
    <g id="text_37">
     <!-- Dropper -->
     <g style="fill:#262626;" transform="translate(381.276938 63.882822)scale(0.07 -0.07)">
      <use transform="scale(0.996264)" xlink:href="#CMSS17-68"/>
      <use transform="translate(67.542842 0)scale(0.996264)" xlink:href="#CMSS17-114"/>
      <use transform="translate(99.452614 0)scale(0.996264)" xlink:href="#CMSS17-111"/>
      <use transform="translate(146.296238 0)scale(0.996264)" xlink:href="#CMSS17-112"/>
      <use transform="translate(194.501181 0)scale(0.996264)" xlink:href="#CMSS17-112"/>
      <use transform="translate(245.308563 0)scale(0.996264)" xlink:href="#CMSS17-101"/>
      <use transform="translate(286.947385 0)scale(0.996264)" xlink:href="#CMSS17-114"/>
     </g>
    </g>
    <g id="line2d_72">
     <path d="M 361.676938 71.188836 
L 375.676938 71.188836 
" style="fill:none;stroke:#e31a1c;stroke-dasharray:1.2,1.2;stroke-dashoffset:0;stroke-width:1.2;"/>
    </g>
    <g id="line2d_73"/>
    <g id="text_38">
     <!-- Redirector -->
     <g style="fill:#262626;" transform="translate(381.276938 73.638836)scale(0.07 -0.07)">
      <use transform="scale(0.996264)" xlink:href="#CMSS17-82"/>
      <use transform="translate(60.416155 0)scale(0.996264)" xlink:href="#CMSS17-101"/>
      <use transform="translate(102.054977 0)scale(0.996264)" xlink:href="#CMSS17-100"/>
      <use transform="translate(150.25992 0)scale(0.996264)" xlink:href="#CMSS17-105"/>
      <use transform="translate(172.440643 0)scale(0.996264)" xlink:href="#CMSS17-114"/>
      <use transform="translate(204.350416 0)scale(0.996264)" xlink:href="#CMSS17-101"/>
      <use transform="translate(245.989238 0)scale(0.996264)" xlink:href="#CMSS17-99"/>
      <use transform="translate(287.62806 0)scale(0.996264)" xlink:href="#CMSS17-116"/>
      <use transform="translate(321.459626 0)scale(0.996264)" xlink:href="#CMSS17-111"/>
      <use transform="translate(365.700796 0)scale(0.996264)" xlink:href="#CMSS17-114"/>
     </g>
    </g>
    <g id="line2d_74">
     <path d="M 361.676938 80.94485 
L 375.676938 80.94485 
" style="fill:none;stroke:#ff7f00;stroke-dasharray:3.6,1.2,1.8,1.2;stroke-dashoffset:0;stroke-width:1.2;"/>
    </g>
    <g id="line2d_75"/>
    <g id="text_39">
     <!-- Scheduler -->
     <g style="fill:#262626;" transform="translate(381.276938 83.39485)scale(0.07 -0.07)">
      <use transform="scale(0.996264)" xlink:href="#CMSS17-83"/>
      <use transform="translate(52.048516 0)scale(0.996264)" xlink:href="#CMSS17-99"/>
      <use transform="translate(93.687338 0)scale(0.996264)" xlink:href="#CMSS17-104"/>
      <use transform="translate(141.892281 0)scale(0.996264)" xlink:href="#CMSS17-101"/>
      <use transform="translate(183.531103 0)scale(0.996264)" xlink:href="#CMSS17-100"/>
      <use transform="translate(231.736047 0)scale(0.996264)" xlink:href="#CMSS17-117"/>
      <use transform="translate(279.94099 0)scale(0.996264)" xlink:href="#CMSS17-108"/>
      <use transform="translate(302.121713 0)scale(0.996264)" xlink:href="#CMSS17-101"/>
      <use transform="translate(343.760535 0)scale(0.996264)" xlink:href="#CMSS17-114"/>
     </g>
    </g>
    <g id="line2d_76">
     <path d="M 361.676938 90.700864 
L 375.676938 90.700864 
" style="fill:none;stroke:#6a3d9a;stroke-dasharray:6,1.2,1.2,1.2;stroke-dashoffset:0;stroke-width:1.2;"/>
    </g>
    <g id="line2d_77"/>
    <g id="text_40">
     <!-- Shaper -->
     <g style="fill:#262626;" transform="translate(381.276938 93.150864)scale(0.07 -0.07)">
      <use transform="scale(0.996264)" xlink:href="#CMSS17-83"/>
      <use transform="translate(52.048516 0)scale(0.996264)" xlink:href="#CMSS17-104"/>
      <use transform="translate(100.253459 0)scale(0.996264)" xlink:href="#CMSS17-97"/>
      <use transform="translate(145.17538 0)scale(0.996264)" xlink:href="#CMSS17-112"/>
      <use transform="translate(195.982762 0)scale(0.996264)" xlink:href="#CMSS17-101"/>
      <use transform="translate(237.621584 0)scale(0.996264)" xlink:href="#CMSS17-114"/>
     </g>
    </g>
   </g>
  </g>
  <g id="axes_4">
   <g id="patch_20">
    <path d="M 462.152929 100.806879 
L 559.830289 100.806879 
L 559.830289 19.841765 
L 462.152929 19.841765 
z
" style="fill:#ffffff;"/>
   </g>
   <g id="matplotlib.axis_7">
    <g id="xtick_8">
     <g id="line2d_78">
      <path clip-path="url(#p62e0187989)" d="M 466.592809 100.806879 
L 466.592809 19.841765 
" style="fill:none;stroke:#cccccc;stroke-linecap:round;stroke-width:0.8;"/>
     </g>
     <g id="line2d_79">
      <g>
       <use style="fill:#262626;stroke:#262626;" x="466.592809" xlink:href="#me0952e61da" y="100.806879"/>
      </g>
     </g>
     <g id="text_41">
      <!-- $0$ -->
      <g style="fill:#262626;" transform="translate(464.26401 115.195162)scale(0.088 -0.088)">
       <use transform="scale(0.996264)" xlink:href="#CMR17-48"/>
      </g>
     </g>
    </g>
    <g id="xtick_9">
     <g id="line2d_80">
      <path clip-path="url(#p62e0187989)" d="M 508.67698 100.806879 
L 508.67698 19.841765 
" style="fill:none;stroke:#cccccc;stroke-linecap:round;stroke-width:0.8;"/>
     </g>
     <g id="line2d_81">
      <g>
       <use style="fill:#262626;stroke:#262626;" x="508.67698" xlink:href="#me0952e61da" y="100.806879"/>
      </g>
     </g>
     <g id="text_42">
      <!-- $5000$ -->
      <g style="fill:#262626;" transform="translate(499.361783 115.195162)scale(0.088 -0.088)">
       <use transform="scale(0.996264)" xlink:href="#CMR17-53"/>
       <use transform="translate(45.690477 0)scale(0.996264)" xlink:href="#CMR17-48"/>
       <use transform="translate(91.380954 0)scale(0.996264)" xlink:href="#CMR17-48"/>
       <use transform="translate(137.071431 0)scale(0.996264)" xlink:href="#CMR17-48"/>
      </g>
     </g>
    </g>
    <g id="xtick_10">
     <g id="line2d_82">
      <path clip-path="url(#p62e0187989)" d="M 550.76115 100.806879 
L 550.76115 19.841765 
" style="fill:none;stroke:#cccccc;stroke-linecap:round;stroke-width:0.8;"/>
     </g>
     <g id="line2d_83">
      <g>
       <use style="fill:#262626;stroke:#262626;" x="550.76115" xlink:href="#me0952e61da" y="100.806879"/>
      </g>
     </g>
     <g id="text_43">
      <!-- $10000$ -->
      <g style="fill:#262626;" transform="translate(539.117155 115.195162)scale(0.088 -0.088)">
       <use transform="scale(0.996264)" xlink:href="#CMR17-49"/>
       <use transform="translate(45.690477 0)scale(0.996264)" xlink:href="#CMR17-48"/>
       <use transform="translate(91.380954 0)scale(0.996264)" xlink:href="#CMR17-48"/>
       <use transform="translate(137.071431 0)scale(0.996264)" xlink:href="#CMR17-48"/>
       <use transform="translate(182.761908 0)scale(0.996264)" xlink:href="#CMR17-48"/>
      </g>
     </g>
    </g>
    <g id="text_44">
     <!-- Time (ms) -->
     <g style="fill:#262626;" transform="translate(489.123412 128.072972)scale(0.096 -0.096)">
      <use transform="scale(0.996264)" xlink:href="#CMSS17-84"/>
      <use transform="translate(63.819454 0)scale(0.996264)" xlink:href="#CMSS17-105"/>
      <use transform="translate(86.000177 0)scale(0.996264)" xlink:href="#CMSS17-109"/>
      <use transform="translate(160.229431 0)scale(0.996264)" xlink:href="#CMSS17-101"/>
      <use transform="translate(233.097366 0)scale(0.996264)" xlink:href="#CMSS17-40"/>
      <use transform="translate(269.53128 0)scale(0.996264)" xlink:href="#CMSS17-109"/>
      <use transform="translate(343.760535 0)scale(0.996264)" xlink:href="#CMSS17-115"/>
      <use transform="translate(379.674077 0)scale(0.996264)" xlink:href="#CMSS17-41"/>
     </g>
    </g>
   </g>
   <g id="matplotlib.axis_8">
    <g id="ytick_10">
     <g id="line2d_84">
      <path clip-path="url(#p62e0187989)" d="M 462.152929 100.806879 
L 559.830289 100.806879 
" style="fill:none;stroke:#cccccc;stroke-linecap:round;stroke-width:0.8;"/>
     </g>
     <g id="line2d_85">
      <g>
       <use style="fill:#262626;stroke:#262626;" x="462.152929" xlink:href="#mb1c2958d7e" y="100.806879"/>
      </g>
     </g>
     <g id="text_45">
      <!-- $0.0$ -->
      <g style="fill:#262626;" transform="translate(441.950177 103.85102)scale(0.088 -0.088)">
       <use transform="scale(0.996264)" xlink:href="#CMR17-48"/>
       <use transform="translate(45.690477 0)scale(0.996264)" xlink:href="#CMMI12-58"/>
       <use transform="translate(72.787654 0)scale(0.996264)" xlink:href="#CMR17-48"/>
      </g>
     </g>
    </g>
    <g id="ytick_11">
     <g id="line2d_86">
      <path clip-path="url(#p62e0187989)" d="M 462.152929 64.004554 
L 559.830289 64.004554 
" style="fill:none;stroke:#cccccc;stroke-linecap:round;stroke-width:0.8;"/>
     </g>
     <g id="line2d_87">
      <g>
       <use style="fill:#262626;stroke:#262626;" x="462.152929" xlink:href="#mb1c2958d7e" y="64.004554"/>
      </g>
     </g>
     <g id="text_46">
      <!-- $0.5$ -->
      <g style="fill:#262626;" transform="translate(441.950177 67.048696)scale(0.088 -0.088)">
       <use transform="scale(0.996264)" xlink:href="#CMR17-48"/>
       <use transform="translate(45.690477 0)scale(0.996264)" xlink:href="#CMMI12-58"/>
       <use transform="translate(72.787654 0)scale(0.996264)" xlink:href="#CMR17-53"/>
      </g>
     </g>
    </g>
    <g id="ytick_12">
     <g id="line2d_88">
      <path clip-path="url(#p62e0187989)" d="M 462.152929 27.20223 
L 559.830289 27.20223 
" style="fill:none;stroke:#cccccc;stroke-linecap:round;stroke-width:0.8;"/>
     </g>
     <g id="line2d_89">
      <g>
       <use style="fill:#262626;stroke:#262626;" x="462.152929" xlink:href="#mb1c2958d7e" y="27.20223"/>
      </g>
     </g>
     <g id="text_47">
      <!-- $1.0$ -->
      <g style="fill:#262626;" transform="translate(441.950177 30.246372)scale(0.088 -0.088)">
       <use transform="scale(0.996264)" xlink:href="#CMR17-49"/>
       <use transform="translate(45.690477 0)scale(0.996264)" xlink:href="#CMMI12-58"/>
       <use transform="translate(72.787654 0)scale(0.996264)" xlink:href="#CMR17-48"/>
      </g>
     </g>
    </g>
    <g id="text_48">
     <!-- CDF -->
     <g style="fill:#262626;" transform="translate(436.090482 69.833044)rotate(-90)scale(0.096 -0.096)">
      <use transform="scale(0.996264)" xlink:href="#CMSS17-67"/>
      <use transform="translate(59.855772 0)scale(0.996264)" xlink:href="#CMSS17-68"/>
      <use transform="translate(127.398613 0)scale(0.996264)" xlink:href="#CMSS17-70"/>
     </g>
    </g>
   </g>
   <g id="line2d_90">
    <path clip-path="url(#p62e0187989)" d="M 466.592809 100.806879 
L 469.654795 98.819553 
L 472.716781 68.960601 
L 475.778768 65.403043 
L 478.840754 61.870019 
L 481.90274 58.50874 
L 484.964726 54.705834 
L 488.026712 51.712578 
L 491.088699 47.468043 
L 494.150685 44.303043 
L 497.212671 41.358857 
L 500.274657 38.70909 
L 503.336643 36.476416 
L 506.39863 34.219206 
L 509.460616 32.599904 
L 512.522602 30.514439 
L 515.584588 29.31223 
L 518.646575 28.25723 
L 521.708561 27.962811 
L 524.770547 27.791067 
L 527.832533 27.692928 
L 530.894519 27.594788 
L 533.956506 27.496649 
L 537.018492 27.447579 
L 540.080478 27.398509 
L 543.142464 27.373974 
L 546.20445 27.349439 
L 549.266437 27.324904 
L 552.328423 27.275835 
L 555.390409 27.2513 
" style="fill:none;stroke:#1f78b4;stroke-linecap:round;stroke-width:1.2;"/>
   </g>
   <g id="line2d_91">
    <path clip-path="url(#p62e0187989)" d="M 466.592809 100.806879 
L 469.412158 96.047111 
L 472.231507 61.232112 
L 475.050857 59.293857 
L 477.870206 57.208392 
L 480.689555 55.049322 
L 483.508904 52.865717 
L 486.328253 50.706648 
L 489.147603 48.473973 
L 491.966952 46.707462 
L 494.786301 44.204904 
L 497.60565 42.193043 
L 500.424999 40.181183 
L 503.244349 37.776765 
L 506.063698 35.49502 
L 508.883047 32.820718 
L 511.702396 30.808858 
L 514.521745 29.115951 
L 517.341095 28.232695 
L 520.160444 28.110021 
L 522.979793 27.938276 
L 525.799142 27.741997 
L 528.618491 27.668393 
L 531.43784 27.570253 
L 534.25719 27.423044 
L 537.076539 27.349439 
L 539.895888 27.324904 
L 542.715237 27.300369 
L 545.534586 27.275835 
L 548.353936 27.2513 
" style="fill:none;stroke:#33a02c;stroke-dasharray:4.8,1.8;stroke-dashoffset:0;stroke-width:1.2;"/>
   </g>
   <g id="line2d_92">
    <path clip-path="url(#p62e0187989)" d="M 466.592809 100.806879 
L 469.082741 84.540251 
L 471.572672 41.849555 
L 474.062604 40.72095 
L 476.552536 39.567811 
L 479.042468 38.439206 
L 481.532399 37.286067 
L 484.022331 36.132927 
L 486.512263 34.906183 
L 489.002195 33.507695 
L 491.492126 32.207346 
L 493.982058 31.176881 
L 496.47199 30.514439 
L 498.961921 29.3613 
L 501.451853 28.35537 
L 503.941785 27.938276 
L 506.431717 27.692928 
L 508.921648 27.447579 
L 511.41158 27.349439 
L 513.901512 27.349439 
L 516.391443 27.275835 
L 518.881375 27.275835 
L 521.371307 27.2513 
L 523.861239 27.2513 
L 526.35117 27.2513 
L 528.841102 27.2513 
L 531.331034 27.226765 
L 533.820965 27.226765 
L 536.310897 27.226765 
L 538.800829 27.226765 
" style="fill:none;stroke:#e31a1c;stroke-dasharray:1.2,1.2;stroke-dashoffset:0;stroke-width:1.2;"/>
   </g>
   <g id="line2d_93">
    <path clip-path="url(#p62e0187989)" d="M 466.592809 100.806879 
L 468.911502 100.733274 
L 471.230194 95.850832 
L 473.548887 95.212925 
L 475.86758 93.053856 
L 478.186272 89.643507 
L 480.504965 86.699321 
L 482.823658 83.68153 
L 485.14235 80.001298 
L 487.461043 77.032577 
L 489.779736 72.616298 
L 492.098429 65.648391 
L 494.417121 60.005368 
L 496.735814 55.245601 
L 499.054507 48.719322 
L 501.373199 45.186299 
L 503.691892 41.456997 
L 506.010585 39.690485 
L 508.329277 37.531416 
L 510.64797 35.985718 
L 512.966663 34.832579 
L 515.285355 33.949323 
L 517.604048 32.501765 
L 519.922741 31.005137 
L 522.241433 29.925602 
L 524.560126 29.165021 
L 526.878819 28.625253 
L 529.197511 27.692928 
L 531.516204 27.447579 
L 533.834897 27.275835 
" style="fill:none;stroke:#ff7f00;stroke-dasharray:3.6,1.2,1.8,1.2;stroke-dashoffset:0;stroke-width:1.2;"/>
   </g>
   <g id="line2d_94">
    <path clip-path="url(#p62e0187989)" d="M 466.592809 100.806879 
L 469.305352 100.806879 
L 472.017894 91.925251 
L 474.730436 86.772926 
L 477.442979 81.66967 
L 480.155521 76.762693 
L 482.868064 72.101066 
L 485.580606 67.660252 
L 488.293149 62.532461 
L 491.005691 58.410601 
L 493.718234 53.699903 
L 496.430776 46.609322 
L 499.143319 38.242927 
L 501.855861 32.992462 
L 504.568404 30.784323 
L 507.280946 29.189555 
L 509.993489 28.747928 
L 512.706031 28.453509 
L 515.418574 28.330835 
L 518.131116 28.060951 
L 520.843658 27.962811 
L 523.556201 27.815602 
L 526.268743 27.594788 
L 528.981286 27.545718 
L 531.693828 27.447579 
L 534.406371 27.349439 
L 537.118913 27.300369 
L 539.831456 27.300369 
L 542.543998 27.300369 
L 545.256541 27.226765 
" style="fill:none;stroke:#6a3d9a;stroke-dasharray:6,1.2,1.2,1.2;stroke-dashoffset:0;stroke-width:1.2;"/>
   </g>
   <g id="patch_21">
    <path d="M 462.152929 100.806879 
L 462.152929 19.841765 
" style="fill:none;stroke:#262626;stroke-linecap:square;stroke-linejoin:miter;"/>
   </g>
   <g id="patch_22">
    <path d="M 559.830289 100.806879 
L 559.830289 19.841765 
" style="fill:none;stroke:#262626;stroke-linecap:square;stroke-linejoin:miter;"/>
   </g>
   <g id="patch_23">
    <path d="M 462.152929 100.806879 
L 559.830289 100.806879 
" style="fill:none;stroke:#262626;stroke-linecap:square;stroke-linejoin:miter;"/>
   </g>
   <g id="patch_24">
    <path d="M 462.152929 19.841765 
L 559.830289 19.841765 
" style="fill:none;stroke:#262626;stroke-linecap:square;stroke-linejoin:miter;"/>
   </g>
   <g id="text_49">
    <!-- $\lambda =150$ -->
    <g style="fill:#262626;" transform="translate(494.19915 13.841765)scale(0.096 -0.096)">
     <use transform="scale(0.996264)" xlink:href="#CMMI12-21"/>
     <use transform="translate(84.578081 0)scale(0.996264)" xlink:href="#CMR17-61"/>
     <use transform="translate(183.966878 0)scale(0.996264)" xlink:href="#CMR17-49"/>
     <use transform="translate(229.657355 0)scale(0.996264)" xlink:href="#CMR17-53"/>
     <use transform="translate(275.347832 0)scale(0.996264)" xlink:href="#CMR17-48"/>
    </g>
   </g>
   <g id="legend_4">
    <g id="patch_25">
     <path d="M 501.02651 97.306879 
L 554.930289 97.306879 
Q 556.330289 97.306879 556.330289 95.906879 
L 556.330289 47.826808 
Q 556.330289 46.426808 554.930289 46.426808 
L 501.02651 46.426808 
Q 499.62651 46.426808 499.62651 47.826808 
L 499.62651 95.906879 
Q 499.62651 97.306879 501.02651 97.306879 
z
" style="fill:#ffffff;opacity:0.8;stroke:#cccccc;stroke-linejoin:miter;stroke-width:0.8;"/>
    </g>
    <g id="line2d_95">
     <path d="M 502.42651 51.676808 
L 516.42651 51.676808 
" style="fill:none;stroke:#1f78b4;stroke-linecap:round;stroke-width:1.2;"/>
    </g>
    <g id="line2d_96"/>
    <g id="text_50">
     <!-- Classifier -->
     <g style="fill:#262626;" transform="translate(522.02651 54.126808)scale(0.07 -0.07)">
      <use transform="scale(0.996264)" xlink:href="#CMSS17-67"/>
      <use transform="translate(59.855772 0)scale(0.996264)" xlink:href="#CMSS17-108"/>
      <use transform="translate(82.036495 0)scale(0.996264)" xlink:href="#CMSS17-97"/>
      <use transform="translate(126.958415 0)scale(0.996264)" xlink:href="#CMSS17-115"/>
      <use transform="translate(162.871957 0)scale(0.996264)" xlink:href="#CMSS17-115"/>
      <use transform="translate(198.785499 0)scale(0.996264)" xlink:href="#CMSS17-105"/>
      <use transform="translate(220.966222 0)scale(0.996264)" xlink:href="#CMSS17-12"/>
      <use transform="translate(271.09296 0)scale(0.996264)" xlink:href="#CMSS17-101"/>
      <use transform="translate(312.731782 0)scale(0.996264)" xlink:href="#CMSS17-114"/>
     </g>
    </g>
    <g id="line2d_97">
     <path d="M 502.42651 61.432822 
L 516.42651 61.432822 
" style="fill:none;stroke:#33a02c;stroke-dasharray:4.8,1.8;stroke-dashoffset:0;stroke-width:1.2;"/>
    </g>
    <g id="line2d_98"/>
    <g id="text_51">
     <!-- Dropper -->
     <g style="fill:#262626;" transform="translate(522.02651 63.882822)scale(0.07 -0.07)">
      <use transform="scale(0.996264)" xlink:href="#CMSS17-68"/>
      <use transform="translate(67.542842 0)scale(0.996264)" xlink:href="#CMSS17-114"/>
      <use transform="translate(99.452614 0)scale(0.996264)" xlink:href="#CMSS17-111"/>
      <use transform="translate(146.296238 0)scale(0.996264)" xlink:href="#CMSS17-112"/>
      <use transform="translate(194.501181 0)scale(0.996264)" xlink:href="#CMSS17-112"/>
      <use transform="translate(245.308563 0)scale(0.996264)" xlink:href="#CMSS17-101"/>
      <use transform="translate(286.947385 0)scale(0.996264)" xlink:href="#CMSS17-114"/>
     </g>
    </g>
    <g id="line2d_99">
     <path d="M 502.42651 71.188836 
L 516.42651 71.188836 
" style="fill:none;stroke:#e31a1c;stroke-dasharray:1.2,1.2;stroke-dashoffset:0;stroke-width:1.2;"/>
    </g>
    <g id="line2d_100"/>
    <g id="text_52">
     <!-- Redirector -->
     <g style="fill:#262626;" transform="translate(522.02651 73.638836)scale(0.07 -0.07)">
      <use transform="scale(0.996264)" xlink:href="#CMSS17-82"/>
      <use transform="translate(60.416155 0)scale(0.996264)" xlink:href="#CMSS17-101"/>
      <use transform="translate(102.054977 0)scale(0.996264)" xlink:href="#CMSS17-100"/>
      <use transform="translate(150.25992 0)scale(0.996264)" xlink:href="#CMSS17-105"/>
      <use transform="translate(172.440643 0)scale(0.996264)" xlink:href="#CMSS17-114"/>
      <use transform="translate(204.350416 0)scale(0.996264)" xlink:href="#CMSS17-101"/>
      <use transform="translate(245.989238 0)scale(0.996264)" xlink:href="#CMSS17-99"/>
      <use transform="translate(287.62806 0)scale(0.996264)" xlink:href="#CMSS17-116"/>
      <use transform="translate(321.459626 0)scale(0.996264)" xlink:href="#CMSS17-111"/>
      <use transform="translate(365.700796 0)scale(0.996264)" xlink:href="#CMSS17-114"/>
     </g>
    </g>
    <g id="line2d_101">
     <path d="M 502.42651 80.94485 
L 516.42651 80.94485 
" style="fill:none;stroke:#ff7f00;stroke-dasharray:3.6,1.2,1.8,1.2;stroke-dashoffset:0;stroke-width:1.2;"/>
    </g>
    <g id="line2d_102"/>
    <g id="text_53">
     <!-- Scheduler -->
     <g style="fill:#262626;" transform="translate(522.02651 83.39485)scale(0.07 -0.07)">
      <use transform="scale(0.996264)" xlink:href="#CMSS17-83"/>
      <use transform="translate(52.048516 0)scale(0.996264)" xlink:href="#CMSS17-99"/>
      <use transform="translate(93.687338 0)scale(0.996264)" xlink:href="#CMSS17-104"/>
      <use transform="translate(141.892281 0)scale(0.996264)" xlink:href="#CMSS17-101"/>
      <use transform="translate(183.531103 0)scale(0.996264)" xlink:href="#CMSS17-100"/>
      <use transform="translate(231.736047 0)scale(0.996264)" xlink:href="#CMSS17-117"/>
      <use transform="translate(279.94099 0)scale(0.996264)" xlink:href="#CMSS17-108"/>
      <use transform="translate(302.121713 0)scale(0.996264)" xlink:href="#CMSS17-101"/>
      <use transform="translate(343.760535 0)scale(0.996264)" xlink:href="#CMSS17-114"/>
     </g>
    </g>
    <g id="line2d_103">
     <path d="M 502.42651 90.700864 
L 516.42651 90.700864 
" style="fill:none;stroke:#6a3d9a;stroke-dasharray:6,1.2,1.2,1.2;stroke-dashoffset:0;stroke-width:1.2;"/>
    </g>
    <g id="line2d_104"/>
    <g id="text_54">
     <!-- Shaper -->
     <g style="fill:#262626;" transform="translate(522.02651 93.150864)scale(0.07 -0.07)">
      <use transform="scale(0.996264)" xlink:href="#CMSS17-83"/>
      <use transform="translate(52.048516 0)scale(0.996264)" xlink:href="#CMSS17-104"/>
      <use transform="translate(100.253459 0)scale(0.996264)" xlink:href="#CMSS17-97"/>
      <use transform="translate(145.17538 0)scale(0.996264)" xlink:href="#CMSS17-112"/>
      <use transform="translate(195.982762 0)scale(0.996264)" xlink:href="#CMSS17-101"/>
      <use transform="translate(237.621584 0)scale(0.996264)" xlink:href="#CMSS17-114"/>
     </g>
    </g>
   </g>
  </g>
 </g>
 <defs>
  <clipPath id="p7e492eb594">
   <rect height="80.965113" width="97.67736" x="39.904212" y="19.841765"/>
  </clipPath>
  <clipPath id="pdc43dc9743">
   <rect height="80.965113" width="97.67736" x="180.653785" y="19.841765"/>
  </clipPath>
  <clipPath id="p984d46042a">
   <rect height="80.965113" width="97.67736" x="321.403357" y="19.841765"/>
  </clipPath>
  <clipPath id="p62e0187989">
   <rect height="80.965113" width="97.67736" x="462.152929" y="19.841765"/>
  </clipPath>
 </defs>
</svg>
