<?xml version="1.0" encoding="utf-8" standalone="no"?>
<!DOCTYPE svg PUBLIC "-//W3C//DTD SVG 1.1//EN"
  "http://www.w3.org/Graphics/SVG/1.1/DTD/svg11.dtd">
<!-- Created with matplotlib (https://matplotlib.org/) -->
<svg height="136.990875pt" version="1.1" viewBox="0 0 247.616985 136.990875" width="247.616985pt" xmlns="http://www.w3.org/2000/svg" xmlns:xlink="http://www.w3.org/1999/xlink">
 <defs>
  <style type="text/css">
*{stroke-linecap:butt;stroke-linejoin:round;}
  </style>
 </defs>
 <g id="figure_1">
  <g id="patch_1">
   <path d="M 0 136.990875 
L 247.616985 136.990875 
L 247.616985 0 
L 0 0 
z
" style="fill:#ffffff;"/>
  </g>
  <g id="axes_1">
   <g id="patch_2">
    <path d="M 119.047125 68.495437 
C 119.047125 62.836648 117.932467 57.232883 115.766942 52.004843 
C 113.601417 46.776803 110.427139 42.026161 106.42577 38.024792 
C 102.424402 34.023424 97.673759 30.849146 92.445719 28.683621 
C 87.21768 26.518096 81.613915 25.403437 75.955125 25.403437 
C 70.296335 25.403437 64.69257 26.518096 59.464531 28.683621 
C 54.236491 30.849146 49.485848 34.023424 45.48448 38.024792 
C 41.483111 42.026161 38.308833 46.776803 36.143308 52.004843 
C 33.977783 57.232883 32.863125 62.836648 32.863125 68.495437 
C 32.863125 74.154227 33.977783 79.757992 36.143308 84.986032 
C 38.308833 90.214072 41.483111 94.964714 45.48448 98.966083 
C 49.485848 102.967451 54.236491 106.141729 59.464531 108.307254 
C 64.69257 110.472779 70.296335 111.587437 75.955125 111.587437 
C 81.613915 111.587437 87.21768 110.472779 92.445719 108.307254 
C 97.673759 106.141729 102.424402 102.967451 106.42577 98.966083 
C 110.427139 94.964714 113.601417 90.214072 115.766942 84.986032 
C 117.932467 79.757992 119.047125 74.154227 119.047125 68.495438 
M 75.955125 68.495437 
C 75.955125 68.495437 75.955125 68.495437 75.955125 68.495437 
C 75.955125 68.495437 75.955125 68.495437 75.955125 68.495437 
C 75.955125 68.495437 75.955125 68.495437 75.955125 68.495437 
C 75.955125 68.495437 75.955125 68.495437 75.955125 68.495437 
C 75.955125 68.495437 75.955125 68.495437 75.955125 68.495437 
C 75.955125 68.495437 75.955125 68.495437 75.955125 68.495437 
C 75.955125 68.495437 75.955125 68.495437 75.955125 68.495437 
C 75.955125 68.495437 75.955125 68.495437 75.955125 68.495437 
C 75.955125 68.495437 75.955125 68.495437 75.955125 68.495437 
C 75.955125 68.495437 75.955125 68.495437 75.955125 68.495437 
C 75.955125 68.495437 75.955125 68.495437 75.955125 68.495437 
C 75.955125 68.495437 75.955125 68.495437 75.955125 68.495437 
C 75.955125 68.495437 75.955125 68.495437 75.955125 68.495437 
C 75.955125 68.495437 75.955125 68.495437 75.955125 68.495437 
C 75.955125 68.495437 75.955125 68.495437 75.955125 68.495437 
C 75.955125 68.495437 75.955125 68.495437 75.955125 68.495437 
M 119.047125 68.495437 
z
" style="fill:#ffffff;"/>
   </g>
   <g id="matplotlib.axis_1">
    <g id="xtick_1">
     <g id="line2d_1">
      <path clip-path="url(#p29556287b4)" d="M 75.955125 68.495437 
L 75.955125 25.403437 
" style="fill:none;stroke:#cccccc;stroke-linecap:round;stroke-width:0.8;"/>
     </g>
     <g id="text_1">
      <!-- Seed 1 -->
      <defs>
       <path d="M 53.515625 70.515625 
L 53.515625 60.890625 
Q 47.90625 63.578125 42.921875 64.890625 
Q 37.9375 66.21875 33.296875 66.21875 
Q 25.25 66.21875 20.875 63.09375 
Q 16.5 59.96875 16.5 54.203125 
Q 16.5 49.359375 19.40625 46.890625 
Q 22.3125 44.4375 30.421875 42.921875 
L 36.375 41.703125 
Q 47.40625 39.59375 52.65625 34.296875 
Q 57.90625 29 57.90625 20.125 
Q 57.90625 9.515625 50.796875 4.046875 
Q 43.703125 -1.421875 29.984375 -1.421875 
Q 24.8125 -1.421875 18.96875 -0.25 
Q 13.140625 0.921875 6.890625 3.21875 
L 6.890625 13.375 
Q 12.890625 10.015625 18.65625 8.296875 
Q 24.421875 6.59375 29.984375 6.59375 
Q 38.421875 6.59375 43.015625 9.90625 
Q 47.609375 13.234375 47.609375 19.390625 
Q 47.609375 24.75 44.3125 27.78125 
Q 41.015625 30.8125 33.5 32.328125 
L 27.484375 33.5 
Q 16.453125 35.6875 11.515625 40.375 
Q 6.59375 45.0625 6.59375 53.421875 
Q 6.59375 63.09375 13.40625 68.65625 
Q 20.21875 74.21875 32.171875 74.21875 
Q 37.3125 74.21875 42.625 73.28125 
Q 47.953125 72.359375 53.515625 70.515625 
z
" id="DejaVuSans-83"/>
       <path d="M 56.203125 29.59375 
L 56.203125 25.203125 
L 14.890625 25.203125 
Q 15.484375 15.921875 20.484375 11.0625 
Q 25.484375 6.203125 34.421875 6.203125 
Q 39.59375 6.203125 44.453125 7.46875 
Q 49.3125 8.734375 54.109375 11.28125 
L 54.109375 2.78125 
Q 49.265625 0.734375 44.1875 -0.34375 
Q 39.109375 -1.421875 33.890625 -1.421875 
Q 20.796875 -1.421875 13.15625 6.1875 
Q 5.515625 13.8125 5.515625 26.8125 
Q 5.515625 40.234375 12.765625 48.109375 
Q 20.015625 56 32.328125 56 
Q 43.359375 56 49.78125 48.890625 
Q 56.203125 41.796875 56.203125 29.59375 
z
M 47.21875 32.234375 
Q 47.125 39.59375 43.09375 43.984375 
Q 39.0625 48.390625 32.421875 48.390625 
Q 24.90625 48.390625 20.390625 44.140625 
Q 15.875 39.890625 15.1875 32.171875 
z
" id="DejaVuSans-101"/>
       <path d="M 45.40625 46.390625 
L 45.40625 75.984375 
L 54.390625 75.984375 
L 54.390625 0 
L 45.40625 0 
L 45.40625 8.203125 
Q 42.578125 3.328125 38.25 0.953125 
Q 33.9375 -1.421875 27.875 -1.421875 
Q 17.96875 -1.421875 11.734375 6.484375 
Q 5.515625 14.40625 5.515625 27.296875 
Q 5.515625 40.1875 11.734375 48.09375 
Q 17.96875 56 27.875 56 
Q 33.9375 56 38.25 53.625 
Q 42.578125 51.265625 45.40625 46.390625 
z
M 14.796875 27.296875 
Q 14.796875 17.390625 18.875 11.75 
Q 22.953125 6.109375 30.078125 6.109375 
Q 37.203125 6.109375 41.296875 11.75 
Q 45.40625 17.390625 45.40625 27.296875 
Q 45.40625 37.203125 41.296875 42.84375 
Q 37.203125 48.484375 30.078125 48.484375 
Q 22.953125 48.484375 18.875 42.84375 
Q 14.796875 37.203125 14.796875 27.296875 
z
" id="DejaVuSans-100"/>
       <path id="DejaVuSans-32"/>
       <path d="M 12.40625 8.296875 
L 28.515625 8.296875 
L 28.515625 63.921875 
L 10.984375 60.40625 
L 10.984375 69.390625 
L 28.421875 72.90625 
L 38.28125 72.90625 
L 38.28125 8.296875 
L 54.390625 8.296875 
L 54.390625 0 
L 12.40625 0 
z
" id="DejaVuSans-49"/>
      </defs>
      <g style="fill:#262626;" transform="translate(65.592 11.759062)scale(0.06 -0.06)">
       <use xlink:href="#DejaVuSans-83"/>
       <use x="63.476562" xlink:href="#DejaVuSans-101"/>
       <use x="125" xlink:href="#DejaVuSans-101"/>
       <use x="186.523438" xlink:href="#DejaVuSans-100"/>
       <use x="250" xlink:href="#DejaVuSans-32"/>
       <use x="281.787109" xlink:href="#DejaVuSans-49"/>
      </g>
     </g>
    </g>
    <g id="xtick_2">
     <g id="line2d_2">
      <path clip-path="url(#p29556287b4)" d="M 75.955125 68.495437 
L 106.42577 38.024792 
" style="fill:none;stroke:#cccccc;stroke-linecap:round;stroke-width:0.8;"/>
     </g>
     <g id="text_2">
      <!-- Seed 2 -->
      <defs>
       <path d="M 19.1875 8.296875 
L 53.609375 8.296875 
L 53.609375 0 
L 7.328125 0 
L 7.328125 8.296875 
Q 12.9375 14.109375 22.625 23.890625 
Q 32.328125 33.6875 34.8125 36.53125 
Q 39.546875 41.84375 41.421875 45.53125 
Q 43.3125 49.21875 43.3125 52.78125 
Q 43.3125 58.59375 39.234375 62.25 
Q 35.15625 65.921875 28.609375 65.921875 
Q 23.96875 65.921875 18.8125 64.3125 
Q 13.671875 62.703125 7.8125 59.421875 
L 7.8125 69.390625 
Q 13.765625 71.78125 18.9375 73 
Q 24.125 74.21875 28.421875 74.21875 
Q 39.75 74.21875 46.484375 68.546875 
Q 53.21875 62.890625 53.21875 53.421875 
Q 53.21875 48.921875 51.53125 44.890625 
Q 49.859375 40.875 45.40625 35.40625 
Q 44.1875 33.984375 37.640625 27.21875 
Q 31.109375 20.453125 19.1875 8.296875 
z
" id="DejaVuSans-50"/>
      </defs>
      <g style="fill:#262626;" transform="translate(106.881379 28.861683)scale(0.06 -0.06)">
       <use xlink:href="#DejaVuSans-83"/>
       <use x="63.476562" xlink:href="#DejaVuSans-101"/>
       <use x="125" xlink:href="#DejaVuSans-101"/>
       <use x="186.523438" xlink:href="#DejaVuSans-100"/>
       <use x="250" xlink:href="#DejaVuSans-32"/>
       <use x="281.787109" xlink:href="#DejaVuSans-50"/>
      </g>
     </g>
    </g>
    <g id="xtick_3">
     <g id="line2d_3">
      <path clip-path="url(#p29556287b4)" d="M 75.955125 68.495437 
L 119.047125 68.495437 
" style="fill:none;stroke:#cccccc;stroke-linecap:round;stroke-width:0.8;"/>
     </g>
     <g id="text_3">
      <!-- Seed 3 -->
      <defs>
       <path d="M 40.578125 39.3125 
Q 47.65625 37.796875 51.625 33 
Q 55.609375 28.21875 55.609375 21.1875 
Q 55.609375 10.40625 48.1875 4.484375 
Q 40.765625 -1.421875 27.09375 -1.421875 
Q 22.515625 -1.421875 17.65625 -0.515625 
Q 12.796875 0.390625 7.625 2.203125 
L 7.625 11.71875 
Q 11.71875 9.328125 16.59375 8.109375 
Q 21.484375 6.890625 26.8125 6.890625 
Q 36.078125 6.890625 40.9375 10.546875 
Q 45.796875 14.203125 45.796875 21.1875 
Q 45.796875 27.640625 41.28125 31.265625 
Q 36.765625 34.90625 28.71875 34.90625 
L 20.21875 34.90625 
L 20.21875 43.015625 
L 29.109375 43.015625 
Q 36.375 43.015625 40.234375 45.921875 
Q 44.09375 48.828125 44.09375 54.296875 
Q 44.09375 59.90625 40.109375 62.90625 
Q 36.140625 65.921875 28.71875 65.921875 
Q 24.65625 65.921875 20.015625 65.03125 
Q 15.375 64.15625 9.8125 62.3125 
L 9.8125 71.09375 
Q 15.4375 72.65625 20.34375 73.4375 
Q 25.25 74.21875 29.59375 74.21875 
Q 40.828125 74.21875 47.359375 69.109375 
Q 53.90625 64.015625 53.90625 55.328125 
Q 53.90625 49.265625 50.4375 45.09375 
Q 46.96875 40.921875 40.578125 39.3125 
z
" id="DejaVuSans-51"/>
      </defs>
      <g style="fill:#262626;" transform="translate(123.984 70.151062)scale(0.06 -0.06)">
       <use xlink:href="#DejaVuSans-83"/>
       <use x="63.476562" xlink:href="#DejaVuSans-101"/>
       <use x="125" xlink:href="#DejaVuSans-101"/>
       <use x="186.523438" xlink:href="#DejaVuSans-100"/>
       <use x="250" xlink:href="#DejaVuSans-32"/>
       <use x="281.787109" xlink:href="#DejaVuSans-51"/>
      </g>
     </g>
    </g>
    <g id="xtick_4">
     <g id="line2d_4">
      <path clip-path="url(#p29556287b4)" d="M 75.955125 68.495437 
L 106.42577 98.966083 
" style="fill:none;stroke:#cccccc;stroke-linecap:round;stroke-width:0.8;"/>
     </g>
     <g id="text_4">
      <!-- Seed 4 -->
      <defs>
       <path d="M 37.796875 64.3125 
L 12.890625 25.390625 
L 37.796875 25.390625 
z
M 35.203125 72.90625 
L 47.609375 72.90625 
L 47.609375 25.390625 
L 58.015625 25.390625 
L 58.015625 17.1875 
L 47.609375 17.1875 
L 47.609375 0 
L 37.796875 0 
L 37.796875 17.1875 
L 4.890625 17.1875 
L 4.890625 26.703125 
z
" id="DejaVuSans-52"/>
      </defs>
      <g style="fill:#262626;" transform="translate(106.881379 111.440442)scale(0.06 -0.06)">
       <use xlink:href="#DejaVuSans-83"/>
       <use x="63.476562" xlink:href="#DejaVuSans-101"/>
       <use x="125" xlink:href="#DejaVuSans-101"/>
       <use x="186.523438" xlink:href="#DejaVuSans-100"/>
       <use x="250" xlink:href="#DejaVuSans-32"/>
       <use x="281.787109" xlink:href="#DejaVuSans-52"/>
      </g>
     </g>
    </g>
    <g id="xtick_5">
     <g id="line2d_5">
      <path clip-path="url(#p29556287b4)" d="M 75.955125 68.495437 
L 75.955125 111.587437 
" style="fill:none;stroke:#cccccc;stroke-linecap:round;stroke-width:0.8;"/>
     </g>
     <g id="text_5">
      <!-- Seed 5 -->
      <defs>
       <path d="M 10.796875 72.90625 
L 49.515625 72.90625 
L 49.515625 64.59375 
L 19.828125 64.59375 
L 19.828125 46.734375 
Q 21.96875 47.46875 24.109375 47.828125 
Q 26.265625 48.1875 28.421875 48.1875 
Q 40.625 48.1875 47.75 41.5 
Q 54.890625 34.8125 54.890625 23.390625 
Q 54.890625 11.625 47.5625 5.09375 
Q 40.234375 -1.421875 26.90625 -1.421875 
Q 22.3125 -1.421875 17.546875 -0.640625 
Q 12.796875 0.140625 7.71875 1.703125 
L 7.71875 11.625 
Q 12.109375 9.234375 16.796875 8.0625 
Q 21.484375 6.890625 26.703125 6.890625 
Q 35.15625 6.890625 40.078125 11.328125 
Q 45.015625 15.765625 45.015625 23.390625 
Q 45.015625 31 40.078125 35.4375 
Q 35.15625 39.890625 26.703125 39.890625 
Q 22.75 39.890625 18.8125 39.015625 
Q 14.890625 38.140625 10.796875 36.28125 
z
" id="DejaVuSans-53"/>
      </defs>
      <g style="fill:#262626;" transform="translate(65.592 128.543062)scale(0.06 -0.06)">
       <use xlink:href="#DejaVuSans-83"/>
       <use x="63.476562" xlink:href="#DejaVuSans-101"/>
       <use x="125" xlink:href="#DejaVuSans-101"/>
       <use x="186.523438" xlink:href="#DejaVuSans-100"/>
       <use x="250" xlink:href="#DejaVuSans-32"/>
       <use x="281.787109" xlink:href="#DejaVuSans-53"/>
      </g>
     </g>
    </g>
    <g id="xtick_6">
     <g id="line2d_6">
      <path clip-path="url(#p29556287b4)" d="M 75.955125 68.495437 
L 45.48448 98.966083 
" style="fill:none;stroke:#cccccc;stroke-linecap:round;stroke-width:0.8;"/>
     </g>
     <g id="text_6">
      <!-- Seed 6 -->
      <defs>
       <path d="M 33.015625 40.375 
Q 26.375 40.375 22.484375 35.828125 
Q 18.609375 31.296875 18.609375 23.390625 
Q 18.609375 15.53125 22.484375 10.953125 
Q 26.375 6.390625 33.015625 6.390625 
Q 39.65625 6.390625 43.53125 10.953125 
Q 47.40625 15.53125 47.40625 23.390625 
Q 47.40625 31.296875 43.53125 35.828125 
Q 39.65625 40.375 33.015625 40.375 
z
M 52.59375 71.296875 
L 52.59375 62.3125 
Q 48.875 64.0625 45.09375 64.984375 
Q 41.3125 65.921875 37.59375 65.921875 
Q 27.828125 65.921875 22.671875 59.328125 
Q 17.53125 52.734375 16.796875 39.40625 
Q 19.671875 43.65625 24.015625 45.921875 
Q 28.375 48.1875 33.59375 48.1875 
Q 44.578125 48.1875 50.953125 41.515625 
Q 57.328125 34.859375 57.328125 23.390625 
Q 57.328125 12.15625 50.6875 5.359375 
Q 44.046875 -1.421875 33.015625 -1.421875 
Q 20.359375 -1.421875 13.671875 8.265625 
Q 6.984375 17.96875 6.984375 36.375 
Q 6.984375 53.65625 15.1875 63.9375 
Q 23.390625 74.21875 37.203125 74.21875 
Q 40.921875 74.21875 44.703125 73.484375 
Q 48.484375 72.75 52.59375 71.296875 
z
" id="DejaVuSans-54"/>
      </defs>
      <g style="fill:#262626;" transform="translate(24.302621 111.440442)scale(0.06 -0.06)">
       <use xlink:href="#DejaVuSans-83"/>
       <use x="63.476562" xlink:href="#DejaVuSans-101"/>
       <use x="125" xlink:href="#DejaVuSans-101"/>
       <use x="186.523438" xlink:href="#DejaVuSans-100"/>
       <use x="250" xlink:href="#DejaVuSans-32"/>
       <use x="281.787109" xlink:href="#DejaVuSans-54"/>
      </g>
     </g>
    </g>
    <g id="xtick_7">
     <g id="line2d_7">
      <path clip-path="url(#p29556287b4)" d="M 75.955125 68.495437 
L 32.863125 68.495437 
" style="fill:none;stroke:#cccccc;stroke-linecap:round;stroke-width:0.8;"/>
     </g>
     <g id="text_7">
      <!-- Seed 7 -->
      <defs>
       <path d="M 8.203125 72.90625 
L 55.078125 72.90625 
L 55.078125 68.703125 
L 28.609375 0 
L 18.3125 0 
L 43.21875 64.59375 
L 8.203125 64.59375 
z
" id="DejaVuSans-55"/>
      </defs>
      <g style="fill:#262626;" transform="translate(7.2 70.151062)scale(0.06 -0.06)">
       <use xlink:href="#DejaVuSans-83"/>
       <use x="63.476562" xlink:href="#DejaVuSans-101"/>
       <use x="125" xlink:href="#DejaVuSans-101"/>
       <use x="186.523438" xlink:href="#DejaVuSans-100"/>
       <use x="250" xlink:href="#DejaVuSans-32"/>
       <use x="281.787109" xlink:href="#DejaVuSans-55"/>
      </g>
     </g>
    </g>
    <g id="xtick_8">
     <g id="line2d_8">
      <path clip-path="url(#p29556287b4)" d="M 75.955125 68.495437 
L 45.48448 38.024792 
" style="fill:none;stroke:#cccccc;stroke-linecap:round;stroke-width:0.8;"/>
     </g>
     <g id="text_8">
      <!-- Seed 8 -->
      <defs>
       <path d="M 31.78125 34.625 
Q 24.75 34.625 20.71875 30.859375 
Q 16.703125 27.09375 16.703125 20.515625 
Q 16.703125 13.921875 20.71875 10.15625 
Q 24.75 6.390625 31.78125 6.390625 
Q 38.8125 6.390625 42.859375 10.171875 
Q 46.921875 13.96875 46.921875 20.515625 
Q 46.921875 27.09375 42.890625 30.859375 
Q 38.875 34.625 31.78125 34.625 
z
M 21.921875 38.8125 
Q 15.578125 40.375 12.03125 44.71875 
Q 8.5 49.078125 8.5 55.328125 
Q 8.5 64.0625 14.71875 69.140625 
Q 20.953125 74.21875 31.78125 74.21875 
Q 42.671875 74.21875 48.875 69.140625 
Q 55.078125 64.0625 55.078125 55.328125 
Q 55.078125 49.078125 51.53125 44.71875 
Q 48 40.375 41.703125 38.8125 
Q 48.828125 37.15625 52.796875 32.3125 
Q 56.78125 27.484375 56.78125 20.515625 
Q 56.78125 9.90625 50.3125 4.234375 
Q 43.84375 -1.421875 31.78125 -1.421875 
Q 19.734375 -1.421875 13.25 4.234375 
Q 6.78125 9.90625 6.78125 20.515625 
Q 6.78125 27.484375 10.78125 32.3125 
Q 14.796875 37.15625 21.921875 38.8125 
z
M 18.3125 54.390625 
Q 18.3125 48.734375 21.84375 45.5625 
Q 25.390625 42.390625 31.78125 42.390625 
Q 38.140625 42.390625 41.71875 45.5625 
Q 45.3125 48.734375 45.3125 54.390625 
Q 45.3125 60.0625 41.71875 63.234375 
Q 38.140625 66.40625 31.78125 66.40625 
Q 25.390625 66.40625 21.84375 63.234375 
Q 18.3125 60.0625 18.3125 54.390625 
z
" id="DejaVuSans-56"/>
      </defs>
      <g style="fill:#262626;" transform="translate(24.302621 28.861683)scale(0.06 -0.06)">
       <use xlink:href="#DejaVuSans-83"/>
       <use x="63.476562" xlink:href="#DejaVuSans-101"/>
       <use x="125" xlink:href="#DejaVuSans-101"/>
       <use x="186.523438" xlink:href="#DejaVuSans-100"/>
       <use x="250" xlink:href="#DejaVuSans-32"/>
       <use x="281.787109" xlink:href="#DejaVuSans-56"/>
      </g>
     </g>
    </g>
   </g>
   <g id="matplotlib.axis_2">
    <g id="ytick_1">
     <g id="line2d_9">
      <path clip-path="url(#p29556287b4)" d="M 75.955125 52.079437 
L 77.671064 52.169366 
L 79.368203 52.438166 
L 81.027948 52.882894 
L 82.632114 53.498675 
L 84.163125 54.278764 
L 85.604208 55.214615 
L 86.939573 56.295972 
L 88.15459 57.510989 
L 89.235948 58.846355 
L 90.171798 60.287437 
L 90.951887 61.818449 
L 91.567669 63.422615 
L 92.012396 65.082359 
L 92.281196 66.779498 
L 92.371125 68.495437 
L 92.281196 70.211377 
L 92.012396 71.908516 
L 91.567669 73.56826 
L 90.951887 75.172426 
L 90.171798 76.703437 
L 89.235948 78.14452 
L 88.15459 79.479886 
L 86.939573 80.694903 
L 85.604208 81.77626 
L 84.163125 82.712111 
L 82.632114 83.4922 
L 81.027948 84.107981 
L 79.368203 84.552709 
L 77.671064 84.821509 
L 75.955125 84.911437 
L 74.239186 84.821509 
L 72.542047 84.552709 
L 70.882302 84.107981 
L 69.278136 83.4922 
L 67.747125 82.712111 
L 66.306042 81.77626 
L 64.970677 80.694903 
L 63.75566 79.479886 
L 62.674302 78.14452 
L 61.738452 76.703438 
L 60.958363 75.172426 
L 60.342581 73.56826 
L 59.897854 71.908516 
L 59.629054 70.211377 
L 59.539125 68.495437 
L 59.629054 66.779498 
L 59.897854 65.082359 
L 60.342581 63.422615 
L 60.958363 61.818449 
L 61.738452 60.287437 
L 62.674302 58.846355 
L 63.75566 57.510989 
L 64.970677 56.295972 
L 66.306042 55.214615 
L 67.747125 54.278764 
L 69.278136 53.498675 
L 70.882302 52.882894 
L 72.542047 52.438166 
L 74.239186 52.169366 
L 75.955125 52.079437 
L 75.955125 52.079437 
" style="fill:none;stroke:#cccccc;stroke-linecap:round;stroke-width:0.8;"/>
     </g>
     <g id="text_9">
      <!-- 0.2 -->
      <defs>
       <path d="M 31.78125 66.40625 
Q 24.171875 66.40625 20.328125 58.90625 
Q 16.5 51.421875 16.5 36.375 
Q 16.5 21.390625 20.328125 13.890625 
Q 24.171875 6.390625 31.78125 6.390625 
Q 39.453125 6.390625 43.28125 13.890625 
Q 47.125 21.390625 47.125 36.375 
Q 47.125 51.421875 43.28125 58.90625 
Q 39.453125 66.40625 31.78125 66.40625 
z
M 31.78125 74.21875 
Q 44.046875 74.21875 50.515625 64.515625 
Q 56.984375 54.828125 56.984375 36.375 
Q 56.984375 17.96875 50.515625 8.265625 
Q 44.046875 -1.421875 31.78125 -1.421875 
Q 19.53125 -1.421875 13.0625 8.265625 
Q 6.59375 17.96875 6.59375 36.375 
Q 6.59375 54.828125 13.0625 64.515625 
Q 19.53125 74.21875 31.78125 74.21875 
z
" id="DejaVuSans-48"/>
       <path d="M 10.6875 12.40625 
L 21 12.40625 
L 21 0 
L 10.6875 0 
z
" id="DejaVuSans-46"/>
      </defs>
      <g style="fill:#808080;" transform="translate(75.955125 50.831625)scale(0.06 -0.06)">
       <use xlink:href="#DejaVuSans-48"/>
       <use x="63.623047" xlink:href="#DejaVuSans-46"/>
       <use x="95.410156" xlink:href="#DejaVuSans-50"/>
      </g>
     </g>
    </g>
    <g id="ytick_2">
     <g id="line2d_10">
      <path clip-path="url(#p29556287b4)" d="M 75.955125 35.663437 
L 78.24537 35.743415 
L 80.524456 35.982956 
L 82.781282 36.380895 
L 85.004851 36.935293 
L 87.18433 37.643449 
L 89.309102 38.501913 
L 91.368815 39.506502 
L 93.353434 40.652322 
L 95.25329 41.933792 
L 97.059128 43.344666 
L 98.762149 44.878073 
L 100.354056 46.526541 
L 101.827094 48.28204 
L 103.174087 50.136016 
L 104.388471 52.079437 
L 105.464331 54.102836 
L 106.396425 56.196354 
L 107.180213 58.349792 
L 107.811874 60.552658 
L 108.288333 62.794221 
L 108.607268 65.063559 
L 108.767125 67.349617 
L 108.767125 69.641258 
L 108.607268 71.927316 
L 108.288333 74.196654 
L 107.811874 76.438217 
L 107.180213 78.641083 
L 106.396425 80.794521 
L 105.464331 82.888039 
L 104.388471 84.911437 
L 103.174087 86.854859 
L 101.827094 88.708835 
L 100.354056 90.464334 
L 98.762149 92.112802 
L 97.059128 93.646209 
L 95.25329 95.057083 
L 93.353434 96.338553 
L 91.368815 97.484373 
L 89.309102 98.488962 
L 87.18433 99.347426 
L 85.004851 100.055582 
L 82.781282 100.60998 
L 80.524456 101.007919 
L 78.24537 101.24746 
L 75.955125 101.327438 
L 73.66488 101.24746 
L 71.385794 101.007919 
L 69.128968 100.60998 
L 66.905399 100.055582 
L 64.72592 99.347426 
L 62.601148 98.488962 
L 60.541435 97.484373 
L 58.556816 96.338553 
L 56.65696 95.057083 
L 54.851122 93.646209 
L 53.148101 92.112802 
L 51.556194 90.464334 
L 50.083156 88.708835 
L 48.736163 86.854859 
L 47.521779 84.911438 
L 46.445919 82.888039 
L 45.513825 80.794521 
L 44.730037 78.641083 
L 44.098376 76.438217 
L 43.621917 74.196654 
L 43.302982 71.927316 
L 43.143125 69.641258 
L 43.143125 67.349617 
L 43.302982 65.063559 
L 43.621917 62.794221 
L 44.098376 60.552658 
L 44.730037 58.349792 
L 45.513825 56.196354 
L 46.445919 54.102836 
L 47.521779 52.079437 
L 48.736163 50.136016 
L 50.083156 48.28204 
L 51.556194 46.526541 
L 53.148101 44.878073 
L 54.851122 43.344666 
L 56.65696 41.933792 
L 58.556816 40.652322 
L 60.541435 39.506502 
L 62.601148 38.501913 
L 64.72592 37.643449 
L 66.905399 36.935293 
L 69.128968 36.380895 
L 71.385794 35.982956 
L 73.66488 35.743415 
L 75.955125 35.663437 
L 75.955125 35.663437 
" style="fill:none;stroke:#cccccc;stroke-linecap:round;stroke-width:0.8;"/>
     </g>
     <g id="text_10">
      <!-- 0.4 -->
      <g style="fill:#808080;" transform="translate(75.955125 34.415625)scale(0.06 -0.06)">
       <use xlink:href="#DejaVuSans-48"/>
       <use x="63.623047" xlink:href="#DejaVuSans-46"/>
       <use x="95.410156" xlink:href="#DejaVuSans-52"/>
      </g>
     </g>
    </g>
   </g>
   <g id="patch_3">
    <path clip-path="url(#p29556287b4)" d="M 75.955125 33.201037 
L 97.429675 47.020887 
L 97.295925 68.495437 
L 88.143383 80.683696 
L 75.955125 102.148237 
L 54.480575 89.969988 
L 50.510325 68.495437 
L 56.221755 48.762067 
z
" style="fill:#1f78b4;opacity:0.1;stroke:#ffffff;stroke-linejoin:miter;stroke-width:0.8;"/>
   </g>
   <g id="patch_4">
    <path clip-path="url(#p29556287b4)" d="M 75.955125 28.276237 
L 100.331641 44.118921 
L 114.532725 68.495437 
L 104.394394 96.934707 
L 75.955125 106.252237 
L 50.417822 94.03274 
L 34.915125 68.495437 
L 48.096249 40.636562 
z
" style="fill:#33a02c;opacity:0.1;stroke:#ffffff;stroke-linejoin:miter;stroke-width:0.8;"/>
   </g>
   <g id="patch_5">
    <path clip-path="url(#p29556287b4)" d="M 75.955125 62.749837 
L 75.955125 68.495437 
L 75.955125 68.495437 
L 75.955125 68.495437 
L 75.955125 68.495437 
L 63.766867 80.683696 
L 69.388725 68.495437 
L 75.955125 68.495437 
z
" style="fill:#e31a1c;opacity:0.1;stroke:#ffffff;stroke-linejoin:miter;stroke-width:0.8;"/>
   </g>
   <g id="line2d_11">
    <path clip-path="url(#p29556287b4)" d="M 75.955125 33.201037 
L 97.429675 47.020887 
L 97.295925 68.495437 
L 88.143383 80.683696 
L 75.955125 102.148237 
L 54.480575 89.969988 
L 50.510325 68.495437 
L 56.221755 48.762067 
L 75.955125 33.201037 
" style="fill:none;stroke:#1f78b4;stroke-linecap:round;"/>
   </g>
   <g id="line2d_12">
    <path clip-path="url(#p29556287b4)" d="M 75.955125 28.276237 
L 100.331641 44.118921 
L 114.532725 68.495437 
L 104.394394 96.934707 
L 75.955125 106.252237 
L 50.417822 94.03274 
L 34.915125 68.495437 
L 48.096249 40.636562 
L 75.955125 28.276237 
" style="fill:none;stroke:#33a02c;stroke-linecap:round;"/>
   </g>
   <g id="line2d_13">
    <path clip-path="url(#p29556287b4)" d="M 75.955125 62.749837 
L 75.955125 68.495437 
L 75.955125 68.495437 
L 75.955125 68.495437 
L 75.955125 68.495437 
L 63.766867 80.683696 
L 69.388725 68.495437 
L 75.955125 68.495437 
L 75.955125 62.749837 
" style="fill:none;stroke:#e31a1c;stroke-linecap:round;"/>
   </g>
   <g id="patch_6">
    <path d="M 75.955125 25.403437 
C 70.296335 25.403437 64.69257 26.518096 59.464531 28.683621 
C 54.236491 30.849146 49.485848 34.023424 45.48448 38.024792 
C 41.483111 42.026161 38.308833 46.776803 36.143308 52.004843 
C 33.977783 57.232883 32.863125 62.836648 32.863125 68.495437 
C 32.863125 74.154227 33.977783 79.757992 36.143308 84.986032 
C 38.308833 90.214072 41.483111 94.964714 45.48448 98.966083 
C 49.485848 102.967451 54.236491 106.141729 59.464531 108.307254 
C 64.69257 110.472779 70.296335 111.587437 75.955125 111.587437 
C 81.613915 111.587437 87.21768 110.472779 92.445719 108.307254 
C 97.673759 106.141729 102.424402 102.967451 106.42577 98.966083 
C 110.427139 94.964714 113.601417 90.214072 115.766942 84.986032 
C 117.932467 79.757992 119.047125 74.154227 119.047125 68.495437 
C 119.047125 62.836648 117.932467 57.232883 115.766942 52.004843 
C 113.601417 46.776803 110.427139 42.026161 106.42577 38.024792 
C 102.424402 34.023424 97.673759 30.849146 92.445719 28.683621 
C 87.21768 26.518096 81.613915 25.403437 75.955125 25.403437 
" style="fill:none;stroke:#262626;stroke-linecap:square;stroke-linejoin:miter;"/>
   </g>
   <g id="legend_1">
    <g id="patch_7">
     <path d="M 154.894485 96.716062 
L 238.016985 96.716062 
Q 240.416985 96.716062 240.416985 94.316062 
L 240.416985 42.674813 
Q 240.416985 40.274812 238.016985 40.274812 
L 154.894485 40.274812 
Q 152.494485 40.274812 152.494485 42.674813 
L 152.494485 94.316062 
Q 152.494485 96.716062 154.894485 96.716062 
z
" style="fill:#ffffff;opacity:0.8;stroke:#cccccc;stroke-linejoin:miter;stroke-width:0.8;"/>
    </g>
    <g id="line2d_14">
     <path d="M 157.294485 49.992937 
L 181.294485 49.992937 
" style="fill:none;stroke:#1f78b4;stroke-linecap:round;"/>
    </g>
    <g id="line2d_15"/>
    <g id="text_11">
     <!-- SPEA2 -->
     <defs>
      <path d="M 19.671875 64.796875 
L 19.671875 37.40625 
L 32.078125 37.40625 
Q 38.96875 37.40625 42.71875 40.96875 
Q 46.484375 44.53125 46.484375 51.125 
Q 46.484375 57.671875 42.71875 61.234375 
Q 38.96875 64.796875 32.078125 64.796875 
z
M 9.8125 72.90625 
L 32.078125 72.90625 
Q 44.34375 72.90625 50.609375 67.359375 
Q 56.890625 61.8125 56.890625 51.125 
Q 56.890625 40.328125 50.609375 34.8125 
Q 44.34375 29.296875 32.078125 29.296875 
L 19.671875 29.296875 
L 19.671875 0 
L 9.8125 0 
z
" id="DejaVuSans-80"/>
      <path d="M 9.8125 72.90625 
L 55.90625 72.90625 
L 55.90625 64.59375 
L 19.671875 64.59375 
L 19.671875 43.015625 
L 54.390625 43.015625 
L 54.390625 34.71875 
L 19.671875 34.71875 
L 19.671875 8.296875 
L 56.78125 8.296875 
L 56.78125 0 
L 9.8125 0 
z
" id="DejaVuSans-69"/>
      <path d="M 34.1875 63.1875 
L 20.796875 26.90625 
L 47.609375 26.90625 
z
M 28.609375 72.90625 
L 39.796875 72.90625 
L 67.578125 0 
L 57.328125 0 
L 50.6875 18.703125 
L 17.828125 18.703125 
L 11.1875 0 
L 0.78125 0 
z
" id="DejaVuSans-65"/>
     </defs>
     <g style="fill:#262626;" transform="translate(190.894485 54.192937)scale(0.12 -0.12)">
      <use xlink:href="#DejaVuSans-83"/>
      <use x="63.476562" xlink:href="#DejaVuSans-80"/>
      <use x="123.779297" xlink:href="#DejaVuSans-69"/>
      <use x="186.962891" xlink:href="#DejaVuSans-65"/>
      <use x="255.371094" xlink:href="#DejaVuSans-50"/>
     </g>
    </g>
    <g id="line2d_16">
     <path d="M 157.294485 67.606687 
L 181.294485 67.606687 
" style="fill:none;stroke:#33a02c;stroke-linecap:round;"/>
    </g>
    <g id="line2d_17"/>
    <g id="text_12">
     <!-- NSGAII -->
     <defs>
      <path d="M 9.8125 72.90625 
L 23.09375 72.90625 
L 55.421875 11.921875 
L 55.421875 72.90625 
L 64.984375 72.90625 
L 64.984375 0 
L 51.703125 0 
L 19.390625 60.984375 
L 19.390625 0 
L 9.8125 0 
z
" id="DejaVuSans-78"/>
      <path d="M 59.515625 10.40625 
L 59.515625 29.984375 
L 43.40625 29.984375 
L 43.40625 38.09375 
L 69.28125 38.09375 
L 69.28125 6.78125 
Q 63.578125 2.734375 56.6875 0.65625 
Q 49.8125 -1.421875 42 -1.421875 
Q 24.90625 -1.421875 15.25 8.5625 
Q 5.609375 18.5625 5.609375 36.375 
Q 5.609375 54.25 15.25 64.234375 
Q 24.90625 74.21875 42 74.21875 
Q 49.125 74.21875 55.546875 72.453125 
Q 61.96875 70.703125 67.390625 67.28125 
L 67.390625 56.78125 
Q 61.921875 61.421875 55.765625 63.765625 
Q 49.609375 66.109375 42.828125 66.109375 
Q 29.4375 66.109375 22.71875 58.640625 
Q 16.015625 51.171875 16.015625 36.375 
Q 16.015625 21.625 22.71875 14.15625 
Q 29.4375 6.6875 42.828125 6.6875 
Q 48.046875 6.6875 52.140625 7.59375 
Q 56.25 8.5 59.515625 10.40625 
z
" id="DejaVuSans-71"/>
      <path d="M 9.8125 72.90625 
L 19.671875 72.90625 
L 19.671875 0 
L 9.8125 0 
z
" id="DejaVuSans-73"/>
     </defs>
     <g style="fill:#262626;" transform="translate(190.894485 71.806687)scale(0.12 -0.12)">
      <use xlink:href="#DejaVuSans-78"/>
      <use x="74.804688" xlink:href="#DejaVuSans-83"/>
      <use x="138.28125" xlink:href="#DejaVuSans-71"/>
      <use x="215.771484" xlink:href="#DejaVuSans-65"/>
      <use x="284.179688" xlink:href="#DejaVuSans-73"/>
      <use x="313.671875" xlink:href="#DejaVuSans-73"/>
     </g>
    </g>
    <g id="line2d_18">
     <path d="M 157.294485 85.220437 
L 181.294485 85.220437 
" style="fill:none;stroke:#e31a1c;stroke-linecap:round;"/>
    </g>
    <g id="line2d_19"/>
    <g id="text_13">
     <!-- NSGAIII -->
     <g style="fill:#262626;" transform="translate(190.894485 89.420437)scale(0.12 -0.12)">
      <use xlink:href="#DejaVuSans-78"/>
      <use x="74.804688" xlink:href="#DejaVuSans-83"/>
      <use x="138.28125" xlink:href="#DejaVuSans-71"/>
      <use x="215.771484" xlink:href="#DejaVuSans-65"/>
      <use x="284.179688" xlink:href="#DejaVuSans-73"/>
      <use x="313.671875" xlink:href="#DejaVuSans-73"/>
      <use x="343.164062" xlink:href="#DejaVuSans-73"/>
     </g>
    </g>
   </g>
  </g>
 </g>
 <defs>
  <clipPath id="p29556287b4">
   <path d="M 119.047125 68.495437 
C 119.047125 62.836648 117.932467 57.232883 115.766942 52.004843 
C 113.601417 46.776803 110.427139 42.026161 106.42577 38.024792 
C 102.424402 34.023424 97.673759 30.849146 92.445719 28.683621 
C 87.21768 26.518096 81.613915 25.403437 75.955125 25.403437 
C 70.296335 25.403437 64.69257 26.518096 59.464531 28.683621 
C 54.236491 30.849146 49.485848 34.023424 45.48448 38.024792 
C 41.483111 42.026161 38.308833 46.776803 36.143308 52.004843 
C 33.977783 57.232883 32.863125 62.836648 32.863125 68.495437 
C 32.863125 74.154227 33.977783 79.757992 36.143308 84.986032 
C 38.308833 90.214072 41.483111 94.964714 45.48448 98.966083 
C 49.485848 102.967451 54.236491 106.141729 59.464531 108.307254 
C 64.69257 110.472779 70.296335 111.587437 75.955125 111.587437 
C 81.613915 111.587437 87.21768 110.472779 92.445719 108.307254 
C 97.673759 106.141729 102.424402 102.967451 106.42577 98.966083 
C 110.427139 94.964714 113.601417 90.214072 115.766942 84.986032 
C 117.932467 79.757992 119.047125 74.154227 119.047125 68.495438 
M 75.955125 68.495437 
C 75.955125 68.495437 75.955125 68.495437 75.955125 68.495437 
C 75.955125 68.495437 75.955125 68.495437 75.955125 68.495437 
C 75.955125 68.495437 75.955125 68.495437 75.955125 68.495437 
C 75.955125 68.495437 75.955125 68.495437 75.955125 68.495437 
C 75.955125 68.495437 75.955125 68.495437 75.955125 68.495437 
C 75.955125 68.495437 75.955125 68.495437 75.955125 68.495437 
C 75.955125 68.495437 75.955125 68.495437 75.955125 68.495437 
C 75.955125 68.495437 75.955125 68.495437 75.955125 68.495437 
C 75.955125 68.495437 75.955125 68.495437 75.955125 68.495437 
C 75.955125 68.495437 75.955125 68.495437 75.955125 68.495437 
C 75.955125 68.495437 75.955125 68.495437 75.955125 68.495437 
C 75.955125 68.495437 75.955125 68.495437 75.955125 68.495437 
C 75.955125 68.495437 75.955125 68.495437 75.955125 68.495437 
C 75.955125 68.495437 75.955125 68.495437 75.955125 68.495437 
C 75.955125 68.495437 75.955125 68.495437 75.955125 68.495437 
C 75.955125 68.495437 75.955125 68.495437 75.955125 68.495437 
M 119.047125 68.495437 
z
"/>
  </clipPath>
 </defs>
</svg>
