<?xml version="1.0" encoding="utf-8" standalone="no"?>
<!DOCTYPE svg PUBLIC "-//W3C//DTD SVG 1.1//EN"
  "http://www.w3.org/Graphics/SVG/1.1/DTD/svg11.dtd">
<!-- Created with matplotlib (https://matplotlib.org/) -->
<svg height="99.954011pt" version="1.1" viewBox="0 0 369.648521 99.954011" width="369.648521pt" xmlns="http://www.w3.org/2000/svg" xmlns:xlink="http://www.w3.org/1999/xlink">
 <defs>
  <style type="text/css">
*{stroke-linecap:butt;stroke-linejoin:round;white-space:pre;}
  </style>
 </defs>
 <g id="figure_1">
  <g id="patch_1">
   <path d="M -0 99.954011 
L 369.648521 99.954011 
L 369.648521 0 
L -0 0 
z
" style="fill:#ffffff;"/>
  </g>
  <g id="axes_1">
   <g id="patch_2">
    <path d="M 51.984521 62.64 
L 362.448521 62.64 
L 362.448521 7.2 
L 51.984521 7.2 
z
" style="fill:#ffffff;"/>
   </g>
   <g id="matplotlib.axis_1">
    <g id="xtick_1">
     <g id="line2d_1">
      <defs>
       <path d="M 0 0 
L 0 4.8 
" id="m06295a4fda" style="stroke:#262626;"/>
      </defs>
      <g>
       <use style="fill:#262626;stroke:#262626;" x="57.528521" xlink:href="#m06295a4fda" y="62.64"/>
      </g>
     </g>
     <g id="text_1">
      <!-- $x^{1}_{1}$ -->
      <defs>
       <path d="M 47.40625 41 
C 44.203125 40.390625 43 37.984375 43 36.09375 
C 43 33.6875 44.90625 32.890625 46.296875 32.890625 
C 49.296875 32.890625 51.40625 35.484375 51.40625 38.1875 
C 51.40625 42.09375 46.59375 44 42.40625 44 
C 36.296875 44 32.90625 38.296875 32 36.390625 
C 29.703125 43.59375 23.5 44 21.703125 44 
C 11.5 44 6.09375 31.140625 6.09375 28.890625 
C 6.09375 28.484375 6.5 27.96875 7.203125 27.96875 
C 8 27.96875 8.203125 28.578125 8.40625 28.984375 
C 11.796875 40.1875 18.5 41.984375 21.40625 41.984375 
C 25.90625 41.984375 26.796875 38.09375 26.796875 35.6875 
C 26.796875 33.484375 26.203125 31.140625 25 26.21875 
L 21.59375 12.15625 
C 20.09375 6.09375 17.203125 1 11.90625 1 
C 11.40625 1 8.90625 1 6.796875 1.96875 
C 10.40625 2.59375 11.203125 5.59375 11.203125 6.796875 
C 11.203125 8.796875 9.703125 10 7.796875 10 
C 5.40625 10 2.796875 7.890625 2.796875 4.6875 
C 2.796875 0.890625 7.5 -1 11.796875 -1 
C 16.59375 -1 20 2.390625 22.09375 6.484375 
C 23.703125 1 28.703125 -1 32.40625 -1 
C 42.59375 -1 48 11.734375 48 14 
C 48 14.515625 47.59375 14.921875 47 14.921875 
C 46.09375 14.921875 46 14.40625 45.703125 13.59375 
C 43 4.6875 37.203125 1 32.703125 1 
C 29.203125 1 27.296875 3.1875 27.296875 7.296875 
C 27.296875 9.484375 27.703125 11.125 29.296875 17.90625 
L 32.796875 31.859375 
C 34.296875 37.890625 37.703125 41.984375 42.296875 41.984375 
C 42.5 41.984375 45.296875 41.984375 47.40625 41 
z
" id="CMMI12-120"/>
       <path d="M 26.59375 63.796875 
C 26.59375 65.890625 26.5 66 25.09375 66 
C 21.203125 61.359375 15.296875 59.890625 9.703125 59.6875 
C 9.40625 59.6875 8.90625 59.6875 8.796875 59.5 
C 8.703125 59.296875 8.703125 59.09375 8.703125 57 
C 11.796875 57 17 57.59375 21 59.984375 
L 21 7.296875 
C 21 3.796875 20.796875 2.59375 12.203125 2.59375 
L 9.203125 2.59375 
L 9.203125 0 
C 14 0.09375 19 0.1875 23.796875 0.1875 
C 28.59375 0.1875 33.59375 0.09375 38.40625 0 
L 38.40625 2.59375 
L 35.40625 2.59375 
C 26.796875 2.59375 26.59375 3.6875 26.59375 7.296875 
z
" id="CMR17-49"/>
      </defs>
      <g style="fill:#262626;" transform="translate(53.031575 78.547838)scale(0.088 -0.088)">
       <use transform="translate(0 24.740171)scale(0.996264)" xlink:href="#CMMI12-120"/>
       <use transform="translate(55.43406 60.89381)scale(0.697382)" xlink:href="#CMR17-49"/>
       <use transform="translate(55.43406 0)scale(0.697382)" xlink:href="#CMR17-49"/>
      </g>
     </g>
    </g>
    <g id="xtick_2">
     <g id="line2d_2">
      <g>
       <use style="fill:#262626;stroke:#262626;" x="68.616521" xlink:href="#m06295a4fda" y="62.64"/>
      </g>
     </g>
     <g id="text_2">
      <!-- $x^{2}_{1}$ -->
      <defs>
       <path d="M 41.703125 15.46875 
L 39.90625 15.46875 
C 38.90625 8.390625 38.09375 7.1875 37.703125 6.59375 
C 37.203125 5.796875 30 5.796875 28.59375 5.796875 
L 9.40625 5.796875 
C 13 9.6875 20 16.765625 28.5 24.9375 
C 34.59375 30.71875 41.703125 37.5 41.703125 47.390625 
C 41.703125 59.1875 32.296875 66 21.796875 66 
C 10.796875 66 4.09375 56.296875 4.09375 47.296875 
C 4.09375 43.390625 7 42.890625 8.203125 42.890625 
C 9.203125 42.890625 12.203125 43.484375 12.203125 46.984375 
C 12.203125 50.09375 9.59375 51 8.203125 51 
C 7.59375 51 7 50.890625 6.59375 50.6875 
C 8.5 59.1875 14.296875 63.390625 20.40625 63.390625 
C 29.09375 63.390625 34.796875 56.5 34.796875 47.390625 
C 34.796875 38.703125 29.703125 31.21875 24 24.734375 
L 4.09375 2.296875 
L 4.09375 0 
L 39.296875 0 
z
" id="CMR17-50"/>
      </defs>
      <g style="fill:#262626;" transform="translate(64.119575 78.547838)scale(0.088 -0.088)">
       <use transform="translate(0 24.740171)scale(0.996264)" xlink:href="#CMMI12-120"/>
       <use transform="translate(55.43406 60.89381)scale(0.697382)" xlink:href="#CMR17-50"/>
       <use transform="translate(55.43406 0)scale(0.697382)" xlink:href="#CMR17-49"/>
      </g>
     </g>
    </g>
    <g id="xtick_3">
     <g id="line2d_3">
      <g>
       <use style="fill:#262626;stroke:#262626;" x="79.704521" xlink:href="#m06295a4fda" y="62.64"/>
      </g>
     </g>
     <g id="text_3">
      <!-- $x^{3}_{1}$ -->
      <defs>
       <path d="M 22.09375 34 
C 31 34 34.90625 26.140625 34.90625 17.09375 
C 34.90625 5.03125 28.5 0.390625 22.703125 0.390625 
C 17.40625 0.390625 8.796875 3.015625 6.09375 10.796875 
C 6.59375 10.59375 7.09375 10.59375 7.59375 10.59375 
C 10 10.59375 11.796875 12.1875 11.796875 14.796875 
C 11.796875 17.6875 9.59375 19 7.59375 19 
C 5.90625 19 3.296875 18.1875 3.296875 14.484375 
C 3.296875 5.234375 12.296875 -2 22.90625 -2 
C 34 -2 42.5 6.75 42.5 16.984375 
C 42.5 26.84375 34.5 34 25 35.09375 
C 32.59375 36.671875 39.90625 43.375 39.90625 52.390625 
C 39.90625 60.25 32 66 23 66 
C 13.90625 66 5.90625 60.34375 5.90625 52.296875 
C 5.90625 48.796875 8.5 48.1875 9.796875 48.1875 
C 11.90625 48.1875 13.703125 49.484375 13.703125 52.09375 
C 13.703125 54.6875 11.90625 56 9.796875 56 
C 9.40625 56 8.90625 56 8.5 55.796875 
C 11.40625 62.484375 19.296875 63.6875 22.796875 63.6875 
C 26.296875 63.6875 32.90625 61.96875 32.90625 52.296875 
C 32.90625 49.484375 32.5 44.546875 29.09375 40.21875 
C 26.09375 36.390625 22.703125 36.1875 19.40625 35.890625 
C 18.90625 35.890625 16.59375 35.6875 16.203125 35.6875 
C 15.5 35.59375 15.09375 35.5 15.09375 34.796875 
C 15.09375 34.09375 15.203125 34 17.203125 34 
z
" id="CMR17-51"/>
      </defs>
      <g style="fill:#262626;" transform="translate(75.207575 78.547838)scale(0.088 -0.088)">
       <use transform="translate(0 24.740171)scale(0.996264)" xlink:href="#CMMI12-120"/>
       <use transform="translate(55.43406 60.89381)scale(0.697382)" xlink:href="#CMR17-51"/>
       <use transform="translate(55.43406 0)scale(0.697382)" xlink:href="#CMR17-49"/>
      </g>
     </g>
    </g>
    <g id="xtick_4">
     <g id="line2d_4">
      <g>
       <use style="fill:#262626;stroke:#262626;" x="90.792521" xlink:href="#m06295a4fda" y="62.64"/>
      </g>
     </g>
     <g id="text_4">
      <!-- $x^{4}_{1}$ -->
      <defs>
       <path d="M 33.59375 64.796875 
C 33.59375 66.890625 33.5 67 31.703125 67 
L 2 19.59375 
L 2 17 
L 27.796875 17 
L 27.796875 7.1875 
C 27.796875 3.59375 27.59375 2.59375 20.59375 2.59375 
L 18.703125 2.59375 
L 18.703125 0 
C 21.90625 0.1875 27.296875 0.1875 30.703125 0.1875 
C 34.09375 0.1875 39.5 0.1875 42.703125 0 
L 42.703125 2.59375 
L 40.796875 2.59375 
C 33.796875 2.59375 33.59375 3.59375 33.59375 7.1875 
L 33.59375 17 
L 43.796875 17 
L 43.796875 19.59375 
L 33.59375 19.59375 
z
M 28.09375 58.171875 
L 28.09375 19.59375 
L 4 19.59375 
z
" id="CMR17-52"/>
      </defs>
      <g style="fill:#262626;" transform="translate(86.295575 78.547838)scale(0.088 -0.088)">
       <use transform="translate(0 24.740171)scale(0.996264)" xlink:href="#CMMI12-120"/>
       <use transform="translate(55.43406 60.89381)scale(0.697382)" xlink:href="#CMR17-52"/>
       <use transform="translate(55.43406 0)scale(0.697382)" xlink:href="#CMR17-49"/>
      </g>
     </g>
    </g>
    <g id="xtick_5">
     <g id="line2d_5">
      <g>
       <use style="fill:#262626;stroke:#262626;" x="101.880521" xlink:href="#m06295a4fda" y="62.64"/>
      </g>
     </g>
     <g id="text_5">
      <!-- $x^{5}_{1}$ -->
      <defs>
       <path d="M 11.40625 58.59375 
C 12.40625 58.1875 16.5 56.890625 20.703125 56.890625 
C 30 56.890625 35.09375 61.890625 38 64.6875 
C 38 65.484375 38 66 37.40625 66 
C 37.296875 66 37.09375 66 36.296875 65.59375 
C 32.796875 64.09375 28.703125 63 23.703125 63 
C 20.703125 63 16.203125 63.359375 11.296875 65.484375 
C 10.203125 66 10 66 9.90625 66 
C 9.40625 66 9.296875 65.890625 9.296875 63.90625 
L 9.296875 34.859375 
C 9.296875 33.015625 9.296875 32.5 10.296875 32.5 
C 10.796875 32.5 11 32.703125 11.5 33.421875 
C 14.703125 38.046875 19.09375 40 24.09375 40 
C 27.59375 40 35.09375 37.734375 35.09375 20.203125 
C 35.09375 16.984375 35.09375 11.1875 32.09375 6.59375 
C 29.59375 2.484375 25.703125 0.390625 21.40625 0.390625 
C 14.796875 0.390625 8.09375 4.984375 6.296875 12.6875 
C 6.703125 12.59375 7.5 12.390625 7.90625 12.390625 
C 9.203125 12.390625 11.703125 13.09375 11.703125 16.1875 
C 11.703125 18.890625 9.796875 20 7.90625 20 
C 5.59375 20 4.09375 18.59375 4.09375 15.796875 
C 4.09375 7.09375 11 -2 21.59375 -2 
C 31.90625 -2 41.703125 6.890625 41.703125 19.796875 
C 41.703125 32.09375 33.90625 41.59375 24.203125 41.59375 
C 19.09375 41.59375 14.796875 39.6875 11.40625 36 
z
" id="CMR17-53"/>
      </defs>
      <g style="fill:#262626;" transform="translate(97.383575 78.547838)scale(0.088 -0.088)">
       <use transform="translate(0 24.740171)scale(0.996264)" xlink:href="#CMMI12-120"/>
       <use transform="translate(55.43406 60.89381)scale(0.697382)" xlink:href="#CMR17-53"/>
       <use transform="translate(55.43406 0)scale(0.697382)" xlink:href="#CMR17-49"/>
      </g>
     </g>
    </g>
    <g id="xtick_6">
     <g id="line2d_6">
      <g>
       <use style="fill:#262626;stroke:#262626;" x="112.968521" xlink:href="#m06295a4fda" y="62.64"/>
      </g>
     </g>
     <g id="text_6">
      <!-- $x^{6}_{1}$ -->
      <defs>
       <path d="M 10.59375 34.34375 
C 10.59375 58 21.796875 63.6875 28.296875 63.6875 
C 30.40625 63.6875 35.5 63.265625 37.5 59.09375 
C 35.90625 59.09375 32.90625 59.09375 32.90625 55.59375 
C 32.90625 52.890625 35.09375 52 36.5 52 
C 37.40625 52 40.09375 52.390625 40.09375 55.796875 
C 40.09375 62.296875 35.09375 66 28.203125 66 
C 16.296875 66 3.796875 53.296875 3.796875 31.421875 
C 3.796875 4.015625 15.09375 -2 23.09375 -2 
C 32.796875 -2 42 6.734375 42 20.234375 
C 42 32.828125 33.90625 42 23.703125 42 
C 17.59375 42 13.09375 37.96875 10.59375 30.921875 
z
M 23.09375 0.390625 
C 10.796875 0.390625 10.796875 18.9375 10.796875 22.65625 
C 10.796875 29.90625 14.203125 40.390625 23.5 40.390625 
C 25.203125 40.390625 30.09375 40.390625 33.40625 33.4375 
C 35.203125 29.515625 35.203125 25.375 35.203125 20.34375 
C 35.203125 14.90625 35.203125 10.875 33.09375 6.84375 
C 30.90625 2.703125 27.703125 0.390625 23.09375 0.390625 
z
" id="CMR17-54"/>
      </defs>
      <g style="fill:#262626;" transform="translate(108.471575 78.547838)scale(0.088 -0.088)">
       <use transform="translate(0 24.740171)scale(0.996264)" xlink:href="#CMMI12-120"/>
       <use transform="translate(55.43406 60.89381)scale(0.697382)" xlink:href="#CMR17-54"/>
       <use transform="translate(55.43406 0)scale(0.697382)" xlink:href="#CMR17-49"/>
      </g>
     </g>
    </g>
    <g id="xtick_7">
     <g id="line2d_7">
      <g>
       <use style="fill:#262626;stroke:#262626;" x="124.056521" xlink:href="#m06295a4fda" y="62.64"/>
      </g>
     </g>
     <g id="text_7">
      <!-- $x^{7}_{1}$ -->
      <defs>
       <path d="M 45.09375 61.796875 
L 45.09375 64 
L 21.59375 64 
C 9.90625 64 9.703125 65.09375 9.296875 67 
L 7.5 67 
L 4.59375 48.5 
L 6.40625 48.5 
C 6.703125 50.40625 7.40625 55.5 8.59375 57.390625 
C 9.203125 58.1875 16.59375 58.1875 18.296875 58.1875 
L 40.296875 58.1875 
L 29.203125 41.71875 
C 21.796875 30.640625 16.703125 15.671875 16.703125 2.59375 
C 16.703125 1.390625 16.703125 -2 20.296875 -2 
C 23.90625 -2 23.90625 1.390625 23.90625 2.6875 
L 23.90625 7.28125 
C 23.90625 23.65625 26.703125 34.4375 31.296875 41.3125 
z
" id="CMR17-55"/>
      </defs>
      <g style="fill:#262626;" transform="translate(119.559575 78.547838)scale(0.088 -0.088)">
       <use transform="translate(0 24.740171)scale(0.996264)" xlink:href="#CMMI12-120"/>
       <use transform="translate(55.43406 60.89381)scale(0.697382)" xlink:href="#CMR17-55"/>
       <use transform="translate(55.43406 0)scale(0.697382)" xlink:href="#CMR17-49"/>
      </g>
     </g>
    </g>
    <g id="xtick_8">
     <g id="line2d_8">
      <g>
       <use style="fill:#262626;stroke:#262626;" x="135.144521" xlink:href="#m06295a4fda" y="62.64"/>
      </g>
     </g>
     <g id="text_8">
      <!-- $x^{1}_{2}$ -->
      <g style="fill:#262626;" transform="translate(130.647575 78.547838)scale(0.088 -0.088)">
       <use transform="translate(0 24.740171)scale(0.996264)" xlink:href="#CMMI12-120"/>
       <use transform="translate(55.43406 60.89381)scale(0.697382)" xlink:href="#CMR17-49"/>
       <use transform="translate(55.43406 0)scale(0.697382)" xlink:href="#CMR17-50"/>
      </g>
     </g>
    </g>
    <g id="xtick_9">
     <g id="line2d_9">
      <g>
       <use style="fill:#262626;stroke:#262626;" x="146.232521" xlink:href="#m06295a4fda" y="62.64"/>
      </g>
     </g>
     <g id="text_9">
      <!-- $x^{2}_{2}$ -->
      <g style="fill:#262626;" transform="translate(141.735575 78.547838)scale(0.088 -0.088)">
       <use transform="translate(0 24.740171)scale(0.996264)" xlink:href="#CMMI12-120"/>
       <use transform="translate(55.43406 60.89381)scale(0.697382)" xlink:href="#CMR17-50"/>
       <use transform="translate(55.43406 0)scale(0.697382)" xlink:href="#CMR17-50"/>
      </g>
     </g>
    </g>
    <g id="xtick_10">
     <g id="line2d_10">
      <g>
       <use style="fill:#262626;stroke:#262626;" x="157.320521" xlink:href="#m06295a4fda" y="62.64"/>
      </g>
     </g>
     <g id="text_10">
      <!-- $x^{3}_{2}$ -->
      <g style="fill:#262626;" transform="translate(152.823575 78.547838)scale(0.088 -0.088)">
       <use transform="translate(0 24.740171)scale(0.996264)" xlink:href="#CMMI12-120"/>
       <use transform="translate(55.43406 60.89381)scale(0.697382)" xlink:href="#CMR17-51"/>
       <use transform="translate(55.43406 0)scale(0.697382)" xlink:href="#CMR17-50"/>
      </g>
     </g>
    </g>
    <g id="xtick_11">
     <g id="line2d_11">
      <g>
       <use style="fill:#262626;stroke:#262626;" x="168.408521" xlink:href="#m06295a4fda" y="62.64"/>
      </g>
     </g>
     <g id="text_11">
      <!-- $x^{4}_{2}$ -->
      <g style="fill:#262626;" transform="translate(163.911575 78.547838)scale(0.088 -0.088)">
       <use transform="translate(0 24.740171)scale(0.996264)" xlink:href="#CMMI12-120"/>
       <use transform="translate(55.43406 60.89381)scale(0.697382)" xlink:href="#CMR17-52"/>
       <use transform="translate(55.43406 0)scale(0.697382)" xlink:href="#CMR17-50"/>
      </g>
     </g>
    </g>
    <g id="xtick_12">
     <g id="line2d_12">
      <g>
       <use style="fill:#262626;stroke:#262626;" x="179.496521" xlink:href="#m06295a4fda" y="62.64"/>
      </g>
     </g>
     <g id="text_12">
      <!-- $x^{5}_{2}$ -->
      <g style="fill:#262626;" transform="translate(174.999575 78.547838)scale(0.088 -0.088)">
       <use transform="translate(0 24.740171)scale(0.996264)" xlink:href="#CMMI12-120"/>
       <use transform="translate(55.43406 60.89381)scale(0.697382)" xlink:href="#CMR17-53"/>
       <use transform="translate(55.43406 0)scale(0.697382)" xlink:href="#CMR17-50"/>
      </g>
     </g>
    </g>
    <g id="xtick_13">
     <g id="line2d_13">
      <g>
       <use style="fill:#262626;stroke:#262626;" x="190.584521" xlink:href="#m06295a4fda" y="62.64"/>
      </g>
     </g>
     <g id="text_13">
      <!-- $x^{6}_{2}$ -->
      <g style="fill:#262626;" transform="translate(186.087575 78.547838)scale(0.088 -0.088)">
       <use transform="translate(0 24.740171)scale(0.996264)" xlink:href="#CMMI12-120"/>
       <use transform="translate(55.43406 60.89381)scale(0.697382)" xlink:href="#CMR17-54"/>
       <use transform="translate(55.43406 0)scale(0.697382)" xlink:href="#CMR17-50"/>
      </g>
     </g>
    </g>
    <g id="xtick_14">
     <g id="line2d_14">
      <g>
       <use style="fill:#262626;stroke:#262626;" x="201.672521" xlink:href="#m06295a4fda" y="62.64"/>
      </g>
     </g>
     <g id="text_14">
      <!-- $x^{7}_{2}$ -->
      <g style="fill:#262626;" transform="translate(197.175575 78.547838)scale(0.088 -0.088)">
       <use transform="translate(0 24.740171)scale(0.996264)" xlink:href="#CMMI12-120"/>
       <use transform="translate(55.43406 60.89381)scale(0.697382)" xlink:href="#CMR17-55"/>
       <use transform="translate(55.43406 0)scale(0.697382)" xlink:href="#CMR17-50"/>
      </g>
     </g>
    </g>
    <g id="xtick_15">
     <g id="line2d_15">
      <g>
       <use style="fill:#262626;stroke:#262626;" x="212.760521" xlink:href="#m06295a4fda" y="62.64"/>
      </g>
     </g>
     <g id="text_15">
      <!-- $x^{1}_{3}$ -->
      <g style="fill:#262626;" transform="translate(208.263575 78.547838)scale(0.088 -0.088)">
       <use transform="translate(0 24.740171)scale(0.996264)" xlink:href="#CMMI12-120"/>
       <use transform="translate(55.43406 60.89381)scale(0.697382)" xlink:href="#CMR17-49"/>
       <use transform="translate(55.43406 0)scale(0.697382)" xlink:href="#CMR17-51"/>
      </g>
     </g>
    </g>
    <g id="xtick_16">
     <g id="line2d_16">
      <g>
       <use style="fill:#262626;stroke:#262626;" x="223.848521" xlink:href="#m06295a4fda" y="62.64"/>
      </g>
     </g>
     <g id="text_16">
      <!-- $x^{2}_{3}$ -->
      <g style="fill:#262626;" transform="translate(219.351575 78.547838)scale(0.088 -0.088)">
       <use transform="translate(0 24.740171)scale(0.996264)" xlink:href="#CMMI12-120"/>
       <use transform="translate(55.43406 60.89381)scale(0.697382)" xlink:href="#CMR17-50"/>
       <use transform="translate(55.43406 0)scale(0.697382)" xlink:href="#CMR17-51"/>
      </g>
     </g>
    </g>
    <g id="xtick_17">
     <g id="line2d_17">
      <g>
       <use style="fill:#262626;stroke:#262626;" x="234.936521" xlink:href="#m06295a4fda" y="62.64"/>
      </g>
     </g>
     <g id="text_17">
      <!-- $x^{3}_{3}$ -->
      <g style="fill:#262626;" transform="translate(230.439575 78.547838)scale(0.088 -0.088)">
       <use transform="translate(0 24.740171)scale(0.996264)" xlink:href="#CMMI12-120"/>
       <use transform="translate(55.43406 60.89381)scale(0.697382)" xlink:href="#CMR17-51"/>
       <use transform="translate(55.43406 0)scale(0.697382)" xlink:href="#CMR17-51"/>
      </g>
     </g>
    </g>
    <g id="xtick_18">
     <g id="line2d_18">
      <g>
       <use style="fill:#262626;stroke:#262626;" x="246.024521" xlink:href="#m06295a4fda" y="62.64"/>
      </g>
     </g>
     <g id="text_18">
      <!-- $x^{4}_{3}$ -->
      <g style="fill:#262626;" transform="translate(241.527575 78.547838)scale(0.088 -0.088)">
       <use transform="translate(0 24.740171)scale(0.996264)" xlink:href="#CMMI12-120"/>
       <use transform="translate(55.43406 60.89381)scale(0.697382)" xlink:href="#CMR17-52"/>
       <use transform="translate(55.43406 0)scale(0.697382)" xlink:href="#CMR17-51"/>
      </g>
     </g>
    </g>
    <g id="xtick_19">
     <g id="line2d_19">
      <g>
       <use style="fill:#262626;stroke:#262626;" x="257.112521" xlink:href="#m06295a4fda" y="62.64"/>
      </g>
     </g>
     <g id="text_19">
      <!-- $x^{5}_{3}$ -->
      <g style="fill:#262626;" transform="translate(252.615575 78.547838)scale(0.088 -0.088)">
       <use transform="translate(0 24.740171)scale(0.996264)" xlink:href="#CMMI12-120"/>
       <use transform="translate(55.43406 60.89381)scale(0.697382)" xlink:href="#CMR17-53"/>
       <use transform="translate(55.43406 0)scale(0.697382)" xlink:href="#CMR17-51"/>
      </g>
     </g>
    </g>
    <g id="xtick_20">
     <g id="line2d_20">
      <g>
       <use style="fill:#262626;stroke:#262626;" x="268.200521" xlink:href="#m06295a4fda" y="62.64"/>
      </g>
     </g>
     <g id="text_20">
      <!-- $x^{6}_{3}$ -->
      <g style="fill:#262626;" transform="translate(263.703575 78.547838)scale(0.088 -0.088)">
       <use transform="translate(0 24.740171)scale(0.996264)" xlink:href="#CMMI12-120"/>
       <use transform="translate(55.43406 60.89381)scale(0.697382)" xlink:href="#CMR17-54"/>
       <use transform="translate(55.43406 0)scale(0.697382)" xlink:href="#CMR17-51"/>
      </g>
     </g>
    </g>
    <g id="xtick_21">
     <g id="line2d_21">
      <g>
       <use style="fill:#262626;stroke:#262626;" x="279.288521" xlink:href="#m06295a4fda" y="62.64"/>
      </g>
     </g>
     <g id="text_21">
      <!-- $x^{7}_{3}$ -->
      <g style="fill:#262626;" transform="translate(274.791575 78.547838)scale(0.088 -0.088)">
       <use transform="translate(0 24.740171)scale(0.996264)" xlink:href="#CMMI12-120"/>
       <use transform="translate(55.43406 60.89381)scale(0.697382)" xlink:href="#CMR17-55"/>
       <use transform="translate(55.43406 0)scale(0.697382)" xlink:href="#CMR17-51"/>
      </g>
     </g>
    </g>
    <g id="xtick_22">
     <g id="line2d_22">
      <g>
       <use style="fill:#262626;stroke:#262626;" x="290.376521" xlink:href="#m06295a4fda" y="62.64"/>
      </g>
     </g>
     <g id="text_22">
      <!-- $x^{1}_{4}$ -->
      <g style="fill:#262626;" transform="translate(285.879575 78.547838)scale(0.088 -0.088)">
       <use transform="translate(0 24.740171)scale(0.996264)" xlink:href="#CMMI12-120"/>
       <use transform="translate(55.43406 60.89381)scale(0.697382)" xlink:href="#CMR17-49"/>
       <use transform="translate(55.43406 0)scale(0.697382)" xlink:href="#CMR17-52"/>
      </g>
     </g>
    </g>
    <g id="xtick_23">
     <g id="line2d_23">
      <g>
       <use style="fill:#262626;stroke:#262626;" x="301.464521" xlink:href="#m06295a4fda" y="62.64"/>
      </g>
     </g>
     <g id="text_23">
      <!-- $x^{2}_{4}$ -->
      <g style="fill:#262626;" transform="translate(296.967575 78.547838)scale(0.088 -0.088)">
       <use transform="translate(0 24.740171)scale(0.996264)" xlink:href="#CMMI12-120"/>
       <use transform="translate(55.43406 60.89381)scale(0.697382)" xlink:href="#CMR17-50"/>
       <use transform="translate(55.43406 0)scale(0.697382)" xlink:href="#CMR17-52"/>
      </g>
     </g>
    </g>
    <g id="xtick_24">
     <g id="line2d_24">
      <g>
       <use style="fill:#262626;stroke:#262626;" x="312.552521" xlink:href="#m06295a4fda" y="62.64"/>
      </g>
     </g>
     <g id="text_24">
      <!-- $x^{3}_{4}$ -->
      <g style="fill:#262626;" transform="translate(308.055575 78.547838)scale(0.088 -0.088)">
       <use transform="translate(0 24.740171)scale(0.996264)" xlink:href="#CMMI12-120"/>
       <use transform="translate(55.43406 60.89381)scale(0.697382)" xlink:href="#CMR17-51"/>
       <use transform="translate(55.43406 0)scale(0.697382)" xlink:href="#CMR17-52"/>
      </g>
     </g>
    </g>
    <g id="xtick_25">
     <g id="line2d_25">
      <g>
       <use style="fill:#262626;stroke:#262626;" x="323.640521" xlink:href="#m06295a4fda" y="62.64"/>
      </g>
     </g>
     <g id="text_25">
      <!-- $x^{4}_{4}$ -->
      <g style="fill:#262626;" transform="translate(319.143575 78.547838)scale(0.088 -0.088)">
       <use transform="translate(0 24.740171)scale(0.996264)" xlink:href="#CMMI12-120"/>
       <use transform="translate(55.43406 60.89381)scale(0.697382)" xlink:href="#CMR17-52"/>
       <use transform="translate(55.43406 0)scale(0.697382)" xlink:href="#CMR17-52"/>
      </g>
     </g>
    </g>
    <g id="xtick_26">
     <g id="line2d_26">
      <g>
       <use style="fill:#262626;stroke:#262626;" x="334.728521" xlink:href="#m06295a4fda" y="62.64"/>
      </g>
     </g>
     <g id="text_26">
      <!-- $x^{5}_{4}$ -->
      <g style="fill:#262626;" transform="translate(330.231575 78.547838)scale(0.088 -0.088)">
       <use transform="translate(0 24.740171)scale(0.996264)" xlink:href="#CMMI12-120"/>
       <use transform="translate(55.43406 60.89381)scale(0.697382)" xlink:href="#CMR17-53"/>
       <use transform="translate(55.43406 0)scale(0.697382)" xlink:href="#CMR17-52"/>
      </g>
     </g>
    </g>
    <g id="xtick_27">
     <g id="line2d_27">
      <g>
       <use style="fill:#262626;stroke:#262626;" x="345.816521" xlink:href="#m06295a4fda" y="62.64"/>
      </g>
     </g>
     <g id="text_27">
      <!-- $x^{6}_{4}$ -->
      <g style="fill:#262626;" transform="translate(341.319575 78.547838)scale(0.088 -0.088)">
       <use transform="translate(0 24.740171)scale(0.996264)" xlink:href="#CMMI12-120"/>
       <use transform="translate(55.43406 60.89381)scale(0.697382)" xlink:href="#CMR17-54"/>
       <use transform="translate(55.43406 0)scale(0.697382)" xlink:href="#CMR17-52"/>
      </g>
     </g>
    </g>
    <g id="xtick_28">
     <g id="line2d_28">
      <g>
       <use style="fill:#262626;stroke:#262626;" x="356.904521" xlink:href="#m06295a4fda" y="62.64"/>
      </g>
     </g>
     <g id="text_28">
      <!-- $x^{7}_{4}$ -->
      <g style="fill:#262626;" transform="translate(352.407575 78.547838)scale(0.088 -0.088)">
       <use transform="translate(0 24.740171)scale(0.996264)" xlink:href="#CMMI12-120"/>
       <use transform="translate(55.43406 60.89381)scale(0.697382)" xlink:href="#CMR17-55"/>
       <use transform="translate(55.43406 0)scale(0.697382)" xlink:href="#CMR17-52"/>
      </g>
     </g>
    </g>
    <g id="text_29">
     <!-- Decision Variables -->
     <defs>
      <path d="M 8.90625 69 
L 8.90625 0 
L 33.5 0 
C 49.90625 0 62.5 15.328125 62.5 33.890625 
C 62.5 53.0625 49.90625 69 33.5 69 
z
M 17.09375 5.59375 
L 17.09375 63.390625 
L 31.296875 63.390625 
C 44.703125 63.390625 54.296875 51.171875 54.296875 33.890625 
C 54.296875 17.3125 44.796875 5.59375 31.296875 5.59375 
z
" id="CMSS17-68"/>
      <path d="M 39.09375 21.484375 
C 39.09375 24.796875 38.90625 31.265625 35.703125 36.671875 
C 32.203125 42.390625 26.5 44 22.203125 44 
C 11.796875 44 3 34.125 3 21.296875 
C 3 9.046875 12.09375 -1 23.59375 -1 
C 28.09375 -1 33.59375 0.296875 38.59375 3.890625 
C 38.59375 4.296875 38.40625 6.46875 38.296875 6.578125 
C 38.296875 6.765625 38 9.828125 38 10.234375 
C 33.203125 6.375 27.703125 5.09375 23.703125 5.09375 
C 17.296875 5.09375 10.40625 10.421875 10.09375 21.484375 
z
M 10.90625 27 
C 12.203125 32.59375 16.59375 37.890625 22.203125 37.890625 
C 23.703125 37.890625 30.703125 37.6875 32.5 27 
z
" id="CMSS17-101"/>
      <path d="M 38.5 39.6875 
C 38.5 40.390625 33.90625 42.390625 32.703125 42.796875 
C 29.40625 44 25.203125 44 24.09375 44 
C 11.09375 44 3.296875 32.6875 3.296875 21.296875 
C 3.296875 9.296875 12 -1 23.703125 -1 
C 30.40625 -1 35.203125 1.1875 39.09375 3.796875 
L 38.5 10.390625 
C 34.203125 7.09375 29.203125 5.296875 23.796875 5.296875 
C 16 5.296875 10.90625 12.09375 10.90625 21.390625 
C 10.90625 28.59375 14.203125 37.6875 24.203125 37.6875 
C 29.703125 37.6875 32.796875 36.59375 37.40625 33.484375 
z
" id="CMSS17-99"/>
      <path d="M 15.296875 66 
L 6.90625 66 
L 6.90625 57.59375 
L 15.296875 57.59375 
z
M 14.796875 43 
L 7.40625 43 
L 7.40625 0 
L 14.796875 0 
z
" id="CMSS17-105"/>
      <path d="M 32.203125 40.984375 
C 26.296875 43.796875 21.703125 44 18.703125 44 
C 11.59375 44 3.09375 41.484375 3.09375 31.390625 
C 3.09375 21.296875 14.09375 19.09375 17.09375 18.484375 
C 21.703125 17.59375 26.796875 16.59375 26.796875 11.59375 
C 26.796875 5.296875 19.59375 5.296875 18.296875 5.296875 
C 14.296875 5.296875 8.796875 6.390625 3.796875 9.984375 
L 2.59375 3.296875 
C 8.296875 0 13.796875 -1 18.40625 -1 
C 30.703125 -1 33.796875 6.5 33.796875 12.1875 
C 33.796875 17.09375 31 20.390625 29.09375 21.890625 
C 25.796875 24.484375 24.59375 24.796875 16.40625 26.484375 
C 15 26.6875 10.09375 27.796875 10.09375 32.296875 
C 10.09375 37.984375 16.40625 37.984375 17.796875 37.984375 
C 24.296875 37.984375 28.296875 35.984375 31 34.484375 
z
" id="CMSS17-115"/>
      <path d="M 44.203125 21.1875 
C 44.203125 33.984375 34.703125 44 23.5 44 
C 12 44 2.703125 33.6875 2.703125 21.1875 
C 2.703125 8.5 12.296875 -1 23.40625 -1 
C 34.796875 -1 44.203125 8.796875 44.203125 21.1875 
z
M 23.5 5.296875 
C 16.40625 5.296875 10.296875 11.09375 10.296875 21.984375 
C 10.296875 33.59375 17.40625 37.890625 23.40625 37.890625 
C 29.90625 37.890625 36.59375 33.1875 36.59375 21.984375 
C 36.59375 10.6875 30.09375 5.296875 23.5 5.296875 
z
" id="CMSS17-111"/>
      <path d="M 40.90625 29.34375 
C 40.90625 35.671875 39.40625 44 28.09375 44 
C 21.703125 44 17.5 40.6875 14.703125 37.28125 
L 14.703125 43.484375 
L 7.40625 43.484375 
L 7.40625 0 
L 15 0 
L 15 24.3125 
C 15 30.65625 17.40625 37.890625 24.203125 37.890625 
C 33 37.890625 33.296875 31.953125 33.296875 28.53125 
L 33.296875 0 
L 40.90625 0 
z
" id="CMSS17-110"/>
      <path d="M 61.09375 69 
L 53.296875 69 
L 36 21.265625 
C 35.5 19.875 32.40625 10.734375 31.796875 7.5625 
L 31.703125 7.5625 
C 30.90625 11.328125 27.703125 20.171875 26 25.046875 
L 14.40625 57.34375 
L 10.09375 69 
L 1.296875 69 
L 26.796875 0 
L 35.59375 0 
z
" id="CMSS17-86"/>
      <path d="M 37.59375 27.953125 
C 37.59375 37.484375 30.90625 44 21.90625 44 
C 17.5 44 12.703125 43.1875 7.203125 39.984375 
L 7.796875 33.328125 
C 10.296875 35.15625 14.59375 38.09375 21.796875 38.09375 
C 26.90625 38.09375 30 34.140625 30 27.84375 
L 30 24 
C 14 23.5 4 18.890625 4 11.109375 
C 4 7.0625 6.5 -1 14.796875 -1 
C 16.296875 -1 24.40625 -0.8125 30.203125 3.5 
L 30.203125 -0.203125 
L 37.59375 -0.203125 
z
M 30 12.875 
C 30 11.109375 30 8.734375 27 6.96875 
C 24.40625 5.296875 21.09375 5.09375 19.703125 5.09375 
C 14.703125 5.09375 11.296875 7.859375 11.296875 11.296875 
C 11.296875 18.203125 26.90625 18.890625 30 19 
z
" id="CMSS17-97"/>
      <path d="M 14.90625 21.390625 
C 14.90625 30.84375 21.796875 37.171875 30.59375 37.375 
L 30.59375 44 
C 24.203125 43.890625 18.203125 40.6875 14.59375 35.46875 
L 14.59375 43.484375 
L 7.5 43.484375 
L 7.5 0 
L 14.90625 0 
z
" id="CMSS17-114"/>
      <path d="M 14.90625 69 
L 7.5 69 
L 7.5 -0.203125 
L 15.09375 -0.203125 
L 15.09375 4.296875 
C 18.90625 0.59375 23.5 -1 27.59375 -1 
C 37.203125 -1 45 8.734375 45 21.59375 
C 45 33.328125 39 44 30.09375 44 
C 23.796875 44 18.203125 41.390625 14.90625 38.6875 
z
M 15.09375 32.734375 
C 17.296875 35.5625 20.40625 37.890625 24.796875 37.890625 
C 30.703125 37.890625 37.40625 33.53125 37.40625 21.59375 
C 37.40625 8.84375 29.40625 5.09375 23.90625 5.09375 
C 21.90625 5.09375 19.796875 5.59375 17.796875 7.3125 
C 15.09375 9.75 15.09375 11.265625 15.09375 12.6875 
z
" id="CMSS17-98"/>
      <path d="M 14.796875 69 
L 7.40625 69 
L 7.40625 0 
L 14.796875 0 
z
" id="CMSS17-108"/>
     </defs>
     <g style="fill:#262626;" transform="translate(170.062802 90.894316)scale(0.096 -0.096)">
      <use transform="scale(0.996264)" xlink:href="#CMSS17-68"/>
      <use transform="translate(67.542842 0)scale(0.996264)" xlink:href="#CMSS17-101"/>
      <use transform="translate(109.181664 0)scale(0.996264)" xlink:href="#CMSS17-99"/>
      <use transform="translate(150.820486 0)scale(0.996264)" xlink:href="#CMSS17-105"/>
      <use transform="translate(173.001209 0)scale(0.996264)" xlink:href="#CMSS17-115"/>
      <use transform="translate(208.914751 0)scale(0.996264)" xlink:href="#CMSS17-105"/>
      <use transform="translate(231.095474 0)scale(0.996264)" xlink:href="#CMSS17-111"/>
      <use transform="translate(277.939097 0)scale(0.996264)" xlink:href="#CMSS17-110"/>
      <use transform="translate(357.373153 0)scale(0.996264)" xlink:href="#CMSS17-86"/>
      <use transform="translate(416.988554 0)scale(0.996264)" xlink:href="#CMSS17-97"/>
      <use transform="translate(459.308021 0)scale(0.996264)" xlink:href="#CMSS17-114"/>
      <use transform="translate(491.217794 0)scale(0.996264)" xlink:href="#CMSS17-105"/>
      <use transform="translate(513.398517 0)scale(0.996264)" xlink:href="#CMSS17-97"/>
      <use transform="translate(558.320437 0)scale(0.996264)" xlink:href="#CMSS17-98"/>
      <use transform="translate(606.52538 0)scale(0.996264)" xlink:href="#CMSS17-108"/>
      <use transform="translate(628.706103 0)scale(0.996264)" xlink:href="#CMSS17-101"/>
      <use transform="translate(670.344925 0)scale(0.996264)" xlink:href="#CMSS17-115"/>
     </g>
    </g>
   </g>
   <g id="matplotlib.axis_2">
    <g id="ytick_1">
     <g id="text_30">
      <!-- FCFS -->
      <defs>
       <path d="M 45.59375 31 
L 45.59375 37.09375 
L 17.203125 37.09375 
L 17.203125 62.390625 
L 29.40625 62.390625 
C 30.59375 62.390625 31.796875 62.296875 33 62.296875 
L 49.5 62.296875 
L 49.5 68.796875 
L 8.796875 68.796875 
L 8.796875 0 
L 17.203125 0 
L 17.203125 31 
z
" id="CMSS17-70"/>
       <path d="M 54.703125 11.015625 
C 48 6.5 44.90625 5.1875 36.796875 5.1875 
C 22.796875 5.1875 14.59375 20.375 14.59375 34.234375 
C 14.59375 49.015625 23 63.59375 37.203125 63.59375 
C 43.59375 63.59375 47.796875 61.78125 52.90625 58.5625 
L 54.296875 66.484375 
C 49.5 68.890625 43.40625 70 37.296875 70 
C 18.09375 70 6.203125 52.234375 6.203125 34.234375 
C 6.203125 14.4375 20.296875 -1.203125 36.296875 -1.203125 
C 44.90625 -1.203125 47.90625 -0.5 55.296875 4.1875 
z
" id="CMSS17-67"/>
       <path d="M 43.703125 66.09375 
C 39.296875 68.6875 34.5 71 26.40625 71 
C 13.5 71 5.203125 61.46875 5.203125 51.703125 
C 5.203125 47.875 6.296875 43.546875 10.203125 39.125 
C 14.09375 34.6875 18.5 33.484375 24.09375 32.078125 
C 26.40625 31.46875 30.296875 30.359375 31 30.0625 
C 36.59375 27.84375 39.296875 22.71875 39.296875 17.875 
C 39.296875 11.53125 34.40625 4.796875 25.703125 4.796875 
C 22.703125 4.796875 13.90625 5.296875 5.59375 12.953125 
L 4.203125 5 
C 12.40625 -1 21.296875 -2 25.796875 -2 
C 38.09375 -2 46.90625 7.71875 46.90625 18.78125 
C 46.90625 22.8125 45.703125 27.953125 41.5 32.6875 
C 37.40625 37.203125 33.796875 38.21875 25.59375 40.4375 
C 20.90625 41.640625 17.90625 42.453125 15.40625 45.5625 
C 13.703125 47.78125 12.796875 49.890625 12.796875 52.609375 
C 12.796875 58.25 17.59375 64.390625 26.40625 64.390625 
C 30.796875 64.390625 36.5 63.484375 42.296875 58.046875 
z
" id="CMSS17-83"/>
      </defs>
      <g style="fill:#262626;" transform="translate(22.162141 14.935785)scale(0.088 -0.088)">
       <use transform="scale(0.996264)" xlink:href="#CMSS17-70"/>
       <use transform="translate(50.687105 0)scale(0.996264)" xlink:href="#CMSS17-67"/>
       <use transform="translate(110.542877 0)scale(0.996264)" xlink:href="#CMSS17-70"/>
       <use transform="translate(163.832436 0)scale(0.996264)" xlink:href="#CMSS17-83"/>
      </g>
     </g>
    </g>
    <g id="ytick_2">
     <g id="text_31">
      <!-- AS -->
      <defs>
       <path d="M 35.5 69 
L 26.90625 69 
L 2.59375 0 
L 10.203125 0 
L 17.203125 20 
L 44 20 
L 51.09375 0 
L 59.796875 0 
z
M 42.09375 25.59375 
L 19.09375 25.59375 
C 23.90625 39.53125 29.90625 56.84375 30.59375 61.3125 
L 30.703125 61.3125 
C 31.40625 57.234375 33.40625 51.265625 35.09375 46.1875 
z
" id="CMSS17-65"/>
      </defs>
      <g style="fill:#262626;" transform="translate(32.299283 26.023785)scale(0.088 -0.088)">
       <use transform="scale(0.996264)" xlink:href="#CMSS17-65"/>
       <use transform="translate(62.217855 0)scale(0.996264)" xlink:href="#CMSS17-83"/>
      </g>
     </g>
    </g>
    <g id="ytick_3">
     <g id="text_32">
      <!-- QoSEF -->
      <defs>
       <path d="M 50 3.296875 
C 62.203125 13.25 64 26.734375 64 34.390625 
C 64 55.328125 50.296875 71 34.59375 71 
C 18.90625 71 5.203125 55.234375 5.203125 34.390625 
C 5.203125 13.359375 19.09375 -2 34.59375 -2 
C 38.09375 -2 41.09375 -1.203125 43.203125 -0.40625 
L 51.59375 -13 
L 61.40625 -13 
z
M 39.5 5.09375 
C 38.09375 4.59375 36.40625 4.296875 34.59375 4.296875 
C 23.796875 4.296875 13.40625 15.671875 13.40625 34.390625 
C 13.40625 53.015625 23.703125 64.6875 34.59375 64.6875 
C 45.59375 64.6875 55.796875 52.90625 55.796875 34.390625 
C 55.796875 27.953125 54.796875 17.171875 46.09375 8.921875 
L 38.90625 19.09375 
L 30.296875 19.09375 
z
" id="CMSS17-81"/>
       <path d="M 30.59375 6.796875 
C 22.59375 6.796875 19 6.796875 17.203125 6.6875 
L 17.203125 32.890625 
L 48.203125 32.890625 
L 48.203125 39 
L 17.203125 39 
L 17.203125 62.390625 
L 30.09375 62.390625 
C 31.296875 62.390625 32.5 62.296875 33.703125 62.296875 
L 50.796875 62.296875 
L 50.796875 68.796875 
L 8.796875 68.796875 
L 8.796875 0 
L 52.09375 0 
L 52.09375 6.890625 
z
" id="CMSS17-69"/>
      </defs>
      <g style="fill:#262626;" transform="translate(16.05855 37.111785)scale(0.088 -0.088)">
       <use transform="scale(0.996264)" xlink:href="#CMSS17-81"/>
       <use transform="translate(69.024255 0)scale(0.996264)" xlink:href="#CMSS17-111"/>
       <use transform="translate(115.867879 0)scale(0.996264)" xlink:href="#CMSS17-83"/>
       <use transform="translate(167.916395 0)scale(0.996264)" xlink:href="#CMSS17-69"/>
       <use transform="translate(223.808408 0)scale(0.996264)" xlink:href="#CMSS17-70"/>
      </g>
     </g>
    </g>
    <g id="ytick_4">
     <g id="text_33">
      <!-- QoSEFe -->
      <g style="fill:#262626;" transform="translate(12.177231 48.199785)scale(0.088 -0.088)">
       <use transform="scale(0.996264)" xlink:href="#CMSS17-81"/>
       <use transform="translate(69.024255 0)scale(0.996264)" xlink:href="#CMSS17-111"/>
       <use transform="translate(115.867879 0)scale(0.996264)" xlink:href="#CMSS17-83"/>
       <use transform="translate(167.916395 0)scale(0.996264)" xlink:href="#CMSS17-69"/>
       <use transform="translate(223.808408 0)scale(0.996264)" xlink:href="#CMSS17-70"/>
       <use transform="translate(274.495514 0)scale(0.996264)" xlink:href="#CMSS17-101"/>
      </g>
     </g>
    </g>
    <g id="ytick_5">
     <g id="text_34">
      <!-- QoS4NIP -->
      <defs>
       <path d="M 35.203125 17 
L 44.296875 17 
L 44.296875 23.09375 
L 35.203125 23.09375 
L 35.203125 66 
L 26.40625 66 
L 2.59375 23.09375 
L 2.59375 17 
L 27.296875 17 
L 27.296875 0 
L 35.203125 0 
z
M 10.296875 23.09375 
C 16.09375 33.421875 27.59375 54.28125 27.59375 61.359375 
L 27.59375 23.09375 
z
" id="CMSS17-52"/>
       <path d="M 22.90625 65.296875 
L 21.09375 69 
L 8.796875 69 
L 8.796875 0 
L 16.59375 0 
L 16.59375 61.328125 
L 16.703125 61.421875 
C 17.40625 59.640625 17.796875 58.734375 21.90625 49.890625 
L 43.296875 3.6875 
L 45.09375 0 
L 57.40625 0 
L 57.40625 69 
L 49.59375 69 
L 49.59375 7.65625 
L 49.5 7.5625 
C 48.796875 9.34375 48.40625 10.234375 44.296875 19.09375 
z
" id="CMSS17-78"/>
       <path d="M 17.09375 69 
L 8.703125 69 
L 8.703125 0 
L 17.09375 0 
z
" id="CMSS17-73"/>
       <path d="M 32.90625 29 
C 44.90625 29 54.703125 38.234375 54.703125 49.046875 
C 54.703125 59.65625 45.296875 69 32.296875 69 
L 8.90625 69 
L 8.90625 0 
L 17.296875 0 
L 17.296875 29 
z
M 30.09375 63.390625 
C 41.703125 63.390625 46.796875 56.21875 46.796875 49.046875 
C 46.796875 42.359375 42.09375 34.796875 30.09375 34.796875 
L 17.09375 34.796875 
L 17.09375 63.390625 
z
" id="CMSS17-80"/>
      </defs>
      <g style="fill:#262626;" transform="translate(7.2 59.287785)scale(0.088 -0.088)">
       <use transform="scale(0.996264)" xlink:href="#CMSS17-81"/>
       <use transform="translate(69.024255 0)scale(0.996264)" xlink:href="#CMSS17-111"/>
       <use transform="translate(115.867879 0)scale(0.996264)" xlink:href="#CMSS17-83"/>
       <use transform="translate(167.916395 0)scale(0.996264)" xlink:href="#CMSS17-52"/>
       <use transform="translate(214.760019 0)scale(0.996264)" xlink:href="#CMSS17-78"/>
       <use transform="translate(280.821538 0)scale(0.996264)" xlink:href="#CMSS17-73"/>
       <use transform="translate(306.605463 0)scale(0.996264)" xlink:href="#CMSS17-80"/>
      </g>
     </g>
    </g>
   </g>
   <g id="QuadMesh_1">
    <path clip-path="url(#pe5c7a6c1f7)" d="M 51.984521 7.2 
L 63.072521 7.2 
L 63.072521 18.288 
L 51.984521 18.288 
L 51.984521 7.2 
" style="fill:#deebf7;stroke:#ffffff;"/>
    <path clip-path="url(#pe5c7a6c1f7)" d="M 63.072521 7.2 
L 74.160521 7.2 
L 74.160521 18.288 
L 63.072521 18.288 
L 63.072521 7.2 
" style="fill:#deebf7;stroke:#ffffff;"/>
    <path clip-path="url(#pe5c7a6c1f7)" d="M 74.160521 7.2 
L 85.248521 7.2 
L 85.248521 18.288 
L 74.160521 18.288 
L 74.160521 7.2 
" style="fill:#deebf7;stroke:#ffffff;"/>
    <path clip-path="url(#pe5c7a6c1f7)" d="M 85.248521 7.2 
L 96.336521 7.2 
L 96.336521 18.288 
L 85.248521 18.288 
L 85.248521 7.2 
" style="fill:#deebf7;stroke:#ffffff;"/>
    <path clip-path="url(#pe5c7a6c1f7)" d="M 96.336521 7.2 
L 107.424521 7.2 
L 107.424521 18.288 
L 96.336521 18.288 
L 96.336521 7.2 
" style="fill:#deebf7;stroke:#ffffff;"/>
    <path clip-path="url(#pe5c7a6c1f7)" d="M 107.424521 7.2 
L 118.512521 7.2 
L 118.512521 18.288 
L 107.424521 18.288 
L 107.424521 7.2 
" style="fill:#deebf7;stroke:#ffffff;"/>
    <path clip-path="url(#pe5c7a6c1f7)" d="M 118.512521 7.2 
L 129.600521 7.2 
L 129.600521 18.288 
L 118.512521 18.288 
L 118.512521 7.2 
" style="fill:#deebf7;stroke:#ffffff;"/>
    <path clip-path="url(#pe5c7a6c1f7)" d="M 129.600521 7.2 
L 140.688521 7.2 
L 140.688521 18.288 
L 129.600521 18.288 
L 129.600521 7.2 
" style="fill:#deebf7;stroke:#ffffff;"/>
    <path clip-path="url(#pe5c7a6c1f7)" d="M 140.688521 7.2 
L 151.776521 7.2 
L 151.776521 18.288 
L 140.688521 18.288 
L 140.688521 7.2 
" style="fill:#deebf7;stroke:#ffffff;"/>
    <path clip-path="url(#pe5c7a6c1f7)" d="M 151.776521 7.2 
L 162.864521 7.2 
L 162.864521 18.288 
L 151.776521 18.288 
L 151.776521 7.2 
" style="fill:#deebf7;stroke:#ffffff;"/>
    <path clip-path="url(#pe5c7a6c1f7)" d="M 162.864521 7.2 
L 173.952521 7.2 
L 173.952521 18.288 
L 162.864521 18.288 
L 162.864521 7.2 
" style="fill:#deebf7;stroke:#ffffff;"/>
    <path clip-path="url(#pe5c7a6c1f7)" d="M 173.952521 7.2 
L 185.040521 7.2 
L 185.040521 18.288 
L 173.952521 18.288 
L 173.952521 7.2 
" style="fill:#deebf7;stroke:#ffffff;"/>
    <path clip-path="url(#pe5c7a6c1f7)" d="M 185.040521 7.2 
L 196.128521 7.2 
L 196.128521 18.288 
L 185.040521 18.288 
L 185.040521 7.2 
" style="fill:#deebf7;stroke:#ffffff;"/>
    <path clip-path="url(#pe5c7a6c1f7)" d="M 196.128521 7.2 
L 207.216521 7.2 
L 207.216521 18.288 
L 196.128521 18.288 
L 196.128521 7.2 
" style="fill:#deebf7;stroke:#ffffff;"/>
    <path clip-path="url(#pe5c7a6c1f7)" d="M 207.216521 7.2 
L 218.304521 7.2 
L 218.304521 18.288 
L 207.216521 18.288 
L 207.216521 7.2 
" style="fill:#deebf7;stroke:#ffffff;"/>
    <path clip-path="url(#pe5c7a6c1f7)" d="M 218.304521 7.2 
L 229.392521 7.2 
L 229.392521 18.288 
L 218.304521 18.288 
L 218.304521 7.2 
" style="fill:#deebf7;stroke:#ffffff;"/>
    <path clip-path="url(#pe5c7a6c1f7)" d="M 229.392521 7.2 
L 240.480521 7.2 
L 240.480521 18.288 
L 229.392521 18.288 
L 229.392521 7.2 
" style="fill:#deebf7;stroke:#ffffff;"/>
    <path clip-path="url(#pe5c7a6c1f7)" d="M 240.480521 7.2 
L 251.568521 7.2 
L 251.568521 18.288 
L 240.480521 18.288 
L 240.480521 7.2 
" style="fill:#deebf7;stroke:#ffffff;"/>
    <path clip-path="url(#pe5c7a6c1f7)" d="M 251.568521 7.2 
L 262.656521 7.2 
L 262.656521 18.288 
L 251.568521 18.288 
L 251.568521 7.2 
" style="fill:#deebf7;stroke:#ffffff;"/>
    <path clip-path="url(#pe5c7a6c1f7)" d="M 262.656521 7.2 
L 273.744521 7.2 
L 273.744521 18.288 
L 262.656521 18.288 
L 262.656521 7.2 
" style="fill:#deebf7;stroke:#ffffff;"/>
    <path clip-path="url(#pe5c7a6c1f7)" d="M 273.744521 7.2 
L 284.832521 7.2 
L 284.832521 18.288 
L 273.744521 18.288 
L 273.744521 7.2 
" style="fill:#deebf7;stroke:#ffffff;"/>
    <path clip-path="url(#pe5c7a6c1f7)" d="M 284.832521 7.2 
L 295.920521 7.2 
L 295.920521 18.288 
L 284.832521 18.288 
L 284.832521 7.2 
" style="fill:#deebf7;stroke:#ffffff;"/>
    <path clip-path="url(#pe5c7a6c1f7)" d="M 295.920521 7.2 
L 307.008521 7.2 
L 307.008521 18.288 
L 295.920521 18.288 
L 295.920521 7.2 
" style="fill:#deebf7;stroke:#ffffff;"/>
    <path clip-path="url(#pe5c7a6c1f7)" d="M 307.008521 7.2 
L 318.096521 7.2 
L 318.096521 18.288 
L 307.008521 18.288 
L 307.008521 7.2 
" style="fill:#deebf7;stroke:#ffffff;"/>
    <path clip-path="url(#pe5c7a6c1f7)" d="M 318.096521 7.2 
L 329.184521 7.2 
L 329.184521 18.288 
L 318.096521 18.288 
L 318.096521 7.2 
" style="fill:#deebf7;stroke:#ffffff;"/>
    <path clip-path="url(#pe5c7a6c1f7)" d="M 329.184521 7.2 
L 340.272521 7.2 
L 340.272521 18.288 
L 329.184521 18.288 
L 329.184521 7.2 
" style="fill:#deebf7;stroke:#ffffff;"/>
    <path clip-path="url(#pe5c7a6c1f7)" d="M 340.272521 7.2 
L 351.360521 7.2 
L 351.360521 18.288 
L 340.272521 18.288 
L 340.272521 7.2 
" style="fill:#deebf7;stroke:#ffffff;"/>
    <path clip-path="url(#pe5c7a6c1f7)" d="M 351.360521 7.2 
L 362.448521 7.2 
L 362.448521 18.288 
L 351.360521 18.288 
L 351.360521 7.2 
" style="fill:#deebf7;stroke:#ffffff;"/>
    <path clip-path="url(#pe5c7a6c1f7)" d="M 51.984521 18.288 
L 63.072521 18.288 
L 63.072521 29.376 
L 51.984521 29.376 
L 51.984521 18.288 
" style="fill:#deebf7;stroke:#ffffff;"/>
    <path clip-path="url(#pe5c7a6c1f7)" d="M 63.072521 18.288 
L 74.160521 18.288 
L 74.160521 29.376 
L 63.072521 29.376 
L 63.072521 18.288 
" style="fill:#deebf7;stroke:#ffffff;"/>
    <path clip-path="url(#pe5c7a6c1f7)" d="M 74.160521 18.288 
L 85.248521 18.288 
L 85.248521 29.376 
L 74.160521 29.376 
L 74.160521 18.288 
" style="fill:#deebf7;stroke:#ffffff;"/>
    <path clip-path="url(#pe5c7a6c1f7)" d="M 85.248521 18.288 
L 96.336521 18.288 
L 96.336521 29.376 
L 85.248521 29.376 
L 85.248521 18.288 
" style="fill:#deebf7;stroke:#ffffff;"/>
    <path clip-path="url(#pe5c7a6c1f7)" d="M 96.336521 18.288 
L 107.424521 18.288 
L 107.424521 29.376 
L 96.336521 29.376 
L 96.336521 18.288 
" style="fill:#deebf7;stroke:#ffffff;"/>
    <path clip-path="url(#pe5c7a6c1f7)" d="M 107.424521 18.288 
L 118.512521 18.288 
L 118.512521 29.376 
L 107.424521 29.376 
L 107.424521 18.288 
" style="fill:#9ecae1;stroke:#ffffff;"/>
    <path clip-path="url(#pe5c7a6c1f7)" d="M 118.512521 18.288 
L 129.600521 18.288 
L 129.600521 29.376 
L 118.512521 29.376 
L 118.512521 18.288 
" style="fill:#deebf7;stroke:#ffffff;"/>
    <path clip-path="url(#pe5c7a6c1f7)" d="M 129.600521 18.288 
L 140.688521 18.288 
L 140.688521 29.376 
L 129.600521 29.376 
L 129.600521 18.288 
" style="fill:#deebf7;stroke:#ffffff;"/>
    <path clip-path="url(#pe5c7a6c1f7)" d="M 140.688521 18.288 
L 151.776521 18.288 
L 151.776521 29.376 
L 140.688521 29.376 
L 140.688521 18.288 
" style="fill:#deebf7;stroke:#ffffff;"/>
    <path clip-path="url(#pe5c7a6c1f7)" d="M 151.776521 18.288 
L 162.864521 18.288 
L 162.864521 29.376 
L 151.776521 29.376 
L 151.776521 18.288 
" style="fill:#deebf7;stroke:#ffffff;"/>
    <path clip-path="url(#pe5c7a6c1f7)" d="M 162.864521 18.288 
L 173.952521 18.288 
L 173.952521 29.376 
L 162.864521 29.376 
L 162.864521 18.288 
" style="fill:#deebf7;stroke:#ffffff;"/>
    <path clip-path="url(#pe5c7a6c1f7)" d="M 173.952521 18.288 
L 185.040521 18.288 
L 185.040521 29.376 
L 173.952521 29.376 
L 173.952521 18.288 
" style="fill:#deebf7;stroke:#ffffff;"/>
    <path clip-path="url(#pe5c7a6c1f7)" d="M 185.040521 18.288 
L 196.128521 18.288 
L 196.128521 29.376 
L 185.040521 29.376 
L 185.040521 18.288 
" style="fill:#deebf7;stroke:#ffffff;"/>
    <path clip-path="url(#pe5c7a6c1f7)" d="M 196.128521 18.288 
L 207.216521 18.288 
L 207.216521 29.376 
L 196.128521 29.376 
L 196.128521 18.288 
" style="fill:#9ecae1;stroke:#ffffff;"/>
    <path clip-path="url(#pe5c7a6c1f7)" d="M 207.216521 18.288 
L 218.304521 18.288 
L 218.304521 29.376 
L 207.216521 29.376 
L 207.216521 18.288 
" style="fill:#deebf7;stroke:#ffffff;"/>
    <path clip-path="url(#pe5c7a6c1f7)" d="M 218.304521 18.288 
L 229.392521 18.288 
L 229.392521 29.376 
L 218.304521 29.376 
L 218.304521 18.288 
" style="fill:#deebf7;stroke:#ffffff;"/>
    <path clip-path="url(#pe5c7a6c1f7)" d="M 229.392521 18.288 
L 240.480521 18.288 
L 240.480521 29.376 
L 229.392521 29.376 
L 229.392521 18.288 
" style="fill:#deebf7;stroke:#ffffff;"/>
    <path clip-path="url(#pe5c7a6c1f7)" d="M 240.480521 18.288 
L 251.568521 18.288 
L 251.568521 29.376 
L 240.480521 29.376 
L 240.480521 18.288 
" style="fill:#deebf7;stroke:#ffffff;"/>
    <path clip-path="url(#pe5c7a6c1f7)" d="M 251.568521 18.288 
L 262.656521 18.288 
L 262.656521 29.376 
L 251.568521 29.376 
L 251.568521 18.288 
" style="fill:#deebf7;stroke:#ffffff;"/>
    <path clip-path="url(#pe5c7a6c1f7)" d="M 262.656521 18.288 
L 273.744521 18.288 
L 273.744521 29.376 
L 262.656521 29.376 
L 262.656521 18.288 
" style="fill:#deebf7;stroke:#ffffff;"/>
    <path clip-path="url(#pe5c7a6c1f7)" d="M 273.744521 18.288 
L 284.832521 18.288 
L 284.832521 29.376 
L 273.744521 29.376 
L 273.744521 18.288 
" style="fill:#9ecae1;stroke:#ffffff;"/>
    <path clip-path="url(#pe5c7a6c1f7)" d="M 284.832521 18.288 
L 295.920521 18.288 
L 295.920521 29.376 
L 284.832521 29.376 
L 284.832521 18.288 
" style="fill:#deebf7;stroke:#ffffff;"/>
    <path clip-path="url(#pe5c7a6c1f7)" d="M 295.920521 18.288 
L 307.008521 18.288 
L 307.008521 29.376 
L 295.920521 29.376 
L 295.920521 18.288 
" style="fill:#deebf7;stroke:#ffffff;"/>
    <path clip-path="url(#pe5c7a6c1f7)" d="M 307.008521 18.288 
L 318.096521 18.288 
L 318.096521 29.376 
L 307.008521 29.376 
L 307.008521 18.288 
" style="fill:#deebf7;stroke:#ffffff;"/>
    <path clip-path="url(#pe5c7a6c1f7)" d="M 318.096521 18.288 
L 329.184521 18.288 
L 329.184521 29.376 
L 318.096521 29.376 
L 318.096521 18.288 
" style="fill:#deebf7;stroke:#ffffff;"/>
    <path clip-path="url(#pe5c7a6c1f7)" d="M 329.184521 18.288 
L 340.272521 18.288 
L 340.272521 29.376 
L 329.184521 29.376 
L 329.184521 18.288 
" style="fill:#deebf7;stroke:#ffffff;"/>
    <path clip-path="url(#pe5c7a6c1f7)" d="M 340.272521 18.288 
L 351.360521 18.288 
L 351.360521 29.376 
L 340.272521 29.376 
L 340.272521 18.288 
" style="fill:#9ecae1;stroke:#ffffff;"/>
    <path clip-path="url(#pe5c7a6c1f7)" d="M 351.360521 18.288 
L 362.448521 18.288 
L 362.448521 29.376 
L 351.360521 29.376 
L 351.360521 18.288 
" style="fill:#deebf7;stroke:#ffffff;"/>
    <path clip-path="url(#pe5c7a6c1f7)" d="M 51.984521 29.376 
L 63.072521 29.376 
L 63.072521 40.464 
L 51.984521 40.464 
L 51.984521 29.376 
" style="fill:#9ecae1;stroke:#ffffff;"/>
    <path clip-path="url(#pe5c7a6c1f7)" d="M 63.072521 29.376 
L 74.160521 29.376 
L 74.160521 40.464 
L 63.072521 40.464 
L 63.072521 29.376 
" style="fill:#deebf7;stroke:#ffffff;"/>
    <path clip-path="url(#pe5c7a6c1f7)" d="M 74.160521 29.376 
L 85.248521 29.376 
L 85.248521 40.464 
L 74.160521 40.464 
L 74.160521 29.376 
" style="fill:#9ecae1;stroke:#ffffff;"/>
    <path clip-path="url(#pe5c7a6c1f7)" d="M 85.248521 29.376 
L 96.336521 29.376 
L 96.336521 40.464 
L 85.248521 40.464 
L 85.248521 29.376 
" style="fill:#9ecae1;stroke:#ffffff;"/>
    <path clip-path="url(#pe5c7a6c1f7)" d="M 96.336521 29.376 
L 107.424521 29.376 
L 107.424521 40.464 
L 96.336521 40.464 
L 96.336521 29.376 
" style="fill:#deebf7;stroke:#ffffff;"/>
    <path clip-path="url(#pe5c7a6c1f7)" d="M 107.424521 29.376 
L 118.512521 29.376 
L 118.512521 40.464 
L 107.424521 40.464 
L 107.424521 29.376 
" style="fill:#deebf7;stroke:#ffffff;"/>
    <path clip-path="url(#pe5c7a6c1f7)" d="M 118.512521 29.376 
L 129.600521 29.376 
L 129.600521 40.464 
L 118.512521 40.464 
L 118.512521 29.376 
" style="fill:#deebf7;stroke:#ffffff;"/>
    <path clip-path="url(#pe5c7a6c1f7)" d="M 129.600521 29.376 
L 140.688521 29.376 
L 140.688521 40.464 
L 129.600521 40.464 
L 129.600521 29.376 
" style="fill:#9ecae1;stroke:#ffffff;"/>
    <path clip-path="url(#pe5c7a6c1f7)" d="M 140.688521 29.376 
L 151.776521 29.376 
L 151.776521 40.464 
L 140.688521 40.464 
L 140.688521 29.376 
" style="fill:#deebf7;stroke:#ffffff;"/>
    <path clip-path="url(#pe5c7a6c1f7)" d="M 151.776521 29.376 
L 162.864521 29.376 
L 162.864521 40.464 
L 151.776521 40.464 
L 151.776521 29.376 
" style="fill:#deebf7;stroke:#ffffff;"/>
    <path clip-path="url(#pe5c7a6c1f7)" d="M 162.864521 29.376 
L 173.952521 29.376 
L 173.952521 40.464 
L 162.864521 40.464 
L 162.864521 29.376 
" style="fill:#9ecae1;stroke:#ffffff;"/>
    <path clip-path="url(#pe5c7a6c1f7)" d="M 173.952521 29.376 
L 185.040521 29.376 
L 185.040521 40.464 
L 173.952521 40.464 
L 173.952521 29.376 
" style="fill:#9ecae1;stroke:#ffffff;"/>
    <path clip-path="url(#pe5c7a6c1f7)" d="M 185.040521 29.376 
L 196.128521 29.376 
L 196.128521 40.464 
L 185.040521 40.464 
L 185.040521 29.376 
" style="fill:#deebf7;stroke:#ffffff;"/>
    <path clip-path="url(#pe5c7a6c1f7)" d="M 196.128521 29.376 
L 207.216521 29.376 
L 207.216521 40.464 
L 196.128521 40.464 
L 196.128521 29.376 
" style="fill:#deebf7;stroke:#ffffff;"/>
    <path clip-path="url(#pe5c7a6c1f7)" d="M 207.216521 29.376 
L 218.304521 29.376 
L 218.304521 40.464 
L 207.216521 40.464 
L 207.216521 29.376 
" style="fill:#9ecae1;stroke:#ffffff;"/>
    <path clip-path="url(#pe5c7a6c1f7)" d="M 218.304521 29.376 
L 229.392521 29.376 
L 229.392521 40.464 
L 218.304521 40.464 
L 218.304521 29.376 
" style="fill:#deebf7;stroke:#ffffff;"/>
    <path clip-path="url(#pe5c7a6c1f7)" d="M 229.392521 29.376 
L 240.480521 29.376 
L 240.480521 40.464 
L 229.392521 40.464 
L 229.392521 29.376 
" style="fill:#deebf7;stroke:#ffffff;"/>
    <path clip-path="url(#pe5c7a6c1f7)" d="M 240.480521 29.376 
L 251.568521 29.376 
L 251.568521 40.464 
L 240.480521 40.464 
L 240.480521 29.376 
" style="fill:#9ecae1;stroke:#ffffff;"/>
    <path clip-path="url(#pe5c7a6c1f7)" d="M 251.568521 29.376 
L 262.656521 29.376 
L 262.656521 40.464 
L 251.568521 40.464 
L 251.568521 29.376 
" style="fill:#deebf7;stroke:#ffffff;"/>
    <path clip-path="url(#pe5c7a6c1f7)" d="M 262.656521 29.376 
L 273.744521 29.376 
L 273.744521 40.464 
L 262.656521 40.464 
L 262.656521 29.376 
" style="fill:#deebf7;stroke:#ffffff;"/>
    <path clip-path="url(#pe5c7a6c1f7)" d="M 273.744521 29.376 
L 284.832521 29.376 
L 284.832521 40.464 
L 273.744521 40.464 
L 273.744521 29.376 
" style="fill:#deebf7;stroke:#ffffff;"/>
    <path clip-path="url(#pe5c7a6c1f7)" d="M 284.832521 29.376 
L 295.920521 29.376 
L 295.920521 40.464 
L 284.832521 40.464 
L 284.832521 29.376 
" style="fill:#9ecae1;stroke:#ffffff;"/>
    <path clip-path="url(#pe5c7a6c1f7)" d="M 295.920521 29.376 
L 307.008521 29.376 
L 307.008521 40.464 
L 295.920521 40.464 
L 295.920521 29.376 
" style="fill:#deebf7;stroke:#ffffff;"/>
    <path clip-path="url(#pe5c7a6c1f7)" d="M 307.008521 29.376 
L 318.096521 29.376 
L 318.096521 40.464 
L 307.008521 40.464 
L 307.008521 29.376 
" style="fill:#deebf7;stroke:#ffffff;"/>
    <path clip-path="url(#pe5c7a6c1f7)" d="M 318.096521 29.376 
L 329.184521 29.376 
L 329.184521 40.464 
L 318.096521 40.464 
L 318.096521 29.376 
" style="fill:#9ecae1;stroke:#ffffff;"/>
    <path clip-path="url(#pe5c7a6c1f7)" d="M 329.184521 29.376 
L 340.272521 29.376 
L 340.272521 40.464 
L 329.184521 40.464 
L 329.184521 29.376 
" style="fill:#deebf7;stroke:#ffffff;"/>
    <path clip-path="url(#pe5c7a6c1f7)" d="M 340.272521 29.376 
L 351.360521 29.376 
L 351.360521 40.464 
L 340.272521 40.464 
L 340.272521 29.376 
" style="fill:#deebf7;stroke:#ffffff;"/>
    <path clip-path="url(#pe5c7a6c1f7)" d="M 351.360521 29.376 
L 362.448521 29.376 
L 362.448521 40.464 
L 351.360521 40.464 
L 351.360521 29.376 
" style="fill:#deebf7;stroke:#ffffff;"/>
    <path clip-path="url(#pe5c7a6c1f7)" d="M 51.984521 40.464 
L 63.072521 40.464 
L 63.072521 51.552 
L 51.984521 51.552 
L 51.984521 40.464 
" style="fill:#9ecae1;stroke:#ffffff;"/>
    <path clip-path="url(#pe5c7a6c1f7)" d="M 63.072521 40.464 
L 74.160521 40.464 
L 74.160521 51.552 
L 63.072521 51.552 
L 63.072521 40.464 
" style="fill:#deebf7;stroke:#ffffff;"/>
    <path clip-path="url(#pe5c7a6c1f7)" d="M 74.160521 40.464 
L 85.248521 40.464 
L 85.248521 51.552 
L 74.160521 51.552 
L 74.160521 40.464 
" style="fill:#deebf7;stroke:#ffffff;"/>
    <path clip-path="url(#pe5c7a6c1f7)" d="M 85.248521 40.464 
L 96.336521 40.464 
L 96.336521 51.552 
L 85.248521 51.552 
L 85.248521 40.464 
" style="fill:#9ecae1;stroke:#ffffff;"/>
    <path clip-path="url(#pe5c7a6c1f7)" d="M 96.336521 40.464 
L 107.424521 40.464 
L 107.424521 51.552 
L 96.336521 51.552 
L 96.336521 40.464 
" style="fill:#deebf7;stroke:#ffffff;"/>
    <path clip-path="url(#pe5c7a6c1f7)" d="M 107.424521 40.464 
L 118.512521 40.464 
L 118.512521 51.552 
L 107.424521 51.552 
L 107.424521 40.464 
" style="fill:#deebf7;stroke:#ffffff;"/>
    <path clip-path="url(#pe5c7a6c1f7)" d="M 118.512521 40.464 
L 129.600521 40.464 
L 129.600521 51.552 
L 118.512521 51.552 
L 118.512521 40.464 
" style="fill:#deebf7;stroke:#ffffff;"/>
    <path clip-path="url(#pe5c7a6c1f7)" d="M 129.600521 40.464 
L 140.688521 40.464 
L 140.688521 51.552 
L 129.600521 51.552 
L 129.600521 40.464 
" style="fill:#9ecae1;stroke:#ffffff;"/>
    <path clip-path="url(#pe5c7a6c1f7)" d="M 140.688521 40.464 
L 151.776521 40.464 
L 151.776521 51.552 
L 140.688521 51.552 
L 140.688521 40.464 
" style="fill:#deebf7;stroke:#ffffff;"/>
    <path clip-path="url(#pe5c7a6c1f7)" d="M 151.776521 40.464 
L 162.864521 40.464 
L 162.864521 51.552 
L 151.776521 51.552 
L 151.776521 40.464 
" style="fill:#deebf7;stroke:#ffffff;"/>
    <path clip-path="url(#pe5c7a6c1f7)" d="M 162.864521 40.464 
L 173.952521 40.464 
L 173.952521 51.552 
L 162.864521 51.552 
L 162.864521 40.464 
" style="fill:#9ecae1;stroke:#ffffff;"/>
    <path clip-path="url(#pe5c7a6c1f7)" d="M 173.952521 40.464 
L 185.040521 40.464 
L 185.040521 51.552 
L 173.952521 51.552 
L 173.952521 40.464 
" style="fill:#deebf7;stroke:#ffffff;"/>
    <path clip-path="url(#pe5c7a6c1f7)" d="M 185.040521 40.464 
L 196.128521 40.464 
L 196.128521 51.552 
L 185.040521 51.552 
L 185.040521 40.464 
" style="fill:#deebf7;stroke:#ffffff;"/>
    <path clip-path="url(#pe5c7a6c1f7)" d="M 196.128521 40.464 
L 207.216521 40.464 
L 207.216521 51.552 
L 196.128521 51.552 
L 196.128521 40.464 
" style="fill:#deebf7;stroke:#ffffff;"/>
    <path clip-path="url(#pe5c7a6c1f7)" d="M 207.216521 40.464 
L 218.304521 40.464 
L 218.304521 51.552 
L 207.216521 51.552 
L 207.216521 40.464 
" style="fill:#9ecae1;stroke:#ffffff;"/>
    <path clip-path="url(#pe5c7a6c1f7)" d="M 218.304521 40.464 
L 229.392521 40.464 
L 229.392521 51.552 
L 218.304521 51.552 
L 218.304521 40.464 
" style="fill:#deebf7;stroke:#ffffff;"/>
    <path clip-path="url(#pe5c7a6c1f7)" d="M 229.392521 40.464 
L 240.480521 40.464 
L 240.480521 51.552 
L 229.392521 51.552 
L 229.392521 40.464 
" style="fill:#deebf7;stroke:#ffffff;"/>
    <path clip-path="url(#pe5c7a6c1f7)" d="M 240.480521 40.464 
L 251.568521 40.464 
L 251.568521 51.552 
L 240.480521 51.552 
L 240.480521 40.464 
" style="fill:#9ecae1;stroke:#ffffff;"/>
    <path clip-path="url(#pe5c7a6c1f7)" d="M 251.568521 40.464 
L 262.656521 40.464 
L 262.656521 51.552 
L 251.568521 51.552 
L 251.568521 40.464 
" style="fill:#deebf7;stroke:#ffffff;"/>
    <path clip-path="url(#pe5c7a6c1f7)" d="M 262.656521 40.464 
L 273.744521 40.464 
L 273.744521 51.552 
L 262.656521 51.552 
L 262.656521 40.464 
" style="fill:#deebf7;stroke:#ffffff;"/>
    <path clip-path="url(#pe5c7a6c1f7)" d="M 273.744521 40.464 
L 284.832521 40.464 
L 284.832521 51.552 
L 273.744521 51.552 
L 273.744521 40.464 
" style="fill:#deebf7;stroke:#ffffff;"/>
    <path clip-path="url(#pe5c7a6c1f7)" d="M 284.832521 40.464 
L 295.920521 40.464 
L 295.920521 51.552 
L 284.832521 51.552 
L 284.832521 40.464 
" style="fill:#9ecae1;stroke:#ffffff;"/>
    <path clip-path="url(#pe5c7a6c1f7)" d="M 295.920521 40.464 
L 307.008521 40.464 
L 307.008521 51.552 
L 295.920521 51.552 
L 295.920521 40.464 
" style="fill:#deebf7;stroke:#ffffff;"/>
    <path clip-path="url(#pe5c7a6c1f7)" d="M 307.008521 40.464 
L 318.096521 40.464 
L 318.096521 51.552 
L 307.008521 51.552 
L 307.008521 40.464 
" style="fill:#9ecae1;stroke:#ffffff;"/>
    <path clip-path="url(#pe5c7a6c1f7)" d="M 318.096521 40.464 
L 329.184521 40.464 
L 329.184521 51.552 
L 318.096521 51.552 
L 318.096521 40.464 
" style="fill:#9ecae1;stroke:#ffffff;"/>
    <path clip-path="url(#pe5c7a6c1f7)" d="M 329.184521 40.464 
L 340.272521 40.464 
L 340.272521 51.552 
L 329.184521 51.552 
L 329.184521 40.464 
" style="fill:#9ecae1;stroke:#ffffff;"/>
    <path clip-path="url(#pe5c7a6c1f7)" d="M 340.272521 40.464 
L 351.360521 40.464 
L 351.360521 51.552 
L 340.272521 51.552 
L 340.272521 40.464 
" style="fill:#deebf7;stroke:#ffffff;"/>
    <path clip-path="url(#pe5c7a6c1f7)" d="M 351.360521 40.464 
L 362.448521 40.464 
L 362.448521 51.552 
L 351.360521 51.552 
L 351.360521 40.464 
" style="fill:#deebf7;stroke:#ffffff;"/>
    <path clip-path="url(#pe5c7a6c1f7)" d="M 51.984521 51.552 
L 63.072521 51.552 
L 63.072521 62.64 
L 51.984521 62.64 
L 51.984521 51.552 
" style="fill:#deebf7;stroke:#ffffff;"/>
    <path clip-path="url(#pe5c7a6c1f7)" d="M 63.072521 51.552 
L 74.160521 51.552 
L 74.160521 62.64 
L 63.072521 62.64 
L 63.072521 51.552 
" style="fill:#deebf7;stroke:#ffffff;"/>
    <path clip-path="url(#pe5c7a6c1f7)" d="M 74.160521 51.552 
L 85.248521 51.552 
L 85.248521 62.64 
L 74.160521 62.64 
L 74.160521 51.552 
" style="fill:#deebf7;stroke:#ffffff;"/>
    <path clip-path="url(#pe5c7a6c1f7)" d="M 85.248521 51.552 
L 96.336521 51.552 
L 96.336521 62.64 
L 85.248521 62.64 
L 85.248521 51.552 
" style="fill:#deebf7;stroke:#ffffff;"/>
    <path clip-path="url(#pe5c7a6c1f7)" d="M 96.336521 51.552 
L 107.424521 51.552 
L 107.424521 62.64 
L 96.336521 62.64 
L 96.336521 51.552 
" style="fill:#deebf7;stroke:#ffffff;"/>
    <path clip-path="url(#pe5c7a6c1f7)" d="M 107.424521 51.552 
L 118.512521 51.552 
L 118.512521 62.64 
L 107.424521 62.64 
L 107.424521 51.552 
" style="fill:#9ecae1;stroke:#ffffff;"/>
    <path clip-path="url(#pe5c7a6c1f7)" d="M 118.512521 51.552 
L 129.600521 51.552 
L 129.600521 62.64 
L 118.512521 62.64 
L 118.512521 51.552 
" style="fill:#9ecae1;stroke:#ffffff;"/>
    <path clip-path="url(#pe5c7a6c1f7)" d="M 129.600521 51.552 
L 140.688521 51.552 
L 140.688521 62.64 
L 129.600521 62.64 
L 129.600521 51.552 
" style="fill:#deebf7;stroke:#ffffff;"/>
    <path clip-path="url(#pe5c7a6c1f7)" d="M 140.688521 51.552 
L 151.776521 51.552 
L 151.776521 62.64 
L 140.688521 62.64 
L 140.688521 51.552 
" style="fill:#deebf7;stroke:#ffffff;"/>
    <path clip-path="url(#pe5c7a6c1f7)" d="M 151.776521 51.552 
L 162.864521 51.552 
L 162.864521 62.64 
L 151.776521 62.64 
L 151.776521 51.552 
" style="fill:#deebf7;stroke:#ffffff;"/>
    <path clip-path="url(#pe5c7a6c1f7)" d="M 162.864521 51.552 
L 173.952521 51.552 
L 173.952521 62.64 
L 162.864521 62.64 
L 162.864521 51.552 
" style="fill:#deebf7;stroke:#ffffff;"/>
    <path clip-path="url(#pe5c7a6c1f7)" d="M 173.952521 51.552 
L 185.040521 51.552 
L 185.040521 62.64 
L 173.952521 62.64 
L 173.952521 51.552 
" style="fill:#deebf7;stroke:#ffffff;"/>
    <path clip-path="url(#pe5c7a6c1f7)" d="M 185.040521 51.552 
L 196.128521 51.552 
L 196.128521 62.64 
L 185.040521 62.64 
L 185.040521 51.552 
" style="fill:#9ecae1;stroke:#ffffff;"/>
    <path clip-path="url(#pe5c7a6c1f7)" d="M 196.128521 51.552 
L 207.216521 51.552 
L 207.216521 62.64 
L 196.128521 62.64 
L 196.128521 51.552 
" style="fill:#9ecae1;stroke:#ffffff;"/>
    <path clip-path="url(#pe5c7a6c1f7)" d="M 207.216521 51.552 
L 218.304521 51.552 
L 218.304521 62.64 
L 207.216521 62.64 
L 207.216521 51.552 
" style="fill:#deebf7;stroke:#ffffff;"/>
    <path clip-path="url(#pe5c7a6c1f7)" d="M 218.304521 51.552 
L 229.392521 51.552 
L 229.392521 62.64 
L 218.304521 62.64 
L 218.304521 51.552 
" style="fill:#deebf7;stroke:#ffffff;"/>
    <path clip-path="url(#pe5c7a6c1f7)" d="M 229.392521 51.552 
L 240.480521 51.552 
L 240.480521 62.64 
L 229.392521 62.64 
L 229.392521 51.552 
" style="fill:#deebf7;stroke:#ffffff;"/>
    <path clip-path="url(#pe5c7a6c1f7)" d="M 240.480521 51.552 
L 251.568521 51.552 
L 251.568521 62.64 
L 240.480521 62.64 
L 240.480521 51.552 
" style="fill:#deebf7;stroke:#ffffff;"/>
    <path clip-path="url(#pe5c7a6c1f7)" d="M 251.568521 51.552 
L 262.656521 51.552 
L 262.656521 62.64 
L 251.568521 62.64 
L 251.568521 51.552 
" style="fill:#deebf7;stroke:#ffffff;"/>
    <path clip-path="url(#pe5c7a6c1f7)" d="M 262.656521 51.552 
L 273.744521 51.552 
L 273.744521 62.64 
L 262.656521 62.64 
L 262.656521 51.552 
" style="fill:#9ecae1;stroke:#ffffff;"/>
    <path clip-path="url(#pe5c7a6c1f7)" d="M 273.744521 51.552 
L 284.832521 51.552 
L 284.832521 62.64 
L 273.744521 62.64 
L 273.744521 51.552 
" style="fill:#9ecae1;stroke:#ffffff;"/>
    <path clip-path="url(#pe5c7a6c1f7)" d="M 284.832521 51.552 
L 295.920521 51.552 
L 295.920521 62.64 
L 284.832521 62.64 
L 284.832521 51.552 
" style="fill:#9ecae1;stroke:#ffffff;"/>
    <path clip-path="url(#pe5c7a6c1f7)" d="M 295.920521 51.552 
L 307.008521 51.552 
L 307.008521 62.64 
L 295.920521 62.64 
L 295.920521 51.552 
" style="fill:#deebf7;stroke:#ffffff;"/>
    <path clip-path="url(#pe5c7a6c1f7)" d="M 307.008521 51.552 
L 318.096521 51.552 
L 318.096521 62.64 
L 307.008521 62.64 
L 307.008521 51.552 
" style="fill:#deebf7;stroke:#ffffff;"/>
    <path clip-path="url(#pe5c7a6c1f7)" d="M 318.096521 51.552 
L 329.184521 51.552 
L 329.184521 62.64 
L 318.096521 62.64 
L 318.096521 51.552 
" style="fill:#9ecae1;stroke:#ffffff;"/>
    <path clip-path="url(#pe5c7a6c1f7)" d="M 329.184521 51.552 
L 340.272521 51.552 
L 340.272521 62.64 
L 329.184521 62.64 
L 329.184521 51.552 
" style="fill:#9ecae1;stroke:#ffffff;"/>
    <path clip-path="url(#pe5c7a6c1f7)" d="M 340.272521 51.552 
L 351.360521 51.552 
L 351.360521 62.64 
L 340.272521 62.64 
L 340.272521 51.552 
" style="fill:#deebf7;stroke:#ffffff;"/>
    <path clip-path="url(#pe5c7a6c1f7)" d="M 351.360521 51.552 
L 362.448521 51.552 
L 362.448521 62.64 
L 351.360521 62.64 
L 351.360521 51.552 
" style="fill:#deebf7;stroke:#ffffff;"/>
   </g>
   <g id="text_35">
    <!-- 0 -->
    <defs>
     <path d="M 43.09375 32.390625 
C 43.09375 38.109375 43 48.75 38.90625 56.984375 
C 34.796875 64.890625 28.203125 67 23.5 67 
C 16.703125 67 10.90625 62.984375 7.90625 56.578125 
C 4.703125 49.859375 3.796875 42.9375 3.796875 32.390625 
C 3.796875 25.171875 4.09375 16.34375 7.703125 8.609375 
C 11.796875 0.09375 18.703125 -2 23.40625 -2 
C 29.59375 -2 35.59375 1.296875 39 8.203125 
C 42.5 15.4375 43.09375 23.359375 43.09375 32.390625 
z
M 23.40625 4.09375 
C 15.796875 4.09375 13.5 12.828125 12.796875 15.734375 
C 11.59375 20.75 11.40625 25.5625 11.40625 33.5 
C 11.40625 39.71875 11.40625 46.75 13.296875 52.265625 
C 15.59375 58.6875 19.59375 60.890625 23.40625 60.890625 
C 30.796875 60.890625 33.203125 53.46875 34 50.859375 
C 35.5 45.546875 35.5 39.3125 35.5 33.5 
C 35.5 24.15625 35.5 4.09375 23.40625 4.09375 
z
" id="CMSS17-48"/>
    </defs>
    <g style="fill:#262626;" transform="translate(55.071084 15.135035)scale(0.096 -0.096)">
     <use transform="scale(0.996264)" xlink:href="#CMSS17-48"/>
    </g>
   </g>
   <g id="text_36">
    <!-- 0 -->
    <g style="fill:#262626;" transform="translate(66.159084 15.135035)scale(0.096 -0.096)">
     <use transform="scale(0.996264)" xlink:href="#CMSS17-48"/>
    </g>
   </g>
   <g id="text_37">
    <!-- 0 -->
    <g style="fill:#262626;" transform="translate(77.247084 15.135035)scale(0.096 -0.096)">
     <use transform="scale(0.996264)" xlink:href="#CMSS17-48"/>
    </g>
   </g>
   <g id="text_38">
    <!-- 0 -->
    <g style="fill:#262626;" transform="translate(88.335084 15.135035)scale(0.096 -0.096)">
     <use transform="scale(0.996264)" xlink:href="#CMSS17-48"/>
    </g>
   </g>
   <g id="text_39">
    <!-- 0 -->
    <g style="fill:#262626;" transform="translate(99.423084 15.135035)scale(0.096 -0.096)">
     <use transform="scale(0.996264)" xlink:href="#CMSS17-48"/>
    </g>
   </g>
   <g id="text_40">
    <!-- 0 -->
    <g style="fill:#262626;" transform="translate(110.511084 15.135035)scale(0.096 -0.096)">
     <use transform="scale(0.996264)" xlink:href="#CMSS17-48"/>
    </g>
   </g>
   <g id="text_41">
    <!-- 0 -->
    <g style="fill:#262626;" transform="translate(121.599084 15.135035)scale(0.096 -0.096)">
     <use transform="scale(0.996264)" xlink:href="#CMSS17-48"/>
    </g>
   </g>
   <g id="text_42">
    <!-- 0 -->
    <g style="fill:#262626;" transform="translate(132.687084 15.135035)scale(0.096 -0.096)">
     <use transform="scale(0.996264)" xlink:href="#CMSS17-48"/>
    </g>
   </g>
   <g id="text_43">
    <!-- 0 -->
    <g style="fill:#262626;" transform="translate(143.775084 15.135035)scale(0.096 -0.096)">
     <use transform="scale(0.996264)" xlink:href="#CMSS17-48"/>
    </g>
   </g>
   <g id="text_44">
    <!-- 0 -->
    <g style="fill:#262626;" transform="translate(154.863084 15.135035)scale(0.096 -0.096)">
     <use transform="scale(0.996264)" xlink:href="#CMSS17-48"/>
    </g>
   </g>
   <g id="text_45">
    <!-- 0 -->
    <g style="fill:#262626;" transform="translate(165.951084 15.135035)scale(0.096 -0.096)">
     <use transform="scale(0.996264)" xlink:href="#CMSS17-48"/>
    </g>
   </g>
   <g id="text_46">
    <!-- 0 -->
    <g style="fill:#262626;" transform="translate(177.039084 15.135035)scale(0.096 -0.096)">
     <use transform="scale(0.996264)" xlink:href="#CMSS17-48"/>
    </g>
   </g>
   <g id="text_47">
    <!-- 0 -->
    <g style="fill:#262626;" transform="translate(188.127084 15.135035)scale(0.096 -0.096)">
     <use transform="scale(0.996264)" xlink:href="#CMSS17-48"/>
    </g>
   </g>
   <g id="text_48">
    <!-- 0 -->
    <g style="fill:#262626;" transform="translate(199.215084 15.135035)scale(0.096 -0.096)">
     <use transform="scale(0.996264)" xlink:href="#CMSS17-48"/>
    </g>
   </g>
   <g id="text_49">
    <!-- 0 -->
    <g style="fill:#262626;" transform="translate(210.303084 15.135035)scale(0.096 -0.096)">
     <use transform="scale(0.996264)" xlink:href="#CMSS17-48"/>
    </g>
   </g>
   <g id="text_50">
    <!-- 0 -->
    <g style="fill:#262626;" transform="translate(221.391084 15.135035)scale(0.096 -0.096)">
     <use transform="scale(0.996264)" xlink:href="#CMSS17-48"/>
    </g>
   </g>
   <g id="text_51">
    <!-- 0 -->
    <g style="fill:#262626;" transform="translate(232.479084 15.135035)scale(0.096 -0.096)">
     <use transform="scale(0.996264)" xlink:href="#CMSS17-48"/>
    </g>
   </g>
   <g id="text_52">
    <!-- 0 -->
    <g style="fill:#262626;" transform="translate(243.567084 15.135035)scale(0.096 -0.096)">
     <use transform="scale(0.996264)" xlink:href="#CMSS17-48"/>
    </g>
   </g>
   <g id="text_53">
    <!-- 0 -->
    <g style="fill:#262626;" transform="translate(254.655084 15.135035)scale(0.096 -0.096)">
     <use transform="scale(0.996264)" xlink:href="#CMSS17-48"/>
    </g>
   </g>
   <g id="text_54">
    <!-- 0 -->
    <g style="fill:#262626;" transform="translate(265.743084 15.135035)scale(0.096 -0.096)">
     <use transform="scale(0.996264)" xlink:href="#CMSS17-48"/>
    </g>
   </g>
   <g id="text_55">
    <!-- 0 -->
    <g style="fill:#262626;" transform="translate(276.831084 15.135035)scale(0.096 -0.096)">
     <use transform="scale(0.996264)" xlink:href="#CMSS17-48"/>
    </g>
   </g>
   <g id="text_56">
    <!-- 0 -->
    <g style="fill:#262626;" transform="translate(287.919084 15.135035)scale(0.096 -0.096)">
     <use transform="scale(0.996264)" xlink:href="#CMSS17-48"/>
    </g>
   </g>
   <g id="text_57">
    <!-- 0 -->
    <g style="fill:#262626;" transform="translate(299.007084 15.135035)scale(0.096 -0.096)">
     <use transform="scale(0.996264)" xlink:href="#CMSS17-48"/>
    </g>
   </g>
   <g id="text_58">
    <!-- 0 -->
    <g style="fill:#262626;" transform="translate(310.095084 15.135035)scale(0.096 -0.096)">
     <use transform="scale(0.996264)" xlink:href="#CMSS17-48"/>
    </g>
   </g>
   <g id="text_59">
    <!-- 0 -->
    <g style="fill:#262626;" transform="translate(321.183084 15.135035)scale(0.096 -0.096)">
     <use transform="scale(0.996264)" xlink:href="#CMSS17-48"/>
    </g>
   </g>
   <g id="text_60">
    <!-- 0 -->
    <g style="fill:#262626;" transform="translate(332.271084 15.135035)scale(0.096 -0.096)">
     <use transform="scale(0.996264)" xlink:href="#CMSS17-48"/>
    </g>
   </g>
   <g id="text_61">
    <!-- 0 -->
    <g style="fill:#262626;" transform="translate(343.359084 15.135035)scale(0.096 -0.096)">
     <use transform="scale(0.996264)" xlink:href="#CMSS17-48"/>
    </g>
   </g>
   <g id="text_62">
    <!-- 0 -->
    <g style="fill:#262626;" transform="translate(354.447084 15.135035)scale(0.096 -0.096)">
     <use transform="scale(0.996264)" xlink:href="#CMSS17-48"/>
    </g>
   </g>
   <g id="text_63">
    <!-- 0 -->
    <g style="fill:#262626;" transform="translate(55.071084 26.223035)scale(0.096 -0.096)">
     <use transform="scale(0.996264)" xlink:href="#CMSS17-48"/>
    </g>
   </g>
   <g id="text_64">
    <!-- 0 -->
    <g style="fill:#262626;" transform="translate(66.159084 26.223035)scale(0.096 -0.096)">
     <use transform="scale(0.996264)" xlink:href="#CMSS17-48"/>
    </g>
   </g>
   <g id="text_65">
    <!-- 0 -->
    <g style="fill:#262626;" transform="translate(77.247084 26.223035)scale(0.096 -0.096)">
     <use transform="scale(0.996264)" xlink:href="#CMSS17-48"/>
    </g>
   </g>
   <g id="text_66">
    <!-- 0 -->
    <g style="fill:#262626;" transform="translate(88.335084 26.223035)scale(0.096 -0.096)">
     <use transform="scale(0.996264)" xlink:href="#CMSS17-48"/>
    </g>
   </g>
   <g id="text_67">
    <!-- 0 -->
    <g style="fill:#262626;" transform="translate(99.423084 26.223035)scale(0.096 -0.096)">
     <use transform="scale(0.996264)" xlink:href="#CMSS17-48"/>
    </g>
   </g>
   <g id="text_68">
    <!-- 1 -->
    <defs>
     <path d="M 28.40625 67 
L 26.5 67 
C 21.09375 61.703125 14.796875 60.96875 8.40625 60.796875 
L 8.40625 55 
C 11.296875 55.09375 16 55.296875 20.703125 57.390625 
L 20.703125 5.796875 
L 8.90625 5.796875 
L 8.90625 0 
L 40.203125 0 
L 40.203125 5.796875 
L 28.40625 5.796875 
z
" id="CMSS17-49"/>
    </defs>
    <g style="fill:#262626;" transform="translate(110.511084 26.223035)scale(0.096 -0.096)">
     <use transform="scale(0.996264)" xlink:href="#CMSS17-49"/>
    </g>
   </g>
   <g id="text_69">
    <!-- 0 -->
    <g style="fill:#262626;" transform="translate(121.599084 26.223035)scale(0.096 -0.096)">
     <use transform="scale(0.996264)" xlink:href="#CMSS17-48"/>
    </g>
   </g>
   <g id="text_70">
    <!-- 0 -->
    <g style="fill:#262626;" transform="translate(132.687084 26.223035)scale(0.096 -0.096)">
     <use transform="scale(0.996264)" xlink:href="#CMSS17-48"/>
    </g>
   </g>
   <g id="text_71">
    <!-- 0 -->
    <g style="fill:#262626;" transform="translate(143.775084 26.223035)scale(0.096 -0.096)">
     <use transform="scale(0.996264)" xlink:href="#CMSS17-48"/>
    </g>
   </g>
   <g id="text_72">
    <!-- 0 -->
    <g style="fill:#262626;" transform="translate(154.863084 26.223035)scale(0.096 -0.096)">
     <use transform="scale(0.996264)" xlink:href="#CMSS17-48"/>
    </g>
   </g>
   <g id="text_73">
    <!-- 0 -->
    <g style="fill:#262626;" transform="translate(165.951084 26.223035)scale(0.096 -0.096)">
     <use transform="scale(0.996264)" xlink:href="#CMSS17-48"/>
    </g>
   </g>
   <g id="text_74">
    <!-- 0 -->
    <g style="fill:#262626;" transform="translate(177.039084 26.223035)scale(0.096 -0.096)">
     <use transform="scale(0.996264)" xlink:href="#CMSS17-48"/>
    </g>
   </g>
   <g id="text_75">
    <!-- 0 -->
    <g style="fill:#262626;" transform="translate(188.127084 26.223035)scale(0.096 -0.096)">
     <use transform="scale(0.996264)" xlink:href="#CMSS17-48"/>
    </g>
   </g>
   <g id="text_76">
    <!-- 1 -->
    <g style="fill:#262626;" transform="translate(199.215084 26.223035)scale(0.096 -0.096)">
     <use transform="scale(0.996264)" xlink:href="#CMSS17-49"/>
    </g>
   </g>
   <g id="text_77">
    <!-- 0 -->
    <g style="fill:#262626;" transform="translate(210.303084 26.223035)scale(0.096 -0.096)">
     <use transform="scale(0.996264)" xlink:href="#CMSS17-48"/>
    </g>
   </g>
   <g id="text_78">
    <!-- 0 -->
    <g style="fill:#262626;" transform="translate(221.391084 26.223035)scale(0.096 -0.096)">
     <use transform="scale(0.996264)" xlink:href="#CMSS17-48"/>
    </g>
   </g>
   <g id="text_79">
    <!-- 0 -->
    <g style="fill:#262626;" transform="translate(232.479084 26.223035)scale(0.096 -0.096)">
     <use transform="scale(0.996264)" xlink:href="#CMSS17-48"/>
    </g>
   </g>
   <g id="text_80">
    <!-- 0 -->
    <g style="fill:#262626;" transform="translate(243.567084 26.223035)scale(0.096 -0.096)">
     <use transform="scale(0.996264)" xlink:href="#CMSS17-48"/>
    </g>
   </g>
   <g id="text_81">
    <!-- 0 -->
    <g style="fill:#262626;" transform="translate(254.655084 26.223035)scale(0.096 -0.096)">
     <use transform="scale(0.996264)" xlink:href="#CMSS17-48"/>
    </g>
   </g>
   <g id="text_82">
    <!-- 0 -->
    <g style="fill:#262626;" transform="translate(265.743084 26.223035)scale(0.096 -0.096)">
     <use transform="scale(0.996264)" xlink:href="#CMSS17-48"/>
    </g>
   </g>
   <g id="text_83">
    <!-- 1 -->
    <g style="fill:#262626;" transform="translate(276.831084 26.223035)scale(0.096 -0.096)">
     <use transform="scale(0.996264)" xlink:href="#CMSS17-49"/>
    </g>
   </g>
   <g id="text_84">
    <!-- 0 -->
    <g style="fill:#262626;" transform="translate(287.919084 26.223035)scale(0.096 -0.096)">
     <use transform="scale(0.996264)" xlink:href="#CMSS17-48"/>
    </g>
   </g>
   <g id="text_85">
    <!-- 0 -->
    <g style="fill:#262626;" transform="translate(299.007084 26.223035)scale(0.096 -0.096)">
     <use transform="scale(0.996264)" xlink:href="#CMSS17-48"/>
    </g>
   </g>
   <g id="text_86">
    <!-- 0 -->
    <g style="fill:#262626;" transform="translate(310.095084 26.223035)scale(0.096 -0.096)">
     <use transform="scale(0.996264)" xlink:href="#CMSS17-48"/>
    </g>
   </g>
   <g id="text_87">
    <!-- 0 -->
    <g style="fill:#262626;" transform="translate(321.183084 26.223035)scale(0.096 -0.096)">
     <use transform="scale(0.996264)" xlink:href="#CMSS17-48"/>
    </g>
   </g>
   <g id="text_88">
    <!-- 0 -->
    <g style="fill:#262626;" transform="translate(332.271084 26.223035)scale(0.096 -0.096)">
     <use transform="scale(0.996264)" xlink:href="#CMSS17-48"/>
    </g>
   </g>
   <g id="text_89">
    <!-- 1 -->
    <g style="fill:#262626;" transform="translate(343.359084 26.223035)scale(0.096 -0.096)">
     <use transform="scale(0.996264)" xlink:href="#CMSS17-49"/>
    </g>
   </g>
   <g id="text_90">
    <!-- 0 -->
    <g style="fill:#262626;" transform="translate(354.447084 26.223035)scale(0.096 -0.096)">
     <use transform="scale(0.996264)" xlink:href="#CMSS17-48"/>
    </g>
   </g>
   <g id="text_91">
    <!-- 1 -->
    <g style="fill:#262626;" transform="translate(55.071084 37.311035)scale(0.096 -0.096)">
     <use transform="scale(0.996264)" xlink:href="#CMSS17-49"/>
    </g>
   </g>
   <g id="text_92">
    <!-- 0 -->
    <g style="fill:#262626;" transform="translate(66.159084 37.311035)scale(0.096 -0.096)">
     <use transform="scale(0.996264)" xlink:href="#CMSS17-48"/>
    </g>
   </g>
   <g id="text_93">
    <!-- 1 -->
    <g style="fill:#262626;" transform="translate(77.247084 37.311035)scale(0.096 -0.096)">
     <use transform="scale(0.996264)" xlink:href="#CMSS17-49"/>
    </g>
   </g>
   <g id="text_94">
    <!-- 1 -->
    <g style="fill:#262626;" transform="translate(88.335084 37.311035)scale(0.096 -0.096)">
     <use transform="scale(0.996264)" xlink:href="#CMSS17-49"/>
    </g>
   </g>
   <g id="text_95">
    <!-- 0 -->
    <g style="fill:#262626;" transform="translate(99.423084 37.311035)scale(0.096 -0.096)">
     <use transform="scale(0.996264)" xlink:href="#CMSS17-48"/>
    </g>
   </g>
   <g id="text_96">
    <!-- 0 -->
    <g style="fill:#262626;" transform="translate(110.511084 37.311035)scale(0.096 -0.096)">
     <use transform="scale(0.996264)" xlink:href="#CMSS17-48"/>
    </g>
   </g>
   <g id="text_97">
    <!-- 0 -->
    <g style="fill:#262626;" transform="translate(121.599084 37.311035)scale(0.096 -0.096)">
     <use transform="scale(0.996264)" xlink:href="#CMSS17-48"/>
    </g>
   </g>
   <g id="text_98">
    <!-- 1 -->
    <g style="fill:#262626;" transform="translate(132.687084 37.311035)scale(0.096 -0.096)">
     <use transform="scale(0.996264)" xlink:href="#CMSS17-49"/>
    </g>
   </g>
   <g id="text_99">
    <!-- 0 -->
    <g style="fill:#262626;" transform="translate(143.775084 37.311035)scale(0.096 -0.096)">
     <use transform="scale(0.996264)" xlink:href="#CMSS17-48"/>
    </g>
   </g>
   <g id="text_100">
    <!-- 0 -->
    <g style="fill:#262626;" transform="translate(154.863084 37.311035)scale(0.096 -0.096)">
     <use transform="scale(0.996264)" xlink:href="#CMSS17-48"/>
    </g>
   </g>
   <g id="text_101">
    <!-- 1 -->
    <g style="fill:#262626;" transform="translate(165.951084 37.311035)scale(0.096 -0.096)">
     <use transform="scale(0.996264)" xlink:href="#CMSS17-49"/>
    </g>
   </g>
   <g id="text_102">
    <!-- 1 -->
    <g style="fill:#262626;" transform="translate(177.039084 37.311035)scale(0.096 -0.096)">
     <use transform="scale(0.996264)" xlink:href="#CMSS17-49"/>
    </g>
   </g>
   <g id="text_103">
    <!-- 0 -->
    <g style="fill:#262626;" transform="translate(188.127084 37.311035)scale(0.096 -0.096)">
     <use transform="scale(0.996264)" xlink:href="#CMSS17-48"/>
    </g>
   </g>
   <g id="text_104">
    <!-- 0 -->
    <g style="fill:#262626;" transform="translate(199.215084 37.311035)scale(0.096 -0.096)">
     <use transform="scale(0.996264)" xlink:href="#CMSS17-48"/>
    </g>
   </g>
   <g id="text_105">
    <!-- 1 -->
    <g style="fill:#262626;" transform="translate(210.303084 37.311035)scale(0.096 -0.096)">
     <use transform="scale(0.996264)" xlink:href="#CMSS17-49"/>
    </g>
   </g>
   <g id="text_106">
    <!-- 0 -->
    <g style="fill:#262626;" transform="translate(221.391084 37.311035)scale(0.096 -0.096)">
     <use transform="scale(0.996264)" xlink:href="#CMSS17-48"/>
    </g>
   </g>
   <g id="text_107">
    <!-- 0 -->
    <g style="fill:#262626;" transform="translate(232.479084 37.311035)scale(0.096 -0.096)">
     <use transform="scale(0.996264)" xlink:href="#CMSS17-48"/>
    </g>
   </g>
   <g id="text_108">
    <!-- 1 -->
    <g style="fill:#262626;" transform="translate(243.567084 37.311035)scale(0.096 -0.096)">
     <use transform="scale(0.996264)" xlink:href="#CMSS17-49"/>
    </g>
   </g>
   <g id="text_109">
    <!-- 0 -->
    <g style="fill:#262626;" transform="translate(254.655084 37.311035)scale(0.096 -0.096)">
     <use transform="scale(0.996264)" xlink:href="#CMSS17-48"/>
    </g>
   </g>
   <g id="text_110">
    <!-- 0 -->
    <g style="fill:#262626;" transform="translate(265.743084 37.311035)scale(0.096 -0.096)">
     <use transform="scale(0.996264)" xlink:href="#CMSS17-48"/>
    </g>
   </g>
   <g id="text_111">
    <!-- 0 -->
    <g style="fill:#262626;" transform="translate(276.831084 37.311035)scale(0.096 -0.096)">
     <use transform="scale(0.996264)" xlink:href="#CMSS17-48"/>
    </g>
   </g>
   <g id="text_112">
    <!-- 1 -->
    <g style="fill:#262626;" transform="translate(287.919084 37.311035)scale(0.096 -0.096)">
     <use transform="scale(0.996264)" xlink:href="#CMSS17-49"/>
    </g>
   </g>
   <g id="text_113">
    <!-- 0 -->
    <g style="fill:#262626;" transform="translate(299.007084 37.311035)scale(0.096 -0.096)">
     <use transform="scale(0.996264)" xlink:href="#CMSS17-48"/>
    </g>
   </g>
   <g id="text_114">
    <!-- 0 -->
    <g style="fill:#262626;" transform="translate(310.095084 37.311035)scale(0.096 -0.096)">
     <use transform="scale(0.996264)" xlink:href="#CMSS17-48"/>
    </g>
   </g>
   <g id="text_115">
    <!-- 1 -->
    <g style="fill:#262626;" transform="translate(321.183084 37.311035)scale(0.096 -0.096)">
     <use transform="scale(0.996264)" xlink:href="#CMSS17-49"/>
    </g>
   </g>
   <g id="text_116">
    <!-- 0 -->
    <g style="fill:#262626;" transform="translate(332.271084 37.311035)scale(0.096 -0.096)">
     <use transform="scale(0.996264)" xlink:href="#CMSS17-48"/>
    </g>
   </g>
   <g id="text_117">
    <!-- 0 -->
    <g style="fill:#262626;" transform="translate(343.359084 37.311035)scale(0.096 -0.096)">
     <use transform="scale(0.996264)" xlink:href="#CMSS17-48"/>
    </g>
   </g>
   <g id="text_118">
    <!-- 0 -->
    <g style="fill:#262626;" transform="translate(354.447084 37.311035)scale(0.096 -0.096)">
     <use transform="scale(0.996264)" xlink:href="#CMSS17-48"/>
    </g>
   </g>
   <g id="text_119">
    <!-- 1 -->
    <g style="fill:#262626;" transform="translate(55.071084 48.399035)scale(0.096 -0.096)">
     <use transform="scale(0.996264)" xlink:href="#CMSS17-49"/>
    </g>
   </g>
   <g id="text_120">
    <!-- 0 -->
    <g style="fill:#262626;" transform="translate(66.159084 48.399035)scale(0.096 -0.096)">
     <use transform="scale(0.996264)" xlink:href="#CMSS17-48"/>
    </g>
   </g>
   <g id="text_121">
    <!-- 0 -->
    <g style="fill:#262626;" transform="translate(77.247084 48.399035)scale(0.096 -0.096)">
     <use transform="scale(0.996264)" xlink:href="#CMSS17-48"/>
    </g>
   </g>
   <g id="text_122">
    <!-- 1 -->
    <g style="fill:#262626;" transform="translate(88.335084 48.399035)scale(0.096 -0.096)">
     <use transform="scale(0.996264)" xlink:href="#CMSS17-49"/>
    </g>
   </g>
   <g id="text_123">
    <!-- 0 -->
    <g style="fill:#262626;" transform="translate(99.423084 48.399035)scale(0.096 -0.096)">
     <use transform="scale(0.996264)" xlink:href="#CMSS17-48"/>
    </g>
   </g>
   <g id="text_124">
    <!-- 0 -->
    <g style="fill:#262626;" transform="translate(110.511084 48.399035)scale(0.096 -0.096)">
     <use transform="scale(0.996264)" xlink:href="#CMSS17-48"/>
    </g>
   </g>
   <g id="text_125">
    <!-- 0 -->
    <g style="fill:#262626;" transform="translate(121.599084 48.399035)scale(0.096 -0.096)">
     <use transform="scale(0.996264)" xlink:href="#CMSS17-48"/>
    </g>
   </g>
   <g id="text_126">
    <!-- 1 -->
    <g style="fill:#262626;" transform="translate(132.687084 48.399035)scale(0.096 -0.096)">
     <use transform="scale(0.996264)" xlink:href="#CMSS17-49"/>
    </g>
   </g>
   <g id="text_127">
    <!-- 0 -->
    <g style="fill:#262626;" transform="translate(143.775084 48.399035)scale(0.096 -0.096)">
     <use transform="scale(0.996264)" xlink:href="#CMSS17-48"/>
    </g>
   </g>
   <g id="text_128">
    <!-- 0 -->
    <g style="fill:#262626;" transform="translate(154.863084 48.399035)scale(0.096 -0.096)">
     <use transform="scale(0.996264)" xlink:href="#CMSS17-48"/>
    </g>
   </g>
   <g id="text_129">
    <!-- 1 -->
    <g style="fill:#262626;" transform="translate(165.951084 48.399035)scale(0.096 -0.096)">
     <use transform="scale(0.996264)" xlink:href="#CMSS17-49"/>
    </g>
   </g>
   <g id="text_130">
    <!-- 0 -->
    <g style="fill:#262626;" transform="translate(177.039084 48.399035)scale(0.096 -0.096)">
     <use transform="scale(0.996264)" xlink:href="#CMSS17-48"/>
    </g>
   </g>
   <g id="text_131">
    <!-- 0 -->
    <g style="fill:#262626;" transform="translate(188.127084 48.399035)scale(0.096 -0.096)">
     <use transform="scale(0.996264)" xlink:href="#CMSS17-48"/>
    </g>
   </g>
   <g id="text_132">
    <!-- 0 -->
    <g style="fill:#262626;" transform="translate(199.215084 48.399035)scale(0.096 -0.096)">
     <use transform="scale(0.996264)" xlink:href="#CMSS17-48"/>
    </g>
   </g>
   <g id="text_133">
    <!-- 1 -->
    <g style="fill:#262626;" transform="translate(210.303084 48.399035)scale(0.096 -0.096)">
     <use transform="scale(0.996264)" xlink:href="#CMSS17-49"/>
    </g>
   </g>
   <g id="text_134">
    <!-- 0 -->
    <g style="fill:#262626;" transform="translate(221.391084 48.399035)scale(0.096 -0.096)">
     <use transform="scale(0.996264)" xlink:href="#CMSS17-48"/>
    </g>
   </g>
   <g id="text_135">
    <!-- 0 -->
    <g style="fill:#262626;" transform="translate(232.479084 48.399035)scale(0.096 -0.096)">
     <use transform="scale(0.996264)" xlink:href="#CMSS17-48"/>
    </g>
   </g>
   <g id="text_136">
    <!-- 1 -->
    <g style="fill:#262626;" transform="translate(243.567084 48.399035)scale(0.096 -0.096)">
     <use transform="scale(0.996264)" xlink:href="#CMSS17-49"/>
    </g>
   </g>
   <g id="text_137">
    <!-- 0 -->
    <g style="fill:#262626;" transform="translate(254.655084 48.399035)scale(0.096 -0.096)">
     <use transform="scale(0.996264)" xlink:href="#CMSS17-48"/>
    </g>
   </g>
   <g id="text_138">
    <!-- 0 -->
    <g style="fill:#262626;" transform="translate(265.743084 48.399035)scale(0.096 -0.096)">
     <use transform="scale(0.996264)" xlink:href="#CMSS17-48"/>
    </g>
   </g>
   <g id="text_139">
    <!-- 0 -->
    <g style="fill:#262626;" transform="translate(276.831084 48.399035)scale(0.096 -0.096)">
     <use transform="scale(0.996264)" xlink:href="#CMSS17-48"/>
    </g>
   </g>
   <g id="text_140">
    <!-- 1 -->
    <g style="fill:#262626;" transform="translate(287.919084 48.399035)scale(0.096 -0.096)">
     <use transform="scale(0.996264)" xlink:href="#CMSS17-49"/>
    </g>
   </g>
   <g id="text_141">
    <!-- 0 -->
    <g style="fill:#262626;" transform="translate(299.007084 48.399035)scale(0.096 -0.096)">
     <use transform="scale(0.996264)" xlink:href="#CMSS17-48"/>
    </g>
   </g>
   <g id="text_142">
    <!-- 1 -->
    <g style="fill:#262626;" transform="translate(310.095084 48.399035)scale(0.096 -0.096)">
     <use transform="scale(0.996264)" xlink:href="#CMSS17-49"/>
    </g>
   </g>
   <g id="text_143">
    <!-- 1 -->
    <g style="fill:#262626;" transform="translate(321.183084 48.399035)scale(0.096 -0.096)">
     <use transform="scale(0.996264)" xlink:href="#CMSS17-49"/>
    </g>
   </g>
   <g id="text_144">
    <!-- 1 -->
    <g style="fill:#262626;" transform="translate(332.271084 48.399035)scale(0.096 -0.096)">
     <use transform="scale(0.996264)" xlink:href="#CMSS17-49"/>
    </g>
   </g>
   <g id="text_145">
    <!-- 0 -->
    <g style="fill:#262626;" transform="translate(343.359084 48.399035)scale(0.096 -0.096)">
     <use transform="scale(0.996264)" xlink:href="#CMSS17-48"/>
    </g>
   </g>
   <g id="text_146">
    <!-- 0 -->
    <g style="fill:#262626;" transform="translate(354.447084 48.399035)scale(0.096 -0.096)">
     <use transform="scale(0.996264)" xlink:href="#CMSS17-48"/>
    </g>
   </g>
   <g id="text_147">
    <!-- 0 -->
    <g style="fill:#262626;" transform="translate(55.071084 59.487035)scale(0.096 -0.096)">
     <use transform="scale(0.996264)" xlink:href="#CMSS17-48"/>
    </g>
   </g>
   <g id="text_148">
    <!-- 0 -->
    <g style="fill:#262626;" transform="translate(66.159084 59.487035)scale(0.096 -0.096)">
     <use transform="scale(0.996264)" xlink:href="#CMSS17-48"/>
    </g>
   </g>
   <g id="text_149">
    <!-- 0 -->
    <g style="fill:#262626;" transform="translate(77.247084 59.487035)scale(0.096 -0.096)">
     <use transform="scale(0.996264)" xlink:href="#CMSS17-48"/>
    </g>
   </g>
   <g id="text_150">
    <!-- 0 -->
    <g style="fill:#262626;" transform="translate(88.335084 59.487035)scale(0.096 -0.096)">
     <use transform="scale(0.996264)" xlink:href="#CMSS17-48"/>
    </g>
   </g>
   <g id="text_151">
    <!-- 0 -->
    <g style="fill:#262626;" transform="translate(99.423084 59.487035)scale(0.096 -0.096)">
     <use transform="scale(0.996264)" xlink:href="#CMSS17-48"/>
    </g>
   </g>
   <g id="text_152">
    <!-- 1 -->
    <g style="fill:#262626;" transform="translate(110.511084 59.487035)scale(0.096 -0.096)">
     <use transform="scale(0.996264)" xlink:href="#CMSS17-49"/>
    </g>
   </g>
   <g id="text_153">
    <!-- 1 -->
    <g style="fill:#262626;" transform="translate(121.599084 59.487035)scale(0.096 -0.096)">
     <use transform="scale(0.996264)" xlink:href="#CMSS17-49"/>
    </g>
   </g>
   <g id="text_154">
    <!-- 0 -->
    <g style="fill:#262626;" transform="translate(132.687084 59.487035)scale(0.096 -0.096)">
     <use transform="scale(0.996264)" xlink:href="#CMSS17-48"/>
    </g>
   </g>
   <g id="text_155">
    <!-- 0 -->
    <g style="fill:#262626;" transform="translate(143.775084 59.487035)scale(0.096 -0.096)">
     <use transform="scale(0.996264)" xlink:href="#CMSS17-48"/>
    </g>
   </g>
   <g id="text_156">
    <!-- 0 -->
    <g style="fill:#262626;" transform="translate(154.863084 59.487035)scale(0.096 -0.096)">
     <use transform="scale(0.996264)" xlink:href="#CMSS17-48"/>
    </g>
   </g>
   <g id="text_157">
    <!-- 0 -->
    <g style="fill:#262626;" transform="translate(165.951084 59.487035)scale(0.096 -0.096)">
     <use transform="scale(0.996264)" xlink:href="#CMSS17-48"/>
    </g>
   </g>
   <g id="text_158">
    <!-- 0 -->
    <g style="fill:#262626;" transform="translate(177.039084 59.487035)scale(0.096 -0.096)">
     <use transform="scale(0.996264)" xlink:href="#CMSS17-48"/>
    </g>
   </g>
   <g id="text_159">
    <!-- 1 -->
    <g style="fill:#262626;" transform="translate(188.127084 59.487035)scale(0.096 -0.096)">
     <use transform="scale(0.996264)" xlink:href="#CMSS17-49"/>
    </g>
   </g>
   <g id="text_160">
    <!-- 1 -->
    <g style="fill:#262626;" transform="translate(199.215084 59.487035)scale(0.096 -0.096)">
     <use transform="scale(0.996264)" xlink:href="#CMSS17-49"/>
    </g>
   </g>
   <g id="text_161">
    <!-- 0 -->
    <g style="fill:#262626;" transform="translate(210.303084 59.487035)scale(0.096 -0.096)">
     <use transform="scale(0.996264)" xlink:href="#CMSS17-48"/>
    </g>
   </g>
   <g id="text_162">
    <!-- 0 -->
    <g style="fill:#262626;" transform="translate(221.391084 59.487035)scale(0.096 -0.096)">
     <use transform="scale(0.996264)" xlink:href="#CMSS17-48"/>
    </g>
   </g>
   <g id="text_163">
    <!-- 0 -->
    <g style="fill:#262626;" transform="translate(232.479084 59.487035)scale(0.096 -0.096)">
     <use transform="scale(0.996264)" xlink:href="#CMSS17-48"/>
    </g>
   </g>
   <g id="text_164">
    <!-- 0 -->
    <g style="fill:#262626;" transform="translate(243.567084 59.487035)scale(0.096 -0.096)">
     <use transform="scale(0.996264)" xlink:href="#CMSS17-48"/>
    </g>
   </g>
   <g id="text_165">
    <!-- 0 -->
    <g style="fill:#262626;" transform="translate(254.655084 59.487035)scale(0.096 -0.096)">
     <use transform="scale(0.996264)" xlink:href="#CMSS17-48"/>
    </g>
   </g>
   <g id="text_166">
    <!-- 1 -->
    <g style="fill:#262626;" transform="translate(265.743084 59.487035)scale(0.096 -0.096)">
     <use transform="scale(0.996264)" xlink:href="#CMSS17-49"/>
    </g>
   </g>
   <g id="text_167">
    <!-- 1 -->
    <g style="fill:#262626;" transform="translate(276.831084 59.487035)scale(0.096 -0.096)">
     <use transform="scale(0.996264)" xlink:href="#CMSS17-49"/>
    </g>
   </g>
   <g id="text_168">
    <!-- 1 -->
    <g style="fill:#262626;" transform="translate(287.919084 59.487035)scale(0.096 -0.096)">
     <use transform="scale(0.996264)" xlink:href="#CMSS17-49"/>
    </g>
   </g>
   <g id="text_169">
    <!-- 0 -->
    <g style="fill:#262626;" transform="translate(299.007084 59.487035)scale(0.096 -0.096)">
     <use transform="scale(0.996264)" xlink:href="#CMSS17-48"/>
    </g>
   </g>
   <g id="text_170">
    <!-- 0 -->
    <g style="fill:#262626;" transform="translate(310.095084 59.487035)scale(0.096 -0.096)">
     <use transform="scale(0.996264)" xlink:href="#CMSS17-48"/>
    </g>
   </g>
   <g id="text_171">
    <!-- 1 -->
    <g style="fill:#262626;" transform="translate(321.183084 59.487035)scale(0.096 -0.096)">
     <use transform="scale(0.996264)" xlink:href="#CMSS17-49"/>
    </g>
   </g>
   <g id="text_172">
    <!-- 1 -->
    <g style="fill:#262626;" transform="translate(332.271084 59.487035)scale(0.096 -0.096)">
     <use transform="scale(0.996264)" xlink:href="#CMSS17-49"/>
    </g>
   </g>
   <g id="text_173">
    <!-- 0 -->
    <g style="fill:#262626;" transform="translate(343.359084 59.487035)scale(0.096 -0.096)">
     <use transform="scale(0.996264)" xlink:href="#CMSS17-48"/>
    </g>
   </g>
   <g id="text_174">
    <!-- 0 -->
    <g style="fill:#262626;" transform="translate(354.447084 59.487035)scale(0.096 -0.096)">
     <use transform="scale(0.996264)" xlink:href="#CMSS17-48"/>
    </g>
   </g>
  </g>
 </g>
 <defs>
  <clipPath id="pe5c7a6c1f7">
   <rect height="55.44" width="310.464" x="51.984521" y="7.2"/>
  </clipPath>
 </defs>
</svg>
