<?xml version="1.0" encoding="utf-8" standalone="no"?>
<!DOCTYPE svg PUBLIC "-//W3C//DTD SVG 1.1//EN"
  "http://www.w3.org/Graphics/SVG/1.1/DTD/svg11.dtd">
<!-- Created with matplotlib (https://matplotlib.org/) -->
<svg height="99.954011pt" version="1.1" viewBox="0 0 369.648521 99.954011" width="369.648521pt" xmlns="http://www.w3.org/2000/svg" xmlns:xlink="http://www.w3.org/1999/xlink">
 <defs>
  <style type="text/css">
*{stroke-linecap:butt;stroke-linejoin:round;}
  </style>
 </defs>
 <g id="figure_1">
  <g id="patch_1">
   <path d="M -0 99.954011 
L 369.648521 99.954011 
L 369.648521 0 
L -0 0 
z
" style="fill:#ffffff;"/>
  </g>
  <g id="axes_1">
   <g id="patch_2">
    <path d="M 51.984521 62.64 
L 362.448521 62.64 
L 362.448521 7.2 
L 51.984521 7.2 
z
" style="fill:#ffffff;"/>
   </g>
   <g id="matplotlib.axis_1">
    <g id="xtick_1">
     <g id="line2d_1">
      <defs>
       <path d="M 0 0 
L 0 4.8 
" id="m211f8e4547" style="stroke:#262626;"/>
      </defs>
      <g>
       <use style="fill:#262626;stroke:#262626;" x="57.528521" xlink:href="#m211f8e4547" y="62.64"/>
      </g>
     </g>
     <g id="text_1">
      <!-- $x^{1}_{1}$ -->
      <defs>
       <path d="M 47.40625 40.71875 
C 44.203125 40.109375 43 37.71875 43 35.828125 
C 43 33.421875 44.90625 32.625 46.296875 32.625 
C 49.296875 32.625 51.40625 35.21875 51.40625 37.921875 
C 51.40625 42.109375 46.59375 44 42.40625 44 
C 36.296875 44 32.90625 38.015625 32 36.125 
C 29.703125 44 23.5 44 21.703125 44 
C 11.5 44 6.09375 30.9375 6.09375 28.734375 
C 6.09375 28.34375 6.5 27.84375 7.203125 27.84375 
C 8 27.84375 8.203125 28.4375 8.40625 28.84375 
C 11.796875 39.921875 18.5 42.015625 21.40625 42.015625 
C 25.90625 42.015625 26.796875 37.8125 26.796875 35.421875 
C 26.796875 33.234375 26.203125 30.9375 25 26.140625 
L 21.59375 12.46875 
C 20.09375 6.484375 17.203125 1 11.90625 1 
C 11.40625 1 8.90625 1 6.796875 2.296875 
C 10.40625 3 11.203125 5.984375 11.203125 7.1875 
C 11.203125 9.1875 9.703125 10.375 7.796875 10.375 
C 5.40625 10.375 2.796875 8.28125 2.796875 5.09375 
C 2.796875 0.890625 7.5 -1 11.796875 -1 
C 16.59375 -1 20 2.796875 22.09375 6.890625 
C 23.703125 1 28.703125 -1 32.40625 -1 
C 42.59375 -1 48 12.078125 48 14.265625 
C 48 14.765625 47.59375 15.171875 47 15.171875 
C 46.09375 15.171875 46 14.671875 45.703125 13.875 
C 43 5.09375 37.203125 1 32.703125 1 
C 29.203125 1 27.296875 3.59375 27.296875 7.6875 
C 27.296875 9.875 27.703125 11.46875 29.296875 18.0625 
L 32.796875 31.625 
C 34.296875 37.625 37.703125 42.015625 42.296875 42.015625 
C 42.5 42.015625 45.296875 42.015625 47.40625 40.71875 
z
" id="CMMI12-120"/>
       <path d="M 26.59375 63.40625 
C 26.59375 65.5 26.5 65.5 25.09375 65.5 
C 21.203125 61.1875 15.296875 59.796875 9.703125 59.796875 
C 9.40625 59.796875 8.90625 59.796875 8.796875 59.5 
C 8.703125 59.296875 8.703125 59.09375 8.703125 57 
C 11.796875 57 17 57.59375 21 59.984375 
L 21 7.203125 
C 21 3.6875 20.796875 2.5 12.203125 2.5 
L 9.203125 2.5 
L 9.203125 0 
C 14 0 19 0 23.796875 0 
C 28.59375 0 33.59375 0 38.40625 0 
L 38.40625 2.5 
L 35.40625 2.5 
C 26.796875 2.5 26.59375 3.59375 26.59375 7.15625 
z
" id="CMR17-49"/>
      </defs>
      <g style="fill:#262626;" transform="translate(53.031575 78.547838)scale(0.088 -0.088)">
       <use transform="translate(0 24.740171)scale(0.996264)" xlink:href="#CMMI12-120"/>
       <use transform="translate(55.43406 60.89381)scale(0.697382)" xlink:href="#CMR17-49"/>
       <use transform="translate(55.43406 0)scale(0.697382)" xlink:href="#CMR17-49"/>
      </g>
     </g>
    </g>
    <g id="xtick_2">
     <g id="line2d_2">
      <g>
       <use style="fill:#262626;stroke:#262626;" x="68.616521" xlink:href="#m211f8e4547" y="62.64"/>
      </g>
     </g>
     <g id="text_2">
      <!-- $x^{2}_{1}$ -->
      <defs>
       <path d="M 41.703125 15.453125 
L 39.90625 15.453125 
C 38.90625 8.375 38.09375 7.171875 37.703125 6.5625 
C 37.203125 5.765625 30 5.765625 28.59375 5.765625 
L 9.40625 5.765625 
C 13 9.671875 20 16.75 28.5 24.953125 
C 34.59375 30.734375 41.703125 37.53125 41.703125 47.421875 
C 41.703125 59.21875 32.296875 66 21.796875 66 
C 10.796875 66 4.09375 56.3125 4.09375 47.34375 
C 4.09375 43.4375 7 42.9375 8.203125 42.9375 
C 9.203125 42.9375 12.203125 43.546875 12.203125 47.03125 
C 12.203125 50.109375 9.59375 51 8.203125 51 
C 7.59375 51 7 50.90625 6.59375 50.703125 
C 8.5 59.21875 14.296875 63.40625 20.40625 63.40625 
C 29.09375 63.40625 34.796875 56.515625 34.796875 47.421875 
C 34.796875 38.734375 29.703125 31.25 24 24.75 
L 4.09375 2.28125 
L 4.09375 0 
L 39.296875 0 
z
" id="CMR17-50"/>
      </defs>
      <g style="fill:#262626;" transform="translate(64.119575 78.547838)scale(0.088 -0.088)">
       <use transform="translate(0 24.740171)scale(0.996264)" xlink:href="#CMMI12-120"/>
       <use transform="translate(55.43406 60.89381)scale(0.697382)" xlink:href="#CMR17-50"/>
       <use transform="translate(55.43406 0)scale(0.697382)" xlink:href="#CMR17-49"/>
      </g>
     </g>
    </g>
    <g id="xtick_3">
     <g id="line2d_3">
      <g>
       <use style="fill:#262626;stroke:#262626;" x="79.704521" xlink:href="#m211f8e4547" y="62.64"/>
      </g>
     </g>
     <g id="text_3">
      <!-- $x^{3}_{1}$ -->
      <defs>
       <path d="M 22.09375 33.703125 
C 31 33.703125 34.90625 25.96875 34.90625 17.03125 
C 34.90625 5 28.5 0.390625 22.703125 0.390625 
C 17.40625 0.390625 8.796875 3.03125 6.09375 10.828125 
C 6.59375 10.625 7.09375 10.625 7.59375 10.625 
C 10 10.625 11.796875 12.21875 11.796875 14.8125 
C 11.796875 17.703125 9.59375 19 7.59375 19 
C 5.90625 19 3.296875 18.203125 3.296875 14.46875 
C 3.296875 5.234375 12.296875 -2 22.90625 -2 
C 34 -2 42.5 6.71875 42.5 16.953125 
C 42.5 26.671875 34.5 33.703125 25 34.796875 
C 32.59375 36.375 39.90625 43.0625 39.90625 52.015625 
C 39.90625 59.6875 32 65.296875 23 65.296875 
C 13.90625 65.296875 5.90625 59.828125 5.90625 52.015625 
C 5.90625 48.59375 8.5 48 9.796875 48 
C 11.90625 48 13.703125 49.296875 13.703125 51.890625 
C 13.703125 54.46875 11.90625 55.765625 9.796875 55.765625 
C 9.40625 55.765625 8.90625 55.765625 8.5 55.578125 
C 11.40625 61.859375 19.296875 63 22.796875 63 
C 26.296875 63 32.90625 61.328125 32.90625 51.875 
C 32.90625 49.109375 32.5 44.1875 29.09375 39.84375 
C 26.09375 36 22.703125 36 19.40625 35.6875 
C 18.90625 35.6875 16.59375 35.453125 16.203125 35.453125 
C 15.5 35.359375 15.09375 35.265625 15.09375 34.5 
C 15.09375 33.796875 15.203125 33.703125 17.203125 33.703125 
z
" id="CMR17-51"/>
      </defs>
      <g style="fill:#262626;" transform="translate(75.207575 78.547838)scale(0.088 -0.088)">
       <use transform="translate(0 24.740171)scale(0.996264)" xlink:href="#CMMI12-120"/>
       <use transform="translate(55.43406 60.89381)scale(0.697382)" xlink:href="#CMR17-51"/>
       <use transform="translate(55.43406 0)scale(0.697382)" xlink:href="#CMR17-49"/>
      </g>
     </g>
    </g>
    <g id="xtick_4">
     <g id="line2d_4">
      <g>
       <use style="fill:#262626;stroke:#262626;" x="90.792521" xlink:href="#m211f8e4547" y="62.64"/>
      </g>
     </g>
     <g id="text_4">
      <!-- $x^{4}_{1}$ -->
      <defs>
       <path d="M 33.59375 64.40625 
C 33.59375 66.5 33.5 66.5 31.703125 66.5 
L 2 19.59375 
L 2 17 
L 27.796875 17 
L 27.796875 7.140625 
C 27.796875 3.5 27.59375 2.5 20.59375 2.5 
L 18.703125 2.5 
L 18.703125 0 
C 21.90625 0 27.296875 0 30.703125 0 
C 34.09375 0 39.5 0 42.703125 0 
L 42.703125 2.5 
L 40.796875 2.5 
C 33.796875 2.5 33.59375 3.5 33.59375 7.140625 
L 33.59375 17 
L 43.796875 17 
L 43.796875 19.59375 
L 33.59375 19.59375 
z
M 28.09375 57.859375 
L 28.09375 19.59375 
L 4 19.59375 
z
" id="CMR17-52"/>
      </defs>
      <g style="fill:#262626;" transform="translate(86.295575 78.547838)scale(0.088 -0.088)">
       <use transform="translate(0 24.740171)scale(0.996264)" xlink:href="#CMMI12-120"/>
       <use transform="translate(55.43406 60.89381)scale(0.697382)" xlink:href="#CMR17-52"/>
       <use transform="translate(55.43406 0)scale(0.697382)" xlink:href="#CMR17-49"/>
      </g>
     </g>
    </g>
    <g id="xtick_5">
     <g id="line2d_5">
      <g>
       <use style="fill:#262626;stroke:#262626;" x="101.880521" xlink:href="#m211f8e4547" y="62.64"/>
      </g>
     </g>
     <g id="text_5">
      <!-- $x^{5}_{1}$ -->
      <defs>
       <path d="M 11.40625 57.6875 
C 12.40625 57.28125 16.5 56 20.703125 56 
C 30 56 35.09375 61.109375 38 64.0625 
C 38 64.953125 38 65.5 37.40625 65.5 
C 37.296875 65.5 37.09375 65.5 36.296875 65.046875 
C 32.796875 63.40625 28.703125 62.078125 23.703125 62.078125 
C 20.703125 62.078125 16.203125 62.484375 11.296875 64.671875 
C 10.203125 65.171875 10 65.171875 9.90625 65.171875 
C 9.40625 65.171875 9.296875 65.0625 9.296875 63.078125 
L 9.296875 34.421875 
C 9.296875 32.640625 9.296875 32.140625 10.296875 32.140625 
C 10.796875 32.140625 11 32.34375 11.5 33.03125 
C 14.703125 37.515625 19.09375 39.40625 24.09375 39.40625 
C 27.59375 39.40625 35.09375 37.21875 35.09375 20.140625 
C 35.09375 16.953125 35.09375 11.171875 32.09375 6.578125 
C 29.59375 2.484375 25.703125 0.390625 21.40625 0.390625 
C 14.796875 0.390625 8.09375 5 6.296875 12.71875 
C 6.703125 12.609375 7.5 12.421875 7.90625 12.421875 
C 9.203125 12.421875 11.703125 13.125 11.703125 16.21875 
C 11.703125 18.90625 9.796875 20 7.90625 20 
C 5.59375 20 4.09375 18.59375 4.09375 15.796875 
C 4.09375 7.09375 11 -2 21.59375 -2 
C 31.90625 -2 41.703125 6.875 41.703125 19.75 
C 41.703125 31.71875 33.90625 41 24.203125 41 
C 19.09375 41 14.796875 39.109375 11.40625 35.53125 
z
" id="CMR17-53"/>
      </defs>
      <g style="fill:#262626;" transform="translate(97.383575 78.547838)scale(0.088 -0.088)">
       <use transform="translate(0 24.740171)scale(0.996264)" xlink:href="#CMMI12-120"/>
       <use transform="translate(55.43406 60.89381)scale(0.697382)" xlink:href="#CMR17-53"/>
       <use transform="translate(55.43406 0)scale(0.697382)" xlink:href="#CMR17-49"/>
      </g>
     </g>
    </g>
    <g id="xtick_6">
     <g id="line2d_6">
      <g>
       <use style="fill:#262626;stroke:#262626;" x="112.968521" xlink:href="#m211f8e4547" y="62.64"/>
      </g>
     </g>
     <g id="text_6">
      <!-- $x^{6}_{1}$ -->
      <defs>
       <path d="M 10.59375 34 
C 10.59375 57.65625 21.796875 63 28.296875 63 
C 30.40625 63 35.5 62.640625 37.5 59 
C 35.90625 59 32.90625 59 32.90625 55.515625 
C 32.90625 52.828125 35.09375 51.921875 36.5 51.921875 
C 37.40625 51.921875 40.09375 52.3125 40.09375 55.625 
C 40.09375 61.78125 35.09375 65.296875 28.203125 65.296875 
C 16.296875 65.296875 3.796875 52.96875 3.796875 31 
C 3.796875 3.953125 15.09375 -2 23.09375 -2 
C 32.796875 -2 42 6.671875 42 20.046875 
C 42 32.515625 33.90625 41.59375 23.703125 41.59375 
C 17.59375 41.59375 13.09375 37.609375 10.59375 30.625 
z
M 23.09375 0.390625 
C 10.796875 0.390625 10.796875 18.75 10.796875 22.4375 
C 10.796875 29.625 14.203125 40 23.5 40 
C 25.203125 40 30.09375 40 33.40625 33.125 
C 35.203125 29.21875 35.203125 25.140625 35.203125 20.140625 
C 35.203125 14.75 35.203125 10.78125 33.09375 6.78125 
C 30.90625 2.671875 27.703125 0.390625 23.09375 0.390625 
z
" id="CMR17-54"/>
      </defs>
      <g style="fill:#262626;" transform="translate(108.471575 78.547838)scale(0.088 -0.088)">
       <use transform="translate(0 24.740171)scale(0.996264)" xlink:href="#CMMI12-120"/>
       <use transform="translate(55.43406 60.89381)scale(0.697382)" xlink:href="#CMR17-54"/>
       <use transform="translate(55.43406 0)scale(0.697382)" xlink:href="#CMR17-49"/>
      </g>
     </g>
    </g>
    <g id="xtick_7">
     <g id="line2d_7">
      <g>
       <use style="fill:#262626;stroke:#262626;" x="124.056521" xlink:href="#m211f8e4547" y="62.64"/>
      </g>
     </g>
     <g id="text_7">
      <!-- $x^{7}_{1}$ -->
      <defs>
       <path d="M 45.09375 61.578125 
L 45.09375 63.765625 
L 21.59375 63.765625 
C 9.90625 63.765625 9.703125 65.078125 9.296875 67 
L 7.5 67 
L 4.59375 48.34375 
L 6.40625 48.34375 
C 6.703125 50.234375 7.40625 55.3125 8.59375 57.203125 
C 9.203125 58 16.59375 58 18.296875 58 
L 40.296875 58 
L 29.203125 41.578125 
C 21.796875 30.53125 16.703125 15.609375 16.703125 2.578125 
C 16.703125 1.390625 16.703125 -2 20.296875 -2 
C 23.90625 -2 23.90625 1.390625 23.90625 2.671875 
L 23.90625 7.265625 
C 23.90625 23.5625 26.703125 34.3125 31.296875 41.1875 
z
" id="CMR17-55"/>
      </defs>
      <g style="fill:#262626;" transform="translate(119.559575 78.547838)scale(0.088 -0.088)">
       <use transform="translate(0 24.740171)scale(0.996264)" xlink:href="#CMMI12-120"/>
       <use transform="translate(55.43406 60.89381)scale(0.697382)" xlink:href="#CMR17-55"/>
       <use transform="translate(55.43406 0)scale(0.697382)" xlink:href="#CMR17-49"/>
      </g>
     </g>
    </g>
    <g id="xtick_8">
     <g id="line2d_8">
      <g>
       <use style="fill:#262626;stroke:#262626;" x="135.144521" xlink:href="#m211f8e4547" y="62.64"/>
      </g>
     </g>
     <g id="text_8">
      <!-- $x^{1}_{2}$ -->
      <g style="fill:#262626;" transform="translate(130.647575 78.547838)scale(0.088 -0.088)">
       <use transform="translate(0 24.740171)scale(0.996264)" xlink:href="#CMMI12-120"/>
       <use transform="translate(55.43406 60.89381)scale(0.697382)" xlink:href="#CMR17-49"/>
       <use transform="translate(55.43406 0)scale(0.697382)" xlink:href="#CMR17-50"/>
      </g>
     </g>
    </g>
    <g id="xtick_9">
     <g id="line2d_9">
      <g>
       <use style="fill:#262626;stroke:#262626;" x="146.232521" xlink:href="#m211f8e4547" y="62.64"/>
      </g>
     </g>
     <g id="text_9">
      <!-- $x^{2}_{2}$ -->
      <g style="fill:#262626;" transform="translate(141.735575 78.547838)scale(0.088 -0.088)">
       <use transform="translate(0 24.740171)scale(0.996264)" xlink:href="#CMMI12-120"/>
       <use transform="translate(55.43406 60.89381)scale(0.697382)" xlink:href="#CMR17-50"/>
       <use transform="translate(55.43406 0)scale(0.697382)" xlink:href="#CMR17-50"/>
      </g>
     </g>
    </g>
    <g id="xtick_10">
     <g id="line2d_10">
      <g>
       <use style="fill:#262626;stroke:#262626;" x="157.320521" xlink:href="#m211f8e4547" y="62.64"/>
      </g>
     </g>
     <g id="text_10">
      <!-- $x^{3}_{2}$ -->
      <g style="fill:#262626;" transform="translate(152.823575 78.547838)scale(0.088 -0.088)">
       <use transform="translate(0 24.740171)scale(0.996264)" xlink:href="#CMMI12-120"/>
       <use transform="translate(55.43406 60.89381)scale(0.697382)" xlink:href="#CMR17-51"/>
       <use transform="translate(55.43406 0)scale(0.697382)" xlink:href="#CMR17-50"/>
      </g>
     </g>
    </g>
    <g id="xtick_11">
     <g id="line2d_11">
      <g>
       <use style="fill:#262626;stroke:#262626;" x="168.408521" xlink:href="#m211f8e4547" y="62.64"/>
      </g>
     </g>
     <g id="text_11">
      <!-- $x^{4}_{2}$ -->
      <g style="fill:#262626;" transform="translate(163.911575 78.547838)scale(0.088 -0.088)">
       <use transform="translate(0 24.740171)scale(0.996264)" xlink:href="#CMMI12-120"/>
       <use transform="translate(55.43406 60.89381)scale(0.697382)" xlink:href="#CMR17-52"/>
       <use transform="translate(55.43406 0)scale(0.697382)" xlink:href="#CMR17-50"/>
      </g>
     </g>
    </g>
    <g id="xtick_12">
     <g id="line2d_12">
      <g>
       <use style="fill:#262626;stroke:#262626;" x="179.496521" xlink:href="#m211f8e4547" y="62.64"/>
      </g>
     </g>
     <g id="text_12">
      <!-- $x^{5}_{2}$ -->
      <g style="fill:#262626;" transform="translate(174.999575 78.547838)scale(0.088 -0.088)">
       <use transform="translate(0 24.740171)scale(0.996264)" xlink:href="#CMMI12-120"/>
       <use transform="translate(55.43406 60.89381)scale(0.697382)" xlink:href="#CMR17-53"/>
       <use transform="translate(55.43406 0)scale(0.697382)" xlink:href="#CMR17-50"/>
      </g>
     </g>
    </g>
    <g id="xtick_13">
     <g id="line2d_13">
      <g>
       <use style="fill:#262626;stroke:#262626;" x="190.584521" xlink:href="#m211f8e4547" y="62.64"/>
      </g>
     </g>
     <g id="text_13">
      <!-- $x^{6}_{2}$ -->
      <g style="fill:#262626;" transform="translate(186.087575 78.547838)scale(0.088 -0.088)">
       <use transform="translate(0 24.740171)scale(0.996264)" xlink:href="#CMMI12-120"/>
       <use transform="translate(55.43406 60.89381)scale(0.697382)" xlink:href="#CMR17-54"/>
       <use transform="translate(55.43406 0)scale(0.697382)" xlink:href="#CMR17-50"/>
      </g>
     </g>
    </g>
    <g id="xtick_14">
     <g id="line2d_14">
      <g>
       <use style="fill:#262626;stroke:#262626;" x="201.672521" xlink:href="#m211f8e4547" y="62.64"/>
      </g>
     </g>
     <g id="text_14">
      <!-- $x^{7}_{2}$ -->
      <g style="fill:#262626;" transform="translate(197.175575 78.547838)scale(0.088 -0.088)">
       <use transform="translate(0 24.740171)scale(0.996264)" xlink:href="#CMMI12-120"/>
       <use transform="translate(55.43406 60.89381)scale(0.697382)" xlink:href="#CMR17-55"/>
       <use transform="translate(55.43406 0)scale(0.697382)" xlink:href="#CMR17-50"/>
      </g>
     </g>
    </g>
    <g id="xtick_15">
     <g id="line2d_15">
      <g>
       <use style="fill:#262626;stroke:#262626;" x="212.760521" xlink:href="#m211f8e4547" y="62.64"/>
      </g>
     </g>
     <g id="text_15">
      <!-- $x^{1}_{3}$ -->
      <g style="fill:#262626;" transform="translate(208.263575 78.547838)scale(0.088 -0.088)">
       <use transform="translate(0 24.740171)scale(0.996264)" xlink:href="#CMMI12-120"/>
       <use transform="translate(55.43406 60.89381)scale(0.697382)" xlink:href="#CMR17-49"/>
       <use transform="translate(55.43406 0)scale(0.697382)" xlink:href="#CMR17-51"/>
      </g>
     </g>
    </g>
    <g id="xtick_16">
     <g id="line2d_16">
      <g>
       <use style="fill:#262626;stroke:#262626;" x="223.848521" xlink:href="#m211f8e4547" y="62.64"/>
      </g>
     </g>
     <g id="text_16">
      <!-- $x^{2}_{3}$ -->
      <g style="fill:#262626;" transform="translate(219.351575 78.547838)scale(0.088 -0.088)">
       <use transform="translate(0 24.740171)scale(0.996264)" xlink:href="#CMMI12-120"/>
       <use transform="translate(55.43406 60.89381)scale(0.697382)" xlink:href="#CMR17-50"/>
       <use transform="translate(55.43406 0)scale(0.697382)" xlink:href="#CMR17-51"/>
      </g>
     </g>
    </g>
    <g id="xtick_17">
     <g id="line2d_17">
      <g>
       <use style="fill:#262626;stroke:#262626;" x="234.936521" xlink:href="#m211f8e4547" y="62.64"/>
      </g>
     </g>
     <g id="text_17">
      <!-- $x^{3}_{3}$ -->
      <g style="fill:#262626;" transform="translate(230.439575 78.547838)scale(0.088 -0.088)">
       <use transform="translate(0 24.740171)scale(0.996264)" xlink:href="#CMMI12-120"/>
       <use transform="translate(55.43406 60.89381)scale(0.697382)" xlink:href="#CMR17-51"/>
       <use transform="translate(55.43406 0)scale(0.697382)" xlink:href="#CMR17-51"/>
      </g>
     </g>
    </g>
    <g id="xtick_18">
     <g id="line2d_18">
      <g>
       <use style="fill:#262626;stroke:#262626;" x="246.024521" xlink:href="#m211f8e4547" y="62.64"/>
      </g>
     </g>
     <g id="text_18">
      <!-- $x^{4}_{3}$ -->
      <g style="fill:#262626;" transform="translate(241.527575 78.547838)scale(0.088 -0.088)">
       <use transform="translate(0 24.740171)scale(0.996264)" xlink:href="#CMMI12-120"/>
       <use transform="translate(55.43406 60.89381)scale(0.697382)" xlink:href="#CMR17-52"/>
       <use transform="translate(55.43406 0)scale(0.697382)" xlink:href="#CMR17-51"/>
      </g>
     </g>
    </g>
    <g id="xtick_19">
     <g id="line2d_19">
      <g>
       <use style="fill:#262626;stroke:#262626;" x="257.112521" xlink:href="#m211f8e4547" y="62.64"/>
      </g>
     </g>
     <g id="text_19">
      <!-- $x^{5}_{3}$ -->
      <g style="fill:#262626;" transform="translate(252.615575 78.547838)scale(0.088 -0.088)">
       <use transform="translate(0 24.740171)scale(0.996264)" xlink:href="#CMMI12-120"/>
       <use transform="translate(55.43406 60.89381)scale(0.697382)" xlink:href="#CMR17-53"/>
       <use transform="translate(55.43406 0)scale(0.697382)" xlink:href="#CMR17-51"/>
      </g>
     </g>
    </g>
    <g id="xtick_20">
     <g id="line2d_20">
      <g>
       <use style="fill:#262626;stroke:#262626;" x="268.200521" xlink:href="#m211f8e4547" y="62.64"/>
      </g>
     </g>
     <g id="text_20">
      <!-- $x^{6}_{3}$ -->
      <g style="fill:#262626;" transform="translate(263.703575 78.547838)scale(0.088 -0.088)">
       <use transform="translate(0 24.740171)scale(0.996264)" xlink:href="#CMMI12-120"/>
       <use transform="translate(55.43406 60.89381)scale(0.697382)" xlink:href="#CMR17-54"/>
       <use transform="translate(55.43406 0)scale(0.697382)" xlink:href="#CMR17-51"/>
      </g>
     </g>
    </g>
    <g id="xtick_21">
     <g id="line2d_21">
      <g>
       <use style="fill:#262626;stroke:#262626;" x="279.288521" xlink:href="#m211f8e4547" y="62.64"/>
      </g>
     </g>
     <g id="text_21">
      <!-- $x^{7}_{3}$ -->
      <g style="fill:#262626;" transform="translate(274.791575 78.547838)scale(0.088 -0.088)">
       <use transform="translate(0 24.740171)scale(0.996264)" xlink:href="#CMMI12-120"/>
       <use transform="translate(55.43406 60.89381)scale(0.697382)" xlink:href="#CMR17-55"/>
       <use transform="translate(55.43406 0)scale(0.697382)" xlink:href="#CMR17-51"/>
      </g>
     </g>
    </g>
    <g id="xtick_22">
     <g id="line2d_22">
      <g>
       <use style="fill:#262626;stroke:#262626;" x="290.376521" xlink:href="#m211f8e4547" y="62.64"/>
      </g>
     </g>
     <g id="text_22">
      <!-- $x^{1}_{4}$ -->
      <g style="fill:#262626;" transform="translate(285.879575 78.547838)scale(0.088 -0.088)">
       <use transform="translate(0 24.740171)scale(0.996264)" xlink:href="#CMMI12-120"/>
       <use transform="translate(55.43406 60.89381)scale(0.697382)" xlink:href="#CMR17-49"/>
       <use transform="translate(55.43406 0)scale(0.697382)" xlink:href="#CMR17-52"/>
      </g>
     </g>
    </g>
    <g id="xtick_23">
     <g id="line2d_23">
      <g>
       <use style="fill:#262626;stroke:#262626;" x="301.464521" xlink:href="#m211f8e4547" y="62.64"/>
      </g>
     </g>
     <g id="text_23">
      <!-- $x^{2}_{4}$ -->
      <g style="fill:#262626;" transform="translate(296.967575 78.547838)scale(0.088 -0.088)">
       <use transform="translate(0 24.740171)scale(0.996264)" xlink:href="#CMMI12-120"/>
       <use transform="translate(55.43406 60.89381)scale(0.697382)" xlink:href="#CMR17-50"/>
       <use transform="translate(55.43406 0)scale(0.697382)" xlink:href="#CMR17-52"/>
      </g>
     </g>
    </g>
    <g id="xtick_24">
     <g id="line2d_24">
      <g>
       <use style="fill:#262626;stroke:#262626;" x="312.552521" xlink:href="#m211f8e4547" y="62.64"/>
      </g>
     </g>
     <g id="text_24">
      <!-- $x^{3}_{4}$ -->
      <g style="fill:#262626;" transform="translate(308.055575 78.547838)scale(0.088 -0.088)">
       <use transform="translate(0 24.740171)scale(0.996264)" xlink:href="#CMMI12-120"/>
       <use transform="translate(55.43406 60.89381)scale(0.697382)" xlink:href="#CMR17-51"/>
       <use transform="translate(55.43406 0)scale(0.697382)" xlink:href="#CMR17-52"/>
      </g>
     </g>
    </g>
    <g id="xtick_25">
     <g id="line2d_25">
      <g>
       <use style="fill:#262626;stroke:#262626;" x="323.640521" xlink:href="#m211f8e4547" y="62.64"/>
      </g>
     </g>
     <g id="text_25">
      <!-- $x^{4}_{4}$ -->
      <g style="fill:#262626;" transform="translate(319.143575 78.547838)scale(0.088 -0.088)">
       <use transform="translate(0 24.740171)scale(0.996264)" xlink:href="#CMMI12-120"/>
       <use transform="translate(55.43406 60.89381)scale(0.697382)" xlink:href="#CMR17-52"/>
       <use transform="translate(55.43406 0)scale(0.697382)" xlink:href="#CMR17-52"/>
      </g>
     </g>
    </g>
    <g id="xtick_26">
     <g id="line2d_26">
      <g>
       <use style="fill:#262626;stroke:#262626;" x="334.728521" xlink:href="#m211f8e4547" y="62.64"/>
      </g>
     </g>
     <g id="text_26">
      <!-- $x^{5}_{4}$ -->
      <g style="fill:#262626;" transform="translate(330.231575 78.547838)scale(0.088 -0.088)">
       <use transform="translate(0 24.740171)scale(0.996264)" xlink:href="#CMMI12-120"/>
       <use transform="translate(55.43406 60.89381)scale(0.697382)" xlink:href="#CMR17-53"/>
       <use transform="translate(55.43406 0)scale(0.697382)" xlink:href="#CMR17-52"/>
      </g>
     </g>
    </g>
    <g id="xtick_27">
     <g id="line2d_27">
      <g>
       <use style="fill:#262626;stroke:#262626;" x="345.816521" xlink:href="#m211f8e4547" y="62.64"/>
      </g>
     </g>
     <g id="text_27">
      <!-- $x^{6}_{4}$ -->
      <g style="fill:#262626;" transform="translate(341.319575 78.547838)scale(0.088 -0.088)">
       <use transform="translate(0 24.740171)scale(0.996264)" xlink:href="#CMMI12-120"/>
       <use transform="translate(55.43406 60.89381)scale(0.697382)" xlink:href="#CMR17-54"/>
       <use transform="translate(55.43406 0)scale(0.697382)" xlink:href="#CMR17-52"/>
      </g>
     </g>
    </g>
    <g id="xtick_28">
     <g id="line2d_28">
      <g>
       <use style="fill:#262626;stroke:#262626;" x="356.904521" xlink:href="#m211f8e4547" y="62.64"/>
      </g>
     </g>
     <g id="text_28">
      <!-- $x^{7}_{4}$ -->
      <g style="fill:#262626;" transform="translate(352.407575 78.547838)scale(0.088 -0.088)">
       <use transform="translate(0 24.740171)scale(0.996264)" xlink:href="#CMMI12-120"/>
       <use transform="translate(55.43406 60.89381)scale(0.697382)" xlink:href="#CMR17-55"/>
       <use transform="translate(55.43406 0)scale(0.697382)" xlink:href="#CMR17-52"/>
      </g>
     </g>
    </g>
    <g id="text_29">
     <!-- Decision Variables -->
     <defs>
      <path d="M 8.90625 69 
L 8.90625 0 
L 33.5 0 
C 49.90625 0 62.5 15.3125 62.5 33.90625 
C 62.5 53.09375 49.90625 69 33.5 69 
z
M 17.09375 5.578125 
L 17.09375 63.421875 
L 31.296875 63.421875 
C 44.703125 63.421875 54.296875 51.203125 54.296875 33.90625 
C 54.296875 17.296875 44.796875 5.578125 31.296875 5.578125 
z
" id="CMSS17-68"/>
      <path d="M 39.09375 21.515625 
C 39.09375 24.84375 38.90625 31.296875 35.703125 36.640625 
C 32.203125 42.390625 26.5 44 22.203125 44 
C 11.796875 44 3 34.1875 3 21.484375 
C 3 9.09375 12.09375 -1 23.59375 -1 
C 28.09375 -1 33.59375 0.296875 38.59375 3.875 
C 38.59375 4.28125 38.40625 6.46875 38.296875 6.5625 
C 38.296875 6.765625 38 9.84375 38 10.25 
C 33.203125 6.359375 27.703125 5.078125 23.703125 5.078125 
C 17.296875 5.078125 10.40625 10.421875 10.09375 21.515625 
z
M 10.90625 27 
C 12.203125 32.5625 16.59375 37.828125 22.203125 37.828125 
C 23.703125 37.828125 30.703125 37.828125 32.5 27 
z
" id="CMSS17-101"/>
      <path d="M 38.5 39.703125 
C 38.5 40.390625 33.90625 42.40625 32.703125 42.796875 
C 29.40625 44 25.203125 44 24.09375 44 
C 11.09375 44 3.296875 32.703125 3.296875 21.296875 
C 3.296875 9.296875 12 -1 23.703125 -1 
C 30.40625 -1 35.203125 1.1875 39.09375 3.78125 
L 38.5 10.375 
C 34.203125 7.078125 29.203125 5.265625 23.796875 5.265625 
C 16 5.265625 10.90625 12.09375 10.90625 21.390625 
C 10.90625 28.609375 14.203125 37.71875 24.203125 37.71875 
C 29.703125 37.71875 32.796875 36.609375 37.40625 33.515625 
z
" id="CMSS17-99"/>
      <path d="M 15.296875 65.359375 
L 6.90625 65.359375 
L 6.90625 57 
L 15.296875 57 
z
M 14.796875 42.796875 
L 7.40625 42.796875 
L 7.40625 0 
L 14.796875 0 
z
" id="CMSS17-105"/>
      <path d="M 32.203125 41.046875 
C 26.296875 43.859375 21.703125 43.859375 18.703125 43.859375 
C 11.59375 43.859375 3.09375 41.375 3.09375 31.296875 
C 3.09375 21.234375 14.09375 19.03125 17.09375 18.421875 
C 21.703125 17.53125 26.796875 16.53125 26.796875 11.5625 
C 26.796875 5.265625 19.59375 5.265625 18.296875 5.265625 
C 14.296875 5.265625 8.796875 6.359375 3.796875 9.96875 
L 2.59375 3.28125 
C 8.296875 0 13.796875 -1 18.40625 -1 
C 30.703125 -1 33.796875 6.5 33.796875 12.203125 
C 33.796875 17.09375 31 20.390625 29.09375 21.890625 
C 25.796875 24.5 24.59375 24.796875 16.40625 26.5 
C 15 26.703125 10.09375 27.796875 10.09375 32.28125 
C 10.09375 38 16.40625 38 17.796875 38 
C 24.296875 38 28.296875 35.984375 31 34.5 
z
" id="CMSS17-115"/>
      <path d="M 44.203125 21.1875 
C 44.203125 34 34.703125 44 23.5 44 
C 12 44 2.703125 33.703125 2.703125 21.1875 
C 2.703125 8.5 12.296875 -1 23.40625 -1 
C 34.796875 -1 44.203125 8.796875 44.203125 21.1875 
z
M 23.5 5.265625 
C 16.40625 5.265625 10.296875 11.078125 10.296875 22 
C 10.296875 33.609375 17.40625 37.921875 23.40625 37.921875 
C 29.90625 37.921875 36.59375 33.21875 36.59375 22 
C 36.59375 10.671875 30.09375 5.265625 23.5 5.265625 
z
" id="CMSS17-111"/>
      <path d="M 40.90625 29.328125 
C 40.90625 35.671875 39.40625 44 28.09375 44 
C 21.703125 44 17.5 40.71875 14.703125 37.328125 
L 14.703125 43.09375 
L 7.40625 43.09375 
L 7.40625 0 
L 15 0 
L 15 24.359375 
C 15 30.6875 17.40625 37.9375 24.203125 37.9375 
C 33 37.9375 33.296875 32 33.296875 28.578125 
L 33.296875 0 
L 40.90625 0 
z
" id="CMSS17-110"/>
      <path d="M 61.09375 69 
L 53.296875 69 
L 36 21.28125 
C 35.5 19.890625 32.40625 10.75 31.796875 7.5625 
L 31.703125 7.5625 
C 30.90625 11.34375 27.703125 20.1875 26 25.0625 
L 14.40625 57.375 
L 10.09375 69 
L 1.296875 69 
L 26.796875 0 
L 35.59375 0 
z
" id="CMSS17-86"/>
      <path d="M 37.59375 27.984375 
C 37.59375 37.375 30.90625 43.875 21.90625 43.875 
C 17.5 43.875 12.703125 43.078125 7.203125 39.890625 
L 7.796875 33.359375 
C 10.296875 35.125 14.59375 38 21.796875 38 
C 26.90625 38 30 34.0625 30 27.84375 
L 30 24 
C 14 24 4 19.34375 4 11.34375 
C 4 7.203125 6.5 -1 14.796875 -1 
C 16.296875 -1 24.40625 -1 30.203125 3.390625 
L 30.203125 -0.296875 
L 37.59375 -0.296875 
z
M 30 12.75 
C 30 10.953125 30 8.5625 27 6.78125 
C 24.40625 5.078125 21.09375 5.078125 19.703125 5.078125 
C 14.703125 5.078125 11.296875 7.984375 11.296875 11.625 
C 11.296875 18.921875 26.90625 18.921875 30 18.921875 
z
" id="CMSS17-97"/>
      <path d="M 14.90625 21.296875 
C 14.90625 30.703125 21.796875 37 30.59375 37 
L 30.59375 43.578125 
C 24.203125 43.578125 18.203125 40.390625 14.59375 35.203125 
L 14.59375 43.09375 
L 7.5 43.09375 
L 7.5 0 
L 14.90625 0 
z
" id="CMSS17-114"/>
      <path d="M 14.90625 69 
L 7.5 69 
L 7.5 -0.203125 
L 15.09375 -0.203125 
L 15.09375 4.28125 
C 18.90625 0.59375 23.5 -1 27.59375 -1 
C 37.203125 -1 45 8.578125 45 21.125 
C 45 32.59375 39 43.0625 30.09375 43.0625 
C 23.796875 43.0625 18.203125 40.484375 14.90625 37.796875 
z
M 15.09375 31.96875 
C 17.296875 34.71875 20.40625 37 24.796875 37 
C 30.703125 37 37.40625 32.765625 37.40625 21.125 
C 37.40625 8.71875 29.40625 5.078125 23.90625 5.078125 
C 21.90625 5.078125 19.796875 5.5625 17.796875 7.25 
C 15.09375 9.609375 15.09375 11.078125 15.09375 12.453125 
z
" id="CMSS17-98"/>
      <path d="M 14.796875 69 
L 7.40625 69 
L 7.40625 0 
L 14.796875 0 
z
" id="CMSS17-108"/>
     </defs>
     <g style="fill:#262626;" transform="translate(170.062802 90.894316)scale(0.096 -0.096)">
      <use transform="scale(0.996264)" xlink:href="#CMSS17-68"/>
      <use transform="translate(67.542842 0)scale(0.996264)" xlink:href="#CMSS17-101"/>
      <use transform="translate(109.181664 0)scale(0.996264)" xlink:href="#CMSS17-99"/>
      <use transform="translate(150.820486 0)scale(0.996264)" xlink:href="#CMSS17-105"/>
      <use transform="translate(173.001209 0)scale(0.996264)" xlink:href="#CMSS17-115"/>
      <use transform="translate(208.914751 0)scale(0.996264)" xlink:href="#CMSS17-105"/>
      <use transform="translate(231.095474 0)scale(0.996264)" xlink:href="#CMSS17-111"/>
      <use transform="translate(277.939097 0)scale(0.996264)" xlink:href="#CMSS17-110"/>
      <use transform="translate(357.373153 0)scale(0.996264)" xlink:href="#CMSS17-86"/>
      <use transform="translate(416.988554 0)scale(0.996264)" xlink:href="#CMSS17-97"/>
      <use transform="translate(459.308021 0)scale(0.996264)" xlink:href="#CMSS17-114"/>
      <use transform="translate(491.217794 0)scale(0.996264)" xlink:href="#CMSS17-105"/>
      <use transform="translate(513.398517 0)scale(0.996264)" xlink:href="#CMSS17-97"/>
      <use transform="translate(558.320437 0)scale(0.996264)" xlink:href="#CMSS17-98"/>
      <use transform="translate(606.52538 0)scale(0.996264)" xlink:href="#CMSS17-108"/>
      <use transform="translate(628.706103 0)scale(0.996264)" xlink:href="#CMSS17-101"/>
      <use transform="translate(670.344925 0)scale(0.996264)" xlink:href="#CMSS17-115"/>
     </g>
    </g>
   </g>
   <g id="matplotlib.axis_2">
    <g id="ytick_1">
     <g id="text_30">
      <!-- FCFS -->
      <defs>
       <path d="M 45.59375 31 
L 45.59375 37.078125 
L 17.203125 37.078125 
L 17.203125 62 
L 29.40625 62 
C 30.59375 62 31.796875 62 33 62 
L 49.5 62 
L 49.5 68.359375 
L 8.796875 68.359375 
L 8.796875 -0.5 
L 17.203125 -0.5 
L 17.203125 31 
z
" id="CMSS17-70"/>
       <path d="M 54.703125 11.15625 
C 48 6.671875 44.90625 5.375 36.796875 5.375 
C 22.796875 5.375 14.59375 20.359375 14.59375 34.046875 
C 14.59375 48.625 23 63 37.203125 63 
C 43.59375 63 47.796875 61.21875 52.90625 58.046875 
L 54.296875 65.890625 
C 49.5 68.28125 43.40625 69.375 37.296875 69.375 
C 18.09375 69.375 6.203125 51.8125 6.203125 34.046875 
C 6.203125 14.484375 20.296875 -1 36.296875 -1 
C 44.90625 -1 47.90625 -0.296875 55.296875 4.375 
z
" id="CMSS17-67"/>
       <path d="M 43.703125 65.140625 
C 39.296875 67.71875 34.5 70 26.40625 70 
C 13.5 70 5.203125 60.609375 5.203125 51.03125 
C 5.203125 47.265625 6.296875 43.015625 10.203125 38.671875 
C 14.09375 34.3125 18.5 33.140625 24.09375 31.765625 
C 26.40625 31.15625 30.296875 30.0625 31 29.78125 
C 36.59375 27.609375 39.296875 22.5625 39.296875 17.8125 
C 39.296875 11.59375 34.40625 4.96875 25.703125 4.96875 
C 22.703125 4.96875 13.90625 4.96875 5.59375 12.796875 
L 4.203125 4.96875 
C 12.40625 -1 21.296875 -2 25.796875 -2 
C 38.09375 -2 46.90625 7.625 46.90625 18.53125 
C 46.90625 22.5 45.703125 27.546875 41.5 32.203125 
C 37.40625 36.671875 33.796875 37.65625 25.59375 39.828125 
C 20.90625 41.03125 17.90625 41.828125 15.40625 44.890625 
C 13.703125 47.078125 12.796875 49.15625 12.796875 51.828125 
C 12.796875 57.390625 17.59375 63.4375 26.40625 63.4375 
C 30.796875 63.4375 36.5 62.53125 42.296875 57.1875 
z
" id="CMSS17-83"/>
      </defs>
      <g style="fill:#262626;" transform="translate(22.162141 14.935785)scale(0.088 -0.088)">
       <use transform="scale(0.996264)" xlink:href="#CMSS17-70"/>
       <use transform="translate(50.687105 0)scale(0.996264)" xlink:href="#CMSS17-67"/>
       <use transform="translate(110.542877 0)scale(0.996264)" xlink:href="#CMSS17-70"/>
       <use transform="translate(163.832436 0)scale(0.996264)" xlink:href="#CMSS17-83"/>
      </g>
     </g>
    </g>
    <g id="ytick_2">
     <g id="text_31">
      <!-- AS -->
      <defs>
       <path d="M 35.5 69 
L 26.90625 69 
L 2.59375 0 
L 10.203125 0 
L 17.203125 20 
L 44 20 
L 51.09375 0 
L 59.796875 0 
z
M 42.09375 25.578125 
L 19.09375 25.578125 
C 23.90625 39.5 29.90625 56.84375 30.59375 61.328125 
L 30.703125 61.328125 
C 31.40625 57.234375 33.40625 51.265625 35.09375 46.1875 
z
" id="CMSS17-65"/>
      </defs>
      <g style="fill:#262626;" transform="translate(32.299283 26.023785)scale(0.088 -0.088)">
       <use transform="scale(0.996264)" xlink:href="#CMSS17-65"/>
       <use transform="translate(62.217855 0)scale(0.996264)" xlink:href="#CMSS17-83"/>
      </g>
     </g>
    </g>
    <g id="ytick_3">
     <g id="text_32">
      <!-- QoSEF -->
      <defs>
       <path d="M 50 3.15625 
C 62.203125 13.015625 64 26.390625 64 33.96875 
C 64 54.703125 50.296875 70.265625 34.59375 70.265625 
C 18.90625 70.265625 5.203125 54.640625 5.203125 34.03125 
C 5.203125 13.234375 19.09375 -2 34.59375 -2 
C 38.09375 -2 41.09375 -1.203125 43.203125 -0.40625 
L 51.59375 -13 
L 61.40625 -13 
z
M 39.5 5.0625 
C 38.09375 4.578125 36.40625 4.265625 34.59375 4.265625 
C 23.796875 4.265625 13.40625 15.515625 13.40625 34.03125 
C 13.40625 52.453125 23.703125 64 34.59375 64 
C 45.59375 64 55.796875 52.34375 55.796875 34.03125 
C 55.796875 27.671875 54.796875 17.015625 46.09375 8.84375 
L 38.90625 18.90625 
L 30.296875 18.90625 
z
" id="CMSS17-81"/>
       <path d="M 30.59375 6.765625 
C 22.59375 6.765625 19 6.765625 17.203125 6.765625 
L 17.203125 32.921875 
L 48.203125 32.921875 
L 48.203125 39 
L 17.203125 39 
L 17.203125 62.640625 
L 30.09375 62.640625 
C 31.296875 62.640625 32.5 62.640625 33.703125 62.640625 
L 50.796875 62.640625 
L 50.796875 69 
L 8.796875 69 
L 8.796875 0 
L 52.09375 0 
L 52.09375 6.765625 
z
" id="CMSS17-69"/>
      </defs>
      <g style="fill:#262626;" transform="translate(16.05855 37.111785)scale(0.088 -0.088)">
       <use transform="scale(0.996264)" xlink:href="#CMSS17-81"/>
       <use transform="translate(69.024255 0)scale(0.996264)" xlink:href="#CMSS17-111"/>
       <use transform="translate(115.867879 0)scale(0.996264)" xlink:href="#CMSS17-83"/>
       <use transform="translate(167.916395 0)scale(0.996264)" xlink:href="#CMSS17-69"/>
       <use transform="translate(223.808408 0)scale(0.996264)" xlink:href="#CMSS17-70"/>
      </g>
     </g>
    </g>
    <g id="ytick_4">
     <g id="text_33">
      <!-- QoSEFe -->
      <g style="fill:#262626;" transform="translate(12.177231 48.199785)scale(0.088 -0.088)">
       <use transform="scale(0.996264)" xlink:href="#CMSS17-81"/>
       <use transform="translate(69.024255 0)scale(0.996264)" xlink:href="#CMSS17-111"/>
       <use transform="translate(115.867879 0)scale(0.996264)" xlink:href="#CMSS17-83"/>
       <use transform="translate(167.916395 0)scale(0.996264)" xlink:href="#CMSS17-69"/>
       <use transform="translate(223.808408 0)scale(0.996264)" xlink:href="#CMSS17-70"/>
       <use transform="translate(274.495514 0)scale(0.996264)" xlink:href="#CMSS17-101"/>
      </g>
     </g>
    </g>
    <g id="ytick_5">
     <g id="text_34">
      <!-- QoS4NIP -->
      <defs>
       <path d="M 35.203125 17 
L 44.296875 17 
L 44.296875 23.078125 
L 35.203125 23.078125 
L 35.203125 65.5 
L 26.40625 65.5 
L 2.59375 23.078125 
L 2.59375 17 
L 27.296875 17 
L 27.296875 0 
L 35.203125 0 
z
M 10.296875 23.078125 
C 16.09375 33.234375 27.59375 53.734375 27.59375 60.703125 
L 27.59375 23.078125 
z
" id="CMSS17-52"/>
       <path d="M 22.90625 65.3125 
L 21.09375 69 
L 8.796875 69 
L 8.796875 0 
L 16.59375 0 
L 16.59375 61.34375 
L 16.703125 61.4375 
C 17.40625 59.640625 17.796875 58.75 21.90625 49.90625 
L 43.296875 3.6875 
L 45.09375 0 
L 57.40625 0 
L 57.40625 69 
L 49.59375 69 
L 49.59375 7.65625 
L 49.5 7.546875 
C 48.796875 9.34375 48.40625 10.234375 44.296875 19.078125 
z
" id="CMSS17-78"/>
       <path d="M 17.09375 69 
L 8.703125 69 
L 8.703125 0 
L 17.09375 0 
z
" id="CMSS17-73"/>
       <path d="M 32.90625 29 
C 44.90625 29 54.703125 38.328125 54.703125 49.34375 
C 54.703125 60.15625 45.296875 69.578125 32.296875 69.578125 
L 8.90625 69.578125 
L 8.90625 0 
L 17.296875 0 
L 17.296875 29 
z
M 30.09375 64 
C 41.703125 64 46.796875 56.671875 46.796875 49.328125 
C 46.796875 42.5 42.09375 34.78125 30.09375 34.78125 
L 17.09375 34.78125 
L 17.09375 64 
z
" id="CMSS17-80"/>
      </defs>
      <g style="fill:#262626;" transform="translate(7.2 59.287785)scale(0.088 -0.088)">
       <use transform="scale(0.996264)" xlink:href="#CMSS17-81"/>
       <use transform="translate(69.024255 0)scale(0.996264)" xlink:href="#CMSS17-111"/>
       <use transform="translate(115.867879 0)scale(0.996264)" xlink:href="#CMSS17-83"/>
       <use transform="translate(167.916395 0)scale(0.996264)" xlink:href="#CMSS17-52"/>
       <use transform="translate(214.760019 0)scale(0.996264)" xlink:href="#CMSS17-78"/>
       <use transform="translate(280.821538 0)scale(0.996264)" xlink:href="#CMSS17-73"/>
       <use transform="translate(306.605463 0)scale(0.996264)" xlink:href="#CMSS17-80"/>
      </g>
     </g>
    </g>
   </g>
   <g id="QuadMesh_1">
    <path clip-path="url(#pbb7cbfb8a2)" d="M 51.984521 7.2 
L 63.072521 7.2 
L 63.072521 18.288 
L 51.984521 18.288 
L 51.984521 7.2 
" style="fill:#deebf7;stroke:#ffffff;"/>
    <path clip-path="url(#pbb7cbfb8a2)" d="M 63.072521 7.2 
L 74.160521 7.2 
L 74.160521 18.288 
L 63.072521 18.288 
L 63.072521 7.2 
" style="fill:#deebf7;stroke:#ffffff;"/>
    <path clip-path="url(#pbb7cbfb8a2)" d="M 74.160521 7.2 
L 85.248521 7.2 
L 85.248521 18.288 
L 74.160521 18.288 
L 74.160521 7.2 
" style="fill:#deebf7;stroke:#ffffff;"/>
    <path clip-path="url(#pbb7cbfb8a2)" d="M 85.248521 7.2 
L 96.336521 7.2 
L 96.336521 18.288 
L 85.248521 18.288 
L 85.248521 7.2 
" style="fill:#deebf7;stroke:#ffffff;"/>
    <path clip-path="url(#pbb7cbfb8a2)" d="M 96.336521 7.2 
L 107.424521 7.2 
L 107.424521 18.288 
L 96.336521 18.288 
L 96.336521 7.2 
" style="fill:#deebf7;stroke:#ffffff;"/>
    <path clip-path="url(#pbb7cbfb8a2)" d="M 107.424521 7.2 
L 118.512521 7.2 
L 118.512521 18.288 
L 107.424521 18.288 
L 107.424521 7.2 
" style="fill:#deebf7;stroke:#ffffff;"/>
    <path clip-path="url(#pbb7cbfb8a2)" d="M 118.512521 7.2 
L 129.600521 7.2 
L 129.600521 18.288 
L 118.512521 18.288 
L 118.512521 7.2 
" style="fill:#deebf7;stroke:#ffffff;"/>
    <path clip-path="url(#pbb7cbfb8a2)" d="M 129.600521 7.2 
L 140.688521 7.2 
L 140.688521 18.288 
L 129.600521 18.288 
L 129.600521 7.2 
" style="fill:#deebf7;stroke:#ffffff;"/>
    <path clip-path="url(#pbb7cbfb8a2)" d="M 140.688521 7.2 
L 151.776521 7.2 
L 151.776521 18.288 
L 140.688521 18.288 
L 140.688521 7.2 
" style="fill:#deebf7;stroke:#ffffff;"/>
    <path clip-path="url(#pbb7cbfb8a2)" d="M 151.776521 7.2 
L 162.864521 7.2 
L 162.864521 18.288 
L 151.776521 18.288 
L 151.776521 7.2 
" style="fill:#deebf7;stroke:#ffffff;"/>
    <path clip-path="url(#pbb7cbfb8a2)" d="M 162.864521 7.2 
L 173.952521 7.2 
L 173.952521 18.288 
L 162.864521 18.288 
L 162.864521 7.2 
" style="fill:#deebf7;stroke:#ffffff;"/>
    <path clip-path="url(#pbb7cbfb8a2)" d="M 173.952521 7.2 
L 185.040521 7.2 
L 185.040521 18.288 
L 173.952521 18.288 
L 173.952521 7.2 
" style="fill:#deebf7;stroke:#ffffff;"/>
    <path clip-path="url(#pbb7cbfb8a2)" d="M 185.040521 7.2 
L 196.128521 7.2 
L 196.128521 18.288 
L 185.040521 18.288 
L 185.040521 7.2 
" style="fill:#deebf7;stroke:#ffffff;"/>
    <path clip-path="url(#pbb7cbfb8a2)" d="M 196.128521 7.2 
L 207.216521 7.2 
L 207.216521 18.288 
L 196.128521 18.288 
L 196.128521 7.2 
" style="fill:#deebf7;stroke:#ffffff;"/>
    <path clip-path="url(#pbb7cbfb8a2)" d="M 207.216521 7.2 
L 218.304521 7.2 
L 218.304521 18.288 
L 207.216521 18.288 
L 207.216521 7.2 
" style="fill:#deebf7;stroke:#ffffff;"/>
    <path clip-path="url(#pbb7cbfb8a2)" d="M 218.304521 7.2 
L 229.392521 7.2 
L 229.392521 18.288 
L 218.304521 18.288 
L 218.304521 7.2 
" style="fill:#deebf7;stroke:#ffffff;"/>
    <path clip-path="url(#pbb7cbfb8a2)" d="M 229.392521 7.2 
L 240.480521 7.2 
L 240.480521 18.288 
L 229.392521 18.288 
L 229.392521 7.2 
" style="fill:#deebf7;stroke:#ffffff;"/>
    <path clip-path="url(#pbb7cbfb8a2)" d="M 240.480521 7.2 
L 251.568521 7.2 
L 251.568521 18.288 
L 240.480521 18.288 
L 240.480521 7.2 
" style="fill:#deebf7;stroke:#ffffff;"/>
    <path clip-path="url(#pbb7cbfb8a2)" d="M 251.568521 7.2 
L 262.656521 7.2 
L 262.656521 18.288 
L 251.568521 18.288 
L 251.568521 7.2 
" style="fill:#deebf7;stroke:#ffffff;"/>
    <path clip-path="url(#pbb7cbfb8a2)" d="M 262.656521 7.2 
L 273.744521 7.2 
L 273.744521 18.288 
L 262.656521 18.288 
L 262.656521 7.2 
" style="fill:#deebf7;stroke:#ffffff;"/>
    <path clip-path="url(#pbb7cbfb8a2)" d="M 273.744521 7.2 
L 284.832521 7.2 
L 284.832521 18.288 
L 273.744521 18.288 
L 273.744521 7.2 
" style="fill:#deebf7;stroke:#ffffff;"/>
    <path clip-path="url(#pbb7cbfb8a2)" d="M 284.832521 7.2 
L 295.920521 7.2 
L 295.920521 18.288 
L 284.832521 18.288 
L 284.832521 7.2 
" style="fill:#deebf7;stroke:#ffffff;"/>
    <path clip-path="url(#pbb7cbfb8a2)" d="M 295.920521 7.2 
L 307.008521 7.2 
L 307.008521 18.288 
L 295.920521 18.288 
L 295.920521 7.2 
" style="fill:#deebf7;stroke:#ffffff;"/>
    <path clip-path="url(#pbb7cbfb8a2)" d="M 307.008521 7.2 
L 318.096521 7.2 
L 318.096521 18.288 
L 307.008521 18.288 
L 307.008521 7.2 
" style="fill:#deebf7;stroke:#ffffff;"/>
    <path clip-path="url(#pbb7cbfb8a2)" d="M 318.096521 7.2 
L 329.184521 7.2 
L 329.184521 18.288 
L 318.096521 18.288 
L 318.096521 7.2 
" style="fill:#deebf7;stroke:#ffffff;"/>
    <path clip-path="url(#pbb7cbfb8a2)" d="M 329.184521 7.2 
L 340.272521 7.2 
L 340.272521 18.288 
L 329.184521 18.288 
L 329.184521 7.2 
" style="fill:#deebf7;stroke:#ffffff;"/>
    <path clip-path="url(#pbb7cbfb8a2)" d="M 340.272521 7.2 
L 351.360521 7.2 
L 351.360521 18.288 
L 340.272521 18.288 
L 340.272521 7.2 
" style="fill:#deebf7;stroke:#ffffff;"/>
    <path clip-path="url(#pbb7cbfb8a2)" d="M 351.360521 7.2 
L 362.448521 7.2 
L 362.448521 18.288 
L 351.360521 18.288 
L 351.360521 7.2 
" style="fill:#deebf7;stroke:#ffffff;"/>
    <path clip-path="url(#pbb7cbfb8a2)" d="M 51.984521 18.288 
L 63.072521 18.288 
L 63.072521 29.376 
L 51.984521 29.376 
L 51.984521 18.288 
" style="fill:#deebf7;stroke:#ffffff;"/>
    <path clip-path="url(#pbb7cbfb8a2)" d="M 63.072521 18.288 
L 74.160521 18.288 
L 74.160521 29.376 
L 63.072521 29.376 
L 63.072521 18.288 
" style="fill:#deebf7;stroke:#ffffff;"/>
    <path clip-path="url(#pbb7cbfb8a2)" d="M 74.160521 18.288 
L 85.248521 18.288 
L 85.248521 29.376 
L 74.160521 29.376 
L 74.160521 18.288 
" style="fill:#deebf7;stroke:#ffffff;"/>
    <path clip-path="url(#pbb7cbfb8a2)" d="M 85.248521 18.288 
L 96.336521 18.288 
L 96.336521 29.376 
L 85.248521 29.376 
L 85.248521 18.288 
" style="fill:#deebf7;stroke:#ffffff;"/>
    <path clip-path="url(#pbb7cbfb8a2)" d="M 96.336521 18.288 
L 107.424521 18.288 
L 107.424521 29.376 
L 96.336521 29.376 
L 96.336521 18.288 
" style="fill:#deebf7;stroke:#ffffff;"/>
    <path clip-path="url(#pbb7cbfb8a2)" d="M 107.424521 18.288 
L 118.512521 18.288 
L 118.512521 29.376 
L 107.424521 29.376 
L 107.424521 18.288 
" style="fill:#9ecae1;stroke:#ffffff;"/>
    <path clip-path="url(#pbb7cbfb8a2)" d="M 118.512521 18.288 
L 129.600521 18.288 
L 129.600521 29.376 
L 118.512521 29.376 
L 118.512521 18.288 
" style="fill:#deebf7;stroke:#ffffff;"/>
    <path clip-path="url(#pbb7cbfb8a2)" d="M 129.600521 18.288 
L 140.688521 18.288 
L 140.688521 29.376 
L 129.600521 29.376 
L 129.600521 18.288 
" style="fill:#deebf7;stroke:#ffffff;"/>
    <path clip-path="url(#pbb7cbfb8a2)" d="M 140.688521 18.288 
L 151.776521 18.288 
L 151.776521 29.376 
L 140.688521 29.376 
L 140.688521 18.288 
" style="fill:#deebf7;stroke:#ffffff;"/>
    <path clip-path="url(#pbb7cbfb8a2)" d="M 151.776521 18.288 
L 162.864521 18.288 
L 162.864521 29.376 
L 151.776521 29.376 
L 151.776521 18.288 
" style="fill:#deebf7;stroke:#ffffff;"/>
    <path clip-path="url(#pbb7cbfb8a2)" d="M 162.864521 18.288 
L 173.952521 18.288 
L 173.952521 29.376 
L 162.864521 29.376 
L 162.864521 18.288 
" style="fill:#deebf7;stroke:#ffffff;"/>
    <path clip-path="url(#pbb7cbfb8a2)" d="M 173.952521 18.288 
L 185.040521 18.288 
L 185.040521 29.376 
L 173.952521 29.376 
L 173.952521 18.288 
" style="fill:#deebf7;stroke:#ffffff;"/>
    <path clip-path="url(#pbb7cbfb8a2)" d="M 185.040521 18.288 
L 196.128521 18.288 
L 196.128521 29.376 
L 185.040521 29.376 
L 185.040521 18.288 
" style="fill:#deebf7;stroke:#ffffff;"/>
    <path clip-path="url(#pbb7cbfb8a2)" d="M 196.128521 18.288 
L 207.216521 18.288 
L 207.216521 29.376 
L 196.128521 29.376 
L 196.128521 18.288 
" style="fill:#9ecae1;stroke:#ffffff;"/>
    <path clip-path="url(#pbb7cbfb8a2)" d="M 207.216521 18.288 
L 218.304521 18.288 
L 218.304521 29.376 
L 207.216521 29.376 
L 207.216521 18.288 
" style="fill:#deebf7;stroke:#ffffff;"/>
    <path clip-path="url(#pbb7cbfb8a2)" d="M 218.304521 18.288 
L 229.392521 18.288 
L 229.392521 29.376 
L 218.304521 29.376 
L 218.304521 18.288 
" style="fill:#deebf7;stroke:#ffffff;"/>
    <path clip-path="url(#pbb7cbfb8a2)" d="M 229.392521 18.288 
L 240.480521 18.288 
L 240.480521 29.376 
L 229.392521 29.376 
L 229.392521 18.288 
" style="fill:#deebf7;stroke:#ffffff;"/>
    <path clip-path="url(#pbb7cbfb8a2)" d="M 240.480521 18.288 
L 251.568521 18.288 
L 251.568521 29.376 
L 240.480521 29.376 
L 240.480521 18.288 
" style="fill:#deebf7;stroke:#ffffff;"/>
    <path clip-path="url(#pbb7cbfb8a2)" d="M 251.568521 18.288 
L 262.656521 18.288 
L 262.656521 29.376 
L 251.568521 29.376 
L 251.568521 18.288 
" style="fill:#deebf7;stroke:#ffffff;"/>
    <path clip-path="url(#pbb7cbfb8a2)" d="M 262.656521 18.288 
L 273.744521 18.288 
L 273.744521 29.376 
L 262.656521 29.376 
L 262.656521 18.288 
" style="fill:#deebf7;stroke:#ffffff;"/>
    <path clip-path="url(#pbb7cbfb8a2)" d="M 273.744521 18.288 
L 284.832521 18.288 
L 284.832521 29.376 
L 273.744521 29.376 
L 273.744521 18.288 
" style="fill:#9ecae1;stroke:#ffffff;"/>
    <path clip-path="url(#pbb7cbfb8a2)" d="M 284.832521 18.288 
L 295.920521 18.288 
L 295.920521 29.376 
L 284.832521 29.376 
L 284.832521 18.288 
" style="fill:#deebf7;stroke:#ffffff;"/>
    <path clip-path="url(#pbb7cbfb8a2)" d="M 295.920521 18.288 
L 307.008521 18.288 
L 307.008521 29.376 
L 295.920521 29.376 
L 295.920521 18.288 
" style="fill:#deebf7;stroke:#ffffff;"/>
    <path clip-path="url(#pbb7cbfb8a2)" d="M 307.008521 18.288 
L 318.096521 18.288 
L 318.096521 29.376 
L 307.008521 29.376 
L 307.008521 18.288 
" style="fill:#deebf7;stroke:#ffffff;"/>
    <path clip-path="url(#pbb7cbfb8a2)" d="M 318.096521 18.288 
L 329.184521 18.288 
L 329.184521 29.376 
L 318.096521 29.376 
L 318.096521 18.288 
" style="fill:#deebf7;stroke:#ffffff;"/>
    <path clip-path="url(#pbb7cbfb8a2)" d="M 329.184521 18.288 
L 340.272521 18.288 
L 340.272521 29.376 
L 329.184521 29.376 
L 329.184521 18.288 
" style="fill:#deebf7;stroke:#ffffff;"/>
    <path clip-path="url(#pbb7cbfb8a2)" d="M 340.272521 18.288 
L 351.360521 18.288 
L 351.360521 29.376 
L 340.272521 29.376 
L 340.272521 18.288 
" style="fill:#9ecae1;stroke:#ffffff;"/>
    <path clip-path="url(#pbb7cbfb8a2)" d="M 351.360521 18.288 
L 362.448521 18.288 
L 362.448521 29.376 
L 351.360521 29.376 
L 351.360521 18.288 
" style="fill:#deebf7;stroke:#ffffff;"/>
    <path clip-path="url(#pbb7cbfb8a2)" d="M 51.984521 29.376 
L 63.072521 29.376 
L 63.072521 40.464 
L 51.984521 40.464 
L 51.984521 29.376 
" style="fill:#9ecae1;stroke:#ffffff;"/>
    <path clip-path="url(#pbb7cbfb8a2)" d="M 63.072521 29.376 
L 74.160521 29.376 
L 74.160521 40.464 
L 63.072521 40.464 
L 63.072521 29.376 
" style="fill:#deebf7;stroke:#ffffff;"/>
    <path clip-path="url(#pbb7cbfb8a2)" d="M 74.160521 29.376 
L 85.248521 29.376 
L 85.248521 40.464 
L 74.160521 40.464 
L 74.160521 29.376 
" style="fill:#9ecae1;stroke:#ffffff;"/>
    <path clip-path="url(#pbb7cbfb8a2)" d="M 85.248521 29.376 
L 96.336521 29.376 
L 96.336521 40.464 
L 85.248521 40.464 
L 85.248521 29.376 
" style="fill:#9ecae1;stroke:#ffffff;"/>
    <path clip-path="url(#pbb7cbfb8a2)" d="M 96.336521 29.376 
L 107.424521 29.376 
L 107.424521 40.464 
L 96.336521 40.464 
L 96.336521 29.376 
" style="fill:#9ecae1;stroke:#ffffff;"/>
    <path clip-path="url(#pbb7cbfb8a2)" d="M 107.424521 29.376 
L 118.512521 29.376 
L 118.512521 40.464 
L 107.424521 40.464 
L 107.424521 29.376 
" style="fill:#deebf7;stroke:#ffffff;"/>
    <path clip-path="url(#pbb7cbfb8a2)" d="M 118.512521 29.376 
L 129.600521 29.376 
L 129.600521 40.464 
L 118.512521 40.464 
L 118.512521 29.376 
" style="fill:#deebf7;stroke:#ffffff;"/>
    <path clip-path="url(#pbb7cbfb8a2)" d="M 129.600521 29.376 
L 140.688521 29.376 
L 140.688521 40.464 
L 129.600521 40.464 
L 129.600521 29.376 
" style="fill:#9ecae1;stroke:#ffffff;"/>
    <path clip-path="url(#pbb7cbfb8a2)" d="M 140.688521 29.376 
L 151.776521 29.376 
L 151.776521 40.464 
L 140.688521 40.464 
L 140.688521 29.376 
" style="fill:#deebf7;stroke:#ffffff;"/>
    <path clip-path="url(#pbb7cbfb8a2)" d="M 151.776521 29.376 
L 162.864521 29.376 
L 162.864521 40.464 
L 151.776521 40.464 
L 151.776521 29.376 
" style="fill:#deebf7;stroke:#ffffff;"/>
    <path clip-path="url(#pbb7cbfb8a2)" d="M 162.864521 29.376 
L 173.952521 29.376 
L 173.952521 40.464 
L 162.864521 40.464 
L 162.864521 29.376 
" style="fill:#9ecae1;stroke:#ffffff;"/>
    <path clip-path="url(#pbb7cbfb8a2)" d="M 173.952521 29.376 
L 185.040521 29.376 
L 185.040521 40.464 
L 173.952521 40.464 
L 173.952521 29.376 
" style="fill:#deebf7;stroke:#ffffff;"/>
    <path clip-path="url(#pbb7cbfb8a2)" d="M 185.040521 29.376 
L 196.128521 29.376 
L 196.128521 40.464 
L 185.040521 40.464 
L 185.040521 29.376 
" style="fill:#deebf7;stroke:#ffffff;"/>
    <path clip-path="url(#pbb7cbfb8a2)" d="M 196.128521 29.376 
L 207.216521 29.376 
L 207.216521 40.464 
L 196.128521 40.464 
L 196.128521 29.376 
" style="fill:#deebf7;stroke:#ffffff;"/>
    <path clip-path="url(#pbb7cbfb8a2)" d="M 207.216521 29.376 
L 218.304521 29.376 
L 218.304521 40.464 
L 207.216521 40.464 
L 207.216521 29.376 
" style="fill:#9ecae1;stroke:#ffffff;"/>
    <path clip-path="url(#pbb7cbfb8a2)" d="M 218.304521 29.376 
L 229.392521 29.376 
L 229.392521 40.464 
L 218.304521 40.464 
L 218.304521 29.376 
" style="fill:#deebf7;stroke:#ffffff;"/>
    <path clip-path="url(#pbb7cbfb8a2)" d="M 229.392521 29.376 
L 240.480521 29.376 
L 240.480521 40.464 
L 229.392521 40.464 
L 229.392521 29.376 
" style="fill:#deebf7;stroke:#ffffff;"/>
    <path clip-path="url(#pbb7cbfb8a2)" d="M 240.480521 29.376 
L 251.568521 29.376 
L 251.568521 40.464 
L 240.480521 40.464 
L 240.480521 29.376 
" style="fill:#9ecae1;stroke:#ffffff;"/>
    <path clip-path="url(#pbb7cbfb8a2)" d="M 251.568521 29.376 
L 262.656521 29.376 
L 262.656521 40.464 
L 251.568521 40.464 
L 251.568521 29.376 
" style="fill:#deebf7;stroke:#ffffff;"/>
    <path clip-path="url(#pbb7cbfb8a2)" d="M 262.656521 29.376 
L 273.744521 29.376 
L 273.744521 40.464 
L 262.656521 40.464 
L 262.656521 29.376 
" style="fill:#deebf7;stroke:#ffffff;"/>
    <path clip-path="url(#pbb7cbfb8a2)" d="M 273.744521 29.376 
L 284.832521 29.376 
L 284.832521 40.464 
L 273.744521 40.464 
L 273.744521 29.376 
" style="fill:#deebf7;stroke:#ffffff;"/>
    <path clip-path="url(#pbb7cbfb8a2)" d="M 284.832521 29.376 
L 295.920521 29.376 
L 295.920521 40.464 
L 284.832521 40.464 
L 284.832521 29.376 
" style="fill:#9ecae1;stroke:#ffffff;"/>
    <path clip-path="url(#pbb7cbfb8a2)" d="M 295.920521 29.376 
L 307.008521 29.376 
L 307.008521 40.464 
L 295.920521 40.464 
L 295.920521 29.376 
" style="fill:#deebf7;stroke:#ffffff;"/>
    <path clip-path="url(#pbb7cbfb8a2)" d="M 307.008521 29.376 
L 318.096521 29.376 
L 318.096521 40.464 
L 307.008521 40.464 
L 307.008521 29.376 
" style="fill:#deebf7;stroke:#ffffff;"/>
    <path clip-path="url(#pbb7cbfb8a2)" d="M 318.096521 29.376 
L 329.184521 29.376 
L 329.184521 40.464 
L 318.096521 40.464 
L 318.096521 29.376 
" style="fill:#9ecae1;stroke:#ffffff;"/>
    <path clip-path="url(#pbb7cbfb8a2)" d="M 329.184521 29.376 
L 340.272521 29.376 
L 340.272521 40.464 
L 329.184521 40.464 
L 329.184521 29.376 
" style="fill:#deebf7;stroke:#ffffff;"/>
    <path clip-path="url(#pbb7cbfb8a2)" d="M 340.272521 29.376 
L 351.360521 29.376 
L 351.360521 40.464 
L 340.272521 40.464 
L 340.272521 29.376 
" style="fill:#deebf7;stroke:#ffffff;"/>
    <path clip-path="url(#pbb7cbfb8a2)" d="M 351.360521 29.376 
L 362.448521 29.376 
L 362.448521 40.464 
L 351.360521 40.464 
L 351.360521 29.376 
" style="fill:#deebf7;stroke:#ffffff;"/>
    <path clip-path="url(#pbb7cbfb8a2)" d="M 51.984521 40.464 
L 63.072521 40.464 
L 63.072521 51.552 
L 51.984521 51.552 
L 51.984521 40.464 
" style="fill:#9ecae1;stroke:#ffffff;"/>
    <path clip-path="url(#pbb7cbfb8a2)" d="M 63.072521 40.464 
L 74.160521 40.464 
L 74.160521 51.552 
L 63.072521 51.552 
L 63.072521 40.464 
" style="fill:#deebf7;stroke:#ffffff;"/>
    <path clip-path="url(#pbb7cbfb8a2)" d="M 74.160521 40.464 
L 85.248521 40.464 
L 85.248521 51.552 
L 74.160521 51.552 
L 74.160521 40.464 
" style="fill:#deebf7;stroke:#ffffff;"/>
    <path clip-path="url(#pbb7cbfb8a2)" d="M 85.248521 40.464 
L 96.336521 40.464 
L 96.336521 51.552 
L 85.248521 51.552 
L 85.248521 40.464 
" style="fill:#9ecae1;stroke:#ffffff;"/>
    <path clip-path="url(#pbb7cbfb8a2)" d="M 96.336521 40.464 
L 107.424521 40.464 
L 107.424521 51.552 
L 96.336521 51.552 
L 96.336521 40.464 
" style="fill:#deebf7;stroke:#ffffff;"/>
    <path clip-path="url(#pbb7cbfb8a2)" d="M 107.424521 40.464 
L 118.512521 40.464 
L 118.512521 51.552 
L 107.424521 51.552 
L 107.424521 40.464 
" style="fill:#deebf7;stroke:#ffffff;"/>
    <path clip-path="url(#pbb7cbfb8a2)" d="M 118.512521 40.464 
L 129.600521 40.464 
L 129.600521 51.552 
L 118.512521 51.552 
L 118.512521 40.464 
" style="fill:#deebf7;stroke:#ffffff;"/>
    <path clip-path="url(#pbb7cbfb8a2)" d="M 129.600521 40.464 
L 140.688521 40.464 
L 140.688521 51.552 
L 129.600521 51.552 
L 129.600521 40.464 
" style="fill:#9ecae1;stroke:#ffffff;"/>
    <path clip-path="url(#pbb7cbfb8a2)" d="M 140.688521 40.464 
L 151.776521 40.464 
L 151.776521 51.552 
L 140.688521 51.552 
L 140.688521 40.464 
" style="fill:#deebf7;stroke:#ffffff;"/>
    <path clip-path="url(#pbb7cbfb8a2)" d="M 151.776521 40.464 
L 162.864521 40.464 
L 162.864521 51.552 
L 151.776521 51.552 
L 151.776521 40.464 
" style="fill:#deebf7;stroke:#ffffff;"/>
    <path clip-path="url(#pbb7cbfb8a2)" d="M 162.864521 40.464 
L 173.952521 40.464 
L 173.952521 51.552 
L 162.864521 51.552 
L 162.864521 40.464 
" style="fill:#9ecae1;stroke:#ffffff;"/>
    <path clip-path="url(#pbb7cbfb8a2)" d="M 173.952521 40.464 
L 185.040521 40.464 
L 185.040521 51.552 
L 173.952521 51.552 
L 173.952521 40.464 
" style="fill:#deebf7;stroke:#ffffff;"/>
    <path clip-path="url(#pbb7cbfb8a2)" d="M 185.040521 40.464 
L 196.128521 40.464 
L 196.128521 51.552 
L 185.040521 51.552 
L 185.040521 40.464 
" style="fill:#deebf7;stroke:#ffffff;"/>
    <path clip-path="url(#pbb7cbfb8a2)" d="M 196.128521 40.464 
L 207.216521 40.464 
L 207.216521 51.552 
L 196.128521 51.552 
L 196.128521 40.464 
" style="fill:#deebf7;stroke:#ffffff;"/>
    <path clip-path="url(#pbb7cbfb8a2)" d="M 207.216521 40.464 
L 218.304521 40.464 
L 218.304521 51.552 
L 207.216521 51.552 
L 207.216521 40.464 
" style="fill:#9ecae1;stroke:#ffffff;"/>
    <path clip-path="url(#pbb7cbfb8a2)" d="M 218.304521 40.464 
L 229.392521 40.464 
L 229.392521 51.552 
L 218.304521 51.552 
L 218.304521 40.464 
" style="fill:#deebf7;stroke:#ffffff;"/>
    <path clip-path="url(#pbb7cbfb8a2)" d="M 229.392521 40.464 
L 240.480521 40.464 
L 240.480521 51.552 
L 229.392521 51.552 
L 229.392521 40.464 
" style="fill:#deebf7;stroke:#ffffff;"/>
    <path clip-path="url(#pbb7cbfb8a2)" d="M 240.480521 40.464 
L 251.568521 40.464 
L 251.568521 51.552 
L 240.480521 51.552 
L 240.480521 40.464 
" style="fill:#9ecae1;stroke:#ffffff;"/>
    <path clip-path="url(#pbb7cbfb8a2)" d="M 251.568521 40.464 
L 262.656521 40.464 
L 262.656521 51.552 
L 251.568521 51.552 
L 251.568521 40.464 
" style="fill:#deebf7;stroke:#ffffff;"/>
    <path clip-path="url(#pbb7cbfb8a2)" d="M 262.656521 40.464 
L 273.744521 40.464 
L 273.744521 51.552 
L 262.656521 51.552 
L 262.656521 40.464 
" style="fill:#deebf7;stroke:#ffffff;"/>
    <path clip-path="url(#pbb7cbfb8a2)" d="M 273.744521 40.464 
L 284.832521 40.464 
L 284.832521 51.552 
L 273.744521 51.552 
L 273.744521 40.464 
" style="fill:#deebf7;stroke:#ffffff;"/>
    <path clip-path="url(#pbb7cbfb8a2)" d="M 284.832521 40.464 
L 295.920521 40.464 
L 295.920521 51.552 
L 284.832521 51.552 
L 284.832521 40.464 
" style="fill:#9ecae1;stroke:#ffffff;"/>
    <path clip-path="url(#pbb7cbfb8a2)" d="M 295.920521 40.464 
L 307.008521 40.464 
L 307.008521 51.552 
L 295.920521 51.552 
L 295.920521 40.464 
" style="fill:#deebf7;stroke:#ffffff;"/>
    <path clip-path="url(#pbb7cbfb8a2)" d="M 307.008521 40.464 
L 318.096521 40.464 
L 318.096521 51.552 
L 307.008521 51.552 
L 307.008521 40.464 
" style="fill:#9ecae1;stroke:#ffffff;"/>
    <path clip-path="url(#pbb7cbfb8a2)" d="M 318.096521 40.464 
L 329.184521 40.464 
L 329.184521 51.552 
L 318.096521 51.552 
L 318.096521 40.464 
" style="fill:#9ecae1;stroke:#ffffff;"/>
    <path clip-path="url(#pbb7cbfb8a2)" d="M 329.184521 40.464 
L 340.272521 40.464 
L 340.272521 51.552 
L 329.184521 51.552 
L 329.184521 40.464 
" style="fill:#9ecae1;stroke:#ffffff;"/>
    <path clip-path="url(#pbb7cbfb8a2)" d="M 340.272521 40.464 
L 351.360521 40.464 
L 351.360521 51.552 
L 340.272521 51.552 
L 340.272521 40.464 
" style="fill:#deebf7;stroke:#ffffff;"/>
    <path clip-path="url(#pbb7cbfb8a2)" d="M 351.360521 40.464 
L 362.448521 40.464 
L 362.448521 51.552 
L 351.360521 51.552 
L 351.360521 40.464 
" style="fill:#deebf7;stroke:#ffffff;"/>
    <path clip-path="url(#pbb7cbfb8a2)" d="M 51.984521 51.552 
L 63.072521 51.552 
L 63.072521 62.64 
L 51.984521 62.64 
L 51.984521 51.552 
" style="fill:#9ecae1;stroke:#ffffff;"/>
    <path clip-path="url(#pbb7cbfb8a2)" d="M 63.072521 51.552 
L 74.160521 51.552 
L 74.160521 62.64 
L 63.072521 62.64 
L 63.072521 51.552 
" style="fill:#deebf7;stroke:#ffffff;"/>
    <path clip-path="url(#pbb7cbfb8a2)" d="M 74.160521 51.552 
L 85.248521 51.552 
L 85.248521 62.64 
L 74.160521 62.64 
L 74.160521 51.552 
" style="fill:#deebf7;stroke:#ffffff;"/>
    <path clip-path="url(#pbb7cbfb8a2)" d="M 85.248521 51.552 
L 96.336521 51.552 
L 96.336521 62.64 
L 85.248521 62.64 
L 85.248521 51.552 
" style="fill:#9ecae1;stroke:#ffffff;"/>
    <path clip-path="url(#pbb7cbfb8a2)" d="M 96.336521 51.552 
L 107.424521 51.552 
L 107.424521 62.64 
L 96.336521 62.64 
L 96.336521 51.552 
" style="fill:#deebf7;stroke:#ffffff;"/>
    <path clip-path="url(#pbb7cbfb8a2)" d="M 107.424521 51.552 
L 118.512521 51.552 
L 118.512521 62.64 
L 107.424521 62.64 
L 107.424521 51.552 
" style="fill:#deebf7;stroke:#ffffff;"/>
    <path clip-path="url(#pbb7cbfb8a2)" d="M 118.512521 51.552 
L 129.600521 51.552 
L 129.600521 62.64 
L 118.512521 62.64 
L 118.512521 51.552 
" style="fill:#deebf7;stroke:#ffffff;"/>
    <path clip-path="url(#pbb7cbfb8a2)" d="M 129.600521 51.552 
L 140.688521 51.552 
L 140.688521 62.64 
L 129.600521 62.64 
L 129.600521 51.552 
" style="fill:#9ecae1;stroke:#ffffff;"/>
    <path clip-path="url(#pbb7cbfb8a2)" d="M 140.688521 51.552 
L 151.776521 51.552 
L 151.776521 62.64 
L 140.688521 62.64 
L 140.688521 51.552 
" style="fill:#deebf7;stroke:#ffffff;"/>
    <path clip-path="url(#pbb7cbfb8a2)" d="M 151.776521 51.552 
L 162.864521 51.552 
L 162.864521 62.64 
L 151.776521 62.64 
L 151.776521 51.552 
" style="fill:#deebf7;stroke:#ffffff;"/>
    <path clip-path="url(#pbb7cbfb8a2)" d="M 162.864521 51.552 
L 173.952521 51.552 
L 173.952521 62.64 
L 162.864521 62.64 
L 162.864521 51.552 
" style="fill:#9ecae1;stroke:#ffffff;"/>
    <path clip-path="url(#pbb7cbfb8a2)" d="M 173.952521 51.552 
L 185.040521 51.552 
L 185.040521 62.64 
L 173.952521 62.64 
L 173.952521 51.552 
" style="fill:#deebf7;stroke:#ffffff;"/>
    <path clip-path="url(#pbb7cbfb8a2)" d="M 185.040521 51.552 
L 196.128521 51.552 
L 196.128521 62.64 
L 185.040521 62.64 
L 185.040521 51.552 
" style="fill:#deebf7;stroke:#ffffff;"/>
    <path clip-path="url(#pbb7cbfb8a2)" d="M 196.128521 51.552 
L 207.216521 51.552 
L 207.216521 62.64 
L 196.128521 62.64 
L 196.128521 51.552 
" style="fill:#deebf7;stroke:#ffffff;"/>
    <path clip-path="url(#pbb7cbfb8a2)" d="M 207.216521 51.552 
L 218.304521 51.552 
L 218.304521 62.64 
L 207.216521 62.64 
L 207.216521 51.552 
" style="fill:#9ecae1;stroke:#ffffff;"/>
    <path clip-path="url(#pbb7cbfb8a2)" d="M 218.304521 51.552 
L 229.392521 51.552 
L 229.392521 62.64 
L 218.304521 62.64 
L 218.304521 51.552 
" style="fill:#deebf7;stroke:#ffffff;"/>
    <path clip-path="url(#pbb7cbfb8a2)" d="M 229.392521 51.552 
L 240.480521 51.552 
L 240.480521 62.64 
L 229.392521 62.64 
L 229.392521 51.552 
" style="fill:#deebf7;stroke:#ffffff;"/>
    <path clip-path="url(#pbb7cbfb8a2)" d="M 240.480521 51.552 
L 251.568521 51.552 
L 251.568521 62.64 
L 240.480521 62.64 
L 240.480521 51.552 
" style="fill:#9ecae1;stroke:#ffffff;"/>
    <path clip-path="url(#pbb7cbfb8a2)" d="M 251.568521 51.552 
L 262.656521 51.552 
L 262.656521 62.64 
L 251.568521 62.64 
L 251.568521 51.552 
" style="fill:#deebf7;stroke:#ffffff;"/>
    <path clip-path="url(#pbb7cbfb8a2)" d="M 262.656521 51.552 
L 273.744521 51.552 
L 273.744521 62.64 
L 262.656521 62.64 
L 262.656521 51.552 
" style="fill:#deebf7;stroke:#ffffff;"/>
    <path clip-path="url(#pbb7cbfb8a2)" d="M 273.744521 51.552 
L 284.832521 51.552 
L 284.832521 62.64 
L 273.744521 62.64 
L 273.744521 51.552 
" style="fill:#deebf7;stroke:#ffffff;"/>
    <path clip-path="url(#pbb7cbfb8a2)" d="M 284.832521 51.552 
L 295.920521 51.552 
L 295.920521 62.64 
L 284.832521 62.64 
L 284.832521 51.552 
" style="fill:#9ecae1;stroke:#ffffff;"/>
    <path clip-path="url(#pbb7cbfb8a2)" d="M 295.920521 51.552 
L 307.008521 51.552 
L 307.008521 62.64 
L 295.920521 62.64 
L 295.920521 51.552 
" style="fill:#deebf7;stroke:#ffffff;"/>
    <path clip-path="url(#pbb7cbfb8a2)" d="M 307.008521 51.552 
L 318.096521 51.552 
L 318.096521 62.64 
L 307.008521 62.64 
L 307.008521 51.552 
" style="fill:#9ecae1;stroke:#ffffff;"/>
    <path clip-path="url(#pbb7cbfb8a2)" d="M 318.096521 51.552 
L 329.184521 51.552 
L 329.184521 62.64 
L 318.096521 62.64 
L 318.096521 51.552 
" style="fill:#9ecae1;stroke:#ffffff;"/>
    <path clip-path="url(#pbb7cbfb8a2)" d="M 329.184521 51.552 
L 340.272521 51.552 
L 340.272521 62.64 
L 329.184521 62.64 
L 329.184521 51.552 
" style="fill:#9ecae1;stroke:#ffffff;"/>
    <path clip-path="url(#pbb7cbfb8a2)" d="M 340.272521 51.552 
L 351.360521 51.552 
L 351.360521 62.64 
L 340.272521 62.64 
L 340.272521 51.552 
" style="fill:#deebf7;stroke:#ffffff;"/>
    <path clip-path="url(#pbb7cbfb8a2)" d="M 351.360521 51.552 
L 362.448521 51.552 
L 362.448521 62.64 
L 351.360521 62.64 
L 351.360521 51.552 
" style="fill:#deebf7;stroke:#ffffff;"/>
   </g>
   <g id="text_35">
    <!-- 0 -->
    <defs>
     <path d="M 43.09375 31.9375 
C 43.09375 37.578125 43 48.078125 38.90625 56.1875 
C 34.796875 64 28.203125 66.078125 23.5 66.078125 
C 16.703125 66.078125 10.90625 62.109375 7.90625 55.78125 
C 4.703125 49.15625 3.796875 42.328125 3.796875 31.9375 
C 3.796875 24.828125 4.09375 16.109375 7.703125 8.484375 
C 11.796875 0.078125 18.703125 -2 23.40625 -2 
C 29.59375 -2 35.59375 1.265625 39 8.09375 
C 42.5 15.21875 43.09375 23.03125 43.09375 31.9375 
z
M 23.40625 4.078125 
C 15.796875 4.078125 13.5 12.671875 12.796875 15.546875 
C 11.59375 20.46875 11.40625 25.21875 11.40625 33.03125 
C 11.40625 39.15625 11.40625 46.0625 13.296875 51.515625 
C 15.59375 57.828125 19.59375 60 23.40625 60 
C 30.796875 60 33.203125 52.6875 34 50.125 
C 35.5 44.890625 35.5 38.765625 35.5 33.03125 
C 35.5 23.84375 35.5 4.078125 23.40625 4.078125 
z
" id="CMSS17-48"/>
    </defs>
    <g style="fill:#262626;" transform="translate(55.071084 15.135035)scale(0.096 -0.096)">
     <use transform="scale(0.996264)" xlink:href="#CMSS17-48"/>
    </g>
   </g>
   <g id="text_36">
    <!-- 0 -->
    <g style="fill:#262626;" transform="translate(66.159084 15.135035)scale(0.096 -0.096)">
     <use transform="scale(0.996264)" xlink:href="#CMSS17-48"/>
    </g>
   </g>
   <g id="text_37">
    <!-- 0 -->
    <g style="fill:#262626;" transform="translate(77.247084 15.135035)scale(0.096 -0.096)">
     <use transform="scale(0.996264)" xlink:href="#CMSS17-48"/>
    </g>
   </g>
   <g id="text_38">
    <!-- 0 -->
    <g style="fill:#262626;" transform="translate(88.335084 15.135035)scale(0.096 -0.096)">
     <use transform="scale(0.996264)" xlink:href="#CMSS17-48"/>
    </g>
   </g>
   <g id="text_39">
    <!-- 0 -->
    <g style="fill:#262626;" transform="translate(99.423084 15.135035)scale(0.096 -0.096)">
     <use transform="scale(0.996264)" xlink:href="#CMSS17-48"/>
    </g>
   </g>
   <g id="text_40">
    <!-- 0 -->
    <g style="fill:#262626;" transform="translate(110.511084 15.135035)scale(0.096 -0.096)">
     <use transform="scale(0.996264)" xlink:href="#CMSS17-48"/>
    </g>
   </g>
   <g id="text_41">
    <!-- 0 -->
    <g style="fill:#262626;" transform="translate(121.599084 15.135035)scale(0.096 -0.096)">
     <use transform="scale(0.996264)" xlink:href="#CMSS17-48"/>
    </g>
   </g>
   <g id="text_42">
    <!-- 0 -->
    <g style="fill:#262626;" transform="translate(132.687084 15.135035)scale(0.096 -0.096)">
     <use transform="scale(0.996264)" xlink:href="#CMSS17-48"/>
    </g>
   </g>
   <g id="text_43">
    <!-- 0 -->
    <g style="fill:#262626;" transform="translate(143.775084 15.135035)scale(0.096 -0.096)">
     <use transform="scale(0.996264)" xlink:href="#CMSS17-48"/>
    </g>
   </g>
   <g id="text_44">
    <!-- 0 -->
    <g style="fill:#262626;" transform="translate(154.863084 15.135035)scale(0.096 -0.096)">
     <use transform="scale(0.996264)" xlink:href="#CMSS17-48"/>
    </g>
   </g>
   <g id="text_45">
    <!-- 0 -->
    <g style="fill:#262626;" transform="translate(165.951084 15.135035)scale(0.096 -0.096)">
     <use transform="scale(0.996264)" xlink:href="#CMSS17-48"/>
    </g>
   </g>
   <g id="text_46">
    <!-- 0 -->
    <g style="fill:#262626;" transform="translate(177.039084 15.135035)scale(0.096 -0.096)">
     <use transform="scale(0.996264)" xlink:href="#CMSS17-48"/>
    </g>
   </g>
   <g id="text_47">
    <!-- 0 -->
    <g style="fill:#262626;" transform="translate(188.127084 15.135035)scale(0.096 -0.096)">
     <use transform="scale(0.996264)" xlink:href="#CMSS17-48"/>
    </g>
   </g>
   <g id="text_48">
    <!-- 0 -->
    <g style="fill:#262626;" transform="translate(199.215084 15.135035)scale(0.096 -0.096)">
     <use transform="scale(0.996264)" xlink:href="#CMSS17-48"/>
    </g>
   </g>
   <g id="text_49">
    <!-- 0 -->
    <g style="fill:#262626;" transform="translate(210.303084 15.135035)scale(0.096 -0.096)">
     <use transform="scale(0.996264)" xlink:href="#CMSS17-48"/>
    </g>
   </g>
   <g id="text_50">
    <!-- 0 -->
    <g style="fill:#262626;" transform="translate(221.391084 15.135035)scale(0.096 -0.096)">
     <use transform="scale(0.996264)" xlink:href="#CMSS17-48"/>
    </g>
   </g>
   <g id="text_51">
    <!-- 0 -->
    <g style="fill:#262626;" transform="translate(232.479084 15.135035)scale(0.096 -0.096)">
     <use transform="scale(0.996264)" xlink:href="#CMSS17-48"/>
    </g>
   </g>
   <g id="text_52">
    <!-- 0 -->
    <g style="fill:#262626;" transform="translate(243.567084 15.135035)scale(0.096 -0.096)">
     <use transform="scale(0.996264)" xlink:href="#CMSS17-48"/>
    </g>
   </g>
   <g id="text_53">
    <!-- 0 -->
    <g style="fill:#262626;" transform="translate(254.655084 15.135035)scale(0.096 -0.096)">
     <use transform="scale(0.996264)" xlink:href="#CMSS17-48"/>
    </g>
   </g>
   <g id="text_54">
    <!-- 0 -->
    <g style="fill:#262626;" transform="translate(265.743084 15.135035)scale(0.096 -0.096)">
     <use transform="scale(0.996264)" xlink:href="#CMSS17-48"/>
    </g>
   </g>
   <g id="text_55">
    <!-- 0 -->
    <g style="fill:#262626;" transform="translate(276.831084 15.135035)scale(0.096 -0.096)">
     <use transform="scale(0.996264)" xlink:href="#CMSS17-48"/>
    </g>
   </g>
   <g id="text_56">
    <!-- 0 -->
    <g style="fill:#262626;" transform="translate(287.919084 15.135035)scale(0.096 -0.096)">
     <use transform="scale(0.996264)" xlink:href="#CMSS17-48"/>
    </g>
   </g>
   <g id="text_57">
    <!-- 0 -->
    <g style="fill:#262626;" transform="translate(299.007084 15.135035)scale(0.096 -0.096)">
     <use transform="scale(0.996264)" xlink:href="#CMSS17-48"/>
    </g>
   </g>
   <g id="text_58">
    <!-- 0 -->
    <g style="fill:#262626;" transform="translate(310.095084 15.135035)scale(0.096 -0.096)">
     <use transform="scale(0.996264)" xlink:href="#CMSS17-48"/>
    </g>
   </g>
   <g id="text_59">
    <!-- 0 -->
    <g style="fill:#262626;" transform="translate(321.183084 15.135035)scale(0.096 -0.096)">
     <use transform="scale(0.996264)" xlink:href="#CMSS17-48"/>
    </g>
   </g>
   <g id="text_60">
    <!-- 0 -->
    <g style="fill:#262626;" transform="translate(332.271084 15.135035)scale(0.096 -0.096)">
     <use transform="scale(0.996264)" xlink:href="#CMSS17-48"/>
    </g>
   </g>
   <g id="text_61">
    <!-- 0 -->
    <g style="fill:#262626;" transform="translate(343.359084 15.135035)scale(0.096 -0.096)">
     <use transform="scale(0.996264)" xlink:href="#CMSS17-48"/>
    </g>
   </g>
   <g id="text_62">
    <!-- 0 -->
    <g style="fill:#262626;" transform="translate(354.447084 15.135035)scale(0.096 -0.096)">
     <use transform="scale(0.996264)" xlink:href="#CMSS17-48"/>
    </g>
   </g>
   <g id="text_63">
    <!-- 0 -->
    <g style="fill:#262626;" transform="translate(55.071084 26.223035)scale(0.096 -0.096)">
     <use transform="scale(0.996264)" xlink:href="#CMSS17-48"/>
    </g>
   </g>
   <g id="text_64">
    <!-- 0 -->
    <g style="fill:#262626;" transform="translate(66.159084 26.223035)scale(0.096 -0.096)">
     <use transform="scale(0.996264)" xlink:href="#CMSS17-48"/>
    </g>
   </g>
   <g id="text_65">
    <!-- 0 -->
    <g style="fill:#262626;" transform="translate(77.247084 26.223035)scale(0.096 -0.096)">
     <use transform="scale(0.996264)" xlink:href="#CMSS17-48"/>
    </g>
   </g>
   <g id="text_66">
    <!-- 0 -->
    <g style="fill:#262626;" transform="translate(88.335084 26.223035)scale(0.096 -0.096)">
     <use transform="scale(0.996264)" xlink:href="#CMSS17-48"/>
    </g>
   </g>
   <g id="text_67">
    <!-- 0 -->
    <g style="fill:#262626;" transform="translate(99.423084 26.223035)scale(0.096 -0.096)">
     <use transform="scale(0.996264)" xlink:href="#CMSS17-48"/>
    </g>
   </g>
   <g id="text_68">
    <!-- 1 -->
    <defs>
     <path d="M 28.40625 67 
L 26.5 67 
C 21.09375 61.5625 14.796875 60.78125 8.40625 60.78125 
L 8.40625 55 
C 11.296875 55 16 55 20.703125 57.296875 
L 20.703125 5.765625 
L 8.90625 5.765625 
L 8.90625 0 
L 40.203125 0 
L 40.203125 5.765625 
L 28.40625 5.765625 
z
" id="CMSS17-49"/>
    </defs>
    <g style="fill:#262626;" transform="translate(110.511084 26.223035)scale(0.096 -0.096)">
     <use transform="scale(0.996264)" xlink:href="#CMSS17-49"/>
    </g>
   </g>
   <g id="text_69">
    <!-- 0 -->
    <g style="fill:#262626;" transform="translate(121.599084 26.223035)scale(0.096 -0.096)">
     <use transform="scale(0.996264)" xlink:href="#CMSS17-48"/>
    </g>
   </g>
   <g id="text_70">
    <!-- 0 -->
    <g style="fill:#262626;" transform="translate(132.687084 26.223035)scale(0.096 -0.096)">
     <use transform="scale(0.996264)" xlink:href="#CMSS17-48"/>
    </g>
   </g>
   <g id="text_71">
    <!-- 0 -->
    <g style="fill:#262626;" transform="translate(143.775084 26.223035)scale(0.096 -0.096)">
     <use transform="scale(0.996264)" xlink:href="#CMSS17-48"/>
    </g>
   </g>
   <g id="text_72">
    <!-- 0 -->
    <g style="fill:#262626;" transform="translate(154.863084 26.223035)scale(0.096 -0.096)">
     <use transform="scale(0.996264)" xlink:href="#CMSS17-48"/>
    </g>
   </g>
   <g id="text_73">
    <!-- 0 -->
    <g style="fill:#262626;" transform="translate(165.951084 26.223035)scale(0.096 -0.096)">
     <use transform="scale(0.996264)" xlink:href="#CMSS17-48"/>
    </g>
   </g>
   <g id="text_74">
    <!-- 0 -->
    <g style="fill:#262626;" transform="translate(177.039084 26.223035)scale(0.096 -0.096)">
     <use transform="scale(0.996264)" xlink:href="#CMSS17-48"/>
    </g>
   </g>
   <g id="text_75">
    <!-- 0 -->
    <g style="fill:#262626;" transform="translate(188.127084 26.223035)scale(0.096 -0.096)">
     <use transform="scale(0.996264)" xlink:href="#CMSS17-48"/>
    </g>
   </g>
   <g id="text_76">
    <!-- 1 -->
    <g style="fill:#262626;" transform="translate(199.215084 26.223035)scale(0.096 -0.096)">
     <use transform="scale(0.996264)" xlink:href="#CMSS17-49"/>
    </g>
   </g>
   <g id="text_77">
    <!-- 0 -->
    <g style="fill:#262626;" transform="translate(210.303084 26.223035)scale(0.096 -0.096)">
     <use transform="scale(0.996264)" xlink:href="#CMSS17-48"/>
    </g>
   </g>
   <g id="text_78">
    <!-- 0 -->
    <g style="fill:#262626;" transform="translate(221.391084 26.223035)scale(0.096 -0.096)">
     <use transform="scale(0.996264)" xlink:href="#CMSS17-48"/>
    </g>
   </g>
   <g id="text_79">
    <!-- 0 -->
    <g style="fill:#262626;" transform="translate(232.479084 26.223035)scale(0.096 -0.096)">
     <use transform="scale(0.996264)" xlink:href="#CMSS17-48"/>
    </g>
   </g>
   <g id="text_80">
    <!-- 0 -->
    <g style="fill:#262626;" transform="translate(243.567084 26.223035)scale(0.096 -0.096)">
     <use transform="scale(0.996264)" xlink:href="#CMSS17-48"/>
    </g>
   </g>
   <g id="text_81">
    <!-- 0 -->
    <g style="fill:#262626;" transform="translate(254.655084 26.223035)scale(0.096 -0.096)">
     <use transform="scale(0.996264)" xlink:href="#CMSS17-48"/>
    </g>
   </g>
   <g id="text_82">
    <!-- 0 -->
    <g style="fill:#262626;" transform="translate(265.743084 26.223035)scale(0.096 -0.096)">
     <use transform="scale(0.996264)" xlink:href="#CMSS17-48"/>
    </g>
   </g>
   <g id="text_83">
    <!-- 1 -->
    <g style="fill:#262626;" transform="translate(276.831084 26.223035)scale(0.096 -0.096)">
     <use transform="scale(0.996264)" xlink:href="#CMSS17-49"/>
    </g>
   </g>
   <g id="text_84">
    <!-- 0 -->
    <g style="fill:#262626;" transform="translate(287.919084 26.223035)scale(0.096 -0.096)">
     <use transform="scale(0.996264)" xlink:href="#CMSS17-48"/>
    </g>
   </g>
   <g id="text_85">
    <!-- 0 -->
    <g style="fill:#262626;" transform="translate(299.007084 26.223035)scale(0.096 -0.096)">
     <use transform="scale(0.996264)" xlink:href="#CMSS17-48"/>
    </g>
   </g>
   <g id="text_86">
    <!-- 0 -->
    <g style="fill:#262626;" transform="translate(310.095084 26.223035)scale(0.096 -0.096)">
     <use transform="scale(0.996264)" xlink:href="#CMSS17-48"/>
    </g>
   </g>
   <g id="text_87">
    <!-- 0 -->
    <g style="fill:#262626;" transform="translate(321.183084 26.223035)scale(0.096 -0.096)">
     <use transform="scale(0.996264)" xlink:href="#CMSS17-48"/>
    </g>
   </g>
   <g id="text_88">
    <!-- 0 -->
    <g style="fill:#262626;" transform="translate(332.271084 26.223035)scale(0.096 -0.096)">
     <use transform="scale(0.996264)" xlink:href="#CMSS17-48"/>
    </g>
   </g>
   <g id="text_89">
    <!-- 1 -->
    <g style="fill:#262626;" transform="translate(343.359084 26.223035)scale(0.096 -0.096)">
     <use transform="scale(0.996264)" xlink:href="#CMSS17-49"/>
    </g>
   </g>
   <g id="text_90">
    <!-- 0 -->
    <g style="fill:#262626;" transform="translate(354.447084 26.223035)scale(0.096 -0.096)">
     <use transform="scale(0.996264)" xlink:href="#CMSS17-48"/>
    </g>
   </g>
   <g id="text_91">
    <!-- 1 -->
    <g style="fill:#262626;" transform="translate(55.071084 37.311035)scale(0.096 -0.096)">
     <use transform="scale(0.996264)" xlink:href="#CMSS17-49"/>
    </g>
   </g>
   <g id="text_92">
    <!-- 0 -->
    <g style="fill:#262626;" transform="translate(66.159084 37.311035)scale(0.096 -0.096)">
     <use transform="scale(0.996264)" xlink:href="#CMSS17-48"/>
    </g>
   </g>
   <g id="text_93">
    <!-- 1 -->
    <g style="fill:#262626;" transform="translate(77.247084 37.311035)scale(0.096 -0.096)">
     <use transform="scale(0.996264)" xlink:href="#CMSS17-49"/>
    </g>
   </g>
   <g id="text_94">
    <!-- 1 -->
    <g style="fill:#262626;" transform="translate(88.335084 37.311035)scale(0.096 -0.096)">
     <use transform="scale(0.996264)" xlink:href="#CMSS17-49"/>
    </g>
   </g>
   <g id="text_95">
    <!-- 1 -->
    <g style="fill:#262626;" transform="translate(99.423084 37.311035)scale(0.096 -0.096)">
     <use transform="scale(0.996264)" xlink:href="#CMSS17-49"/>
    </g>
   </g>
   <g id="text_96">
    <!-- 0 -->
    <g style="fill:#262626;" transform="translate(110.511084 37.311035)scale(0.096 -0.096)">
     <use transform="scale(0.996264)" xlink:href="#CMSS17-48"/>
    </g>
   </g>
   <g id="text_97">
    <!-- 0 -->
    <g style="fill:#262626;" transform="translate(121.599084 37.311035)scale(0.096 -0.096)">
     <use transform="scale(0.996264)" xlink:href="#CMSS17-48"/>
    </g>
   </g>
   <g id="text_98">
    <!-- 1 -->
    <g style="fill:#262626;" transform="translate(132.687084 37.311035)scale(0.096 -0.096)">
     <use transform="scale(0.996264)" xlink:href="#CMSS17-49"/>
    </g>
   </g>
   <g id="text_99">
    <!-- 0 -->
    <g style="fill:#262626;" transform="translate(143.775084 37.311035)scale(0.096 -0.096)">
     <use transform="scale(0.996264)" xlink:href="#CMSS17-48"/>
    </g>
   </g>
   <g id="text_100">
    <!-- 0 -->
    <g style="fill:#262626;" transform="translate(154.863084 37.311035)scale(0.096 -0.096)">
     <use transform="scale(0.996264)" xlink:href="#CMSS17-48"/>
    </g>
   </g>
   <g id="text_101">
    <!-- 1 -->
    <g style="fill:#262626;" transform="translate(165.951084 37.311035)scale(0.096 -0.096)">
     <use transform="scale(0.996264)" xlink:href="#CMSS17-49"/>
    </g>
   </g>
   <g id="text_102">
    <!-- 0 -->
    <g style="fill:#262626;" transform="translate(177.039084 37.311035)scale(0.096 -0.096)">
     <use transform="scale(0.996264)" xlink:href="#CMSS17-48"/>
    </g>
   </g>
   <g id="text_103">
    <!-- 0 -->
    <g style="fill:#262626;" transform="translate(188.127084 37.311035)scale(0.096 -0.096)">
     <use transform="scale(0.996264)" xlink:href="#CMSS17-48"/>
    </g>
   </g>
   <g id="text_104">
    <!-- 0 -->
    <g style="fill:#262626;" transform="translate(199.215084 37.311035)scale(0.096 -0.096)">
     <use transform="scale(0.996264)" xlink:href="#CMSS17-48"/>
    </g>
   </g>
   <g id="text_105">
    <!-- 1 -->
    <g style="fill:#262626;" transform="translate(210.303084 37.311035)scale(0.096 -0.096)">
     <use transform="scale(0.996264)" xlink:href="#CMSS17-49"/>
    </g>
   </g>
   <g id="text_106">
    <!-- 0 -->
    <g style="fill:#262626;" transform="translate(221.391084 37.311035)scale(0.096 -0.096)">
     <use transform="scale(0.996264)" xlink:href="#CMSS17-48"/>
    </g>
   </g>
   <g id="text_107">
    <!-- 0 -->
    <g style="fill:#262626;" transform="translate(232.479084 37.311035)scale(0.096 -0.096)">
     <use transform="scale(0.996264)" xlink:href="#CMSS17-48"/>
    </g>
   </g>
   <g id="text_108">
    <!-- 1 -->
    <g style="fill:#262626;" transform="translate(243.567084 37.311035)scale(0.096 -0.096)">
     <use transform="scale(0.996264)" xlink:href="#CMSS17-49"/>
    </g>
   </g>
   <g id="text_109">
    <!-- 0 -->
    <g style="fill:#262626;" transform="translate(254.655084 37.311035)scale(0.096 -0.096)">
     <use transform="scale(0.996264)" xlink:href="#CMSS17-48"/>
    </g>
   </g>
   <g id="text_110">
    <!-- 0 -->
    <g style="fill:#262626;" transform="translate(265.743084 37.311035)scale(0.096 -0.096)">
     <use transform="scale(0.996264)" xlink:href="#CMSS17-48"/>
    </g>
   </g>
   <g id="text_111">
    <!-- 0 -->
    <g style="fill:#262626;" transform="translate(276.831084 37.311035)scale(0.096 -0.096)">
     <use transform="scale(0.996264)" xlink:href="#CMSS17-48"/>
    </g>
   </g>
   <g id="text_112">
    <!-- 1 -->
    <g style="fill:#262626;" transform="translate(287.919084 37.311035)scale(0.096 -0.096)">
     <use transform="scale(0.996264)" xlink:href="#CMSS17-49"/>
    </g>
   </g>
   <g id="text_113">
    <!-- 0 -->
    <g style="fill:#262626;" transform="translate(299.007084 37.311035)scale(0.096 -0.096)">
     <use transform="scale(0.996264)" xlink:href="#CMSS17-48"/>
    </g>
   </g>
   <g id="text_114">
    <!-- 0 -->
    <g style="fill:#262626;" transform="translate(310.095084 37.311035)scale(0.096 -0.096)">
     <use transform="scale(0.996264)" xlink:href="#CMSS17-48"/>
    </g>
   </g>
   <g id="text_115">
    <!-- 1 -->
    <g style="fill:#262626;" transform="translate(321.183084 37.311035)scale(0.096 -0.096)">
     <use transform="scale(0.996264)" xlink:href="#CMSS17-49"/>
    </g>
   </g>
   <g id="text_116">
    <!-- 0 -->
    <g style="fill:#262626;" transform="translate(332.271084 37.311035)scale(0.096 -0.096)">
     <use transform="scale(0.996264)" xlink:href="#CMSS17-48"/>
    </g>
   </g>
   <g id="text_117">
    <!-- 0 -->
    <g style="fill:#262626;" transform="translate(343.359084 37.311035)scale(0.096 -0.096)">
     <use transform="scale(0.996264)" xlink:href="#CMSS17-48"/>
    </g>
   </g>
   <g id="text_118">
    <!-- 0 -->
    <g style="fill:#262626;" transform="translate(354.447084 37.311035)scale(0.096 -0.096)">
     <use transform="scale(0.996264)" xlink:href="#CMSS17-48"/>
    </g>
   </g>
   <g id="text_119">
    <!-- 1 -->
    <g style="fill:#262626;" transform="translate(55.071084 48.399035)scale(0.096 -0.096)">
     <use transform="scale(0.996264)" xlink:href="#CMSS17-49"/>
    </g>
   </g>
   <g id="text_120">
    <!-- 0 -->
    <g style="fill:#262626;" transform="translate(66.159084 48.399035)scale(0.096 -0.096)">
     <use transform="scale(0.996264)" xlink:href="#CMSS17-48"/>
    </g>
   </g>
   <g id="text_121">
    <!-- 0 -->
    <g style="fill:#262626;" transform="translate(77.247084 48.399035)scale(0.096 -0.096)">
     <use transform="scale(0.996264)" xlink:href="#CMSS17-48"/>
    </g>
   </g>
   <g id="text_122">
    <!-- 1 -->
    <g style="fill:#262626;" transform="translate(88.335084 48.399035)scale(0.096 -0.096)">
     <use transform="scale(0.996264)" xlink:href="#CMSS17-49"/>
    </g>
   </g>
   <g id="text_123">
    <!-- 0 -->
    <g style="fill:#262626;" transform="translate(99.423084 48.399035)scale(0.096 -0.096)">
     <use transform="scale(0.996264)" xlink:href="#CMSS17-48"/>
    </g>
   </g>
   <g id="text_124">
    <!-- 0 -->
    <g style="fill:#262626;" transform="translate(110.511084 48.399035)scale(0.096 -0.096)">
     <use transform="scale(0.996264)" xlink:href="#CMSS17-48"/>
    </g>
   </g>
   <g id="text_125">
    <!-- 0 -->
    <g style="fill:#262626;" transform="translate(121.599084 48.399035)scale(0.096 -0.096)">
     <use transform="scale(0.996264)" xlink:href="#CMSS17-48"/>
    </g>
   </g>
   <g id="text_126">
    <!-- 1 -->
    <g style="fill:#262626;" transform="translate(132.687084 48.399035)scale(0.096 -0.096)">
     <use transform="scale(0.996264)" xlink:href="#CMSS17-49"/>
    </g>
   </g>
   <g id="text_127">
    <!-- 0 -->
    <g style="fill:#262626;" transform="translate(143.775084 48.399035)scale(0.096 -0.096)">
     <use transform="scale(0.996264)" xlink:href="#CMSS17-48"/>
    </g>
   </g>
   <g id="text_128">
    <!-- 0 -->
    <g style="fill:#262626;" transform="translate(154.863084 48.399035)scale(0.096 -0.096)">
     <use transform="scale(0.996264)" xlink:href="#CMSS17-48"/>
    </g>
   </g>
   <g id="text_129">
    <!-- 1 -->
    <g style="fill:#262626;" transform="translate(165.951084 48.399035)scale(0.096 -0.096)">
     <use transform="scale(0.996264)" xlink:href="#CMSS17-49"/>
    </g>
   </g>
   <g id="text_130">
    <!-- 0 -->
    <g style="fill:#262626;" transform="translate(177.039084 48.399035)scale(0.096 -0.096)">
     <use transform="scale(0.996264)" xlink:href="#CMSS17-48"/>
    </g>
   </g>
   <g id="text_131">
    <!-- 0 -->
    <g style="fill:#262626;" transform="translate(188.127084 48.399035)scale(0.096 -0.096)">
     <use transform="scale(0.996264)" xlink:href="#CMSS17-48"/>
    </g>
   </g>
   <g id="text_132">
    <!-- 0 -->
    <g style="fill:#262626;" transform="translate(199.215084 48.399035)scale(0.096 -0.096)">
     <use transform="scale(0.996264)" xlink:href="#CMSS17-48"/>
    </g>
   </g>
   <g id="text_133">
    <!-- 1 -->
    <g style="fill:#262626;" transform="translate(210.303084 48.399035)scale(0.096 -0.096)">
     <use transform="scale(0.996264)" xlink:href="#CMSS17-49"/>
    </g>
   </g>
   <g id="text_134">
    <!-- 0 -->
    <g style="fill:#262626;" transform="translate(221.391084 48.399035)scale(0.096 -0.096)">
     <use transform="scale(0.996264)" xlink:href="#CMSS17-48"/>
    </g>
   </g>
   <g id="text_135">
    <!-- 0 -->
    <g style="fill:#262626;" transform="translate(232.479084 48.399035)scale(0.096 -0.096)">
     <use transform="scale(0.996264)" xlink:href="#CMSS17-48"/>
    </g>
   </g>
   <g id="text_136">
    <!-- 1 -->
    <g style="fill:#262626;" transform="translate(243.567084 48.399035)scale(0.096 -0.096)">
     <use transform="scale(0.996264)" xlink:href="#CMSS17-49"/>
    </g>
   </g>
   <g id="text_137">
    <!-- 0 -->
    <g style="fill:#262626;" transform="translate(254.655084 48.399035)scale(0.096 -0.096)">
     <use transform="scale(0.996264)" xlink:href="#CMSS17-48"/>
    </g>
   </g>
   <g id="text_138">
    <!-- 0 -->
    <g style="fill:#262626;" transform="translate(265.743084 48.399035)scale(0.096 -0.096)">
     <use transform="scale(0.996264)" xlink:href="#CMSS17-48"/>
    </g>
   </g>
   <g id="text_139">
    <!-- 0 -->
    <g style="fill:#262626;" transform="translate(276.831084 48.399035)scale(0.096 -0.096)">
     <use transform="scale(0.996264)" xlink:href="#CMSS17-48"/>
    </g>
   </g>
   <g id="text_140">
    <!-- 1 -->
    <g style="fill:#262626;" transform="translate(287.919084 48.399035)scale(0.096 -0.096)">
     <use transform="scale(0.996264)" xlink:href="#CMSS17-49"/>
    </g>
   </g>
   <g id="text_141">
    <!-- 0 -->
    <g style="fill:#262626;" transform="translate(299.007084 48.399035)scale(0.096 -0.096)">
     <use transform="scale(0.996264)" xlink:href="#CMSS17-48"/>
    </g>
   </g>
   <g id="text_142">
    <!-- 1 -->
    <g style="fill:#262626;" transform="translate(310.095084 48.399035)scale(0.096 -0.096)">
     <use transform="scale(0.996264)" xlink:href="#CMSS17-49"/>
    </g>
   </g>
   <g id="text_143">
    <!-- 1 -->
    <g style="fill:#262626;" transform="translate(321.183084 48.399035)scale(0.096 -0.096)">
     <use transform="scale(0.996264)" xlink:href="#CMSS17-49"/>
    </g>
   </g>
   <g id="text_144">
    <!-- 1 -->
    <g style="fill:#262626;" transform="translate(332.271084 48.399035)scale(0.096 -0.096)">
     <use transform="scale(0.996264)" xlink:href="#CMSS17-49"/>
    </g>
   </g>
   <g id="text_145">
    <!-- 0 -->
    <g style="fill:#262626;" transform="translate(343.359084 48.399035)scale(0.096 -0.096)">
     <use transform="scale(0.996264)" xlink:href="#CMSS17-48"/>
    </g>
   </g>
   <g id="text_146">
    <!-- 0 -->
    <g style="fill:#262626;" transform="translate(354.447084 48.399035)scale(0.096 -0.096)">
     <use transform="scale(0.996264)" xlink:href="#CMSS17-48"/>
    </g>
   </g>
   <g id="text_147">
    <!-- 1 -->
    <g style="fill:#262626;" transform="translate(55.071084 59.487035)scale(0.096 -0.096)">
     <use transform="scale(0.996264)" xlink:href="#CMSS17-49"/>
    </g>
   </g>
   <g id="text_148">
    <!-- 0 -->
    <g style="fill:#262626;" transform="translate(66.159084 59.487035)scale(0.096 -0.096)">
     <use transform="scale(0.996264)" xlink:href="#CMSS17-48"/>
    </g>
   </g>
   <g id="text_149">
    <!-- 0 -->
    <g style="fill:#262626;" transform="translate(77.247084 59.487035)scale(0.096 -0.096)">
     <use transform="scale(0.996264)" xlink:href="#CMSS17-48"/>
    </g>
   </g>
   <g id="text_150">
    <!-- 1 -->
    <g style="fill:#262626;" transform="translate(88.335084 59.487035)scale(0.096 -0.096)">
     <use transform="scale(0.996264)" xlink:href="#CMSS17-49"/>
    </g>
   </g>
   <g id="text_151">
    <!-- 0 -->
    <g style="fill:#262626;" transform="translate(99.423084 59.487035)scale(0.096 -0.096)">
     <use transform="scale(0.996264)" xlink:href="#CMSS17-48"/>
    </g>
   </g>
   <g id="text_152">
    <!-- 0 -->
    <g style="fill:#262626;" transform="translate(110.511084 59.487035)scale(0.096 -0.096)">
     <use transform="scale(0.996264)" xlink:href="#CMSS17-48"/>
    </g>
   </g>
   <g id="text_153">
    <!-- 0 -->
    <g style="fill:#262626;" transform="translate(121.599084 59.487035)scale(0.096 -0.096)">
     <use transform="scale(0.996264)" xlink:href="#CMSS17-48"/>
    </g>
   </g>
   <g id="text_154">
    <!-- 1 -->
    <g style="fill:#262626;" transform="translate(132.687084 59.487035)scale(0.096 -0.096)">
     <use transform="scale(0.996264)" xlink:href="#CMSS17-49"/>
    </g>
   </g>
   <g id="text_155">
    <!-- 0 -->
    <g style="fill:#262626;" transform="translate(143.775084 59.487035)scale(0.096 -0.096)">
     <use transform="scale(0.996264)" xlink:href="#CMSS17-48"/>
    </g>
   </g>
   <g id="text_156">
    <!-- 0 -->
    <g style="fill:#262626;" transform="translate(154.863084 59.487035)scale(0.096 -0.096)">
     <use transform="scale(0.996264)" xlink:href="#CMSS17-48"/>
    </g>
   </g>
   <g id="text_157">
    <!-- 1 -->
    <g style="fill:#262626;" transform="translate(165.951084 59.487035)scale(0.096 -0.096)">
     <use transform="scale(0.996264)" xlink:href="#CMSS17-49"/>
    </g>
   </g>
   <g id="text_158">
    <!-- 0 -->
    <g style="fill:#262626;" transform="translate(177.039084 59.487035)scale(0.096 -0.096)">
     <use transform="scale(0.996264)" xlink:href="#CMSS17-48"/>
    </g>
   </g>
   <g id="text_159">
    <!-- 0 -->
    <g style="fill:#262626;" transform="translate(188.127084 59.487035)scale(0.096 -0.096)">
     <use transform="scale(0.996264)" xlink:href="#CMSS17-48"/>
    </g>
   </g>
   <g id="text_160">
    <!-- 0 -->
    <g style="fill:#262626;" transform="translate(199.215084 59.487035)scale(0.096 -0.096)">
     <use transform="scale(0.996264)" xlink:href="#CMSS17-48"/>
    </g>
   </g>
   <g id="text_161">
    <!-- 1 -->
    <g style="fill:#262626;" transform="translate(210.303084 59.487035)scale(0.096 -0.096)">
     <use transform="scale(0.996264)" xlink:href="#CMSS17-49"/>
    </g>
   </g>
   <g id="text_162">
    <!-- 0 -->
    <g style="fill:#262626;" transform="translate(221.391084 59.487035)scale(0.096 -0.096)">
     <use transform="scale(0.996264)" xlink:href="#CMSS17-48"/>
    </g>
   </g>
   <g id="text_163">
    <!-- 0 -->
    <g style="fill:#262626;" transform="translate(232.479084 59.487035)scale(0.096 -0.096)">
     <use transform="scale(0.996264)" xlink:href="#CMSS17-48"/>
    </g>
   </g>
   <g id="text_164">
    <!-- 1 -->
    <g style="fill:#262626;" transform="translate(243.567084 59.487035)scale(0.096 -0.096)">
     <use transform="scale(0.996264)" xlink:href="#CMSS17-49"/>
    </g>
   </g>
   <g id="text_165">
    <!-- 0 -->
    <g style="fill:#262626;" transform="translate(254.655084 59.487035)scale(0.096 -0.096)">
     <use transform="scale(0.996264)" xlink:href="#CMSS17-48"/>
    </g>
   </g>
   <g id="text_166">
    <!-- 0 -->
    <g style="fill:#262626;" transform="translate(265.743084 59.487035)scale(0.096 -0.096)">
     <use transform="scale(0.996264)" xlink:href="#CMSS17-48"/>
    </g>
   </g>
   <g id="text_167">
    <!-- 0 -->
    <g style="fill:#262626;" transform="translate(276.831084 59.487035)scale(0.096 -0.096)">
     <use transform="scale(0.996264)" xlink:href="#CMSS17-48"/>
    </g>
   </g>
   <g id="text_168">
    <!-- 1 -->
    <g style="fill:#262626;" transform="translate(287.919084 59.487035)scale(0.096 -0.096)">
     <use transform="scale(0.996264)" xlink:href="#CMSS17-49"/>
    </g>
   </g>
   <g id="text_169">
    <!-- 0 -->
    <g style="fill:#262626;" transform="translate(299.007084 59.487035)scale(0.096 -0.096)">
     <use transform="scale(0.996264)" xlink:href="#CMSS17-48"/>
    </g>
   </g>
   <g id="text_170">
    <!-- 1 -->
    <g style="fill:#262626;" transform="translate(310.095084 59.487035)scale(0.096 -0.096)">
     <use transform="scale(0.996264)" xlink:href="#CMSS17-49"/>
    </g>
   </g>
   <g id="text_171">
    <!-- 1 -->
    <g style="fill:#262626;" transform="translate(321.183084 59.487035)scale(0.096 -0.096)">
     <use transform="scale(0.996264)" xlink:href="#CMSS17-49"/>
    </g>
   </g>
   <g id="text_172">
    <!-- 1 -->
    <g style="fill:#262626;" transform="translate(332.271084 59.487035)scale(0.096 -0.096)">
     <use transform="scale(0.996264)" xlink:href="#CMSS17-49"/>
    </g>
   </g>
   <g id="text_173">
    <!-- 0 -->
    <g style="fill:#262626;" transform="translate(343.359084 59.487035)scale(0.096 -0.096)">
     <use transform="scale(0.996264)" xlink:href="#CMSS17-48"/>
    </g>
   </g>
   <g id="text_174">
    <!-- 0 -->
    <g style="fill:#262626;" transform="translate(354.447084 59.487035)scale(0.096 -0.096)">
     <use transform="scale(0.996264)" xlink:href="#CMSS17-48"/>
    </g>
   </g>
  </g>
 </g>
 <defs>
  <clipPath id="pbb7cbfb8a2">
   <rect height="55.44" width="310.464" x="51.984521" y="7.2"/>
  </clipPath>
 </defs>
</svg>
